%TF.GenerationSoftware,KiCad,Pcbnew,7.0.8*%
%TF.CreationDate,2026-03-06T14:37:51-05:00*%
%TF.ProjectId,1130MRAM,31313330-4d52-4414-9d2e-6b696361645f,rev?*%
%TF.SameCoordinates,Original*%
%TF.FileFunction,Soldermask,Top*%
%TF.FilePolarity,Negative*%
%FSLAX46Y46*%
G04 Gerber Fmt 4.6, Leading zero omitted, Abs format (unit mm)*
G04 Created by KiCad (PCBNEW 7.0.8) date 2026-03-06 14:37:51*
%MOMM*%
%LPD*%
G01*
G04 APERTURE LIST*
G04 Aperture macros list*
%AMRoundRect*
0 Rectangle with rounded corners*
0 $1 Rounding radius*
0 $2 $3 $4 $5 $6 $7 $8 $9 X,Y pos of 4 corners*
0 Add a 4 corners polygon primitive as box body*
4,1,4,$2,$3,$4,$5,$6,$7,$8,$9,$2,$3,0*
0 Add four circle primitives for the rounded corners*
1,1,$1+$1,$2,$3*
1,1,$1+$1,$4,$5*
1,1,$1+$1,$6,$7*
1,1,$1+$1,$8,$9*
0 Add four rect primitives between the rounded corners*
20,1,$1+$1,$2,$3,$4,$5,0*
20,1,$1+$1,$4,$5,$6,$7,0*
20,1,$1+$1,$6,$7,$8,$9,0*
20,1,$1+$1,$8,$9,$2,$3,0*%
G04 Aperture macros list end*
%ADD10RoundRect,0.250000X0.262500X0.450000X-0.262500X0.450000X-0.262500X-0.450000X0.262500X-0.450000X0*%
%ADD11RoundRect,0.100000X-0.637500X-0.100000X0.637500X-0.100000X0.637500X0.100000X-0.637500X0.100000X0*%
%ADD12R,1.700000X1.700000*%
%ADD13O,1.700000X1.700000*%
%ADD14RoundRect,0.150000X-0.587500X-0.150000X0.587500X-0.150000X0.587500X0.150000X-0.587500X0.150000X0*%
%ADD15RoundRect,0.250000X-0.250000X-0.475000X0.250000X-0.475000X0.250000X0.475000X-0.250000X0.475000X0*%
%ADD16RoundRect,0.250000X-0.262500X-0.450000X0.262500X-0.450000X0.262500X0.450000X-0.262500X0.450000X0*%
%ADD17RoundRect,0.150000X0.150000X-0.587500X0.150000X0.587500X-0.150000X0.587500X-0.150000X-0.587500X0*%
%ADD18RoundRect,0.250000X-0.450000X0.262500X-0.450000X-0.262500X0.450000X-0.262500X0.450000X0.262500X0*%
%ADD19RoundRect,0.250000X-1.550000X0.650000X-1.550000X-0.650000X1.550000X-0.650000X1.550000X0.650000X0*%
%ADD20O,3.600000X1.800000*%
%ADD21C,4.300000*%
%ADD22RoundRect,0.142000X-0.680000X-0.120000X0.680000X-0.120000X0.680000X0.120000X-0.680000X0.120000X0*%
%ADD23RoundRect,0.150000X0.587500X0.150000X-0.587500X0.150000X-0.587500X-0.150000X0.587500X-0.150000X0*%
%ADD24RoundRect,0.250000X0.475000X-0.250000X0.475000X0.250000X-0.475000X0.250000X-0.475000X-0.250000X0*%
%ADD25RoundRect,0.153250X-0.153750X0.733750X-0.153750X-0.733750X0.153750X-0.733750X0.153750X0.733750X0*%
%ADD26RoundRect,0.150000X-0.825000X-0.150000X0.825000X-0.150000X0.825000X0.150000X-0.825000X0.150000X0*%
%ADD27RoundRect,0.250000X0.450000X-0.262500X0.450000X0.262500X-0.450000X0.262500X-0.450000X-0.262500X0*%
%ADD28R,1.560000X0.650000*%
%ADD29RoundRect,0.153250X0.153750X-0.733750X0.153750X0.733750X-0.153750X0.733750X-0.153750X-0.733750X0*%
%ADD30R,1.500000X2.000000*%
%ADD31R,3.800000X2.000000*%
%ADD32RoundRect,0.250001X0.799999X0.799999X-0.799999X0.799999X-0.799999X-0.799999X0.799999X-0.799999X0*%
G04 APERTURE END LIST*
D10*
%TO.C,R6*%
X249425000Y-81675000D03*
X247600000Y-81675000D03*
%TD*%
D11*
%TO.C,U11*%
X235837500Y-71575000D03*
X235837500Y-72225000D03*
X235837500Y-72875000D03*
X235837500Y-73525000D03*
X235837500Y-74175000D03*
X235837500Y-74825000D03*
X235837500Y-75475000D03*
X241562500Y-75475000D03*
X241562500Y-74825000D03*
X241562500Y-74175000D03*
X241562500Y-73525000D03*
X241562500Y-72875000D03*
X241562500Y-72225000D03*
X241562500Y-71575000D03*
%TD*%
D12*
%TO.C,J1*%
X99060000Y-97790000D03*
D13*
X96520000Y-97790000D03*
X93980000Y-97790000D03*
X91440000Y-97790000D03*
X88900000Y-97790000D03*
X86360000Y-97790000D03*
X83820000Y-97790000D03*
X81280000Y-97790000D03*
X78740000Y-97790000D03*
%TD*%
D10*
%TO.C,R13*%
X59962500Y-94650000D03*
X58137500Y-94650000D03*
%TD*%
D14*
%TO.C,IC12*%
X40537500Y-74725000D03*
X40537500Y-76625000D03*
X42412500Y-75675000D03*
%TD*%
D15*
%TO.C,C5*%
X93725000Y-80825000D03*
X95625000Y-80825000D03*
%TD*%
D16*
%TO.C,R11*%
X183137500Y-71875000D03*
X184962500Y-71875000D03*
%TD*%
%TO.C,R12*%
X253537500Y-102950000D03*
X255362500Y-102950000D03*
%TD*%
D17*
%TO.C,IC8*%
X65600000Y-93187500D03*
X67500000Y-93187500D03*
X66550000Y-91312500D03*
%TD*%
D18*
%TO.C,R17*%
X36125000Y-59650000D03*
X36125000Y-61475000D03*
%TD*%
D19*
%TO.C,J5*%
X109750000Y-101125000D03*
D20*
X109750000Y-106205000D03*
%TD*%
D11*
%TO.C,U18*%
X184787500Y-112975000D03*
X184787500Y-113625000D03*
X184787500Y-114275000D03*
X184787500Y-114925000D03*
X184787500Y-115575000D03*
X184787500Y-116225000D03*
X184787500Y-116875000D03*
X190512500Y-116875000D03*
X190512500Y-116225000D03*
X190512500Y-115575000D03*
X190512500Y-114925000D03*
X190512500Y-114275000D03*
X190512500Y-113625000D03*
X190512500Y-112975000D03*
%TD*%
%TO.C,U16*%
X215550000Y-88475000D03*
X215550000Y-89125000D03*
X215550000Y-89775000D03*
X215550000Y-90425000D03*
X215550000Y-91075000D03*
X215550000Y-91725000D03*
X215550000Y-92375000D03*
X221275000Y-92375000D03*
X221275000Y-91725000D03*
X221275000Y-91075000D03*
X221275000Y-90425000D03*
X221275000Y-89775000D03*
X221275000Y-89125000D03*
X221275000Y-88475000D03*
%TD*%
D14*
%TO.C,IC14*%
X40612500Y-59725000D03*
X40612500Y-61625000D03*
X42487500Y-60675000D03*
%TD*%
%TO.C,IC17*%
X181187500Y-76925000D03*
X181187500Y-78825000D03*
X183062500Y-77875000D03*
%TD*%
D17*
%TO.C,IC10*%
X77250000Y-92150000D03*
X79150000Y-92150000D03*
X78200000Y-90275000D03*
%TD*%
D21*
%TO.C,H2*%
X255900000Y-87725000D03*
%TD*%
D16*
%TO.C,R15*%
X71725000Y-96800000D03*
X73550000Y-96800000D03*
%TD*%
D17*
%TO.C,IC13*%
X46900000Y-83612500D03*
X48800000Y-83612500D03*
X47850000Y-81737500D03*
%TD*%
%TO.C,IC9*%
X71625000Y-92225000D03*
X73525000Y-92225000D03*
X72575000Y-90350000D03*
%TD*%
D22*
%TO.C,U1*%
X142170000Y-86470000D03*
X142170000Y-87270000D03*
X142170000Y-88070000D03*
X142170000Y-88870000D03*
X142170000Y-89670000D03*
X142170000Y-90470000D03*
X142170000Y-91270000D03*
X142170000Y-92070000D03*
X142170000Y-92870000D03*
X142170000Y-93670000D03*
X142170000Y-94470000D03*
X142170000Y-95270000D03*
X142170000Y-96070000D03*
X142170000Y-96870000D03*
X142170000Y-97670000D03*
X142170000Y-98470000D03*
X142170000Y-99270000D03*
X142170000Y-100070000D03*
X142170000Y-100870000D03*
X142170000Y-101670000D03*
X142170000Y-102470000D03*
X142170000Y-103270000D03*
X153410000Y-103270000D03*
X153410000Y-102470000D03*
X153410000Y-101670000D03*
X153410000Y-100870000D03*
X153410000Y-100070000D03*
X153410000Y-99270000D03*
X153410000Y-98470000D03*
X153410000Y-97670000D03*
X153410000Y-96870000D03*
X153410000Y-96070000D03*
X153410000Y-95270000D03*
X153410000Y-94470000D03*
X153410000Y-93670000D03*
X153410000Y-92870000D03*
X153410000Y-92070000D03*
X153410000Y-91270000D03*
X153410000Y-90470000D03*
X153410000Y-89670000D03*
X153410000Y-88870000D03*
X153410000Y-88070000D03*
X153410000Y-87270000D03*
X153410000Y-86470000D03*
%TD*%
D16*
%TO.C,R18*%
X46937500Y-87475000D03*
X48762500Y-87475000D03*
%TD*%
D12*
%TO.C,J3*%
X60960000Y-97790000D03*
D13*
X58420000Y-97790000D03*
X55880000Y-97790000D03*
X53340000Y-97790000D03*
X50800000Y-97790000D03*
X48260000Y-97790000D03*
X45720000Y-97790000D03*
X43180000Y-97790000D03*
X40640000Y-97790000D03*
%TD*%
D23*
%TO.C,IC15*%
X144237500Y-61225000D03*
X144237500Y-59325000D03*
X142362500Y-60275000D03*
%TD*%
D17*
%TO.C,IC4*%
X249575000Y-78862500D03*
X251475000Y-78862500D03*
X250525000Y-76987500D03*
%TD*%
D24*
%TO.C,C4*%
X83725000Y-90525000D03*
X83725000Y-88625000D03*
%TD*%
D16*
%TO.C,R4*%
X255562500Y-71875000D03*
X257387500Y-71875000D03*
%TD*%
D14*
%TO.C,IC11*%
X40537500Y-67475000D03*
X40537500Y-69375000D03*
X42412500Y-68425000D03*
%TD*%
D25*
%TO.C,U3*%
X167980000Y-90870000D03*
X167330000Y-90870000D03*
X166680000Y-90870000D03*
X166030000Y-90870000D03*
X165380000Y-90870000D03*
X164730000Y-90870000D03*
X164080000Y-90870000D03*
X163430000Y-90870000D03*
X162780000Y-90870000D03*
X162130000Y-90870000D03*
X162130000Y-96610000D03*
X162780000Y-96610000D03*
X163430000Y-96610000D03*
X164080000Y-96610000D03*
X164730000Y-96610000D03*
X165380000Y-96610000D03*
X166030000Y-96610000D03*
X166680000Y-96610000D03*
X167330000Y-96610000D03*
X167980000Y-96610000D03*
%TD*%
D15*
%TO.C,C2*%
X44725000Y-102875000D03*
X46625000Y-102875000D03*
%TD*%
D24*
%TO.C,C3*%
X88700000Y-105950000D03*
X88700000Y-104050000D03*
%TD*%
D11*
%TO.C,U15*%
X100017500Y-65810000D03*
X100017500Y-66460000D03*
X100017500Y-67110000D03*
X100017500Y-67760000D03*
X100017500Y-68410000D03*
X100017500Y-69060000D03*
X100017500Y-69710000D03*
X105742500Y-69710000D03*
X105742500Y-69060000D03*
X105742500Y-68410000D03*
X105742500Y-67760000D03*
X105742500Y-67110000D03*
X105742500Y-66460000D03*
X105742500Y-65810000D03*
%TD*%
D12*
%TO.C,J2*%
X99060000Y-113030000D03*
D13*
X96520000Y-113030000D03*
X93980000Y-113030000D03*
X91440000Y-113030000D03*
X88900000Y-113030000D03*
X86360000Y-113030000D03*
X83820000Y-113030000D03*
X81280000Y-113030000D03*
X78740000Y-113030000D03*
%TD*%
D11*
%TO.C,U9*%
X206487500Y-71550000D03*
X206487500Y-72200000D03*
X206487500Y-72850000D03*
X206487500Y-73500000D03*
X206487500Y-74150000D03*
X206487500Y-74800000D03*
X206487500Y-75450000D03*
X212212500Y-75450000D03*
X212212500Y-74800000D03*
X212212500Y-74150000D03*
X212212500Y-73500000D03*
X212212500Y-72850000D03*
X212212500Y-72200000D03*
X212212500Y-71550000D03*
%TD*%
%TO.C,U7*%
X54887500Y-78950000D03*
X54887500Y-79600000D03*
X54887500Y-80250000D03*
X54887500Y-80900000D03*
X54887500Y-81550000D03*
X54887500Y-82200000D03*
X54887500Y-82850000D03*
X60612500Y-82850000D03*
X60612500Y-82200000D03*
X60612500Y-81550000D03*
X60612500Y-80900000D03*
X60612500Y-80250000D03*
X60612500Y-79600000D03*
X60612500Y-78950000D03*
%TD*%
D23*
%TO.C,IC1*%
X257512500Y-76500000D03*
X257512500Y-74600000D03*
X255637500Y-75550000D03*
%TD*%
D12*
%TO.C,J4*%
X60960000Y-113030000D03*
D13*
X58420000Y-113030000D03*
X55880000Y-113030000D03*
X53340000Y-113030000D03*
X50800000Y-113030000D03*
X48260000Y-113030000D03*
X45720000Y-113030000D03*
X43180000Y-113030000D03*
X40640000Y-113030000D03*
%TD*%
D26*
%TO.C,U14*%
X203020000Y-101310000D03*
X203020000Y-102580000D03*
X203020000Y-103850000D03*
X203020000Y-105120000D03*
X203020000Y-106390000D03*
X203020000Y-107660000D03*
X203020000Y-108930000D03*
X207970000Y-108930000D03*
X207970000Y-107660000D03*
X207970000Y-106390000D03*
X207970000Y-105120000D03*
X207970000Y-103850000D03*
X207970000Y-102580000D03*
X207970000Y-101310000D03*
%TD*%
D27*
%TO.C,R21*%
X147250000Y-61300000D03*
X147250000Y-59475000D03*
%TD*%
D11*
%TO.C,U17*%
X116725000Y-112375000D03*
X116725000Y-113025000D03*
X116725000Y-113675000D03*
X116725000Y-114325000D03*
X116725000Y-114975000D03*
X116725000Y-115625000D03*
X116725000Y-116275000D03*
X122450000Y-116275000D03*
X122450000Y-115625000D03*
X122450000Y-114975000D03*
X122450000Y-114325000D03*
X122450000Y-113675000D03*
X122450000Y-113025000D03*
X122450000Y-112375000D03*
%TD*%
D18*
%TO.C,R23*%
X179025000Y-77525000D03*
X179025000Y-79350000D03*
%TD*%
D16*
%TO.C,R3*%
X255900000Y-79175000D03*
X257725000Y-79175000D03*
%TD*%
D24*
%TO.C,C1*%
X46625000Y-108300000D03*
X46625000Y-106400000D03*
%TD*%
D28*
%TO.C,U6*%
X74925000Y-106250000D03*
X74925000Y-105300000D03*
X74925000Y-104350000D03*
X72225000Y-104350000D03*
X72225000Y-106250000D03*
%TD*%
D10*
%TO.C,R14*%
X67425000Y-96575000D03*
X65600000Y-96575000D03*
%TD*%
%TO.C,R22*%
X146087500Y-70400000D03*
X144262500Y-70400000D03*
%TD*%
D29*
%TO.C,U2*%
X129660000Y-97040000D03*
X130310000Y-97040000D03*
X130960000Y-97040000D03*
X131610000Y-97040000D03*
X132260000Y-97040000D03*
X132910000Y-97040000D03*
X133560000Y-97040000D03*
X134210000Y-97040000D03*
X134860000Y-97040000D03*
X135510000Y-97040000D03*
X135510000Y-91300000D03*
X134860000Y-91300000D03*
X134210000Y-91300000D03*
X133560000Y-91300000D03*
X132910000Y-91300000D03*
X132260000Y-91300000D03*
X131610000Y-91300000D03*
X130960000Y-91300000D03*
X130310000Y-91300000D03*
X129660000Y-91300000D03*
%TD*%
D10*
%TO.C,R5*%
X257625000Y-64550000D03*
X255800000Y-64550000D03*
%TD*%
D17*
%TO.C,IC18*%
X245200000Y-89512500D03*
X247100000Y-89512500D03*
X246150000Y-87637500D03*
%TD*%
%TO.C,IC6*%
X255400000Y-99062500D03*
X257300000Y-99062500D03*
X256350000Y-97187500D03*
%TD*%
D30*
%TO.C,U5*%
X35950000Y-108300000D03*
X38250000Y-108300000D03*
D31*
X38250000Y-102000000D03*
D30*
X40550000Y-108300000D03*
%TD*%
D18*
%TO.C,R20*%
X35875000Y-67512500D03*
X35875000Y-69337500D03*
%TD*%
D11*
%TO.C,U8*%
X70587500Y-78350000D03*
X70587500Y-79000000D03*
X70587500Y-79650000D03*
X70587500Y-80300000D03*
X70587500Y-80950000D03*
X70587500Y-81600000D03*
X70587500Y-82250000D03*
X76312500Y-82250000D03*
X76312500Y-81600000D03*
X76312500Y-80950000D03*
X76312500Y-80300000D03*
X76312500Y-79650000D03*
X76312500Y-79000000D03*
X76312500Y-78350000D03*
%TD*%
D18*
%TO.C,R24*%
X245300000Y-92537500D03*
X245300000Y-94362500D03*
%TD*%
D23*
%TO.C,IC16*%
X149712500Y-68150000D03*
X149712500Y-66250000D03*
X147837500Y-67200000D03*
%TD*%
%TO.C,IC2*%
X257287500Y-69250000D03*
X257287500Y-67350000D03*
X255412500Y-68300000D03*
%TD*%
D14*
%TO.C,IC5*%
X189162500Y-71200000D03*
X189162500Y-73100000D03*
X191037500Y-72150000D03*
%TD*%
D30*
%TO.C,U4*%
X95550000Y-85625000D03*
X93250000Y-85625000D03*
D31*
X93250000Y-91925000D03*
D30*
X90950000Y-85625000D03*
%TD*%
D18*
%TO.C,R19*%
X36125000Y-74912500D03*
X36125000Y-76737500D03*
%TD*%
D11*
%TO.C,U10*%
X220962500Y-71675000D03*
X220962500Y-72325000D03*
X220962500Y-72975000D03*
X220962500Y-73625000D03*
X220962500Y-74275000D03*
X220962500Y-74925000D03*
X220962500Y-75575000D03*
X226687500Y-75575000D03*
X226687500Y-74925000D03*
X226687500Y-74275000D03*
X226687500Y-73625000D03*
X226687500Y-72975000D03*
X226687500Y-72325000D03*
X226687500Y-71675000D03*
%TD*%
D10*
%TO.C,R16*%
X79162500Y-94825000D03*
X77337500Y-94825000D03*
%TD*%
D17*
%TO.C,IC7*%
X59275000Y-91925000D03*
X61175000Y-91925000D03*
X60225000Y-90050000D03*
%TD*%
D27*
%TO.C,R1*%
X84475000Y-107025000D03*
X84475000Y-105200000D03*
%TD*%
D21*
%TO.C,H1*%
X38750000Y-87725000D03*
%TD*%
D23*
%TO.C,IC3*%
X257387500Y-62025000D03*
X257387500Y-60125000D03*
X255512500Y-61075000D03*
%TD*%
D32*
%TO.C,A1E11*%
X52990000Y-66590000D03*
%TD*%
%TO.C,S10*%
X209990000Y-66800000D03*
%TD*%
%TO.C,SAR7*%
X168350000Y-60760000D03*
%TD*%
%TO.C,SAR4*%
X165175000Y-67110000D03*
%TD*%
%TO.C,H1A11*%
X162000000Y-67110000D03*
%TD*%
%TO.C,K1E11*%
X206815000Y-66800000D03*
%TD*%
%TO.C,B7*%
X81565000Y-60240000D03*
%TD*%
%TO.C,SAR8*%
X184225000Y-67110000D03*
%TD*%
%TO.C,SR1*%
X174700000Y-67110000D03*
%TD*%
%TO.C,S16*%
X232215000Y-66800000D03*
%TD*%
%TO.C,S8*%
X84740000Y-66590000D03*
%TD*%
%TO.C,J1A09*%
X177875000Y-60760000D03*
%TD*%
%TO.C,C1A09*%
X72040000Y-60240000D03*
%TD*%
%TO.C,S9*%
X87915000Y-66590000D03*
%TD*%
%TO.C,SW1*%
X171525000Y-67110000D03*
%TD*%
%TO.C,M1A09*%
X225865000Y-60450000D03*
%TD*%
%TO.C,S2*%
X62515000Y-66590000D03*
%TD*%
%TO.C,SAR11*%
X187400000Y-60760000D03*
%TD*%
%TO.C,B0*%
X56165000Y-60240000D03*
%TD*%
%TO.C,B2*%
X62515000Y-60240000D03*
%TD*%
%TO.C,S3*%
X65690000Y-66590000D03*
%TD*%
%TO.C,S7*%
X81565000Y-66590000D03*
%TD*%
%TO.C,M1C09*%
X232215000Y-60450000D03*
%TD*%
%TO.C,S6*%
X78390000Y-66590000D03*
%TD*%
%TO.C,B9*%
X87915000Y-60240000D03*
%TD*%
%TO.C,H1D09*%
X171525000Y-60760000D03*
%TD*%
%TO.C,SAR14*%
X193750000Y-67110000D03*
%TD*%
%TO.C,SAR9*%
X184225000Y-60760000D03*
%TD*%
%TO.C,SAR15*%
X193750000Y-60760000D03*
%TD*%
%TO.C,H1E09*%
X174700000Y-60760000D03*
%TD*%
%TO.C,M1D09*%
X235390000Y-60450000D03*
%TD*%
%TO.C,SAR12*%
X190575000Y-67110000D03*
%TD*%
%TO.C,J1A11*%
X177875000Y-67110000D03*
%TD*%
%TO.C,S13*%
X219515000Y-66800000D03*
%TD*%
%TO.C,B11*%
X213165000Y-60450000D03*
%TD*%
%TO.C,B15*%
X229040000Y-60450000D03*
%TD*%
%TO.C,B12*%
X216340000Y-60450000D03*
%TD*%
%TO.C,S1*%
X59340000Y-66590000D03*
%TD*%
%TO.C,S5*%
X75215000Y-66590000D03*
%TD*%
%TO.C,SAR13*%
X190575000Y-60760000D03*
%TD*%
%TO.C,B4*%
X68865000Y-60240000D03*
%TD*%
%TO.C,S11*%
X213165000Y-66800000D03*
%TD*%
%TO.C,B5*%
X75215000Y-60240000D03*
%TD*%
%TO.C,G1E09*%
X158825000Y-60760000D03*
%TD*%
%TO.C,S0*%
X56165000Y-66590000D03*
%TD*%
%TO.C,SAR10*%
X187400000Y-67110000D03*
%TD*%
%TO.C,B10*%
X209990000Y-60450000D03*
%TD*%
%TO.C,SAR6*%
X168350000Y-67110000D03*
%TD*%
%TO.C,B14*%
X222690000Y-60450000D03*
%TD*%
%TO.C,S12*%
X216340000Y-66800000D03*
%TD*%
%TO.C,SAR5*%
X165175000Y-60760000D03*
%TD*%
%TO.C,B8*%
X84740000Y-60240000D03*
%TD*%
%TO.C,B13*%
X219515000Y-60450000D03*
%TD*%
%TO.C,M1E09*%
X238565000Y-60450000D03*
%TD*%
%TO.C,S15*%
X229040000Y-66800000D03*
%TD*%
%TO.C,N1A09*%
X241740000Y-60450000D03*
%TD*%
%TO.C,G1E11*%
X158825000Y-67110000D03*
%TD*%
%TO.C,A1E09*%
X52990000Y-60240000D03*
%TD*%
%TO.C,S14*%
X222690000Y-66800000D03*
%TD*%
%TO.C,K1E09*%
X206815000Y-60450000D03*
%TD*%
%TO.C,S4*%
X68865000Y-66590000D03*
%TD*%
%TO.C,SU1*%
X181050000Y-67110000D03*
%TD*%
%TO.C,N1A11*%
X241740000Y-66800000D03*
%TD*%
%TO.C,SS1*%
X181050000Y-60760000D03*
%TD*%
%TO.C,M1E11*%
X238565000Y-66800000D03*
%TD*%
%TO.C,C1A11*%
X72040000Y-66590000D03*
%TD*%
%TO.C,M1A11*%
X225865000Y-66800000D03*
%TD*%
%TO.C,B1*%
X59340000Y-60240000D03*
%TD*%
%TO.C,S17*%
X235390000Y-66800000D03*
%TD*%
%TO.C,SAR3*%
X162000000Y-60760000D03*
%TD*%
%TO.C,B3*%
X65690000Y-60240000D03*
%TD*%
%TO.C,B6*%
X78390000Y-60240000D03*
%TD*%
M02*
