%TF.GenerationSoftware,KiCad,Pcbnew,7.0.8*%
%TF.CreationDate,2026-03-06T14:37:51-05:00*%
%TF.ProjectId,1130MRAM,31313330-4d52-4414-9d2e-6b696361645f,rev?*%
%TF.SameCoordinates,Original*%
%TF.FileFunction,Legend,Bot*%
%TF.FilePolarity,Positive*%
%FSLAX46Y46*%
G04 Gerber Fmt 4.6, Leading zero omitted, Abs format (unit mm)*
G04 Created by KiCad (PCBNEW 7.0.8) date 2026-03-06 14:37:51*
%MOMM*%
%LPD*%
G01*
G04 APERTURE LIST*
%ADD10C,0.300000*%
%ADD11C,0.150000*%
%ADD12C,0.120000*%
G04 APERTURE END LIST*
D10*
X177259774Y-63325828D02*
X176402632Y-63325828D01*
X176831203Y-64825828D02*
X176831203Y-63325828D01*
X176045489Y-63325828D02*
X175116917Y-63325828D01*
X175116917Y-63325828D02*
X175616917Y-63897257D01*
X175616917Y-63897257D02*
X175402632Y-63897257D01*
X175402632Y-63897257D02*
X175259775Y-63968685D01*
X175259775Y-63968685D02*
X175188346Y-64040114D01*
X175188346Y-64040114D02*
X175116917Y-64182971D01*
X175116917Y-64182971D02*
X175116917Y-64540114D01*
X175116917Y-64540114D02*
X175188346Y-64682971D01*
X175188346Y-64682971D02*
X175259775Y-64754400D01*
X175259775Y-64754400D02*
X175402632Y-64825828D01*
X175402632Y-64825828D02*
X175831203Y-64825828D01*
X175831203Y-64825828D02*
X175974060Y-64754400D01*
X175974060Y-64754400D02*
X176045489Y-64682971D01*
X238317856Y-109718685D02*
X238460713Y-109647257D01*
X238460713Y-109647257D02*
X238532142Y-109575828D01*
X238532142Y-109575828D02*
X238603570Y-109432971D01*
X238603570Y-109432971D02*
X238603570Y-109361542D01*
X238603570Y-109361542D02*
X238532142Y-109218685D01*
X238532142Y-109218685D02*
X238460713Y-109147257D01*
X238460713Y-109147257D02*
X238317856Y-109075828D01*
X238317856Y-109075828D02*
X238032142Y-109075828D01*
X238032142Y-109075828D02*
X237889285Y-109147257D01*
X237889285Y-109147257D02*
X237817856Y-109218685D01*
X237817856Y-109218685D02*
X237746427Y-109361542D01*
X237746427Y-109361542D02*
X237746427Y-109432971D01*
X237746427Y-109432971D02*
X237817856Y-109575828D01*
X237817856Y-109575828D02*
X237889285Y-109647257D01*
X237889285Y-109647257D02*
X238032142Y-109718685D01*
X238032142Y-109718685D02*
X238317856Y-109718685D01*
X238317856Y-109718685D02*
X238460713Y-109790114D01*
X238460713Y-109790114D02*
X238532142Y-109861542D01*
X238532142Y-109861542D02*
X238603570Y-110004400D01*
X238603570Y-110004400D02*
X238603570Y-110290114D01*
X238603570Y-110290114D02*
X238532142Y-110432971D01*
X238532142Y-110432971D02*
X238460713Y-110504400D01*
X238460713Y-110504400D02*
X238317856Y-110575828D01*
X238317856Y-110575828D02*
X238032142Y-110575828D01*
X238032142Y-110575828D02*
X237889285Y-110504400D01*
X237889285Y-110504400D02*
X237817856Y-110432971D01*
X237817856Y-110432971D02*
X237746427Y-110290114D01*
X237746427Y-110290114D02*
X237746427Y-110004400D01*
X237746427Y-110004400D02*
X237817856Y-109861542D01*
X237817856Y-109861542D02*
X237889285Y-109790114D01*
X237889285Y-109790114D02*
X238032142Y-109718685D01*
X237103571Y-110575828D02*
X237103571Y-109075828D01*
X236246428Y-110575828D02*
X236889285Y-109718685D01*
X236246428Y-109075828D02*
X237103571Y-109932971D01*
X235746428Y-109075828D02*
X235389285Y-110575828D01*
X235389285Y-110575828D02*
X235103571Y-109504400D01*
X235103571Y-109504400D02*
X234817856Y-110575828D01*
X234817856Y-110575828D02*
X234460714Y-109075828D01*
X232889285Y-109075828D02*
X231960713Y-109075828D01*
X231960713Y-109075828D02*
X232460713Y-109647257D01*
X232460713Y-109647257D02*
X232246428Y-109647257D01*
X232246428Y-109647257D02*
X232103571Y-109718685D01*
X232103571Y-109718685D02*
X232032142Y-109790114D01*
X232032142Y-109790114D02*
X231960713Y-109932971D01*
X231960713Y-109932971D02*
X231960713Y-110290114D01*
X231960713Y-110290114D02*
X232032142Y-110432971D01*
X232032142Y-110432971D02*
X232103571Y-110504400D01*
X232103571Y-110504400D02*
X232246428Y-110575828D01*
X232246428Y-110575828D02*
X232674999Y-110575828D01*
X232674999Y-110575828D02*
X232817856Y-110504400D01*
X232817856Y-110504400D02*
X232889285Y-110432971D01*
X231317857Y-110432971D02*
X231246428Y-110504400D01*
X231246428Y-110504400D02*
X231317857Y-110575828D01*
X231317857Y-110575828D02*
X231389285Y-110504400D01*
X231389285Y-110504400D02*
X231317857Y-110432971D01*
X231317857Y-110432971D02*
X231317857Y-110575828D01*
X229960714Y-109075828D02*
X230246428Y-109075828D01*
X230246428Y-109075828D02*
X230389285Y-109147257D01*
X230389285Y-109147257D02*
X230460714Y-109218685D01*
X230460714Y-109218685D02*
X230603571Y-109432971D01*
X230603571Y-109432971D02*
X230674999Y-109718685D01*
X230674999Y-109718685D02*
X230674999Y-110290114D01*
X230674999Y-110290114D02*
X230603571Y-110432971D01*
X230603571Y-110432971D02*
X230532142Y-110504400D01*
X230532142Y-110504400D02*
X230389285Y-110575828D01*
X230389285Y-110575828D02*
X230103571Y-110575828D01*
X230103571Y-110575828D02*
X229960714Y-110504400D01*
X229960714Y-110504400D02*
X229889285Y-110432971D01*
X229889285Y-110432971D02*
X229817856Y-110290114D01*
X229817856Y-110290114D02*
X229817856Y-109932971D01*
X229817856Y-109932971D02*
X229889285Y-109790114D01*
X229889285Y-109790114D02*
X229960714Y-109718685D01*
X229960714Y-109718685D02*
X230103571Y-109647257D01*
X230103571Y-109647257D02*
X230389285Y-109647257D01*
X230389285Y-109647257D02*
X230532142Y-109718685D01*
X230532142Y-109718685D02*
X230603571Y-109790114D01*
X230603571Y-109790114D02*
X230674999Y-109932971D01*
X227389286Y-109575828D02*
X227389286Y-110575828D01*
X228032143Y-109575828D02*
X228032143Y-110361542D01*
X228032143Y-110361542D02*
X227960714Y-110504400D01*
X227960714Y-110504400D02*
X227817857Y-110575828D01*
X227817857Y-110575828D02*
X227603571Y-110575828D01*
X227603571Y-110575828D02*
X227460714Y-110504400D01*
X227460714Y-110504400D02*
X227389286Y-110432971D01*
X226746428Y-110504400D02*
X226532143Y-110575828D01*
X226532143Y-110575828D02*
X226175000Y-110575828D01*
X226175000Y-110575828D02*
X226032143Y-110504400D01*
X226032143Y-110504400D02*
X225960714Y-110432971D01*
X225960714Y-110432971D02*
X225889285Y-110290114D01*
X225889285Y-110290114D02*
X225889285Y-110147257D01*
X225889285Y-110147257D02*
X225960714Y-110004400D01*
X225960714Y-110004400D02*
X226032143Y-109932971D01*
X226032143Y-109932971D02*
X226175000Y-109861542D01*
X226175000Y-109861542D02*
X226460714Y-109790114D01*
X226460714Y-109790114D02*
X226603571Y-109718685D01*
X226603571Y-109718685D02*
X226675000Y-109647257D01*
X226675000Y-109647257D02*
X226746428Y-109504400D01*
X226746428Y-109504400D02*
X226746428Y-109361542D01*
X226746428Y-109361542D02*
X226675000Y-109218685D01*
X226675000Y-109218685D02*
X226603571Y-109147257D01*
X226603571Y-109147257D02*
X226460714Y-109075828D01*
X226460714Y-109075828D02*
X226103571Y-109075828D01*
X226103571Y-109075828D02*
X225889285Y-109147257D01*
X224103572Y-110575828D02*
X224103572Y-109575828D01*
X224103572Y-109718685D02*
X224032143Y-109647257D01*
X224032143Y-109647257D02*
X223889286Y-109575828D01*
X223889286Y-109575828D02*
X223675000Y-109575828D01*
X223675000Y-109575828D02*
X223532143Y-109647257D01*
X223532143Y-109647257D02*
X223460715Y-109790114D01*
X223460715Y-109790114D02*
X223460715Y-110575828D01*
X223460715Y-109790114D02*
X223389286Y-109647257D01*
X223389286Y-109647257D02*
X223246429Y-109575828D01*
X223246429Y-109575828D02*
X223032143Y-109575828D01*
X223032143Y-109575828D02*
X222889286Y-109647257D01*
X222889286Y-109647257D02*
X222817857Y-109790114D01*
X222817857Y-109790114D02*
X222817857Y-110575828D01*
X221889286Y-110575828D02*
X222032143Y-110504400D01*
X222032143Y-110504400D02*
X222103572Y-110432971D01*
X222103572Y-110432971D02*
X222175000Y-110290114D01*
X222175000Y-110290114D02*
X222175000Y-109861542D01*
X222175000Y-109861542D02*
X222103572Y-109718685D01*
X222103572Y-109718685D02*
X222032143Y-109647257D01*
X222032143Y-109647257D02*
X221889286Y-109575828D01*
X221889286Y-109575828D02*
X221675000Y-109575828D01*
X221675000Y-109575828D02*
X221532143Y-109647257D01*
X221532143Y-109647257D02*
X221460715Y-109718685D01*
X221460715Y-109718685D02*
X221389286Y-109861542D01*
X221389286Y-109861542D02*
X221389286Y-110290114D01*
X221389286Y-110290114D02*
X221460715Y-110432971D01*
X221460715Y-110432971D02*
X221532143Y-110504400D01*
X221532143Y-110504400D02*
X221675000Y-110575828D01*
X221675000Y-110575828D02*
X221889286Y-110575828D01*
X220103572Y-110575828D02*
X220103572Y-109075828D01*
X220103572Y-110504400D02*
X220246429Y-110575828D01*
X220246429Y-110575828D02*
X220532143Y-110575828D01*
X220532143Y-110575828D02*
X220675000Y-110504400D01*
X220675000Y-110504400D02*
X220746429Y-110432971D01*
X220746429Y-110432971D02*
X220817857Y-110290114D01*
X220817857Y-110290114D02*
X220817857Y-109861542D01*
X220817857Y-109861542D02*
X220746429Y-109718685D01*
X220746429Y-109718685D02*
X220675000Y-109647257D01*
X220675000Y-109647257D02*
X220532143Y-109575828D01*
X220532143Y-109575828D02*
X220246429Y-109575828D01*
X220246429Y-109575828D02*
X220103572Y-109647257D01*
X218817857Y-110504400D02*
X218960714Y-110575828D01*
X218960714Y-110575828D02*
X219246429Y-110575828D01*
X219246429Y-110575828D02*
X219389286Y-110504400D01*
X219389286Y-110504400D02*
X219460714Y-110361542D01*
X219460714Y-110361542D02*
X219460714Y-109790114D01*
X219460714Y-109790114D02*
X219389286Y-109647257D01*
X219389286Y-109647257D02*
X219246429Y-109575828D01*
X219246429Y-109575828D02*
X218960714Y-109575828D01*
X218960714Y-109575828D02*
X218817857Y-109647257D01*
X218817857Y-109647257D02*
X218746429Y-109790114D01*
X218746429Y-109790114D02*
X218746429Y-109932971D01*
X218746429Y-109932971D02*
X219460714Y-110075828D01*
X217889286Y-110575828D02*
X218032143Y-110504400D01*
X218032143Y-110504400D02*
X218103572Y-110361542D01*
X218103572Y-110361542D02*
X218103572Y-109075828D01*
X217389286Y-110504400D02*
X217246429Y-110575828D01*
X217246429Y-110575828D02*
X216960715Y-110575828D01*
X216960715Y-110575828D02*
X216817858Y-110504400D01*
X216817858Y-110504400D02*
X216746429Y-110361542D01*
X216746429Y-110361542D02*
X216746429Y-110290114D01*
X216746429Y-110290114D02*
X216817858Y-110147257D01*
X216817858Y-110147257D02*
X216960715Y-110075828D01*
X216960715Y-110075828D02*
X217175001Y-110075828D01*
X217175001Y-110075828D02*
X217317858Y-110004400D01*
X217317858Y-110004400D02*
X217389286Y-109861542D01*
X217389286Y-109861542D02*
X217389286Y-109790114D01*
X217389286Y-109790114D02*
X217317858Y-109647257D01*
X217317858Y-109647257D02*
X217175001Y-109575828D01*
X217175001Y-109575828D02*
X216960715Y-109575828D01*
X216960715Y-109575828D02*
X216817858Y-109647257D01*
X71209774Y-62475828D02*
X70352632Y-62475828D01*
X70781203Y-63975828D02*
X70781203Y-62475828D01*
X69066917Y-63975828D02*
X69924060Y-63975828D01*
X69495489Y-63975828D02*
X69495489Y-62475828D01*
X69495489Y-62475828D02*
X69638346Y-62690114D01*
X69638346Y-62690114D02*
X69781203Y-62832971D01*
X69781203Y-62832971D02*
X69924060Y-62904400D01*
X224984774Y-62925828D02*
X224127632Y-62925828D01*
X224556203Y-64425828D02*
X224556203Y-62925828D01*
X222984775Y-63425828D02*
X222984775Y-64425828D01*
X223341917Y-62854400D02*
X223699060Y-63925828D01*
X223699060Y-63925828D02*
X222770489Y-63925828D01*
X149860713Y-75517971D02*
X149932141Y-75589400D01*
X149932141Y-75589400D02*
X150146427Y-75660828D01*
X150146427Y-75660828D02*
X150289284Y-75660828D01*
X150289284Y-75660828D02*
X150503570Y-75589400D01*
X150503570Y-75589400D02*
X150646427Y-75446542D01*
X150646427Y-75446542D02*
X150717856Y-75303685D01*
X150717856Y-75303685D02*
X150789284Y-75017971D01*
X150789284Y-75017971D02*
X150789284Y-74803685D01*
X150789284Y-74803685D02*
X150717856Y-74517971D01*
X150717856Y-74517971D02*
X150646427Y-74375114D01*
X150646427Y-74375114D02*
X150503570Y-74232257D01*
X150503570Y-74232257D02*
X150289284Y-74160828D01*
X150289284Y-74160828D02*
X150146427Y-74160828D01*
X150146427Y-74160828D02*
X149932141Y-74232257D01*
X149932141Y-74232257D02*
X149860713Y-74303685D01*
X148932141Y-74160828D02*
X148646427Y-74160828D01*
X148646427Y-74160828D02*
X148503570Y-74232257D01*
X148503570Y-74232257D02*
X148360713Y-74375114D01*
X148360713Y-74375114D02*
X148289284Y-74660828D01*
X148289284Y-74660828D02*
X148289284Y-75160828D01*
X148289284Y-75160828D02*
X148360713Y-75446542D01*
X148360713Y-75446542D02*
X148503570Y-75589400D01*
X148503570Y-75589400D02*
X148646427Y-75660828D01*
X148646427Y-75660828D02*
X148932141Y-75660828D01*
X148932141Y-75660828D02*
X149074999Y-75589400D01*
X149074999Y-75589400D02*
X149217856Y-75446542D01*
X149217856Y-75446542D02*
X149289284Y-75160828D01*
X149289284Y-75160828D02*
X149289284Y-74660828D01*
X149289284Y-74660828D02*
X149217856Y-74375114D01*
X149217856Y-74375114D02*
X149074999Y-74232257D01*
X149074999Y-74232257D02*
X148932141Y-74160828D01*
X146789284Y-75660828D02*
X147289284Y-74946542D01*
X147646427Y-75660828D02*
X147646427Y-74160828D01*
X147646427Y-74160828D02*
X147074998Y-74160828D01*
X147074998Y-74160828D02*
X146932141Y-74232257D01*
X146932141Y-74232257D02*
X146860712Y-74303685D01*
X146860712Y-74303685D02*
X146789284Y-74446542D01*
X146789284Y-74446542D02*
X146789284Y-74660828D01*
X146789284Y-74660828D02*
X146860712Y-74803685D01*
X146860712Y-74803685D02*
X146932141Y-74875114D01*
X146932141Y-74875114D02*
X147074998Y-74946542D01*
X147074998Y-74946542D02*
X147646427Y-74946542D01*
X146146427Y-74875114D02*
X145646427Y-74875114D01*
X145432141Y-75660828D02*
X146146427Y-75660828D01*
X146146427Y-75660828D02*
X146146427Y-74160828D01*
X146146427Y-74160828D02*
X145432141Y-74160828D01*
X143646427Y-75660828D02*
X143646427Y-74160828D01*
X143646427Y-74160828D02*
X143146427Y-75232257D01*
X143146427Y-75232257D02*
X142646427Y-74160828D01*
X142646427Y-74160828D02*
X142646427Y-75660828D01*
X141360712Y-75589400D02*
X141503569Y-75660828D01*
X141503569Y-75660828D02*
X141789284Y-75660828D01*
X141789284Y-75660828D02*
X141932141Y-75589400D01*
X141932141Y-75589400D02*
X142003569Y-75446542D01*
X142003569Y-75446542D02*
X142003569Y-74875114D01*
X142003569Y-74875114D02*
X141932141Y-74732257D01*
X141932141Y-74732257D02*
X141789284Y-74660828D01*
X141789284Y-74660828D02*
X141503569Y-74660828D01*
X141503569Y-74660828D02*
X141360712Y-74732257D01*
X141360712Y-74732257D02*
X141289284Y-74875114D01*
X141289284Y-74875114D02*
X141289284Y-75017971D01*
X141289284Y-75017971D02*
X142003569Y-75160828D01*
X140646427Y-75660828D02*
X140646427Y-74660828D01*
X140646427Y-74803685D02*
X140574998Y-74732257D01*
X140574998Y-74732257D02*
X140432141Y-74660828D01*
X140432141Y-74660828D02*
X140217855Y-74660828D01*
X140217855Y-74660828D02*
X140074998Y-74732257D01*
X140074998Y-74732257D02*
X140003570Y-74875114D01*
X140003570Y-74875114D02*
X140003570Y-75660828D01*
X140003570Y-74875114D02*
X139932141Y-74732257D01*
X139932141Y-74732257D02*
X139789284Y-74660828D01*
X139789284Y-74660828D02*
X139574998Y-74660828D01*
X139574998Y-74660828D02*
X139432141Y-74732257D01*
X139432141Y-74732257D02*
X139360712Y-74875114D01*
X139360712Y-74875114D02*
X139360712Y-75660828D01*
X138432141Y-75660828D02*
X138574998Y-75589400D01*
X138574998Y-75589400D02*
X138646427Y-75517971D01*
X138646427Y-75517971D02*
X138717855Y-75375114D01*
X138717855Y-75375114D02*
X138717855Y-74946542D01*
X138717855Y-74946542D02*
X138646427Y-74803685D01*
X138646427Y-74803685D02*
X138574998Y-74732257D01*
X138574998Y-74732257D02*
X138432141Y-74660828D01*
X138432141Y-74660828D02*
X138217855Y-74660828D01*
X138217855Y-74660828D02*
X138074998Y-74732257D01*
X138074998Y-74732257D02*
X138003570Y-74803685D01*
X138003570Y-74803685D02*
X137932141Y-74946542D01*
X137932141Y-74946542D02*
X137932141Y-75375114D01*
X137932141Y-75375114D02*
X138003570Y-75517971D01*
X138003570Y-75517971D02*
X138074998Y-75589400D01*
X138074998Y-75589400D02*
X138217855Y-75660828D01*
X138217855Y-75660828D02*
X138432141Y-75660828D01*
X137289284Y-75660828D02*
X137289284Y-74660828D01*
X137289284Y-74946542D02*
X137217855Y-74803685D01*
X137217855Y-74803685D02*
X137146427Y-74732257D01*
X137146427Y-74732257D02*
X137003569Y-74660828D01*
X137003569Y-74660828D02*
X136860712Y-74660828D01*
X136503570Y-74660828D02*
X136146427Y-75660828D01*
X135789284Y-74660828D02*
X136146427Y-75660828D01*
X136146427Y-75660828D02*
X136289284Y-76017971D01*
X136289284Y-76017971D02*
X136360713Y-76089400D01*
X136360713Y-76089400D02*
X136503570Y-76160828D01*
X133217856Y-75660828D02*
X133717856Y-74946542D01*
X134074999Y-75660828D02*
X134074999Y-74160828D01*
X134074999Y-74160828D02*
X133503570Y-74160828D01*
X133503570Y-74160828D02*
X133360713Y-74232257D01*
X133360713Y-74232257D02*
X133289284Y-74303685D01*
X133289284Y-74303685D02*
X133217856Y-74446542D01*
X133217856Y-74446542D02*
X133217856Y-74660828D01*
X133217856Y-74660828D02*
X133289284Y-74803685D01*
X133289284Y-74803685D02*
X133360713Y-74875114D01*
X133360713Y-74875114D02*
X133503570Y-74946542D01*
X133503570Y-74946542D02*
X134074999Y-74946542D01*
X132003570Y-75589400D02*
X132146427Y-75660828D01*
X132146427Y-75660828D02*
X132432142Y-75660828D01*
X132432142Y-75660828D02*
X132574999Y-75589400D01*
X132574999Y-75589400D02*
X132646427Y-75446542D01*
X132646427Y-75446542D02*
X132646427Y-74875114D01*
X132646427Y-74875114D02*
X132574999Y-74732257D01*
X132574999Y-74732257D02*
X132432142Y-74660828D01*
X132432142Y-74660828D02*
X132146427Y-74660828D01*
X132146427Y-74660828D02*
X132003570Y-74732257D01*
X132003570Y-74732257D02*
X131932142Y-74875114D01*
X131932142Y-74875114D02*
X131932142Y-75017971D01*
X131932142Y-75017971D02*
X132646427Y-75160828D01*
X131289285Y-74660828D02*
X131289285Y-76160828D01*
X131289285Y-74732257D02*
X131146428Y-74660828D01*
X131146428Y-74660828D02*
X130860713Y-74660828D01*
X130860713Y-74660828D02*
X130717856Y-74732257D01*
X130717856Y-74732257D02*
X130646428Y-74803685D01*
X130646428Y-74803685D02*
X130574999Y-74946542D01*
X130574999Y-74946542D02*
X130574999Y-75375114D01*
X130574999Y-75375114D02*
X130646428Y-75517971D01*
X130646428Y-75517971D02*
X130717856Y-75589400D01*
X130717856Y-75589400D02*
X130860713Y-75660828D01*
X130860713Y-75660828D02*
X131146428Y-75660828D01*
X131146428Y-75660828D02*
X131289285Y-75589400D01*
X129717856Y-75660828D02*
X129860713Y-75589400D01*
X129860713Y-75589400D02*
X129932142Y-75446542D01*
X129932142Y-75446542D02*
X129932142Y-74160828D01*
X128503571Y-75660828D02*
X128503571Y-74875114D01*
X128503571Y-74875114D02*
X128574999Y-74732257D01*
X128574999Y-74732257D02*
X128717856Y-74660828D01*
X128717856Y-74660828D02*
X129003571Y-74660828D01*
X129003571Y-74660828D02*
X129146428Y-74732257D01*
X128503571Y-75589400D02*
X128646428Y-75660828D01*
X128646428Y-75660828D02*
X129003571Y-75660828D01*
X129003571Y-75660828D02*
X129146428Y-75589400D01*
X129146428Y-75589400D02*
X129217856Y-75446542D01*
X129217856Y-75446542D02*
X129217856Y-75303685D01*
X129217856Y-75303685D02*
X129146428Y-75160828D01*
X129146428Y-75160828D02*
X129003571Y-75089400D01*
X129003571Y-75089400D02*
X128646428Y-75089400D01*
X128646428Y-75089400D02*
X128503571Y-75017971D01*
X127146428Y-75589400D02*
X127289285Y-75660828D01*
X127289285Y-75660828D02*
X127574999Y-75660828D01*
X127574999Y-75660828D02*
X127717856Y-75589400D01*
X127717856Y-75589400D02*
X127789285Y-75517971D01*
X127789285Y-75517971D02*
X127860713Y-75375114D01*
X127860713Y-75375114D02*
X127860713Y-74946542D01*
X127860713Y-74946542D02*
X127789285Y-74803685D01*
X127789285Y-74803685D02*
X127717856Y-74732257D01*
X127717856Y-74732257D02*
X127574999Y-74660828D01*
X127574999Y-74660828D02*
X127289285Y-74660828D01*
X127289285Y-74660828D02*
X127146428Y-74732257D01*
X125932142Y-75589400D02*
X126074999Y-75660828D01*
X126074999Y-75660828D02*
X126360714Y-75660828D01*
X126360714Y-75660828D02*
X126503571Y-75589400D01*
X126503571Y-75589400D02*
X126574999Y-75446542D01*
X126574999Y-75446542D02*
X126574999Y-74875114D01*
X126574999Y-74875114D02*
X126503571Y-74732257D01*
X126503571Y-74732257D02*
X126360714Y-74660828D01*
X126360714Y-74660828D02*
X126074999Y-74660828D01*
X126074999Y-74660828D02*
X125932142Y-74732257D01*
X125932142Y-74732257D02*
X125860714Y-74875114D01*
X125860714Y-74875114D02*
X125860714Y-75017971D01*
X125860714Y-75017971D02*
X126574999Y-75160828D01*
X125217857Y-75660828D02*
X125217857Y-74660828D01*
X125217857Y-74803685D02*
X125146428Y-74732257D01*
X125146428Y-74732257D02*
X125003571Y-74660828D01*
X125003571Y-74660828D02*
X124789285Y-74660828D01*
X124789285Y-74660828D02*
X124646428Y-74732257D01*
X124646428Y-74732257D02*
X124575000Y-74875114D01*
X124575000Y-74875114D02*
X124575000Y-75660828D01*
X124575000Y-74875114D02*
X124503571Y-74732257D01*
X124503571Y-74732257D02*
X124360714Y-74660828D01*
X124360714Y-74660828D02*
X124146428Y-74660828D01*
X124146428Y-74660828D02*
X124003571Y-74732257D01*
X124003571Y-74732257D02*
X123932142Y-74875114D01*
X123932142Y-74875114D02*
X123932142Y-75660828D01*
X122646428Y-75589400D02*
X122789285Y-75660828D01*
X122789285Y-75660828D02*
X123075000Y-75660828D01*
X123075000Y-75660828D02*
X123217857Y-75589400D01*
X123217857Y-75589400D02*
X123289285Y-75446542D01*
X123289285Y-75446542D02*
X123289285Y-74875114D01*
X123289285Y-74875114D02*
X123217857Y-74732257D01*
X123217857Y-74732257D02*
X123075000Y-74660828D01*
X123075000Y-74660828D02*
X122789285Y-74660828D01*
X122789285Y-74660828D02*
X122646428Y-74732257D01*
X122646428Y-74732257D02*
X122575000Y-74875114D01*
X122575000Y-74875114D02*
X122575000Y-75017971D01*
X122575000Y-75017971D02*
X123289285Y-75160828D01*
X121932143Y-74660828D02*
X121932143Y-75660828D01*
X121932143Y-74803685D02*
X121860714Y-74732257D01*
X121860714Y-74732257D02*
X121717857Y-74660828D01*
X121717857Y-74660828D02*
X121503571Y-74660828D01*
X121503571Y-74660828D02*
X121360714Y-74732257D01*
X121360714Y-74732257D02*
X121289286Y-74875114D01*
X121289286Y-74875114D02*
X121289286Y-75660828D01*
X120789285Y-74660828D02*
X120217857Y-74660828D01*
X120575000Y-74160828D02*
X120575000Y-75446542D01*
X120575000Y-75446542D02*
X120503571Y-75589400D01*
X120503571Y-75589400D02*
X120360714Y-75660828D01*
X120360714Y-75660828D02*
X120217857Y-75660828D01*
X149574999Y-78075828D02*
X149574999Y-76575828D01*
X149574999Y-76575828D02*
X149074999Y-77647257D01*
X149074999Y-77647257D02*
X148574999Y-76575828D01*
X148574999Y-76575828D02*
X148574999Y-78075828D01*
X147646427Y-78075828D02*
X147789284Y-78004400D01*
X147789284Y-78004400D02*
X147860713Y-77932971D01*
X147860713Y-77932971D02*
X147932141Y-77790114D01*
X147932141Y-77790114D02*
X147932141Y-77361542D01*
X147932141Y-77361542D02*
X147860713Y-77218685D01*
X147860713Y-77218685D02*
X147789284Y-77147257D01*
X147789284Y-77147257D02*
X147646427Y-77075828D01*
X147646427Y-77075828D02*
X147432141Y-77075828D01*
X147432141Y-77075828D02*
X147289284Y-77147257D01*
X147289284Y-77147257D02*
X147217856Y-77218685D01*
X147217856Y-77218685D02*
X147146427Y-77361542D01*
X147146427Y-77361542D02*
X147146427Y-77790114D01*
X147146427Y-77790114D02*
X147217856Y-77932971D01*
X147217856Y-77932971D02*
X147289284Y-78004400D01*
X147289284Y-78004400D02*
X147432141Y-78075828D01*
X147432141Y-78075828D02*
X147646427Y-78075828D01*
X145860713Y-78075828D02*
X145860713Y-76575828D01*
X145860713Y-78004400D02*
X146003570Y-78075828D01*
X146003570Y-78075828D02*
X146289284Y-78075828D01*
X146289284Y-78075828D02*
X146432141Y-78004400D01*
X146432141Y-78004400D02*
X146503570Y-77932971D01*
X146503570Y-77932971D02*
X146574998Y-77790114D01*
X146574998Y-77790114D02*
X146574998Y-77361542D01*
X146574998Y-77361542D02*
X146503570Y-77218685D01*
X146503570Y-77218685D02*
X146432141Y-77147257D01*
X146432141Y-77147257D02*
X146289284Y-77075828D01*
X146289284Y-77075828D02*
X146003570Y-77075828D01*
X146003570Y-77075828D02*
X145860713Y-77147257D01*
X144503570Y-77075828D02*
X144503570Y-78075828D01*
X145146427Y-77075828D02*
X145146427Y-77861542D01*
X145146427Y-77861542D02*
X145074998Y-78004400D01*
X145074998Y-78004400D02*
X144932141Y-78075828D01*
X144932141Y-78075828D02*
X144717855Y-78075828D01*
X144717855Y-78075828D02*
X144574998Y-78004400D01*
X144574998Y-78004400D02*
X144503570Y-77932971D01*
X143574998Y-78075828D02*
X143717855Y-78004400D01*
X143717855Y-78004400D02*
X143789284Y-77861542D01*
X143789284Y-77861542D02*
X143789284Y-76575828D01*
X142432141Y-78004400D02*
X142574998Y-78075828D01*
X142574998Y-78075828D02*
X142860713Y-78075828D01*
X142860713Y-78075828D02*
X143003570Y-78004400D01*
X143003570Y-78004400D02*
X143074998Y-77861542D01*
X143074998Y-77861542D02*
X143074998Y-77290114D01*
X143074998Y-77290114D02*
X143003570Y-77147257D01*
X143003570Y-77147257D02*
X142860713Y-77075828D01*
X142860713Y-77075828D02*
X142574998Y-77075828D01*
X142574998Y-77075828D02*
X142432141Y-77147257D01*
X142432141Y-77147257D02*
X142360713Y-77290114D01*
X142360713Y-77290114D02*
X142360713Y-77432971D01*
X142360713Y-77432971D02*
X143074998Y-77575828D01*
X140789284Y-77075828D02*
X140217856Y-77075828D01*
X140574999Y-78075828D02*
X140574999Y-76790114D01*
X140574999Y-76790114D02*
X140503570Y-76647257D01*
X140503570Y-76647257D02*
X140360713Y-76575828D01*
X140360713Y-76575828D02*
X140217856Y-76575828D01*
X139503570Y-78075828D02*
X139646427Y-78004400D01*
X139646427Y-78004400D02*
X139717856Y-77932971D01*
X139717856Y-77932971D02*
X139789284Y-77790114D01*
X139789284Y-77790114D02*
X139789284Y-77361542D01*
X139789284Y-77361542D02*
X139717856Y-77218685D01*
X139717856Y-77218685D02*
X139646427Y-77147257D01*
X139646427Y-77147257D02*
X139503570Y-77075828D01*
X139503570Y-77075828D02*
X139289284Y-77075828D01*
X139289284Y-77075828D02*
X139146427Y-77147257D01*
X139146427Y-77147257D02*
X139074999Y-77218685D01*
X139074999Y-77218685D02*
X139003570Y-77361542D01*
X139003570Y-77361542D02*
X139003570Y-77790114D01*
X139003570Y-77790114D02*
X139074999Y-77932971D01*
X139074999Y-77932971D02*
X139146427Y-78004400D01*
X139146427Y-78004400D02*
X139289284Y-78075828D01*
X139289284Y-78075828D02*
X139503570Y-78075828D01*
X138360713Y-78075828D02*
X138360713Y-77075828D01*
X138360713Y-77361542D02*
X138289284Y-77218685D01*
X138289284Y-77218685D02*
X138217856Y-77147257D01*
X138217856Y-77147257D02*
X138074998Y-77075828D01*
X138074998Y-77075828D02*
X137932141Y-77075828D01*
X136503570Y-77075828D02*
X135932142Y-77075828D01*
X136289285Y-76575828D02*
X136289285Y-77861542D01*
X136289285Y-77861542D02*
X136217856Y-78004400D01*
X136217856Y-78004400D02*
X136074999Y-78075828D01*
X136074999Y-78075828D02*
X135932142Y-78075828D01*
X135432142Y-78075828D02*
X135432142Y-76575828D01*
X134789285Y-78075828D02*
X134789285Y-77290114D01*
X134789285Y-77290114D02*
X134860713Y-77147257D01*
X134860713Y-77147257D02*
X135003570Y-77075828D01*
X135003570Y-77075828D02*
X135217856Y-77075828D01*
X135217856Y-77075828D02*
X135360713Y-77147257D01*
X135360713Y-77147257D02*
X135432142Y-77218685D01*
X133503570Y-78004400D02*
X133646427Y-78075828D01*
X133646427Y-78075828D02*
X133932142Y-78075828D01*
X133932142Y-78075828D02*
X134074999Y-78004400D01*
X134074999Y-78004400D02*
X134146427Y-77861542D01*
X134146427Y-77861542D02*
X134146427Y-77290114D01*
X134146427Y-77290114D02*
X134074999Y-77147257D01*
X134074999Y-77147257D02*
X133932142Y-77075828D01*
X133932142Y-77075828D02*
X133646427Y-77075828D01*
X133646427Y-77075828D02*
X133503570Y-77147257D01*
X133503570Y-77147257D02*
X133432142Y-77290114D01*
X133432142Y-77290114D02*
X133432142Y-77432971D01*
X133432142Y-77432971D02*
X134146427Y-77575828D01*
X131646428Y-78075828D02*
X131646428Y-76575828D01*
X130432142Y-77290114D02*
X130217856Y-77361542D01*
X130217856Y-77361542D02*
X130146427Y-77432971D01*
X130146427Y-77432971D02*
X130074999Y-77575828D01*
X130074999Y-77575828D02*
X130074999Y-77790114D01*
X130074999Y-77790114D02*
X130146427Y-77932971D01*
X130146427Y-77932971D02*
X130217856Y-78004400D01*
X130217856Y-78004400D02*
X130360713Y-78075828D01*
X130360713Y-78075828D02*
X130932142Y-78075828D01*
X130932142Y-78075828D02*
X130932142Y-76575828D01*
X130932142Y-76575828D02*
X130432142Y-76575828D01*
X130432142Y-76575828D02*
X130289285Y-76647257D01*
X130289285Y-76647257D02*
X130217856Y-76718685D01*
X130217856Y-76718685D02*
X130146427Y-76861542D01*
X130146427Y-76861542D02*
X130146427Y-77004400D01*
X130146427Y-77004400D02*
X130217856Y-77147257D01*
X130217856Y-77147257D02*
X130289285Y-77218685D01*
X130289285Y-77218685D02*
X130432142Y-77290114D01*
X130432142Y-77290114D02*
X130932142Y-77290114D01*
X129432142Y-78075828D02*
X129432142Y-76575828D01*
X129432142Y-76575828D02*
X128932142Y-77647257D01*
X128932142Y-77647257D02*
X128432142Y-76575828D01*
X128432142Y-76575828D02*
X128432142Y-78075828D01*
X125789284Y-78075828D02*
X126646427Y-78075828D01*
X126217856Y-78075828D02*
X126217856Y-76575828D01*
X126217856Y-76575828D02*
X126360713Y-76790114D01*
X126360713Y-76790114D02*
X126503570Y-76932971D01*
X126503570Y-76932971D02*
X126646427Y-77004400D01*
X124360713Y-78075828D02*
X125217856Y-78075828D01*
X124789285Y-78075828D02*
X124789285Y-76575828D01*
X124789285Y-76575828D02*
X124932142Y-76790114D01*
X124932142Y-76790114D02*
X125074999Y-76932971D01*
X125074999Y-76932971D02*
X125217856Y-77004400D01*
X123860714Y-76575828D02*
X122932142Y-76575828D01*
X122932142Y-76575828D02*
X123432142Y-77147257D01*
X123432142Y-77147257D02*
X123217857Y-77147257D01*
X123217857Y-77147257D02*
X123075000Y-77218685D01*
X123075000Y-77218685D02*
X123003571Y-77290114D01*
X123003571Y-77290114D02*
X122932142Y-77432971D01*
X122932142Y-77432971D02*
X122932142Y-77790114D01*
X122932142Y-77790114D02*
X123003571Y-77932971D01*
X123003571Y-77932971D02*
X123075000Y-78004400D01*
X123075000Y-78004400D02*
X123217857Y-78075828D01*
X123217857Y-78075828D02*
X123646428Y-78075828D01*
X123646428Y-78075828D02*
X123789285Y-78004400D01*
X123789285Y-78004400D02*
X123860714Y-77932971D01*
X122003571Y-76575828D02*
X121860714Y-76575828D01*
X121860714Y-76575828D02*
X121717857Y-76647257D01*
X121717857Y-76647257D02*
X121646429Y-76718685D01*
X121646429Y-76718685D02*
X121575000Y-76861542D01*
X121575000Y-76861542D02*
X121503571Y-77147257D01*
X121503571Y-77147257D02*
X121503571Y-77504400D01*
X121503571Y-77504400D02*
X121575000Y-77790114D01*
X121575000Y-77790114D02*
X121646429Y-77932971D01*
X121646429Y-77932971D02*
X121717857Y-78004400D01*
X121717857Y-78004400D02*
X121860714Y-78075828D01*
X121860714Y-78075828D02*
X122003571Y-78075828D01*
X122003571Y-78075828D02*
X122146429Y-78004400D01*
X122146429Y-78004400D02*
X122217857Y-77932971D01*
X122217857Y-77932971D02*
X122289286Y-77790114D01*
X122289286Y-77790114D02*
X122360714Y-77504400D01*
X122360714Y-77504400D02*
X122360714Y-77147257D01*
X122360714Y-77147257D02*
X122289286Y-76861542D01*
X122289286Y-76861542D02*
X122217857Y-76718685D01*
X122217857Y-76718685D02*
X122146429Y-76647257D01*
X122146429Y-76647257D02*
X122003571Y-76575828D01*
X67057971Y-92811653D02*
X67129400Y-92740225D01*
X67129400Y-92740225D02*
X67200828Y-92525939D01*
X67200828Y-92525939D02*
X67200828Y-92383082D01*
X67200828Y-92383082D02*
X67129400Y-92168796D01*
X67129400Y-92168796D02*
X66986542Y-92025939D01*
X66986542Y-92025939D02*
X66843685Y-91954510D01*
X66843685Y-91954510D02*
X66557971Y-91883082D01*
X66557971Y-91883082D02*
X66343685Y-91883082D01*
X66343685Y-91883082D02*
X66057971Y-91954510D01*
X66057971Y-91954510D02*
X65915114Y-92025939D01*
X65915114Y-92025939D02*
X65772257Y-92168796D01*
X65772257Y-92168796D02*
X65700828Y-92383082D01*
X65700828Y-92383082D02*
X65700828Y-92525939D01*
X65700828Y-92525939D02*
X65772257Y-92740225D01*
X65772257Y-92740225D02*
X65843685Y-92811653D01*
X67200828Y-94097368D02*
X66415114Y-94097368D01*
X66415114Y-94097368D02*
X66272257Y-94025939D01*
X66272257Y-94025939D02*
X66200828Y-93883082D01*
X66200828Y-93883082D02*
X66200828Y-93597368D01*
X66200828Y-93597368D02*
X66272257Y-93454510D01*
X67129400Y-94097368D02*
X67200828Y-93954510D01*
X67200828Y-93954510D02*
X67200828Y-93597368D01*
X67200828Y-93597368D02*
X67129400Y-93454510D01*
X67129400Y-93454510D02*
X66986542Y-93383082D01*
X66986542Y-93383082D02*
X66843685Y-93383082D01*
X66843685Y-93383082D02*
X66700828Y-93454510D01*
X66700828Y-93454510D02*
X66629400Y-93597368D01*
X66629400Y-93597368D02*
X66629400Y-93954510D01*
X66629400Y-93954510D02*
X66557971Y-94097368D01*
X67200828Y-94811653D02*
X66200828Y-94811653D01*
X66486542Y-94811653D02*
X66343685Y-94883082D01*
X66343685Y-94883082D02*
X66272257Y-94954511D01*
X66272257Y-94954511D02*
X66200828Y-95097368D01*
X66200828Y-95097368D02*
X66200828Y-95240225D01*
X67200828Y-95954510D02*
X67129400Y-95811653D01*
X67129400Y-95811653D02*
X66986542Y-95740224D01*
X66986542Y-95740224D02*
X65700828Y-95740224D01*
X65700828Y-97454510D02*
X67200828Y-97954510D01*
X67200828Y-97954510D02*
X65700828Y-98454510D01*
X67057971Y-100954509D02*
X67129400Y-100883081D01*
X67129400Y-100883081D02*
X67200828Y-100668795D01*
X67200828Y-100668795D02*
X67200828Y-100525938D01*
X67200828Y-100525938D02*
X67129400Y-100311652D01*
X67129400Y-100311652D02*
X66986542Y-100168795D01*
X66986542Y-100168795D02*
X66843685Y-100097366D01*
X66843685Y-100097366D02*
X66557971Y-100025938D01*
X66557971Y-100025938D02*
X66343685Y-100025938D01*
X66343685Y-100025938D02*
X66057971Y-100097366D01*
X66057971Y-100097366D02*
X65915114Y-100168795D01*
X65915114Y-100168795D02*
X65772257Y-100311652D01*
X65772257Y-100311652D02*
X65700828Y-100525938D01*
X65700828Y-100525938D02*
X65700828Y-100668795D01*
X65700828Y-100668795D02*
X65772257Y-100883081D01*
X65772257Y-100883081D02*
X65843685Y-100954509D01*
X67200828Y-101811652D02*
X67129400Y-101668795D01*
X67129400Y-101668795D02*
X66986542Y-101597366D01*
X66986542Y-101597366D02*
X65700828Y-101597366D01*
X67200828Y-103025938D02*
X66415114Y-103025938D01*
X66415114Y-103025938D02*
X66272257Y-102954509D01*
X66272257Y-102954509D02*
X66200828Y-102811652D01*
X66200828Y-102811652D02*
X66200828Y-102525938D01*
X66200828Y-102525938D02*
X66272257Y-102383080D01*
X67129400Y-103025938D02*
X67200828Y-102883080D01*
X67200828Y-102883080D02*
X67200828Y-102525938D01*
X67200828Y-102525938D02*
X67129400Y-102383080D01*
X67129400Y-102383080D02*
X66986542Y-102311652D01*
X66986542Y-102311652D02*
X66843685Y-102311652D01*
X66843685Y-102311652D02*
X66700828Y-102383080D01*
X66700828Y-102383080D02*
X66629400Y-102525938D01*
X66629400Y-102525938D02*
X66629400Y-102883080D01*
X66629400Y-102883080D02*
X66557971Y-103025938D01*
X66200828Y-104383081D02*
X67200828Y-104383081D01*
X66200828Y-103740223D02*
X66986542Y-103740223D01*
X66986542Y-103740223D02*
X67129400Y-103811652D01*
X67129400Y-103811652D02*
X67200828Y-103954509D01*
X67200828Y-103954509D02*
X67200828Y-104168795D01*
X67200828Y-104168795D02*
X67129400Y-104311652D01*
X67129400Y-104311652D02*
X67057971Y-104383081D01*
X66200828Y-105097366D02*
X67200828Y-105097366D01*
X66343685Y-105097366D02*
X66272257Y-105168795D01*
X66272257Y-105168795D02*
X66200828Y-105311652D01*
X66200828Y-105311652D02*
X66200828Y-105525938D01*
X66200828Y-105525938D02*
X66272257Y-105668795D01*
X66272257Y-105668795D02*
X66415114Y-105740224D01*
X66415114Y-105740224D02*
X67200828Y-105740224D01*
X67129400Y-107097367D02*
X67200828Y-106954509D01*
X67200828Y-106954509D02*
X67200828Y-106668795D01*
X67200828Y-106668795D02*
X67129400Y-106525938D01*
X67129400Y-106525938D02*
X67057971Y-106454509D01*
X67057971Y-106454509D02*
X66915114Y-106383081D01*
X66915114Y-106383081D02*
X66486542Y-106383081D01*
X66486542Y-106383081D02*
X66343685Y-106454509D01*
X66343685Y-106454509D02*
X66272257Y-106525938D01*
X66272257Y-106525938D02*
X66200828Y-106668795D01*
X66200828Y-106668795D02*
X66200828Y-106954509D01*
X66200828Y-106954509D02*
X66272257Y-107097367D01*
X67200828Y-107740223D02*
X65700828Y-107740223D01*
X67200828Y-108383081D02*
X66415114Y-108383081D01*
X66415114Y-108383081D02*
X66272257Y-108311652D01*
X66272257Y-108311652D02*
X66200828Y-108168795D01*
X66200828Y-108168795D02*
X66200828Y-107954509D01*
X66200828Y-107954509D02*
X66272257Y-107811652D01*
X66272257Y-107811652D02*
X66343685Y-107740223D01*
D11*
X224842857Y-71164580D02*
X224890476Y-71212200D01*
X224890476Y-71212200D02*
X225033333Y-71259819D01*
X225033333Y-71259819D02*
X225128571Y-71259819D01*
X225128571Y-71259819D02*
X225271428Y-71212200D01*
X225271428Y-71212200D02*
X225366666Y-71116961D01*
X225366666Y-71116961D02*
X225414285Y-71021723D01*
X225414285Y-71021723D02*
X225461904Y-70831247D01*
X225461904Y-70831247D02*
X225461904Y-70688390D01*
X225461904Y-70688390D02*
X225414285Y-70497914D01*
X225414285Y-70497914D02*
X225366666Y-70402676D01*
X225366666Y-70402676D02*
X225271428Y-70307438D01*
X225271428Y-70307438D02*
X225128571Y-70259819D01*
X225128571Y-70259819D02*
X225033333Y-70259819D01*
X225033333Y-70259819D02*
X224890476Y-70307438D01*
X224890476Y-70307438D02*
X224842857Y-70355057D01*
X224461904Y-70355057D02*
X224414285Y-70307438D01*
X224414285Y-70307438D02*
X224319047Y-70259819D01*
X224319047Y-70259819D02*
X224080952Y-70259819D01*
X224080952Y-70259819D02*
X223985714Y-70307438D01*
X223985714Y-70307438D02*
X223938095Y-70355057D01*
X223938095Y-70355057D02*
X223890476Y-70450295D01*
X223890476Y-70450295D02*
X223890476Y-70545533D01*
X223890476Y-70545533D02*
X223938095Y-70688390D01*
X223938095Y-70688390D02*
X224509523Y-71259819D01*
X224509523Y-71259819D02*
X223890476Y-71259819D01*
X223271428Y-70259819D02*
X223176190Y-70259819D01*
X223176190Y-70259819D02*
X223080952Y-70307438D01*
X223080952Y-70307438D02*
X223033333Y-70355057D01*
X223033333Y-70355057D02*
X222985714Y-70450295D01*
X222985714Y-70450295D02*
X222938095Y-70640771D01*
X222938095Y-70640771D02*
X222938095Y-70878866D01*
X222938095Y-70878866D02*
X222985714Y-71069342D01*
X222985714Y-71069342D02*
X223033333Y-71164580D01*
X223033333Y-71164580D02*
X223080952Y-71212200D01*
X223080952Y-71212200D02*
X223176190Y-71259819D01*
X223176190Y-71259819D02*
X223271428Y-71259819D01*
X223271428Y-71259819D02*
X223366666Y-71212200D01*
X223366666Y-71212200D02*
X223414285Y-71164580D01*
X223414285Y-71164580D02*
X223461904Y-71069342D01*
X223461904Y-71069342D02*
X223509523Y-70878866D01*
X223509523Y-70878866D02*
X223509523Y-70640771D01*
X223509523Y-70640771D02*
X223461904Y-70450295D01*
X223461904Y-70450295D02*
X223414285Y-70355057D01*
X223414285Y-70355057D02*
X223366666Y-70307438D01*
X223366666Y-70307438D02*
X223271428Y-70259819D01*
X58059580Y-77007142D02*
X58107200Y-76959523D01*
X58107200Y-76959523D02*
X58154819Y-76816666D01*
X58154819Y-76816666D02*
X58154819Y-76721428D01*
X58154819Y-76721428D02*
X58107200Y-76578571D01*
X58107200Y-76578571D02*
X58011961Y-76483333D01*
X58011961Y-76483333D02*
X57916723Y-76435714D01*
X57916723Y-76435714D02*
X57726247Y-76388095D01*
X57726247Y-76388095D02*
X57583390Y-76388095D01*
X57583390Y-76388095D02*
X57392914Y-76435714D01*
X57392914Y-76435714D02*
X57297676Y-76483333D01*
X57297676Y-76483333D02*
X57202438Y-76578571D01*
X57202438Y-76578571D02*
X57154819Y-76721428D01*
X57154819Y-76721428D02*
X57154819Y-76816666D01*
X57154819Y-76816666D02*
X57202438Y-76959523D01*
X57202438Y-76959523D02*
X57250057Y-77007142D01*
X58154819Y-77959523D02*
X58154819Y-77388095D01*
X58154819Y-77673809D02*
X57154819Y-77673809D01*
X57154819Y-77673809D02*
X57297676Y-77578571D01*
X57297676Y-77578571D02*
X57392914Y-77483333D01*
X57392914Y-77483333D02*
X57440533Y-77388095D01*
X57154819Y-78292857D02*
X57154819Y-78911904D01*
X57154819Y-78911904D02*
X57535771Y-78578571D01*
X57535771Y-78578571D02*
X57535771Y-78721428D01*
X57535771Y-78721428D02*
X57583390Y-78816666D01*
X57583390Y-78816666D02*
X57631009Y-78864285D01*
X57631009Y-78864285D02*
X57726247Y-78911904D01*
X57726247Y-78911904D02*
X57964342Y-78911904D01*
X57964342Y-78911904D02*
X58059580Y-78864285D01*
X58059580Y-78864285D02*
X58107200Y-78816666D01*
X58107200Y-78816666D02*
X58154819Y-78721428D01*
X58154819Y-78721428D02*
X58154819Y-78435714D01*
X58154819Y-78435714D02*
X58107200Y-78340476D01*
X58107200Y-78340476D02*
X58059580Y-78292857D01*
X105807857Y-94979819D02*
X106141190Y-94503628D01*
X106379285Y-94979819D02*
X106379285Y-93979819D01*
X106379285Y-93979819D02*
X105998333Y-93979819D01*
X105998333Y-93979819D02*
X105903095Y-94027438D01*
X105903095Y-94027438D02*
X105855476Y-94075057D01*
X105855476Y-94075057D02*
X105807857Y-94170295D01*
X105807857Y-94170295D02*
X105807857Y-94313152D01*
X105807857Y-94313152D02*
X105855476Y-94408390D01*
X105855476Y-94408390D02*
X105903095Y-94456009D01*
X105903095Y-94456009D02*
X105998333Y-94503628D01*
X105998333Y-94503628D02*
X106379285Y-94503628D01*
X104855476Y-94979819D02*
X105426904Y-94979819D01*
X105141190Y-94979819D02*
X105141190Y-93979819D01*
X105141190Y-93979819D02*
X105236428Y-94122676D01*
X105236428Y-94122676D02*
X105331666Y-94217914D01*
X105331666Y-94217914D02*
X105426904Y-94265533D01*
X104236428Y-93979819D02*
X104141190Y-93979819D01*
X104141190Y-93979819D02*
X104045952Y-94027438D01*
X104045952Y-94027438D02*
X103998333Y-94075057D01*
X103998333Y-94075057D02*
X103950714Y-94170295D01*
X103950714Y-94170295D02*
X103903095Y-94360771D01*
X103903095Y-94360771D02*
X103903095Y-94598866D01*
X103903095Y-94598866D02*
X103950714Y-94789342D01*
X103950714Y-94789342D02*
X103998333Y-94884580D01*
X103998333Y-94884580D02*
X104045952Y-94932200D01*
X104045952Y-94932200D02*
X104141190Y-94979819D01*
X104141190Y-94979819D02*
X104236428Y-94979819D01*
X104236428Y-94979819D02*
X104331666Y-94932200D01*
X104331666Y-94932200D02*
X104379285Y-94884580D01*
X104379285Y-94884580D02*
X104426904Y-94789342D01*
X104426904Y-94789342D02*
X104474523Y-94598866D01*
X104474523Y-94598866D02*
X104474523Y-94360771D01*
X104474523Y-94360771D02*
X104426904Y-94170295D01*
X104426904Y-94170295D02*
X104379285Y-94075057D01*
X104379285Y-94075057D02*
X104331666Y-94027438D01*
X104331666Y-94027438D02*
X104236428Y-93979819D01*
X217309580Y-89382142D02*
X217357200Y-89334523D01*
X217357200Y-89334523D02*
X217404819Y-89191666D01*
X217404819Y-89191666D02*
X217404819Y-89096428D01*
X217404819Y-89096428D02*
X217357200Y-88953571D01*
X217357200Y-88953571D02*
X217261961Y-88858333D01*
X217261961Y-88858333D02*
X217166723Y-88810714D01*
X217166723Y-88810714D02*
X216976247Y-88763095D01*
X216976247Y-88763095D02*
X216833390Y-88763095D01*
X216833390Y-88763095D02*
X216642914Y-88810714D01*
X216642914Y-88810714D02*
X216547676Y-88858333D01*
X216547676Y-88858333D02*
X216452438Y-88953571D01*
X216452438Y-88953571D02*
X216404819Y-89096428D01*
X216404819Y-89096428D02*
X216404819Y-89191666D01*
X216404819Y-89191666D02*
X216452438Y-89334523D01*
X216452438Y-89334523D02*
X216500057Y-89382142D01*
X216500057Y-89763095D02*
X216452438Y-89810714D01*
X216452438Y-89810714D02*
X216404819Y-89905952D01*
X216404819Y-89905952D02*
X216404819Y-90144047D01*
X216404819Y-90144047D02*
X216452438Y-90239285D01*
X216452438Y-90239285D02*
X216500057Y-90286904D01*
X216500057Y-90286904D02*
X216595295Y-90334523D01*
X216595295Y-90334523D02*
X216690533Y-90334523D01*
X216690533Y-90334523D02*
X216833390Y-90286904D01*
X216833390Y-90286904D02*
X217404819Y-89715476D01*
X217404819Y-89715476D02*
X217404819Y-90334523D01*
X216404819Y-90667857D02*
X216404819Y-91334523D01*
X216404819Y-91334523D02*
X217404819Y-90905952D01*
X209997857Y-71249580D02*
X210045476Y-71297200D01*
X210045476Y-71297200D02*
X210188333Y-71344819D01*
X210188333Y-71344819D02*
X210283571Y-71344819D01*
X210283571Y-71344819D02*
X210426428Y-71297200D01*
X210426428Y-71297200D02*
X210521666Y-71201961D01*
X210521666Y-71201961D02*
X210569285Y-71106723D01*
X210569285Y-71106723D02*
X210616904Y-70916247D01*
X210616904Y-70916247D02*
X210616904Y-70773390D01*
X210616904Y-70773390D02*
X210569285Y-70582914D01*
X210569285Y-70582914D02*
X210521666Y-70487676D01*
X210521666Y-70487676D02*
X210426428Y-70392438D01*
X210426428Y-70392438D02*
X210283571Y-70344819D01*
X210283571Y-70344819D02*
X210188333Y-70344819D01*
X210188333Y-70344819D02*
X210045476Y-70392438D01*
X210045476Y-70392438D02*
X209997857Y-70440057D01*
X209045476Y-71344819D02*
X209616904Y-71344819D01*
X209331190Y-71344819D02*
X209331190Y-70344819D01*
X209331190Y-70344819D02*
X209426428Y-70487676D01*
X209426428Y-70487676D02*
X209521666Y-70582914D01*
X209521666Y-70582914D02*
X209616904Y-70630533D01*
X208569285Y-71344819D02*
X208378809Y-71344819D01*
X208378809Y-71344819D02*
X208283571Y-71297200D01*
X208283571Y-71297200D02*
X208235952Y-71249580D01*
X208235952Y-71249580D02*
X208140714Y-71106723D01*
X208140714Y-71106723D02*
X208093095Y-70916247D01*
X208093095Y-70916247D02*
X208093095Y-70535295D01*
X208093095Y-70535295D02*
X208140714Y-70440057D01*
X208140714Y-70440057D02*
X208188333Y-70392438D01*
X208188333Y-70392438D02*
X208283571Y-70344819D01*
X208283571Y-70344819D02*
X208474047Y-70344819D01*
X208474047Y-70344819D02*
X208569285Y-70392438D01*
X208569285Y-70392438D02*
X208616904Y-70440057D01*
X208616904Y-70440057D02*
X208664523Y-70535295D01*
X208664523Y-70535295D02*
X208664523Y-70773390D01*
X208664523Y-70773390D02*
X208616904Y-70868628D01*
X208616904Y-70868628D02*
X208569285Y-70916247D01*
X208569285Y-70916247D02*
X208474047Y-70963866D01*
X208474047Y-70963866D02*
X208283571Y-70963866D01*
X208283571Y-70963866D02*
X208188333Y-70916247D01*
X208188333Y-70916247D02*
X208140714Y-70868628D01*
X208140714Y-70868628D02*
X208093095Y-70773390D01*
X239562857Y-71259580D02*
X239610476Y-71307200D01*
X239610476Y-71307200D02*
X239753333Y-71354819D01*
X239753333Y-71354819D02*
X239848571Y-71354819D01*
X239848571Y-71354819D02*
X239991428Y-71307200D01*
X239991428Y-71307200D02*
X240086666Y-71211961D01*
X240086666Y-71211961D02*
X240134285Y-71116723D01*
X240134285Y-71116723D02*
X240181904Y-70926247D01*
X240181904Y-70926247D02*
X240181904Y-70783390D01*
X240181904Y-70783390D02*
X240134285Y-70592914D01*
X240134285Y-70592914D02*
X240086666Y-70497676D01*
X240086666Y-70497676D02*
X239991428Y-70402438D01*
X239991428Y-70402438D02*
X239848571Y-70354819D01*
X239848571Y-70354819D02*
X239753333Y-70354819D01*
X239753333Y-70354819D02*
X239610476Y-70402438D01*
X239610476Y-70402438D02*
X239562857Y-70450057D01*
X239181904Y-70450057D02*
X239134285Y-70402438D01*
X239134285Y-70402438D02*
X239039047Y-70354819D01*
X239039047Y-70354819D02*
X238800952Y-70354819D01*
X238800952Y-70354819D02*
X238705714Y-70402438D01*
X238705714Y-70402438D02*
X238658095Y-70450057D01*
X238658095Y-70450057D02*
X238610476Y-70545295D01*
X238610476Y-70545295D02*
X238610476Y-70640533D01*
X238610476Y-70640533D02*
X238658095Y-70783390D01*
X238658095Y-70783390D02*
X239229523Y-71354819D01*
X239229523Y-71354819D02*
X238610476Y-71354819D01*
X237753333Y-70688152D02*
X237753333Y-71354819D01*
X237991428Y-70307200D02*
X238229523Y-71021485D01*
X238229523Y-71021485D02*
X237610476Y-71021485D01*
X105296666Y-84979819D02*
X105629999Y-84503628D01*
X105868094Y-84979819D02*
X105868094Y-83979819D01*
X105868094Y-83979819D02*
X105487142Y-83979819D01*
X105487142Y-83979819D02*
X105391904Y-84027438D01*
X105391904Y-84027438D02*
X105344285Y-84075057D01*
X105344285Y-84075057D02*
X105296666Y-84170295D01*
X105296666Y-84170295D02*
X105296666Y-84313152D01*
X105296666Y-84313152D02*
X105344285Y-84408390D01*
X105344285Y-84408390D02*
X105391904Y-84456009D01*
X105391904Y-84456009D02*
X105487142Y-84503628D01*
X105487142Y-84503628D02*
X105868094Y-84503628D01*
X104820475Y-84979819D02*
X104629999Y-84979819D01*
X104629999Y-84979819D02*
X104534761Y-84932200D01*
X104534761Y-84932200D02*
X104487142Y-84884580D01*
X104487142Y-84884580D02*
X104391904Y-84741723D01*
X104391904Y-84741723D02*
X104344285Y-84551247D01*
X104344285Y-84551247D02*
X104344285Y-84170295D01*
X104344285Y-84170295D02*
X104391904Y-84075057D01*
X104391904Y-84075057D02*
X104439523Y-84027438D01*
X104439523Y-84027438D02*
X104534761Y-83979819D01*
X104534761Y-83979819D02*
X104725237Y-83979819D01*
X104725237Y-83979819D02*
X104820475Y-84027438D01*
X104820475Y-84027438D02*
X104868094Y-84075057D01*
X104868094Y-84075057D02*
X104915713Y-84170295D01*
X104915713Y-84170295D02*
X104915713Y-84408390D01*
X104915713Y-84408390D02*
X104868094Y-84503628D01*
X104868094Y-84503628D02*
X104820475Y-84551247D01*
X104820475Y-84551247D02*
X104725237Y-84598866D01*
X104725237Y-84598866D02*
X104534761Y-84598866D01*
X104534761Y-84598866D02*
X104439523Y-84551247D01*
X104439523Y-84551247D02*
X104391904Y-84503628D01*
X104391904Y-84503628D02*
X104344285Y-84408390D01*
X102992857Y-71434580D02*
X103040476Y-71482200D01*
X103040476Y-71482200D02*
X103183333Y-71529819D01*
X103183333Y-71529819D02*
X103278571Y-71529819D01*
X103278571Y-71529819D02*
X103421428Y-71482200D01*
X103421428Y-71482200D02*
X103516666Y-71386961D01*
X103516666Y-71386961D02*
X103564285Y-71291723D01*
X103564285Y-71291723D02*
X103611904Y-71101247D01*
X103611904Y-71101247D02*
X103611904Y-70958390D01*
X103611904Y-70958390D02*
X103564285Y-70767914D01*
X103564285Y-70767914D02*
X103516666Y-70672676D01*
X103516666Y-70672676D02*
X103421428Y-70577438D01*
X103421428Y-70577438D02*
X103278571Y-70529819D01*
X103278571Y-70529819D02*
X103183333Y-70529819D01*
X103183333Y-70529819D02*
X103040476Y-70577438D01*
X103040476Y-70577438D02*
X102992857Y-70625057D01*
X102611904Y-70625057D02*
X102564285Y-70577438D01*
X102564285Y-70577438D02*
X102469047Y-70529819D01*
X102469047Y-70529819D02*
X102230952Y-70529819D01*
X102230952Y-70529819D02*
X102135714Y-70577438D01*
X102135714Y-70577438D02*
X102088095Y-70625057D01*
X102088095Y-70625057D02*
X102040476Y-70720295D01*
X102040476Y-70720295D02*
X102040476Y-70815533D01*
X102040476Y-70815533D02*
X102088095Y-70958390D01*
X102088095Y-70958390D02*
X102659523Y-71529819D01*
X102659523Y-71529819D02*
X102040476Y-71529819D01*
X101135714Y-70529819D02*
X101611904Y-70529819D01*
X101611904Y-70529819D02*
X101659523Y-71006009D01*
X101659523Y-71006009D02*
X101611904Y-70958390D01*
X101611904Y-70958390D02*
X101516666Y-70910771D01*
X101516666Y-70910771D02*
X101278571Y-70910771D01*
X101278571Y-70910771D02*
X101183333Y-70958390D01*
X101183333Y-70958390D02*
X101135714Y-71006009D01*
X101135714Y-71006009D02*
X101088095Y-71101247D01*
X101088095Y-71101247D02*
X101088095Y-71339342D01*
X101088095Y-71339342D02*
X101135714Y-71434580D01*
X101135714Y-71434580D02*
X101183333Y-71482200D01*
X101183333Y-71482200D02*
X101278571Y-71529819D01*
X101278571Y-71529819D02*
X101516666Y-71529819D01*
X101516666Y-71529819D02*
X101611904Y-71482200D01*
X101611904Y-71482200D02*
X101659523Y-71434580D01*
X74387857Y-78349580D02*
X74435476Y-78397200D01*
X74435476Y-78397200D02*
X74578333Y-78444819D01*
X74578333Y-78444819D02*
X74673571Y-78444819D01*
X74673571Y-78444819D02*
X74816428Y-78397200D01*
X74816428Y-78397200D02*
X74911666Y-78301961D01*
X74911666Y-78301961D02*
X74959285Y-78206723D01*
X74959285Y-78206723D02*
X75006904Y-78016247D01*
X75006904Y-78016247D02*
X75006904Y-77873390D01*
X75006904Y-77873390D02*
X74959285Y-77682914D01*
X74959285Y-77682914D02*
X74911666Y-77587676D01*
X74911666Y-77587676D02*
X74816428Y-77492438D01*
X74816428Y-77492438D02*
X74673571Y-77444819D01*
X74673571Y-77444819D02*
X74578333Y-77444819D01*
X74578333Y-77444819D02*
X74435476Y-77492438D01*
X74435476Y-77492438D02*
X74387857Y-77540057D01*
X73435476Y-78444819D02*
X74006904Y-78444819D01*
X73721190Y-78444819D02*
X73721190Y-77444819D01*
X73721190Y-77444819D02*
X73816428Y-77587676D01*
X73816428Y-77587676D02*
X73911666Y-77682914D01*
X73911666Y-77682914D02*
X74006904Y-77730533D01*
X73054523Y-77540057D02*
X73006904Y-77492438D01*
X73006904Y-77492438D02*
X72911666Y-77444819D01*
X72911666Y-77444819D02*
X72673571Y-77444819D01*
X72673571Y-77444819D02*
X72578333Y-77492438D01*
X72578333Y-77492438D02*
X72530714Y-77540057D01*
X72530714Y-77540057D02*
X72483095Y-77635295D01*
X72483095Y-77635295D02*
X72483095Y-77730533D01*
X72483095Y-77730533D02*
X72530714Y-77873390D01*
X72530714Y-77873390D02*
X73102142Y-78444819D01*
X73102142Y-78444819D02*
X72483095Y-78444819D01*
X204579580Y-106032142D02*
X204627200Y-105984523D01*
X204627200Y-105984523D02*
X204674819Y-105841666D01*
X204674819Y-105841666D02*
X204674819Y-105746428D01*
X204674819Y-105746428D02*
X204627200Y-105603571D01*
X204627200Y-105603571D02*
X204531961Y-105508333D01*
X204531961Y-105508333D02*
X204436723Y-105460714D01*
X204436723Y-105460714D02*
X204246247Y-105413095D01*
X204246247Y-105413095D02*
X204103390Y-105413095D01*
X204103390Y-105413095D02*
X203912914Y-105460714D01*
X203912914Y-105460714D02*
X203817676Y-105508333D01*
X203817676Y-105508333D02*
X203722438Y-105603571D01*
X203722438Y-105603571D02*
X203674819Y-105746428D01*
X203674819Y-105746428D02*
X203674819Y-105841666D01*
X203674819Y-105841666D02*
X203722438Y-105984523D01*
X203722438Y-105984523D02*
X203770057Y-106032142D01*
X203770057Y-106413095D02*
X203722438Y-106460714D01*
X203722438Y-106460714D02*
X203674819Y-106555952D01*
X203674819Y-106555952D02*
X203674819Y-106794047D01*
X203674819Y-106794047D02*
X203722438Y-106889285D01*
X203722438Y-106889285D02*
X203770057Y-106936904D01*
X203770057Y-106936904D02*
X203865295Y-106984523D01*
X203865295Y-106984523D02*
X203960533Y-106984523D01*
X203960533Y-106984523D02*
X204103390Y-106936904D01*
X204103390Y-106936904D02*
X204674819Y-106365476D01*
X204674819Y-106365476D02*
X204674819Y-106984523D01*
X204674819Y-107936904D02*
X204674819Y-107365476D01*
X204674819Y-107651190D02*
X203674819Y-107651190D01*
X203674819Y-107651190D02*
X203817676Y-107555952D01*
X203817676Y-107555952D02*
X203912914Y-107460714D01*
X203912914Y-107460714D02*
X203960533Y-107365476D01*
X135589580Y-91677142D02*
X135637200Y-91629523D01*
X135637200Y-91629523D02*
X135684819Y-91486666D01*
X135684819Y-91486666D02*
X135684819Y-91391428D01*
X135684819Y-91391428D02*
X135637200Y-91248571D01*
X135637200Y-91248571D02*
X135541961Y-91153333D01*
X135541961Y-91153333D02*
X135446723Y-91105714D01*
X135446723Y-91105714D02*
X135256247Y-91058095D01*
X135256247Y-91058095D02*
X135113390Y-91058095D01*
X135113390Y-91058095D02*
X134922914Y-91105714D01*
X134922914Y-91105714D02*
X134827676Y-91153333D01*
X134827676Y-91153333D02*
X134732438Y-91248571D01*
X134732438Y-91248571D02*
X134684819Y-91391428D01*
X134684819Y-91391428D02*
X134684819Y-91486666D01*
X134684819Y-91486666D02*
X134732438Y-91629523D01*
X134732438Y-91629523D02*
X134780057Y-91677142D01*
X135684819Y-92629523D02*
X135684819Y-92058095D01*
X135684819Y-92343809D02*
X134684819Y-92343809D01*
X134684819Y-92343809D02*
X134827676Y-92248571D01*
X134827676Y-92248571D02*
X134922914Y-92153333D01*
X134922914Y-92153333D02*
X134970533Y-92058095D01*
X134684819Y-93486666D02*
X134684819Y-93296190D01*
X134684819Y-93296190D02*
X134732438Y-93200952D01*
X134732438Y-93200952D02*
X134780057Y-93153333D01*
X134780057Y-93153333D02*
X134922914Y-93058095D01*
X134922914Y-93058095D02*
X135113390Y-93010476D01*
X135113390Y-93010476D02*
X135494342Y-93010476D01*
X135494342Y-93010476D02*
X135589580Y-93058095D01*
X135589580Y-93058095D02*
X135637200Y-93105714D01*
X135637200Y-93105714D02*
X135684819Y-93200952D01*
X135684819Y-93200952D02*
X135684819Y-93391428D01*
X135684819Y-93391428D02*
X135637200Y-93486666D01*
X135637200Y-93486666D02*
X135589580Y-93534285D01*
X135589580Y-93534285D02*
X135494342Y-93581904D01*
X135494342Y-93581904D02*
X135256247Y-93581904D01*
X135256247Y-93581904D02*
X135161009Y-93534285D01*
X135161009Y-93534285D02*
X135113390Y-93486666D01*
X135113390Y-93486666D02*
X135065771Y-93391428D01*
X135065771Y-93391428D02*
X135065771Y-93200952D01*
X135065771Y-93200952D02*
X135113390Y-93105714D01*
X135113390Y-93105714D02*
X135161009Y-93058095D01*
X135161009Y-93058095D02*
X135256247Y-93010476D01*
X189709580Y-114082142D02*
X189757200Y-114034523D01*
X189757200Y-114034523D02*
X189804819Y-113891666D01*
X189804819Y-113891666D02*
X189804819Y-113796428D01*
X189804819Y-113796428D02*
X189757200Y-113653571D01*
X189757200Y-113653571D02*
X189661961Y-113558333D01*
X189661961Y-113558333D02*
X189566723Y-113510714D01*
X189566723Y-113510714D02*
X189376247Y-113463095D01*
X189376247Y-113463095D02*
X189233390Y-113463095D01*
X189233390Y-113463095D02*
X189042914Y-113510714D01*
X189042914Y-113510714D02*
X188947676Y-113558333D01*
X188947676Y-113558333D02*
X188852438Y-113653571D01*
X188852438Y-113653571D02*
X188804819Y-113796428D01*
X188804819Y-113796428D02*
X188804819Y-113891666D01*
X188804819Y-113891666D02*
X188852438Y-114034523D01*
X188852438Y-114034523D02*
X188900057Y-114082142D01*
X188900057Y-114463095D02*
X188852438Y-114510714D01*
X188852438Y-114510714D02*
X188804819Y-114605952D01*
X188804819Y-114605952D02*
X188804819Y-114844047D01*
X188804819Y-114844047D02*
X188852438Y-114939285D01*
X188852438Y-114939285D02*
X188900057Y-114986904D01*
X188900057Y-114986904D02*
X188995295Y-115034523D01*
X188995295Y-115034523D02*
X189090533Y-115034523D01*
X189090533Y-115034523D02*
X189233390Y-114986904D01*
X189233390Y-114986904D02*
X189804819Y-114415476D01*
X189804819Y-114415476D02*
X189804819Y-115034523D01*
X189233390Y-115605952D02*
X189185771Y-115510714D01*
X189185771Y-115510714D02*
X189138152Y-115463095D01*
X189138152Y-115463095D02*
X189042914Y-115415476D01*
X189042914Y-115415476D02*
X188995295Y-115415476D01*
X188995295Y-115415476D02*
X188900057Y-115463095D01*
X188900057Y-115463095D02*
X188852438Y-115510714D01*
X188852438Y-115510714D02*
X188804819Y-115605952D01*
X188804819Y-115605952D02*
X188804819Y-115796428D01*
X188804819Y-115796428D02*
X188852438Y-115891666D01*
X188852438Y-115891666D02*
X188900057Y-115939285D01*
X188900057Y-115939285D02*
X188995295Y-115986904D01*
X188995295Y-115986904D02*
X189042914Y-115986904D01*
X189042914Y-115986904D02*
X189138152Y-115939285D01*
X189138152Y-115939285D02*
X189185771Y-115891666D01*
X189185771Y-115891666D02*
X189233390Y-115796428D01*
X189233390Y-115796428D02*
X189233390Y-115605952D01*
X189233390Y-115605952D02*
X189281009Y-115510714D01*
X189281009Y-115510714D02*
X189328628Y-115463095D01*
X189328628Y-115463095D02*
X189423866Y-115415476D01*
X189423866Y-115415476D02*
X189614342Y-115415476D01*
X189614342Y-115415476D02*
X189709580Y-115463095D01*
X189709580Y-115463095D02*
X189757200Y-115510714D01*
X189757200Y-115510714D02*
X189804819Y-115605952D01*
X189804819Y-115605952D02*
X189804819Y-115796428D01*
X189804819Y-115796428D02*
X189757200Y-115891666D01*
X189757200Y-115891666D02*
X189709580Y-115939285D01*
X189709580Y-115939285D02*
X189614342Y-115986904D01*
X189614342Y-115986904D02*
X189423866Y-115986904D01*
X189423866Y-115986904D02*
X189328628Y-115939285D01*
X189328628Y-115939285D02*
X189281009Y-115891666D01*
X189281009Y-115891666D02*
X189233390Y-115796428D01*
X148459580Y-93677142D02*
X148507200Y-93629523D01*
X148507200Y-93629523D02*
X148554819Y-93486666D01*
X148554819Y-93486666D02*
X148554819Y-93391428D01*
X148554819Y-93391428D02*
X148507200Y-93248571D01*
X148507200Y-93248571D02*
X148411961Y-93153333D01*
X148411961Y-93153333D02*
X148316723Y-93105714D01*
X148316723Y-93105714D02*
X148126247Y-93058095D01*
X148126247Y-93058095D02*
X147983390Y-93058095D01*
X147983390Y-93058095D02*
X147792914Y-93105714D01*
X147792914Y-93105714D02*
X147697676Y-93153333D01*
X147697676Y-93153333D02*
X147602438Y-93248571D01*
X147602438Y-93248571D02*
X147554819Y-93391428D01*
X147554819Y-93391428D02*
X147554819Y-93486666D01*
X147554819Y-93486666D02*
X147602438Y-93629523D01*
X147602438Y-93629523D02*
X147650057Y-93677142D01*
X148554819Y-94629523D02*
X148554819Y-94058095D01*
X148554819Y-94343809D02*
X147554819Y-94343809D01*
X147554819Y-94343809D02*
X147697676Y-94248571D01*
X147697676Y-94248571D02*
X147792914Y-94153333D01*
X147792914Y-94153333D02*
X147840533Y-94058095D01*
X147554819Y-94962857D02*
X147554819Y-95629523D01*
X147554819Y-95629523D02*
X148554819Y-95200952D01*
X116879580Y-114632142D02*
X116927200Y-114584523D01*
X116927200Y-114584523D02*
X116974819Y-114441666D01*
X116974819Y-114441666D02*
X116974819Y-114346428D01*
X116974819Y-114346428D02*
X116927200Y-114203571D01*
X116927200Y-114203571D02*
X116831961Y-114108333D01*
X116831961Y-114108333D02*
X116736723Y-114060714D01*
X116736723Y-114060714D02*
X116546247Y-114013095D01*
X116546247Y-114013095D02*
X116403390Y-114013095D01*
X116403390Y-114013095D02*
X116212914Y-114060714D01*
X116212914Y-114060714D02*
X116117676Y-114108333D01*
X116117676Y-114108333D02*
X116022438Y-114203571D01*
X116022438Y-114203571D02*
X115974819Y-114346428D01*
X115974819Y-114346428D02*
X115974819Y-114441666D01*
X115974819Y-114441666D02*
X116022438Y-114584523D01*
X116022438Y-114584523D02*
X116070057Y-114632142D01*
X116070057Y-115013095D02*
X116022438Y-115060714D01*
X116022438Y-115060714D02*
X115974819Y-115155952D01*
X115974819Y-115155952D02*
X115974819Y-115394047D01*
X115974819Y-115394047D02*
X116022438Y-115489285D01*
X116022438Y-115489285D02*
X116070057Y-115536904D01*
X116070057Y-115536904D02*
X116165295Y-115584523D01*
X116165295Y-115584523D02*
X116260533Y-115584523D01*
X116260533Y-115584523D02*
X116403390Y-115536904D01*
X116403390Y-115536904D02*
X116974819Y-114965476D01*
X116974819Y-114965476D02*
X116974819Y-115584523D01*
X115974819Y-116441666D02*
X115974819Y-116251190D01*
X115974819Y-116251190D02*
X116022438Y-116155952D01*
X116022438Y-116155952D02*
X116070057Y-116108333D01*
X116070057Y-116108333D02*
X116212914Y-116013095D01*
X116212914Y-116013095D02*
X116403390Y-115965476D01*
X116403390Y-115965476D02*
X116784342Y-115965476D01*
X116784342Y-115965476D02*
X116879580Y-116013095D01*
X116879580Y-116013095D02*
X116927200Y-116060714D01*
X116927200Y-116060714D02*
X116974819Y-116155952D01*
X116974819Y-116155952D02*
X116974819Y-116346428D01*
X116974819Y-116346428D02*
X116927200Y-116441666D01*
X116927200Y-116441666D02*
X116879580Y-116489285D01*
X116879580Y-116489285D02*
X116784342Y-116536904D01*
X116784342Y-116536904D02*
X116546247Y-116536904D01*
X116546247Y-116536904D02*
X116451009Y-116489285D01*
X116451009Y-116489285D02*
X116403390Y-116441666D01*
X116403390Y-116441666D02*
X116355771Y-116346428D01*
X116355771Y-116346428D02*
X116355771Y-116155952D01*
X116355771Y-116155952D02*
X116403390Y-116060714D01*
X116403390Y-116060714D02*
X116451009Y-116013095D01*
X116451009Y-116013095D02*
X116546247Y-115965476D01*
X164842857Y-98429580D02*
X164890476Y-98477200D01*
X164890476Y-98477200D02*
X165033333Y-98524819D01*
X165033333Y-98524819D02*
X165128571Y-98524819D01*
X165128571Y-98524819D02*
X165271428Y-98477200D01*
X165271428Y-98477200D02*
X165366666Y-98381961D01*
X165366666Y-98381961D02*
X165414285Y-98286723D01*
X165414285Y-98286723D02*
X165461904Y-98096247D01*
X165461904Y-98096247D02*
X165461904Y-97953390D01*
X165461904Y-97953390D02*
X165414285Y-97762914D01*
X165414285Y-97762914D02*
X165366666Y-97667676D01*
X165366666Y-97667676D02*
X165271428Y-97572438D01*
X165271428Y-97572438D02*
X165128571Y-97524819D01*
X165128571Y-97524819D02*
X165033333Y-97524819D01*
X165033333Y-97524819D02*
X164890476Y-97572438D01*
X164890476Y-97572438D02*
X164842857Y-97620057D01*
X163890476Y-98524819D02*
X164461904Y-98524819D01*
X164176190Y-98524819D02*
X164176190Y-97524819D01*
X164176190Y-97524819D02*
X164271428Y-97667676D01*
X164271428Y-97667676D02*
X164366666Y-97762914D01*
X164366666Y-97762914D02*
X164461904Y-97810533D01*
X163319047Y-97953390D02*
X163414285Y-97905771D01*
X163414285Y-97905771D02*
X163461904Y-97858152D01*
X163461904Y-97858152D02*
X163509523Y-97762914D01*
X163509523Y-97762914D02*
X163509523Y-97715295D01*
X163509523Y-97715295D02*
X163461904Y-97620057D01*
X163461904Y-97620057D02*
X163414285Y-97572438D01*
X163414285Y-97572438D02*
X163319047Y-97524819D01*
X163319047Y-97524819D02*
X163128571Y-97524819D01*
X163128571Y-97524819D02*
X163033333Y-97572438D01*
X163033333Y-97572438D02*
X162985714Y-97620057D01*
X162985714Y-97620057D02*
X162938095Y-97715295D01*
X162938095Y-97715295D02*
X162938095Y-97762914D01*
X162938095Y-97762914D02*
X162985714Y-97858152D01*
X162985714Y-97858152D02*
X163033333Y-97905771D01*
X163033333Y-97905771D02*
X163128571Y-97953390D01*
X163128571Y-97953390D02*
X163319047Y-97953390D01*
X163319047Y-97953390D02*
X163414285Y-98001009D01*
X163414285Y-98001009D02*
X163461904Y-98048628D01*
X163461904Y-98048628D02*
X163509523Y-98143866D01*
X163509523Y-98143866D02*
X163509523Y-98334342D01*
X163509523Y-98334342D02*
X163461904Y-98429580D01*
X163461904Y-98429580D02*
X163414285Y-98477200D01*
X163414285Y-98477200D02*
X163319047Y-98524819D01*
X163319047Y-98524819D02*
X163128571Y-98524819D01*
X163128571Y-98524819D02*
X163033333Y-98477200D01*
X163033333Y-98477200D02*
X162985714Y-98429580D01*
X162985714Y-98429580D02*
X162938095Y-98334342D01*
X162938095Y-98334342D02*
X162938095Y-98143866D01*
X162938095Y-98143866D02*
X162985714Y-98048628D01*
X162985714Y-98048628D02*
X163033333Y-98001009D01*
X163033333Y-98001009D02*
X163128571Y-97953390D01*
D12*
%TO.C,C20*%
X224410000Y-73259420D02*
X224410000Y-73540580D01*
X223390000Y-73259420D02*
X223390000Y-73540580D01*
%TO.C,C13*%
X58235000Y-80534420D02*
X58235000Y-80815580D01*
X57215000Y-80534420D02*
X57215000Y-80815580D01*
%TO.C,R10*%
X105955000Y-91370436D02*
X105955000Y-91824564D01*
X104485000Y-91370436D02*
X104485000Y-91824564D01*
%TO.C,C27*%
X218115000Y-90090580D02*
X218115000Y-89809420D01*
X219135000Y-90090580D02*
X219135000Y-89809420D01*
%TO.C,C19*%
X209610000Y-73359420D02*
X209610000Y-73640580D01*
X208590000Y-73359420D02*
X208590000Y-73640580D01*
%TO.C,C24*%
X239210000Y-73459420D02*
X239210000Y-73740580D01*
X238190000Y-73459420D02*
X238190000Y-73740580D01*
%TO.C,R9*%
X105875000Y-86782936D02*
X105875000Y-87237064D01*
X104405000Y-86782936D02*
X104405000Y-87237064D01*
%TO.C,C25*%
X102810000Y-68559420D02*
X102810000Y-68840580D01*
X101790000Y-68559420D02*
X101790000Y-68840580D01*
%TO.C,C12*%
X74060000Y-80184420D02*
X74060000Y-80465580D01*
X73040000Y-80184420D02*
X73040000Y-80465580D01*
%TO.C,C21*%
X206160000Y-106534420D02*
X206160000Y-106815580D01*
X205140000Y-106534420D02*
X205140000Y-106815580D01*
%TO.C,C16*%
X132759420Y-91765000D02*
X133040580Y-91765000D01*
X132759420Y-92785000D02*
X133040580Y-92785000D01*
%TO.C,C28*%
X187115000Y-114915580D02*
X187115000Y-114634420D01*
X188135000Y-114915580D02*
X188135000Y-114634420D01*
%TO.C,C17*%
X149565000Y-94415580D02*
X149565000Y-94134420D01*
X150585000Y-94415580D02*
X150585000Y-94134420D01*
%TO.C,C26*%
X118460000Y-115134420D02*
X118460000Y-115415580D01*
X117440000Y-115134420D02*
X117440000Y-115415580D01*
%TO.C,C18*%
X164465580Y-96685000D02*
X164184420Y-96685000D01*
X164465580Y-95665000D02*
X164184420Y-95665000D01*
%TD*%
M02*
