%TF.GenerationSoftware,KiCad,Pcbnew,7.0.8*%
%TF.CreationDate,2026-03-06T14:37:57-05:00*%
%TF.ProjectId,1130MRAM,31313330-4d52-4414-9d2e-6b696361645f,rev?*%
%TF.SameCoordinates,Original*%
%TF.FileFunction,Drillmap*%
%TF.FilePolarity,Positive*%
%FSLAX45Y45*%
G04 Gerber Fmt 4.5, Leading zero omitted, Abs format (unit mm)*
G04 Created by KiCad (PCBNEW 7.0.8) date 2026-03-06 14:37:57*
%MOMM*%
%LPD*%
G01*
G04 APERTURE LIST*
%ADD10C,0.100000*%
%ADD11C,0.200000*%
%ADD12C,0.040000*%
%ADD13C,0.092000*%
%ADD14C,0.120000*%
G04 APERTURE END LIST*
D10*
X3302000Y-5588000D02*
X26162000Y-5588000D01*
X26162000Y-11938000D01*
X3302000Y-11938000D01*
X3302000Y-5588000D01*
D11*
D12*
X3565000Y-11077500D02*
X3605000Y-11117500D01*
X3605000Y-11077500D02*
X3565000Y-11117500D01*
X3592500Y-6405000D02*
X3632500Y-6445000D01*
X3632500Y-6405000D02*
X3592500Y-6445000D01*
X3592500Y-7867500D02*
X3632500Y-7907500D01*
X3632500Y-7867500D02*
X3592500Y-7907500D01*
X3625000Y-11240000D02*
X3665000Y-11280000D01*
X3665000Y-11240000D02*
X3625000Y-11280000D01*
X3800000Y-7897500D02*
X3840000Y-7937500D01*
X3840000Y-7897500D02*
X3800000Y-7937500D01*
X3800000Y-11307500D02*
X3840000Y-11347500D01*
X3840000Y-11307500D02*
X3800000Y-11347500D01*
X3847500Y-7802500D02*
X3887500Y-7842500D01*
X3887500Y-7802500D02*
X3847500Y-7842500D01*
X3862500Y-7172500D02*
X3902500Y-7212500D01*
X3902500Y-7172500D02*
X3862500Y-7212500D01*
X3872500Y-7037500D02*
X3912500Y-7077500D01*
X3912500Y-7037500D02*
X3872500Y-7077500D01*
X3887500Y-6287500D02*
X3927500Y-6327500D01*
X3927500Y-6287500D02*
X3887500Y-6327500D01*
X3895000Y-6430000D02*
X3935000Y-6470000D01*
X3935000Y-6430000D02*
X3895000Y-6470000D01*
X4397500Y-7555000D02*
X4437500Y-7595000D01*
X4437500Y-7555000D02*
X4397500Y-7595000D01*
X4415000Y-6812500D02*
X4455000Y-6852500D01*
X4455000Y-6812500D02*
X4415000Y-6852500D01*
X4430000Y-6040000D02*
X4470000Y-6080000D01*
X4470000Y-6040000D02*
X4430000Y-6080000D01*
X4525000Y-7555000D02*
X4565000Y-7595000D01*
X4565000Y-7555000D02*
X4525000Y-7595000D01*
X4572500Y-6812500D02*
X4612500Y-6852500D01*
X4612500Y-6812500D02*
X4572500Y-6852500D01*
X4582500Y-6047500D02*
X4622500Y-6087500D01*
X4622500Y-6047500D02*
X4582500Y-6087500D01*
X4645000Y-10467500D02*
X4685000Y-10507500D01*
X4685000Y-10467500D02*
X4645000Y-10507500D01*
X4765000Y-7835000D02*
X4805000Y-7875000D01*
X4805000Y-7835000D02*
X4765000Y-7875000D01*
X4765000Y-7962500D02*
X4805000Y-8002500D01*
X4805000Y-7962500D02*
X4765000Y-8002500D01*
X4830000Y-10267500D02*
X4870000Y-10307500D01*
X4870000Y-10267500D02*
X4830000Y-10307500D01*
X4985000Y-10277500D02*
X5025000Y-10317500D01*
X5025000Y-10277500D02*
X4985000Y-10317500D01*
X5000000Y-8722500D02*
X5040000Y-8762500D01*
X5040000Y-8722500D02*
X5000000Y-8762500D01*
X5020000Y-8487500D02*
X5060000Y-8527500D01*
X5060000Y-8487500D02*
X5020000Y-8527500D01*
X5060000Y-8072450D02*
X5100000Y-8112450D01*
X5100000Y-8072450D02*
X5060000Y-8112450D01*
X5147500Y-8487500D02*
X5187500Y-8527500D01*
X5187500Y-8487500D02*
X5147500Y-8527500D01*
X5230000Y-8200000D02*
X5270000Y-8240000D01*
X5270000Y-8200000D02*
X5230000Y-8240000D01*
X5262500Y-8842500D02*
X5302500Y-8882500D01*
X5302500Y-8842500D02*
X5262500Y-8882500D01*
X5312500Y-7780000D02*
X5352500Y-7820000D01*
X5352500Y-7780000D02*
X5312500Y-7820000D01*
X5485000Y-8397500D02*
X5525000Y-8437500D01*
X5525000Y-8397500D02*
X5485000Y-8437500D01*
X5485000Y-8495000D02*
X5525000Y-8535000D01*
X5525000Y-8495000D02*
X5485000Y-8535000D01*
X5485270Y-7057770D02*
X5525270Y-7097770D01*
X5525270Y-7057770D02*
X5485270Y-7097770D01*
X5780000Y-6950000D02*
X5820000Y-6990000D01*
X5820000Y-6950000D02*
X5780000Y-6990000D01*
X5920000Y-10417500D02*
X5960000Y-10457500D01*
X5960000Y-10417500D02*
X5920000Y-10457500D01*
X5952500Y-7102500D02*
X5992500Y-7142500D01*
X5992500Y-7102500D02*
X5952500Y-7142500D01*
X5957500Y-7265000D02*
X5997500Y-7305000D01*
X5997500Y-7265000D02*
X5957500Y-7305000D01*
X6000000Y-8647500D02*
X6040000Y-8687500D01*
X6040000Y-8647500D02*
X6000000Y-8687500D01*
X6000000Y-8832500D02*
X6040000Y-8872500D01*
X6040000Y-8832500D02*
X6000000Y-8872500D01*
X6032500Y-6860000D02*
X6072500Y-6900000D01*
X6072500Y-6860000D02*
X6032500Y-6900000D01*
X6085000Y-7705000D02*
X6125000Y-7745000D01*
X6125000Y-7705000D02*
X6085000Y-7745000D01*
X6097500Y-9327500D02*
X6137500Y-9367500D01*
X6137500Y-9327500D02*
X6097500Y-9367500D01*
X6205000Y-9442500D02*
X6245000Y-9482500D01*
X6245000Y-9442500D02*
X6205000Y-9482500D01*
X6265000Y-8007500D02*
X6305000Y-8047500D01*
X6305000Y-8007500D02*
X6265000Y-8047500D01*
X6327500Y-9460000D02*
X6367500Y-9500000D01*
X6367500Y-9460000D02*
X6327500Y-9500000D01*
X6387500Y-8202500D02*
X6427500Y-8242500D01*
X6427500Y-8202500D02*
X6387500Y-8242500D01*
X6392500Y-6875000D02*
X6432500Y-6915000D01*
X6432500Y-6875000D02*
X6392500Y-6915000D01*
X6417500Y-10002500D02*
X6457500Y-10042500D01*
X6457500Y-10002500D02*
X6417500Y-10042500D01*
X6440000Y-8500000D02*
X6480000Y-8540000D01*
X6480000Y-8500000D02*
X6440000Y-8540000D01*
X6492500Y-10067500D02*
X6532500Y-10107500D01*
X6532500Y-10067500D02*
X6492500Y-10107500D01*
X6510000Y-8240000D02*
X6550000Y-8280000D01*
X6550000Y-8240000D02*
X6510000Y-8280000D01*
X6542500Y-8472500D02*
X6582500Y-8512500D01*
X6582500Y-8472500D02*
X6542500Y-8512500D01*
X6546215Y-8043715D02*
X6586215Y-8083715D01*
X6586215Y-8043715D02*
X6546215Y-8083715D01*
X6640000Y-8822500D02*
X6680000Y-8862500D01*
X6680000Y-8822500D02*
X6640000Y-8862500D01*
X6640000Y-8940000D02*
X6680000Y-8980000D01*
X6680000Y-8940000D02*
X6640000Y-8980000D01*
X6710000Y-7209950D02*
X6750000Y-7249950D01*
X6750000Y-7209950D02*
X6710000Y-7249950D01*
X6712500Y-6857500D02*
X6752500Y-6897500D01*
X6752500Y-6857500D02*
X6712500Y-6897500D01*
X6747500Y-8187500D02*
X6787500Y-8227500D01*
X6787500Y-8187500D02*
X6747500Y-8227500D01*
X6807500Y-8407500D02*
X6847500Y-8447500D01*
X6847500Y-8407500D02*
X6807500Y-8447500D01*
X6827500Y-7865000D02*
X6867500Y-7905000D01*
X6867500Y-7865000D02*
X6827500Y-7905000D01*
X6840000Y-9437500D02*
X6880000Y-9477500D01*
X6880000Y-9437500D02*
X6840000Y-9477500D01*
X6860000Y-10105000D02*
X6900000Y-10145000D01*
X6900000Y-10105000D02*
X6860000Y-10145000D01*
X6877500Y-8327500D02*
X6917500Y-8367500D01*
X6917500Y-8327500D02*
X6877500Y-8367500D01*
X6910000Y-9797500D02*
X6950000Y-9837500D01*
X6950000Y-9797500D02*
X6910000Y-9837500D01*
X6925000Y-7667500D02*
X6965000Y-7707500D01*
X6965000Y-7667500D02*
X6925000Y-7707500D01*
X6952500Y-9492500D02*
X6992500Y-9532500D01*
X6992500Y-9492500D02*
X6952500Y-9532500D01*
X7037500Y-10107500D02*
X7077500Y-10147500D01*
X7077500Y-10107500D02*
X7037500Y-10147500D01*
X7167500Y-7230000D02*
X7207500Y-7270000D01*
X7207500Y-7230000D02*
X7167500Y-7270000D01*
X7170000Y-8612500D02*
X7210000Y-8652500D01*
X7210000Y-8612500D02*
X7170000Y-8652500D01*
X7242500Y-8835000D02*
X7282500Y-8875000D01*
X7282500Y-8835000D02*
X7242500Y-8875000D01*
X7345000Y-10107500D02*
X7385000Y-10147500D01*
X7385000Y-10107500D02*
X7345000Y-10147500D01*
X7347500Y-8727500D02*
X7387500Y-8767500D01*
X7387500Y-8727500D02*
X7347500Y-8767500D01*
X7372500Y-8465000D02*
X7412500Y-8505000D01*
X7412500Y-8465000D02*
X7372500Y-8505000D01*
X7437500Y-9390000D02*
X7477500Y-9430000D01*
X7477500Y-9390000D02*
X7437500Y-9430000D01*
X7465000Y-10105000D02*
X7505000Y-10145000D01*
X7505000Y-10105000D02*
X7465000Y-10145000D01*
X7502500Y-8722500D02*
X7542500Y-8762500D01*
X7542500Y-8722500D02*
X7502500Y-8762500D01*
X7532500Y-9385000D02*
X7572500Y-9425000D01*
X7572500Y-9385000D02*
X7532500Y-9425000D01*
X7655000Y-7645000D02*
X7695000Y-7685000D01*
X7695000Y-7645000D02*
X7655000Y-7685000D01*
X7797500Y-8852500D02*
X7837500Y-8892500D01*
X7837500Y-8852500D02*
X7797500Y-8892500D01*
X7800000Y-8770600D02*
X7840000Y-8810600D01*
X7840000Y-8770600D02*
X7800000Y-8810600D01*
X7852500Y-7830000D02*
X7892500Y-7870000D01*
X7892500Y-7830000D02*
X7852500Y-7870000D01*
X7925000Y-10390000D02*
X7965000Y-10430000D01*
X7965000Y-10390000D02*
X7925000Y-10430000D01*
X7975000Y-7282400D02*
X8015000Y-7322400D01*
X8015000Y-7282400D02*
X7975000Y-7322400D01*
X8025000Y-9327500D02*
X8065000Y-9367500D01*
X8065000Y-9327500D02*
X8025000Y-9367500D01*
X8080000Y-8220000D02*
X8120000Y-8260000D01*
X8120000Y-8220000D02*
X8080000Y-8260000D01*
X8102500Y-10682500D02*
X8142500Y-10722500D01*
X8142500Y-10682500D02*
X8102500Y-10722500D01*
X8122550Y-9425000D02*
X8162550Y-9465000D01*
X8162550Y-9425000D02*
X8122550Y-9465000D01*
X8155000Y-7690000D02*
X8195000Y-7730000D01*
X8195000Y-7690000D02*
X8155000Y-7730000D01*
X8272500Y-7690000D02*
X8312500Y-7730000D01*
X8312500Y-7690000D02*
X8272500Y-7730000D01*
X8332500Y-9410000D02*
X8372500Y-9450000D01*
X8372500Y-9410000D02*
X8332500Y-9450000D01*
X8360000Y-8615000D02*
X8400000Y-8655000D01*
X8400000Y-8615000D02*
X8360000Y-8655000D01*
X8365000Y-8715000D02*
X8405000Y-8755000D01*
X8405000Y-8715000D02*
X8365000Y-8755000D01*
X8532500Y-9522500D02*
X8572500Y-9562500D01*
X8572500Y-9522500D02*
X8532500Y-9562500D01*
X8646250Y-8971250D02*
X8686250Y-9011250D01*
X8686250Y-8971250D02*
X8646250Y-9011250D01*
X8715000Y-7425000D02*
X8755000Y-7465000D01*
X8755000Y-7425000D02*
X8715000Y-7465000D01*
X9170000Y-6475000D02*
X9210000Y-6515000D01*
X9210000Y-6475000D02*
X9170000Y-6515000D01*
X9270000Y-6367664D02*
X9310000Y-6407664D01*
X9310000Y-6367664D02*
X9270000Y-6407664D01*
X9345000Y-6610000D02*
X9385000Y-6650000D01*
X9385000Y-6610000D02*
X9345000Y-6650000D01*
X9347500Y-8205000D02*
X9387500Y-8245000D01*
X9387500Y-8205000D02*
X9347500Y-8245000D01*
X9352500Y-8360000D02*
X9392500Y-8400000D01*
X9392500Y-8360000D02*
X9352500Y-8400000D01*
X9405000Y-6407500D02*
X9445000Y-6447500D01*
X9445000Y-6407500D02*
X9405000Y-6447500D01*
X9435000Y-6727500D02*
X9475000Y-6767500D01*
X9475000Y-6727500D02*
X9435000Y-6767500D01*
X9525000Y-6932500D02*
X9565000Y-6972500D01*
X9565000Y-6932500D02*
X9525000Y-6972500D01*
X9547500Y-8207500D02*
X9587500Y-8247500D01*
X9587500Y-8207500D02*
X9547500Y-8247500D01*
X9547500Y-8375000D02*
X9587500Y-8415000D01*
X9587500Y-8375000D02*
X9547500Y-8415000D01*
X9577500Y-7092500D02*
X9617500Y-7132500D01*
X9617500Y-7092500D02*
X9577500Y-7132500D01*
X9612500Y-6737500D02*
X9652500Y-6777500D01*
X9652500Y-6737500D02*
X9612500Y-6777500D01*
X9725000Y-9175000D02*
X9765000Y-9215000D01*
X9765000Y-9175000D02*
X9725000Y-9215000D01*
X9778980Y-6931480D02*
X9818980Y-6971480D01*
X9818980Y-6931480D02*
X9778980Y-6971480D01*
X9817000Y-7036000D02*
X9857000Y-7076000D01*
X9857000Y-7036000D02*
X9817000Y-7076000D01*
X9897500Y-7112500D02*
X9937500Y-7152500D01*
X9937500Y-7112500D02*
X9897500Y-7152500D01*
X9922500Y-9170000D02*
X9962500Y-9210000D01*
X9962500Y-9170000D02*
X9922500Y-9210000D01*
X10168570Y-6616070D02*
X10208570Y-6656070D01*
X10208570Y-6616070D02*
X10168570Y-6656070D01*
X10310000Y-9231000D02*
X10350000Y-9271000D01*
X10350000Y-9231000D02*
X10310000Y-9271000D01*
X10342500Y-6815000D02*
X10382500Y-6855000D01*
X10382500Y-6815000D02*
X10342500Y-6855000D01*
X10382500Y-6680995D02*
X10422500Y-6720995D01*
X10422500Y-6680995D02*
X10382500Y-6720995D01*
X10390000Y-6930000D02*
X10430000Y-6970000D01*
X10430000Y-6930000D02*
X10390000Y-6970000D01*
X10417500Y-7050550D02*
X10457500Y-7090550D01*
X10457500Y-7050550D02*
X10417500Y-7090550D01*
X10427500Y-7225000D02*
X10467500Y-7265000D01*
X10467500Y-7225000D02*
X10427500Y-7265000D01*
X10482500Y-7745000D02*
X10522500Y-7785000D01*
X10522500Y-7745000D02*
X10482500Y-7785000D01*
X10602500Y-7845950D02*
X10642500Y-7885950D01*
X10642500Y-7845950D02*
X10602500Y-7885950D01*
X10717500Y-6542500D02*
X10757500Y-6582500D01*
X10757500Y-6542500D02*
X10717500Y-6582500D01*
X10797500Y-6622500D02*
X10837500Y-6662500D01*
X10837500Y-6622500D02*
X10797500Y-6662500D01*
X10830000Y-8227500D02*
X10870000Y-8267500D01*
X10870000Y-8227500D02*
X10830000Y-8267500D01*
X10840000Y-7207500D02*
X10880000Y-7247500D01*
X10880000Y-7207500D02*
X10840000Y-7247500D01*
X10915000Y-6760000D02*
X10955000Y-6800000D01*
X10955000Y-6760000D02*
X10915000Y-6800000D01*
X10947500Y-11302500D02*
X10987500Y-11342500D01*
X10987500Y-11302500D02*
X10947500Y-11342500D01*
X10947500Y-11462500D02*
X10987500Y-11502500D01*
X10987500Y-11462500D02*
X10947500Y-11502500D01*
X10952500Y-11752500D02*
X10992500Y-11792500D01*
X10992500Y-11752500D02*
X10952500Y-11792500D01*
X10955000Y-11002500D02*
X10995000Y-11042500D01*
X10995000Y-11002500D02*
X10955000Y-11042500D01*
X10955000Y-11137500D02*
X10995000Y-11177500D01*
X10995000Y-11137500D02*
X10955000Y-11177500D01*
X11055000Y-8795000D02*
X11095000Y-8835000D01*
X11095000Y-8795000D02*
X11055000Y-8835000D01*
X11072500Y-6502500D02*
X11112500Y-6542500D01*
X11112500Y-6502500D02*
X11072500Y-6542500D01*
X11087500Y-11302500D02*
X11127500Y-11342500D01*
X11127500Y-11302500D02*
X11087500Y-11342500D01*
X11150000Y-11172500D02*
X11190000Y-11212500D01*
X11190000Y-11172500D02*
X11150000Y-11212500D01*
X11197500Y-11335000D02*
X11237500Y-11375000D01*
X11237500Y-11335000D02*
X11197500Y-11375000D01*
X11200000Y-8845000D02*
X11240000Y-8885000D01*
X11240000Y-8845000D02*
X11200000Y-8885000D01*
X11240000Y-11077500D02*
X11280000Y-11117500D01*
X11280000Y-11077500D02*
X11240000Y-11117500D01*
X11247500Y-6457500D02*
X11287500Y-6497500D01*
X11287500Y-6457500D02*
X11247500Y-6497500D01*
X11305000Y-8530000D02*
X11345000Y-8570000D01*
X11345000Y-8530000D02*
X11305000Y-8570000D01*
X11362500Y-11477500D02*
X11402500Y-11517500D01*
X11402500Y-11477500D02*
X11362500Y-11517500D01*
X11377500Y-11680000D02*
X11417500Y-11720000D01*
X11417500Y-11680000D02*
X11377500Y-11720000D01*
X11455000Y-11390000D02*
X11495000Y-11430000D01*
X11495000Y-11390000D02*
X11455000Y-11430000D01*
X11485000Y-11607500D02*
X11525000Y-11647500D01*
X11525000Y-11607500D02*
X11485000Y-11647500D01*
X11512500Y-11255000D02*
X11552500Y-11295000D01*
X11552500Y-11255000D02*
X11512500Y-11295000D01*
X11540000Y-9282500D02*
X11580000Y-9322500D01*
X11580000Y-9282500D02*
X11540000Y-9322500D01*
X11592500Y-9442500D02*
X11632500Y-9482500D01*
X11632500Y-9442500D02*
X11592500Y-9482500D01*
X11602500Y-10832500D02*
X11642500Y-10872500D01*
X11642500Y-10832500D02*
X11602500Y-10872500D01*
X11720000Y-6580000D02*
X11760000Y-6620000D01*
X11760000Y-6580000D02*
X11720000Y-6620000D01*
X11740000Y-10815000D02*
X11780000Y-10855000D01*
X11780000Y-10815000D02*
X11740000Y-10855000D01*
X11742500Y-10052500D02*
X11782500Y-10092500D01*
X11782500Y-10052500D02*
X11742500Y-10092500D01*
X11747500Y-9267500D02*
X11787500Y-9307500D01*
X11787500Y-9267500D02*
X11747500Y-9307500D01*
X11792500Y-6525000D02*
X11832500Y-6565000D01*
X11832500Y-6525000D02*
X11792500Y-6565000D01*
X11865000Y-6462500D02*
X11905000Y-6502500D01*
X11905000Y-6462500D02*
X11865000Y-6502500D01*
X11880000Y-11075000D02*
X11920000Y-11115000D01*
X11920000Y-11075000D02*
X11880000Y-11115000D01*
X11895000Y-9282500D02*
X11935000Y-9322500D01*
X11935000Y-9282500D02*
X11895000Y-9322500D01*
X11902500Y-10055000D02*
X11942500Y-10095000D01*
X11942500Y-10055000D02*
X11902500Y-10095000D01*
X11902500Y-10825000D02*
X11942500Y-10865000D01*
X11942500Y-10825000D02*
X11902500Y-10865000D01*
X11932500Y-11312500D02*
X11972500Y-11352500D01*
X11972500Y-11312500D02*
X11932500Y-11352500D01*
X11943000Y-5921000D02*
X11983000Y-5961000D01*
X11983000Y-5921000D02*
X11943000Y-5961000D01*
X11947500Y-8917500D02*
X11987500Y-8957500D01*
X11987500Y-8917500D02*
X11947500Y-8957500D01*
X12000000Y-8742500D02*
X12040000Y-8782500D01*
X12040000Y-8742500D02*
X12000000Y-8782500D01*
X12005000Y-6990000D02*
X12045000Y-7030000D01*
X12045000Y-6990000D02*
X12005000Y-7030000D01*
X12045000Y-10060000D02*
X12085000Y-10100000D01*
X12085000Y-10060000D02*
X12045000Y-10100000D01*
X12047500Y-10830000D02*
X12087500Y-10870000D01*
X12087500Y-10830000D02*
X12047500Y-10870000D01*
X12052500Y-11250000D02*
X12092500Y-11290000D01*
X12092500Y-11250000D02*
X12052500Y-11290000D01*
X12055000Y-9300000D02*
X12095000Y-9340000D01*
X12095000Y-9300000D02*
X12055000Y-9340000D01*
X12172500Y-9070000D02*
X12212500Y-9110000D01*
X12212500Y-9070000D02*
X12172500Y-9110000D01*
X12220000Y-10222500D02*
X12260000Y-10262500D01*
X12260000Y-10222500D02*
X12220000Y-10262500D01*
X12230000Y-10412500D02*
X12270000Y-10452500D01*
X12270000Y-10412500D02*
X12230000Y-10452500D01*
X12230000Y-11825000D02*
X12270000Y-11865000D01*
X12270000Y-11825000D02*
X12230000Y-11865000D01*
X12244000Y-5898000D02*
X12284000Y-5938000D01*
X12284000Y-5898000D02*
X12244000Y-5938000D01*
X12245000Y-9602500D02*
X12285000Y-9642500D01*
X12285000Y-9602500D02*
X12245000Y-9642500D01*
X12337500Y-10880000D02*
X12377500Y-10920000D01*
X12377500Y-10880000D02*
X12337500Y-10920000D01*
X12365000Y-9201000D02*
X12405000Y-9241000D01*
X12405000Y-9201000D02*
X12365000Y-9241000D01*
X12367500Y-9477500D02*
X12407500Y-9517500D01*
X12407500Y-9477500D02*
X12367500Y-9517500D01*
X12405000Y-10440000D02*
X12445000Y-10480000D01*
X12445000Y-10440000D02*
X12405000Y-10480000D01*
X12442500Y-11207500D02*
X12482500Y-11247500D01*
X12482500Y-11207500D02*
X12442500Y-11247500D01*
X12447500Y-9767500D02*
X12487500Y-9807500D01*
X12487500Y-9767500D02*
X12447500Y-9807500D01*
X12477500Y-10602500D02*
X12517500Y-10642500D01*
X12517500Y-10602500D02*
X12477500Y-10642500D01*
X12483000Y-8910000D02*
X12523000Y-8950000D01*
X12523000Y-8910000D02*
X12483000Y-8950000D01*
X12515000Y-9162500D02*
X12555000Y-9202500D01*
X12555000Y-9162500D02*
X12515000Y-9202500D01*
X12517500Y-8252500D02*
X12557500Y-8292500D01*
X12557500Y-8252500D02*
X12517500Y-8292500D01*
X12542000Y-9036000D02*
X12582000Y-9076000D01*
X12582000Y-9036000D02*
X12542000Y-9076000D01*
X12597500Y-11207500D02*
X12637500Y-11247500D01*
X12637500Y-11207500D02*
X12597500Y-11247500D01*
X12647500Y-8340000D02*
X12687500Y-8380000D01*
X12687500Y-8340000D02*
X12647500Y-8380000D01*
X12687500Y-9402500D02*
X12727500Y-9442500D01*
X12727500Y-9402500D02*
X12687500Y-9442500D01*
X12700000Y-7547500D02*
X12740000Y-7587500D01*
X12740000Y-7547500D02*
X12700000Y-7587500D01*
X12727500Y-5950000D02*
X12767500Y-5990000D01*
X12767500Y-5950000D02*
X12727500Y-5990000D01*
X12735000Y-10327500D02*
X12775000Y-10367500D01*
X12775000Y-10327500D02*
X12735000Y-10367500D01*
X12737500Y-11100000D02*
X12777500Y-11140000D01*
X12777500Y-11100000D02*
X12737500Y-11140000D01*
X12820000Y-10770000D02*
X12860000Y-10810000D01*
X12860000Y-10770000D02*
X12820000Y-10810000D01*
X12902960Y-8877040D02*
X12942960Y-8917040D01*
X12942960Y-8877040D02*
X12902960Y-8917040D01*
X12920000Y-10850000D02*
X12960000Y-10890000D01*
X12960000Y-10850000D02*
X12920000Y-10890000D01*
X12925000Y-7902500D02*
X12965000Y-7942500D01*
X12965000Y-7902500D02*
X12925000Y-7942500D01*
X12925000Y-10457500D02*
X12965000Y-10497500D01*
X12965000Y-10457500D02*
X12925000Y-10497500D01*
X12977500Y-11597550D02*
X13017500Y-11637550D01*
X13017500Y-11597550D02*
X12977500Y-11637550D01*
X13012500Y-11335000D02*
X13052500Y-11375000D01*
X13052500Y-11335000D02*
X13012500Y-11375000D01*
X13031000Y-9519000D02*
X13071000Y-9559000D01*
X13071000Y-9519000D02*
X13031000Y-9559000D01*
X13040000Y-10592500D02*
X13080000Y-10632500D01*
X13080000Y-10592500D02*
X13040000Y-10632500D01*
X13097500Y-8767500D02*
X13137500Y-8807500D01*
X13137500Y-8767500D02*
X13097500Y-8807500D01*
X13164000Y-9502000D02*
X13204000Y-9542000D01*
X13204000Y-9502000D02*
X13164000Y-9542000D01*
X13174960Y-8190000D02*
X13214960Y-8230000D01*
X13214960Y-8190000D02*
X13174960Y-8230000D01*
X13212500Y-11412500D02*
X13252500Y-11452500D01*
X13252500Y-11412500D02*
X13212500Y-11452500D01*
X13260270Y-8942730D02*
X13300270Y-8982730D01*
X13300270Y-8942730D02*
X13260270Y-8982730D01*
X13285000Y-11227500D02*
X13325000Y-11267500D01*
X13325000Y-11227500D02*
X13285000Y-11267500D01*
X13320000Y-9521000D02*
X13360000Y-9561000D01*
X13360000Y-9521000D02*
X13320000Y-9561000D01*
X13332500Y-8692500D02*
X13372500Y-8732500D01*
X13372500Y-8692500D02*
X13332500Y-8732500D01*
X13337500Y-8455000D02*
X13377500Y-8495000D01*
X13377500Y-8455000D02*
X13337500Y-8495000D01*
X13337500Y-8572500D02*
X13377500Y-8612500D01*
X13377500Y-8572500D02*
X13337500Y-8612500D01*
X13432500Y-8810000D02*
X13472500Y-8850000D01*
X13472500Y-8810000D02*
X13432500Y-8850000D01*
X13449000Y-9529000D02*
X13489000Y-9569000D01*
X13489000Y-9529000D02*
X13449000Y-9569000D01*
X13452500Y-11225000D02*
X13492500Y-11265000D01*
X13492500Y-11225000D02*
X13452500Y-11265000D01*
X13480000Y-8325000D02*
X13520000Y-8365000D01*
X13520000Y-8325000D02*
X13480000Y-8365000D01*
X13605000Y-9900000D02*
X13645000Y-9940000D01*
X13645000Y-9900000D02*
X13605000Y-9940000D01*
X13630000Y-8508000D02*
X13670000Y-8548000D01*
X13670000Y-8508000D02*
X13630000Y-8548000D01*
X13630000Y-10035000D02*
X13670000Y-10075000D01*
X13670000Y-10035000D02*
X13630000Y-10075000D01*
X13652500Y-9397500D02*
X13692500Y-9437500D01*
X13692500Y-9397500D02*
X13652500Y-9437500D01*
X13670000Y-9150000D02*
X13710000Y-9190000D01*
X13710000Y-9150000D02*
X13670000Y-9190000D01*
X13687500Y-10682500D02*
X13727500Y-10722500D01*
X13727500Y-10682500D02*
X13687500Y-10722500D01*
X13689000Y-9565000D02*
X13729000Y-9605000D01*
X13729000Y-9565000D02*
X13689000Y-9605000D01*
X13710000Y-9805000D02*
X13750000Y-9845000D01*
X13750000Y-9805000D02*
X13710000Y-9845000D01*
X13717500Y-9040000D02*
X13757500Y-9080000D01*
X13757500Y-9040000D02*
X13717500Y-9080000D01*
X13732500Y-9297500D02*
X13772500Y-9337500D01*
X13772500Y-9297500D02*
X13732500Y-9337500D01*
X13735000Y-10625000D02*
X13775000Y-10665000D01*
X13775000Y-10625000D02*
X13735000Y-10665000D01*
X13772500Y-10137500D02*
X13812500Y-10177500D01*
X13812500Y-10137500D02*
X13772500Y-10177500D01*
X13785000Y-9520000D02*
X13825000Y-9560000D01*
X13825000Y-9520000D02*
X13785000Y-9560000D01*
X13795000Y-7590000D02*
X13835000Y-7630000D01*
X13835000Y-7590000D02*
X13795000Y-7630000D01*
X13800000Y-7216000D02*
X13840000Y-7256000D01*
X13840000Y-7216000D02*
X13800000Y-7256000D01*
X13815000Y-9397500D02*
X13855000Y-9437500D01*
X13855000Y-9397500D02*
X13815000Y-9437500D01*
X13829000Y-8169000D02*
X13869000Y-8209000D01*
X13869000Y-8169000D02*
X13829000Y-8209000D01*
X13870000Y-5947500D02*
X13910000Y-5987500D01*
X13910000Y-5947500D02*
X13870000Y-5987500D01*
X13950000Y-9420000D02*
X13990000Y-9460000D01*
X13990000Y-9420000D02*
X13950000Y-9460000D01*
X13958750Y-10098750D02*
X13998750Y-10138750D01*
X13998750Y-10098750D02*
X13958750Y-10138750D01*
X13977500Y-6007500D02*
X14017500Y-6047500D01*
X14017500Y-6007500D02*
X13977500Y-6047500D01*
X14055000Y-7895000D02*
X14095000Y-7935000D01*
X14095000Y-7895000D02*
X14055000Y-7935000D01*
X14086000Y-8157000D02*
X14126000Y-8197000D01*
X14126000Y-8157000D02*
X14086000Y-8197000D01*
X14245000Y-7182500D02*
X14285000Y-7222500D01*
X14285000Y-7182500D02*
X14245000Y-7222500D01*
X14290000Y-5775000D02*
X14330000Y-5815000D01*
X14330000Y-5775000D02*
X14290000Y-5815000D01*
X14379000Y-7409000D02*
X14419000Y-7449000D01*
X14419000Y-7409000D02*
X14379000Y-7449000D01*
X14405000Y-5767500D02*
X14445000Y-5807500D01*
X14445000Y-5767500D02*
X14405000Y-5807500D01*
X14457500Y-6772500D02*
X14497500Y-6812500D01*
X14497500Y-6772500D02*
X14457500Y-6812500D01*
X14542500Y-11339950D02*
X14582500Y-11379950D01*
X14582500Y-11339950D02*
X14542500Y-11379950D01*
X14545000Y-6702500D02*
X14585000Y-6742500D01*
X14585000Y-6702500D02*
X14545000Y-6742500D01*
X14574000Y-8221000D02*
X14614000Y-8261000D01*
X14614000Y-8221000D02*
X14574000Y-8261000D01*
X14875000Y-10302500D02*
X14915000Y-10342500D01*
X14915000Y-10302500D02*
X14875000Y-10342500D01*
X14881000Y-7969000D02*
X14921000Y-8009000D01*
X14921000Y-7969000D02*
X14881000Y-8009000D01*
X14932000Y-7439000D02*
X14972000Y-7479000D01*
X14972000Y-7439000D02*
X14932000Y-7479000D01*
X14940000Y-5905000D02*
X14980000Y-5945000D01*
X14980000Y-5905000D02*
X14940000Y-5945000D01*
X15027500Y-10135000D02*
X15067500Y-10175000D01*
X15067500Y-10135000D02*
X15027500Y-10175000D01*
X15037500Y-7185000D02*
X15077500Y-7225000D01*
X15077500Y-7185000D02*
X15037500Y-7225000D01*
X15040000Y-6322500D02*
X15080000Y-6362500D01*
X15080000Y-6322500D02*
X15040000Y-6362500D01*
X15042500Y-6455000D02*
X15082500Y-6495000D01*
X15082500Y-6455000D02*
X15042500Y-6495000D01*
X15105000Y-10050000D02*
X15145000Y-10090000D01*
X15145000Y-10050000D02*
X15105000Y-10090000D01*
X15138000Y-6718000D02*
X15178000Y-6758000D01*
X15178000Y-6718000D02*
X15138000Y-6758000D01*
X15142500Y-9092500D02*
X15182500Y-9132500D01*
X15182500Y-9092500D02*
X15142500Y-9132500D01*
X15148000Y-9547000D02*
X15188000Y-9587000D01*
X15188000Y-9547000D02*
X15148000Y-9587000D01*
X15177000Y-7193000D02*
X15217000Y-7233000D01*
X15217000Y-7193000D02*
X15177000Y-7233000D01*
X15300000Y-7210550D02*
X15340000Y-7250550D01*
X15340000Y-7210550D02*
X15300000Y-7250550D01*
X15447500Y-10635000D02*
X15487500Y-10675000D01*
X15487500Y-10635000D02*
X15447500Y-10675000D01*
X15535000Y-7076000D02*
X15575000Y-7116000D01*
X15575000Y-7076000D02*
X15535000Y-7116000D01*
X15540000Y-8859450D02*
X15580000Y-8899450D01*
X15580000Y-8859450D02*
X15540000Y-8899450D01*
X15652000Y-7902000D02*
X15692000Y-7942000D01*
X15692000Y-7902000D02*
X15652000Y-7942000D01*
X15660000Y-8535000D02*
X15700000Y-8575000D01*
X15700000Y-8535000D02*
X15660000Y-8575000D01*
X15727500Y-7690000D02*
X15767500Y-7730000D01*
X15767500Y-7690000D02*
X15727500Y-7730000D01*
X15872500Y-10091500D02*
X15912500Y-10131500D01*
X15912500Y-10091500D02*
X15872500Y-10131500D01*
X15886000Y-7930000D02*
X15926000Y-7970000D01*
X15926000Y-7930000D02*
X15886000Y-7970000D01*
X15915000Y-9342500D02*
X15955000Y-9382500D01*
X15955000Y-9342500D02*
X15915000Y-9382500D01*
X15915000Y-9515000D02*
X15955000Y-9555000D01*
X15955000Y-9515000D02*
X15915000Y-9555000D01*
X15962500Y-9057500D02*
X16002500Y-9097500D01*
X16002500Y-9057500D02*
X15962500Y-9097500D01*
X15987500Y-8862500D02*
X16027500Y-8902500D01*
X16027500Y-8862500D02*
X15987500Y-8902500D01*
X16000000Y-9257500D02*
X16040000Y-9297500D01*
X16040000Y-9257500D02*
X16000000Y-9297500D01*
X16043843Y-9408843D02*
X16083843Y-9448843D01*
X16083843Y-9408843D02*
X16043843Y-9448843D01*
X16050000Y-9190000D02*
X16090000Y-9230000D01*
X16090000Y-9190000D02*
X16050000Y-9230000D01*
X16076000Y-7991000D02*
X16116000Y-8031000D01*
X16116000Y-7991000D02*
X16076000Y-8031000D01*
X16098000Y-7729000D02*
X16138000Y-7769000D01*
X16138000Y-7729000D02*
X16098000Y-7769000D01*
X16110000Y-9790000D02*
X16150000Y-9830000D01*
X16150000Y-9790000D02*
X16110000Y-9830000D01*
X16210000Y-7550000D02*
X16250000Y-7590000D01*
X16250000Y-7550000D02*
X16210000Y-7590000D01*
X16220230Y-9353230D02*
X16260230Y-9393230D01*
X16260230Y-9353230D02*
X16220230Y-9393230D01*
X16227500Y-8797450D02*
X16267500Y-8837450D01*
X16267500Y-8797450D02*
X16227500Y-8837450D01*
X16297000Y-9444000D02*
X16337000Y-9484000D01*
X16337000Y-9444000D02*
X16297000Y-9484000D01*
X16297500Y-11205050D02*
X16337500Y-11245050D01*
X16337500Y-11205050D02*
X16297500Y-11245050D01*
X16299000Y-7963000D02*
X16339000Y-8003000D01*
X16339000Y-7963000D02*
X16299000Y-8003000D01*
X16307500Y-10085000D02*
X16347500Y-10125000D01*
X16347500Y-10085000D02*
X16307500Y-10125000D01*
X16310000Y-9890000D02*
X16350000Y-9930000D01*
X16350000Y-9890000D02*
X16310000Y-9930000D01*
X16389270Y-8875730D02*
X16429270Y-8915730D01*
X16429270Y-8875730D02*
X16389270Y-8915730D01*
X16447500Y-9422500D02*
X16487500Y-9462500D01*
X16487500Y-9422500D02*
X16447500Y-9462500D01*
X16450000Y-9970000D02*
X16490000Y-10010000D01*
X16490000Y-9970000D02*
X16450000Y-10010000D01*
X16457500Y-8797500D02*
X16497500Y-8837500D01*
X16497500Y-8797500D02*
X16457500Y-8837500D01*
X16467000Y-8296000D02*
X16507000Y-8336000D01*
X16507000Y-8296000D02*
X16467000Y-8336000D01*
X16563000Y-8831000D02*
X16603000Y-8871000D01*
X16603000Y-8831000D02*
X16563000Y-8871000D01*
X16615000Y-9470000D02*
X16655000Y-9510000D01*
X16655000Y-9470000D02*
X16615000Y-9510000D01*
X16622500Y-10714950D02*
X16662500Y-10754950D01*
X16662500Y-10714950D02*
X16622500Y-10754950D01*
X16640000Y-8715000D02*
X16680000Y-8755000D01*
X16680000Y-8715000D02*
X16640000Y-8755000D01*
X16680000Y-10020000D02*
X16720000Y-10060000D01*
X16720000Y-10020000D02*
X16680000Y-10060000D01*
X16695000Y-8097000D02*
X16735000Y-8137000D01*
X16735000Y-8097000D02*
X16695000Y-8137000D01*
X16730000Y-10442500D02*
X16770000Y-10482500D01*
X16770000Y-10442500D02*
X16730000Y-10482500D01*
X16830000Y-10077500D02*
X16870000Y-10117500D01*
X16870000Y-10077500D02*
X16830000Y-10117500D01*
X16840000Y-8370000D02*
X16880000Y-8410000D01*
X16880000Y-8370000D02*
X16840000Y-8410000D01*
X16870000Y-7582500D02*
X16910000Y-7622500D01*
X16910000Y-7582500D02*
X16870000Y-7622500D01*
X16875000Y-7710000D02*
X16915000Y-7750000D01*
X16915000Y-7710000D02*
X16875000Y-7750000D01*
X16880000Y-8130000D02*
X16920000Y-8170000D01*
X16920000Y-8130000D02*
X16880000Y-8170000D01*
X16920000Y-9700000D02*
X16960000Y-9740000D01*
X16960000Y-9700000D02*
X16920000Y-9740000D01*
X16936000Y-10332000D02*
X16976000Y-10372000D01*
X16976000Y-10332000D02*
X16936000Y-10372000D01*
X16958000Y-10086000D02*
X16998000Y-10126000D01*
X16998000Y-10086000D02*
X16958000Y-10126000D01*
X16975000Y-11100000D02*
X17015000Y-11140000D01*
X17015000Y-11100000D02*
X16975000Y-11140000D01*
X16987500Y-8230000D02*
X17027500Y-8270000D01*
X17027500Y-8230000D02*
X16987500Y-8270000D01*
X17017500Y-9542500D02*
X17057500Y-9582500D01*
X17057500Y-9542500D02*
X17017500Y-9582500D01*
X17027500Y-10440000D02*
X17067500Y-10480000D01*
X17067500Y-10440000D02*
X17027500Y-10480000D01*
X17137500Y-11100000D02*
X17177500Y-11140000D01*
X17177500Y-11100000D02*
X17137500Y-11140000D01*
X17232500Y-10445000D02*
X17272500Y-10485000D01*
X17272500Y-10445000D02*
X17232500Y-10485000D01*
X17239000Y-9521000D02*
X17279000Y-9561000D01*
X17279000Y-9521000D02*
X17239000Y-9561000D01*
X17282500Y-10705000D02*
X17322500Y-10745000D01*
X17322500Y-10705000D02*
X17282500Y-10745000D01*
X17302000Y-9367000D02*
X17342000Y-9407000D01*
X17342000Y-9367000D02*
X17302000Y-9407000D01*
X17337500Y-11117050D02*
X17377500Y-11157050D01*
X17377500Y-11117050D02*
X17337500Y-11157050D01*
X17400000Y-10610000D02*
X17440000Y-10650000D01*
X17440000Y-10610000D02*
X17400000Y-10650000D01*
X17422500Y-11685000D02*
X17462500Y-11725000D01*
X17462500Y-11685000D02*
X17422500Y-11725000D01*
X17497000Y-9291000D02*
X17537000Y-9331000D01*
X17537000Y-9291000D02*
X17497000Y-9331000D01*
X17524880Y-11412500D02*
X17564880Y-11452500D01*
X17564880Y-11412500D02*
X17524880Y-11452500D01*
X17540000Y-10440000D02*
X17580000Y-10480000D01*
X17580000Y-10440000D02*
X17540000Y-10480000D01*
X17555000Y-10567500D02*
X17595000Y-10607500D01*
X17595000Y-10567500D02*
X17555000Y-10607500D01*
X17653000Y-9169000D02*
X17693000Y-9209000D01*
X17693000Y-9169000D02*
X17653000Y-9209000D01*
X17675000Y-10800000D02*
X17715000Y-10840000D01*
X17715000Y-10800000D02*
X17675000Y-10840000D01*
X17687000Y-7175000D02*
X17727000Y-7215000D01*
X17727000Y-7175000D02*
X17687000Y-7215000D01*
X17707500Y-11730000D02*
X17747500Y-11770000D01*
X17747500Y-11730000D02*
X17707500Y-11770000D01*
X17759178Y-10072550D02*
X17799178Y-10112550D01*
X17799178Y-10072550D02*
X17759178Y-10112550D01*
X17762500Y-11349950D02*
X17802500Y-11389950D01*
X17802500Y-11349950D02*
X17762500Y-11389950D01*
X17860000Y-8120000D02*
X17900000Y-8160000D01*
X17900000Y-8120000D02*
X17860000Y-8160000D01*
X17887500Y-10145000D02*
X17927500Y-10185000D01*
X17927500Y-10145000D02*
X17887500Y-10185000D01*
X17942000Y-6452000D02*
X17982000Y-6492000D01*
X17982000Y-6452000D02*
X17942000Y-6492000D01*
X17962500Y-9887500D02*
X18002500Y-9927500D01*
X18002500Y-9887500D02*
X17962500Y-9927500D01*
X18020000Y-11180000D02*
X18060000Y-11220000D01*
X18060000Y-11180000D02*
X18020000Y-11220000D01*
X18057500Y-11490000D02*
X18097500Y-11530000D01*
X18097500Y-11490000D02*
X18057500Y-11530000D01*
X18065000Y-8182500D02*
X18105000Y-8222500D01*
X18105000Y-8182500D02*
X18065000Y-8222500D01*
X18075000Y-8085000D02*
X18115000Y-8125000D01*
X18115000Y-8085000D02*
X18075000Y-8125000D01*
X18086000Y-8657500D02*
X18126000Y-8697500D01*
X18126000Y-8657500D02*
X18086000Y-8697500D01*
X18087500Y-10440000D02*
X18127500Y-10480000D01*
X18127500Y-10440000D02*
X18087500Y-10480000D01*
X18088000Y-7534000D02*
X18128000Y-7574000D01*
X18128000Y-7534000D02*
X18088000Y-7574000D01*
X18127500Y-7217500D02*
X18167500Y-7257500D01*
X18167500Y-7217500D02*
X18127500Y-7257500D01*
X18147500Y-9890000D02*
X18187500Y-9930000D01*
X18187500Y-9890000D02*
X18147500Y-9930000D01*
X18187500Y-11720000D02*
X18227500Y-11760000D01*
X18227500Y-11720000D02*
X18187500Y-11760000D01*
X18210000Y-10472500D02*
X18250000Y-10512500D01*
X18250000Y-10472500D02*
X18210000Y-10512500D01*
X18220000Y-10110000D02*
X18260000Y-10150000D01*
X18260000Y-10110000D02*
X18220000Y-10150000D01*
X18264000Y-8656000D02*
X18304000Y-8696000D01*
X18304000Y-8656000D02*
X18264000Y-8696000D01*
X18305000Y-11690000D02*
X18345000Y-11730000D01*
X18345000Y-11690000D02*
X18305000Y-11730000D01*
X18309000Y-8131000D02*
X18349000Y-8171000D01*
X18349000Y-8131000D02*
X18309000Y-8171000D01*
X18400000Y-10297500D02*
X18440000Y-10337500D01*
X18440000Y-10297500D02*
X18400000Y-10337500D01*
X18487500Y-7652500D02*
X18527500Y-7692500D01*
X18527500Y-7652500D02*
X18487500Y-7692500D01*
X18520000Y-7350000D02*
X18560000Y-7390000D01*
X18560000Y-7350000D02*
X18520000Y-7390000D01*
X18562500Y-7572500D02*
X18602500Y-7612500D01*
X18602500Y-7572500D02*
X18562500Y-7612500D01*
X18587500Y-10852500D02*
X18627500Y-10892500D01*
X18627500Y-10852500D02*
X18587500Y-10892500D01*
X18627500Y-7262500D02*
X18667500Y-7302500D01*
X18667500Y-7262500D02*
X18627500Y-7302500D01*
X18702500Y-7587500D02*
X18742500Y-7627500D01*
X18742500Y-7587500D02*
X18702500Y-7627500D01*
X18745000Y-8107500D02*
X18785000Y-8147500D01*
X18785000Y-8107500D02*
X18745000Y-8147500D01*
X18827500Y-7530000D02*
X18867500Y-7570000D01*
X18867500Y-7530000D02*
X18827500Y-7570000D01*
X18830000Y-8254000D02*
X18870000Y-8294000D01*
X18870000Y-8254000D02*
X18830000Y-8294000D01*
X18847500Y-11070000D02*
X18887500Y-11110000D01*
X18887500Y-11070000D02*
X18847500Y-11110000D01*
X18877500Y-10892500D02*
X18917500Y-10932500D01*
X18917500Y-10892500D02*
X18877500Y-10932500D01*
X18882730Y-7659730D02*
X18922730Y-7699730D01*
X18922730Y-7659730D02*
X18882730Y-7699730D01*
X18915000Y-11145000D02*
X18955000Y-11185000D01*
X18955000Y-11145000D02*
X18915000Y-11185000D01*
X18940000Y-8125000D02*
X18980000Y-8165000D01*
X18980000Y-8125000D02*
X18940000Y-8165000D01*
X18952500Y-10827500D02*
X18992500Y-10867500D01*
X18992500Y-10827500D02*
X18952500Y-10867500D01*
X19075000Y-11090000D02*
X19115000Y-11130000D01*
X19115000Y-11090000D02*
X19075000Y-11130000D01*
X19090000Y-10515000D02*
X19130000Y-10555000D01*
X19130000Y-10515000D02*
X19090000Y-10555000D01*
X19130000Y-7773050D02*
X19170000Y-7813050D01*
X19170000Y-7773050D02*
X19130000Y-7813050D01*
X19192500Y-11455000D02*
X19232500Y-11495000D01*
X19232500Y-11455000D02*
X19192500Y-11495000D01*
X19245000Y-7095000D02*
X19285000Y-7135000D01*
X19285000Y-7095000D02*
X19245000Y-7135000D01*
X19263730Y-10638770D02*
X19303730Y-10678770D01*
X19303730Y-10638770D02*
X19263730Y-10678770D01*
X19332500Y-6997500D02*
X19372500Y-7037500D01*
X19372500Y-6997500D02*
X19332500Y-7037500D01*
X19347500Y-9295000D02*
X19387500Y-9335000D01*
X19387500Y-9295000D02*
X19347500Y-9335000D01*
X19505000Y-9167500D02*
X19545000Y-9207500D01*
X19545000Y-9167500D02*
X19505000Y-9207500D01*
X19537500Y-11462500D02*
X19577500Y-11502500D01*
X19577500Y-11462500D02*
X19537500Y-11502500D01*
X19550000Y-8217500D02*
X19590000Y-8257500D01*
X19590000Y-8217500D02*
X19550000Y-8257500D01*
X19560000Y-8340000D02*
X19600000Y-8380000D01*
X19600000Y-8340000D02*
X19560000Y-8380000D01*
X19560000Y-8727500D02*
X19600000Y-8767500D01*
X19600000Y-8727500D02*
X19560000Y-8767500D01*
X19672500Y-10217500D02*
X19712500Y-10257500D01*
X19712500Y-10217500D02*
X19672500Y-10257500D01*
X19716898Y-9849398D02*
X19756898Y-9889398D01*
X19756898Y-9849398D02*
X19716898Y-9889398D01*
X19827500Y-9787500D02*
X19867500Y-9827500D01*
X19867500Y-9787500D02*
X19827500Y-9827500D01*
X19839980Y-9477480D02*
X19879980Y-9517480D01*
X19879980Y-9477480D02*
X19839980Y-9517480D01*
X19952000Y-9545000D02*
X19992000Y-9585000D01*
X19992000Y-9545000D02*
X19952000Y-9585000D01*
X19995000Y-11557500D02*
X20035000Y-11597500D01*
X20035000Y-11557500D02*
X19995000Y-11597500D01*
X20022000Y-8937000D02*
X20062000Y-8977000D01*
X20062000Y-8937000D02*
X20022000Y-8977000D01*
X20032500Y-10972500D02*
X20072500Y-11012500D01*
X20072500Y-10972500D02*
X20032500Y-11012500D01*
X20100000Y-8764000D02*
X20140000Y-8804000D01*
X20140000Y-8764000D02*
X20100000Y-8804000D01*
X20112500Y-7655000D02*
X20152500Y-7695000D01*
X20152500Y-7655000D02*
X20112500Y-7695000D01*
X20133270Y-9741270D02*
X20173270Y-9781270D01*
X20173270Y-9741270D02*
X20133270Y-9781270D01*
X20145000Y-11016000D02*
X20185000Y-11056000D01*
X20185000Y-11016000D02*
X20145000Y-11056000D01*
X20150000Y-6887500D02*
X20190000Y-6927500D01*
X20190000Y-6887500D02*
X20150000Y-6927500D01*
X20165000Y-7962950D02*
X20205000Y-8002950D01*
X20205000Y-7962950D02*
X20165000Y-8002950D01*
X20277000Y-9964000D02*
X20317000Y-10004000D01*
X20317000Y-9964000D02*
X20277000Y-10004000D01*
X20291270Y-9688770D02*
X20331270Y-9728770D01*
X20331270Y-9688770D02*
X20291270Y-9728770D01*
X20312500Y-9335000D02*
X20352500Y-9375000D01*
X20352500Y-9335000D02*
X20312500Y-9375000D01*
X20327500Y-8620000D02*
X20367500Y-8660000D01*
X20367500Y-8620000D02*
X20327500Y-8660000D01*
X20330000Y-7567500D02*
X20370000Y-7607500D01*
X20370000Y-7567500D02*
X20330000Y-7607500D01*
X20365000Y-6942500D02*
X20405000Y-6982500D01*
X20405000Y-6942500D02*
X20365000Y-6982500D01*
X20377500Y-9807500D02*
X20417500Y-9847500D01*
X20417500Y-9807500D02*
X20377500Y-9847500D01*
X20415000Y-7365000D02*
X20455000Y-7405000D01*
X20455000Y-7365000D02*
X20415000Y-7405000D01*
X20532500Y-6970000D02*
X20572500Y-7010000D01*
X20572500Y-6970000D02*
X20532500Y-7010000D01*
X20540000Y-10442500D02*
X20580000Y-10482500D01*
X20580000Y-10442500D02*
X20540000Y-10482500D01*
X20552500Y-8060000D02*
X20592500Y-8100000D01*
X20592500Y-8060000D02*
X20552500Y-8100000D01*
X20597500Y-9347500D02*
X20637500Y-9387500D01*
X20637500Y-9347500D02*
X20597500Y-9387500D01*
X20618852Y-9661148D02*
X20658852Y-9701148D01*
X20658852Y-9661148D02*
X20618852Y-9701148D01*
X20652500Y-8927500D02*
X20692500Y-8967500D01*
X20692500Y-8927500D02*
X20652500Y-8967500D01*
X20662500Y-9092500D02*
X20702500Y-9132500D01*
X20702500Y-9092500D02*
X20662500Y-9132500D01*
X20694844Y-7750000D02*
X20734844Y-7790000D01*
X20734844Y-7750000D02*
X20694844Y-7790000D01*
X20702500Y-7647500D02*
X20742500Y-7687500D01*
X20742500Y-7647500D02*
X20702500Y-7687500D01*
X20717500Y-9905000D02*
X20757500Y-9945000D01*
X20757500Y-9905000D02*
X20717500Y-9945000D01*
X20842500Y-8342500D02*
X20882500Y-8382500D01*
X20882500Y-8342500D02*
X20842500Y-8382500D01*
X20845000Y-10008000D02*
X20885000Y-10048000D01*
X20885000Y-10008000D02*
X20845000Y-10048000D01*
X20882500Y-8910000D02*
X20922500Y-8950000D01*
X20922500Y-8910000D02*
X20882500Y-8950000D01*
X20900000Y-8652500D02*
X20940000Y-8692500D01*
X20940000Y-8652500D02*
X20900000Y-8692500D01*
X20920000Y-9330000D02*
X20960000Y-9370000D01*
X20960000Y-9330000D02*
X20920000Y-9370000D01*
X20926250Y-8071250D02*
X20966250Y-8111250D01*
X20966250Y-8071250D02*
X20926250Y-8111250D01*
X20975000Y-10207500D02*
X21015000Y-10247500D01*
X21015000Y-10207500D02*
X20975000Y-10247500D01*
X20987500Y-7125000D02*
X21027500Y-7165000D01*
X21027500Y-7125000D02*
X20987500Y-7165000D01*
X21027500Y-8222500D02*
X21067500Y-8262500D01*
X21067500Y-8222500D02*
X21027500Y-8262500D01*
X21052500Y-9332500D02*
X21092500Y-9372500D01*
X21092500Y-9332500D02*
X21052500Y-9372500D01*
X21130000Y-8885050D02*
X21170000Y-8925050D01*
X21170000Y-8885050D02*
X21130000Y-8925050D01*
X21155000Y-6977500D02*
X21195000Y-7017500D01*
X21195000Y-6977500D02*
X21155000Y-7017500D01*
X21235000Y-9780000D02*
X21275000Y-9820000D01*
X21275000Y-9780000D02*
X21235000Y-9820000D01*
X21240000Y-6972500D02*
X21280000Y-7012500D01*
X21280000Y-6972500D02*
X21240000Y-7012500D01*
X21250000Y-7900000D02*
X21290000Y-7940000D01*
X21290000Y-7900000D02*
X21250000Y-7940000D01*
X21262500Y-9029950D02*
X21302500Y-9069950D01*
X21302500Y-9029950D02*
X21262500Y-9069950D01*
X21367500Y-9455000D02*
X21407500Y-9495000D01*
X21407500Y-9455000D02*
X21367500Y-9495000D01*
X21422500Y-9362500D02*
X21462500Y-9402500D01*
X21462500Y-9362500D02*
X21422500Y-9402500D01*
X21482500Y-8317500D02*
X21522500Y-8357500D01*
X21522500Y-8317500D02*
X21482500Y-8357500D01*
X21552500Y-9995000D02*
X21592500Y-10035000D01*
X21592500Y-9995000D02*
X21552500Y-10035000D01*
X21555000Y-11067500D02*
X21595000Y-11107500D01*
X21595000Y-11067500D02*
X21555000Y-11107500D01*
X21595000Y-6932500D02*
X21635000Y-6972500D01*
X21635000Y-6932500D02*
X21595000Y-6972500D01*
X21595000Y-10802500D02*
X21635000Y-10842500D01*
X21635000Y-10802500D02*
X21595000Y-10842500D01*
X21632500Y-7145000D02*
X21672500Y-7185000D01*
X21672500Y-7145000D02*
X21632500Y-7185000D01*
X21655000Y-6862500D02*
X21695000Y-6902500D01*
X21695000Y-6862500D02*
X21655000Y-6902500D01*
X21655000Y-7392500D02*
X21695000Y-7432500D01*
X21695000Y-7392500D02*
X21655000Y-7432500D01*
X21660000Y-8884950D02*
X21700000Y-8924950D01*
X21700000Y-8884950D02*
X21660000Y-8924950D01*
X21682500Y-10202500D02*
X21722500Y-10242500D01*
X21722500Y-10202500D02*
X21682500Y-10242500D01*
X21702500Y-9015050D02*
X21742500Y-9055050D01*
X21742500Y-9015050D02*
X21702500Y-9055050D01*
X21710000Y-9780050D02*
X21750000Y-9820050D01*
X21750000Y-9780050D02*
X21710000Y-9820050D01*
X21815000Y-7137500D02*
X21855000Y-7177500D01*
X21855000Y-7137500D02*
X21815000Y-7177500D01*
X21870000Y-8185050D02*
X21910000Y-8225050D01*
X21910000Y-8185050D02*
X21870000Y-8225050D01*
X21887500Y-7397500D02*
X21927500Y-7437500D01*
X21927500Y-7397500D02*
X21887500Y-7437500D01*
X21900000Y-7262500D02*
X21940000Y-7302500D01*
X21940000Y-7262500D02*
X21900000Y-7302500D01*
X21912500Y-9160000D02*
X21952500Y-9200000D01*
X21952500Y-9160000D02*
X21912500Y-9200000D01*
X21962500Y-7672500D02*
X22002500Y-7712500D01*
X22002500Y-7672500D02*
X21962500Y-7712500D01*
X22025000Y-7752500D02*
X22065000Y-7792500D01*
X22065000Y-7752500D02*
X22025000Y-7792500D01*
X22062500Y-8012500D02*
X22102500Y-8052500D01*
X22102500Y-8012500D02*
X22062500Y-8052500D01*
X22085000Y-8082500D02*
X22125000Y-8122500D01*
X22125000Y-8082500D02*
X22085000Y-8122500D01*
X22107500Y-9480000D02*
X22147500Y-9520000D01*
X22147500Y-9480000D02*
X22107500Y-9520000D01*
X22127064Y-8574564D02*
X22167064Y-8614564D01*
X22167064Y-8574564D02*
X22127064Y-8614564D01*
X22175416Y-8455000D02*
X22215416Y-8495000D01*
X22215416Y-8455000D02*
X22175416Y-8495000D01*
X22199017Y-8585798D02*
X22239017Y-8625798D01*
X22239017Y-8585798D02*
X22199017Y-8625798D01*
X22242500Y-8015000D02*
X22282500Y-8055000D01*
X22282500Y-8015000D02*
X22242500Y-8055000D01*
X22242500Y-8105000D02*
X22282500Y-8145000D01*
X22282500Y-8105000D02*
X22242500Y-8145000D01*
X22292500Y-7732500D02*
X22332500Y-7772500D01*
X22332500Y-7732500D02*
X22292500Y-7772500D01*
X22305000Y-9020000D02*
X22345000Y-9060000D01*
X22345000Y-9020000D02*
X22305000Y-9060000D01*
X22310000Y-9312500D02*
X22350000Y-9352500D01*
X22350000Y-9312500D02*
X22310000Y-9352500D01*
X22350000Y-8675000D02*
X22390000Y-8715000D01*
X22390000Y-8675000D02*
X22350000Y-8715000D01*
X22357500Y-8195050D02*
X22397500Y-8235050D01*
X22397500Y-8195050D02*
X22357500Y-8235050D01*
X22365000Y-8870000D02*
X22405000Y-8910000D01*
X22405000Y-8870000D02*
X22365000Y-8910000D01*
X22365050Y-7680000D02*
X22405050Y-7720000D01*
X22405050Y-7680000D02*
X22365050Y-7720000D01*
X22457500Y-8022500D02*
X22497500Y-8062500D01*
X22497500Y-8022500D02*
X22457500Y-8062500D01*
X22465000Y-7142500D02*
X22505000Y-7182500D01*
X22505000Y-7142500D02*
X22465000Y-7182500D01*
X22505000Y-7375000D02*
X22545000Y-7415000D01*
X22545000Y-7375000D02*
X22505000Y-7415000D01*
X22512500Y-7290000D02*
X22552500Y-7330000D01*
X22552500Y-7290000D02*
X22512500Y-7330000D01*
X22551265Y-9026265D02*
X22591265Y-9066265D01*
X22591265Y-9026265D02*
X22551265Y-9066265D01*
X22592500Y-8372500D02*
X22632500Y-8412500D01*
X22632500Y-8372500D02*
X22592500Y-8412500D01*
X22595000Y-8872500D02*
X22635000Y-8912500D01*
X22635000Y-8872500D02*
X22595000Y-8912500D01*
X22610000Y-7685000D02*
X22650000Y-7725000D01*
X22650000Y-7685000D02*
X22610000Y-7725000D01*
X22612500Y-8195050D02*
X22652500Y-8235050D01*
X22652500Y-8195050D02*
X22612500Y-8235050D01*
X22807500Y-7134000D02*
X22847500Y-7174000D01*
X22847500Y-7134000D02*
X22807500Y-7174000D01*
X22812500Y-7015000D02*
X22852500Y-7055000D01*
X22852500Y-7015000D02*
X22812500Y-7055000D01*
X22835000Y-7387500D02*
X22875000Y-7427500D01*
X22875000Y-7387500D02*
X22835000Y-7427500D01*
X22907500Y-8275000D02*
X22947500Y-8315000D01*
X22947500Y-8275000D02*
X22907500Y-8315000D01*
X23047500Y-6985550D02*
X23087500Y-7025550D01*
X23087500Y-6985550D02*
X23047500Y-7025550D01*
X23182500Y-9197500D02*
X23222500Y-9237500D01*
X23222500Y-9197500D02*
X23182500Y-9237500D01*
X23249950Y-7337500D02*
X23289950Y-7377500D01*
X23289950Y-7337500D02*
X23249950Y-7377500D01*
X23285000Y-7170000D02*
X23325000Y-7210000D01*
X23325000Y-7170000D02*
X23285000Y-7210000D01*
X23372500Y-7342500D02*
X23412500Y-7382500D01*
X23412500Y-7342500D02*
X23372500Y-7382500D01*
X23525000Y-8597500D02*
X23565000Y-8637500D01*
X23565000Y-8597500D02*
X23525000Y-8637500D01*
X23542500Y-7672500D02*
X23582500Y-7712500D01*
X23582500Y-7672500D02*
X23542500Y-7712500D01*
X23607500Y-8667762D02*
X23647500Y-8707762D01*
X23647500Y-8667762D02*
X23607500Y-8707762D01*
X23650000Y-7702500D02*
X23690000Y-7742500D01*
X23690000Y-7702500D02*
X23650000Y-7742500D01*
X23705000Y-8257500D02*
X23745000Y-8297500D01*
X23745000Y-8257500D02*
X23705000Y-8297500D01*
X23877500Y-9775000D02*
X23917500Y-9815000D01*
X23917500Y-9775000D02*
X23877500Y-9815000D01*
X23977500Y-7140000D02*
X24017500Y-7180000D01*
X24017500Y-7140000D02*
X23977500Y-7180000D01*
X23990000Y-8147500D02*
X24030000Y-8187500D01*
X24030000Y-8147500D02*
X23990000Y-8187500D01*
X24080000Y-8062500D02*
X24120000Y-8102500D01*
X24120000Y-8062500D02*
X24080000Y-8102500D01*
X24210000Y-8232500D02*
X24250000Y-8272500D01*
X24250000Y-8232500D02*
X24210000Y-8272500D01*
X24270000Y-7857500D02*
X24310000Y-7897500D01*
X24310000Y-7857500D02*
X24270000Y-7897500D01*
X24342500Y-9410000D02*
X24382500Y-9450000D01*
X24382500Y-9410000D02*
X24342500Y-9450000D01*
X24370000Y-7762500D02*
X24410000Y-7802500D01*
X24410000Y-7762500D02*
X24370000Y-7802500D01*
X24455000Y-8400000D02*
X24495000Y-8440000D01*
X24495000Y-8400000D02*
X24455000Y-8440000D01*
X24577500Y-8555000D02*
X24617500Y-8595000D01*
X24617500Y-8555000D02*
X24577500Y-8595000D01*
X24604000Y-7118000D02*
X24644000Y-7158000D01*
X24644000Y-7118000D02*
X24604000Y-7158000D01*
X24607500Y-7015000D02*
X24647500Y-7055000D01*
X24647500Y-7015000D02*
X24607500Y-7055000D01*
X24827500Y-9102500D02*
X24867500Y-9142500D01*
X24867500Y-9102500D02*
X24827500Y-9142500D01*
X24940000Y-9207500D02*
X24980000Y-9247500D01*
X24980000Y-9207500D02*
X24940000Y-9247500D01*
X25027500Y-7390000D02*
X25067500Y-7430000D01*
X25067500Y-7390000D02*
X25027500Y-7430000D01*
X25027500Y-7487500D02*
X25067500Y-7527500D01*
X25067500Y-7487500D02*
X25027500Y-7527500D01*
X25052500Y-10247500D02*
X25092500Y-10287500D01*
X25092500Y-10247500D02*
X25052500Y-10287500D01*
X25247500Y-8000000D02*
X25287500Y-8040000D01*
X25287500Y-8000000D02*
X25247500Y-8040000D01*
X25325000Y-8085000D02*
X25365000Y-8125000D01*
X25365000Y-8085000D02*
X25325000Y-8125000D01*
X25337500Y-7142500D02*
X25377500Y-7182500D01*
X25377500Y-7142500D02*
X25337500Y-7182500D01*
X25442500Y-7795000D02*
X25482500Y-7835000D01*
X25482500Y-7795000D02*
X25442500Y-7835000D01*
X25470000Y-6595000D02*
X25510000Y-6635000D01*
X25510000Y-6595000D02*
X25470000Y-6635000D01*
X25610000Y-9387500D02*
X25650000Y-9427500D01*
X25650000Y-9387500D02*
X25610000Y-9427500D01*
X25615000Y-9532500D02*
X25655000Y-9572500D01*
X25655000Y-9532500D02*
X25615000Y-9572500D01*
X25795000Y-10067500D02*
X25835000Y-10107500D01*
X25835000Y-10067500D02*
X25795000Y-10107500D01*
X25882500Y-6717500D02*
X25922500Y-6757500D01*
X25922500Y-6717500D02*
X25882500Y-6757500D01*
X25900000Y-6007500D02*
X25940000Y-6047500D01*
X25940000Y-6007500D02*
X25900000Y-6047500D01*
X25905000Y-10162500D02*
X25945000Y-10202500D01*
X25945000Y-10162500D02*
X25905000Y-10202500D01*
X25930000Y-7442500D02*
X25970000Y-7482500D01*
X25970000Y-7442500D02*
X25930000Y-7482500D01*
X25945000Y-6822500D02*
X25985000Y-6862500D01*
X25985000Y-6822500D02*
X25945000Y-6862500D01*
X25947500Y-6147500D02*
X25987500Y-6187500D01*
X25987500Y-6147500D02*
X25947500Y-6187500D01*
X25972500Y-7547500D02*
X26012500Y-7587500D01*
X26012500Y-7547500D02*
X25972500Y-7587500D01*
D13*
X5345000Y-6024000D02*
G75*
G03*
X5345000Y-6024000I-46000J0D01*
G01*
X5345000Y-6659000D02*
G75*
G03*
X5345000Y-6659000I-46000J0D01*
G01*
X5662500Y-6024000D02*
G75*
G03*
X5662500Y-6024000I-46000J0D01*
G01*
X5662500Y-6659000D02*
G75*
G03*
X5662500Y-6659000I-46000J0D01*
G01*
X5980000Y-6024000D02*
G75*
G03*
X5980000Y-6024000I-46000J0D01*
G01*
X5980000Y-6659000D02*
G75*
G03*
X5980000Y-6659000I-46000J0D01*
G01*
X6297500Y-6024000D02*
G75*
G03*
X6297500Y-6024000I-46000J0D01*
G01*
X6297500Y-6659000D02*
G75*
G03*
X6297500Y-6659000I-46000J0D01*
G01*
X6615000Y-6024000D02*
G75*
G03*
X6615000Y-6024000I-46000J0D01*
G01*
X6615000Y-6659000D02*
G75*
G03*
X6615000Y-6659000I-46000J0D01*
G01*
X6932500Y-6024000D02*
G75*
G03*
X6932500Y-6024000I-46000J0D01*
G01*
X6932500Y-6659000D02*
G75*
G03*
X6932500Y-6659000I-46000J0D01*
G01*
X7250000Y-6024000D02*
G75*
G03*
X7250000Y-6024000I-46000J0D01*
G01*
X7250000Y-6659000D02*
G75*
G03*
X7250000Y-6659000I-46000J0D01*
G01*
X7567500Y-6024000D02*
G75*
G03*
X7567500Y-6024000I-46000J0D01*
G01*
X7567500Y-6659000D02*
G75*
G03*
X7567500Y-6659000I-46000J0D01*
G01*
X7885000Y-6024000D02*
G75*
G03*
X7885000Y-6024000I-46000J0D01*
G01*
X7885000Y-6659000D02*
G75*
G03*
X7885000Y-6659000I-46000J0D01*
G01*
X8202500Y-6024000D02*
G75*
G03*
X8202500Y-6024000I-46000J0D01*
G01*
X8202500Y-6659000D02*
G75*
G03*
X8202500Y-6659000I-46000J0D01*
G01*
X8520000Y-6024000D02*
G75*
G03*
X8520000Y-6024000I-46000J0D01*
G01*
X8520000Y-6659000D02*
G75*
G03*
X8520000Y-6659000I-46000J0D01*
G01*
X8837500Y-6024000D02*
G75*
G03*
X8837500Y-6024000I-46000J0D01*
G01*
X8837500Y-6659000D02*
G75*
G03*
X8837500Y-6659000I-46000J0D01*
G01*
X15928500Y-6076000D02*
G75*
G03*
X15928500Y-6076000I-46000J0D01*
G01*
X15928500Y-6711000D02*
G75*
G03*
X15928500Y-6711000I-46000J0D01*
G01*
X16246000Y-6076000D02*
G75*
G03*
X16246000Y-6076000I-46000J0D01*
G01*
X16246000Y-6711000D02*
G75*
G03*
X16246000Y-6711000I-46000J0D01*
G01*
X16563500Y-6076000D02*
G75*
G03*
X16563500Y-6076000I-46000J0D01*
G01*
X16563500Y-6711000D02*
G75*
G03*
X16563500Y-6711000I-46000J0D01*
G01*
X16881000Y-6076000D02*
G75*
G03*
X16881000Y-6076000I-46000J0D01*
G01*
X16881000Y-6711000D02*
G75*
G03*
X16881000Y-6711000I-46000J0D01*
G01*
X17198500Y-6076000D02*
G75*
G03*
X17198500Y-6076000I-46000J0D01*
G01*
X17198500Y-6711000D02*
G75*
G03*
X17198500Y-6711000I-46000J0D01*
G01*
X17516000Y-6076000D02*
G75*
G03*
X17516000Y-6076000I-46000J0D01*
G01*
X17516000Y-6711000D02*
G75*
G03*
X17516000Y-6711000I-46000J0D01*
G01*
X17833500Y-6076000D02*
G75*
G03*
X17833500Y-6076000I-46000J0D01*
G01*
X17833500Y-6711000D02*
G75*
G03*
X17833500Y-6711000I-46000J0D01*
G01*
X18151000Y-6076000D02*
G75*
G03*
X18151000Y-6076000I-46000J0D01*
G01*
X18151000Y-6711000D02*
G75*
G03*
X18151000Y-6711000I-46000J0D01*
G01*
X18468500Y-6076000D02*
G75*
G03*
X18468500Y-6076000I-46000J0D01*
G01*
X18468500Y-6711000D02*
G75*
G03*
X18468500Y-6711000I-46000J0D01*
G01*
X18786000Y-6076000D02*
G75*
G03*
X18786000Y-6076000I-46000J0D01*
G01*
X18786000Y-6711000D02*
G75*
G03*
X18786000Y-6711000I-46000J0D01*
G01*
X19103500Y-6076000D02*
G75*
G03*
X19103500Y-6076000I-46000J0D01*
G01*
X19103500Y-6711000D02*
G75*
G03*
X19103500Y-6711000I-46000J0D01*
G01*
X19421000Y-6076000D02*
G75*
G03*
X19421000Y-6076000I-46000J0D01*
G01*
X19421000Y-6711000D02*
G75*
G03*
X19421000Y-6711000I-46000J0D01*
G01*
X20727500Y-6045000D02*
G75*
G03*
X20727500Y-6045000I-46000J0D01*
G01*
X20727500Y-6680000D02*
G75*
G03*
X20727500Y-6680000I-46000J0D01*
G01*
X21045000Y-6045000D02*
G75*
G03*
X21045000Y-6045000I-46000J0D01*
G01*
X21045000Y-6680000D02*
G75*
G03*
X21045000Y-6680000I-46000J0D01*
G01*
X21362500Y-6045000D02*
G75*
G03*
X21362500Y-6045000I-46000J0D01*
G01*
X21362500Y-6680000D02*
G75*
G03*
X21362500Y-6680000I-46000J0D01*
G01*
X21680000Y-6045000D02*
G75*
G03*
X21680000Y-6045000I-46000J0D01*
G01*
X21680000Y-6680000D02*
G75*
G03*
X21680000Y-6680000I-46000J0D01*
G01*
X21997500Y-6045000D02*
G75*
G03*
X21997500Y-6045000I-46000J0D01*
G01*
X21997500Y-6680000D02*
G75*
G03*
X21997500Y-6680000I-46000J0D01*
G01*
X22315000Y-6045000D02*
G75*
G03*
X22315000Y-6045000I-46000J0D01*
G01*
X22315000Y-6680000D02*
G75*
G03*
X22315000Y-6680000I-46000J0D01*
G01*
X22632500Y-6045000D02*
G75*
G03*
X22632500Y-6045000I-46000J0D01*
G01*
X22632500Y-6680000D02*
G75*
G03*
X22632500Y-6680000I-46000J0D01*
G01*
X22950000Y-6045000D02*
G75*
G03*
X22950000Y-6045000I-46000J0D01*
G01*
X22950000Y-6680000D02*
G75*
G03*
X22950000Y-6680000I-46000J0D01*
G01*
X23267500Y-6045000D02*
G75*
G03*
X23267500Y-6045000I-46000J0D01*
G01*
X23267500Y-6680000D02*
G75*
G03*
X23267500Y-6680000I-46000J0D01*
G01*
X23585000Y-6045000D02*
G75*
G03*
X23585000Y-6045000I-46000J0D01*
G01*
X23585000Y-6680000D02*
G75*
G03*
X23585000Y-6680000I-46000J0D01*
G01*
X23902500Y-6045000D02*
G75*
G03*
X23902500Y-6045000I-46000J0D01*
G01*
X23902500Y-6680000D02*
G75*
G03*
X23902500Y-6680000I-46000J0D01*
G01*
X24220000Y-6045000D02*
G75*
G03*
X24220000Y-6045000I-46000J0D01*
G01*
X24220000Y-6680000D02*
G75*
G03*
X24220000Y-6680000I-46000J0D01*
G01*
D10*
X4064000Y-9729000D02*
X4064000Y-9829000D01*
X4014000Y-9779000D02*
X4114000Y-9779000D01*
X4064000Y-11253000D02*
X4064000Y-11353000D01*
X4014000Y-11303000D02*
X4114000Y-11303000D01*
X4318000Y-9729000D02*
X4318000Y-9829000D01*
X4268000Y-9779000D02*
X4368000Y-9779000D01*
X4318000Y-11253000D02*
X4318000Y-11353000D01*
X4268000Y-11303000D02*
X4368000Y-11303000D01*
X4572000Y-9729000D02*
X4572000Y-9829000D01*
X4522000Y-9779000D02*
X4622000Y-9779000D01*
X4572000Y-11253000D02*
X4572000Y-11353000D01*
X4522000Y-11303000D02*
X4622000Y-11303000D01*
X4826000Y-9729000D02*
X4826000Y-9829000D01*
X4776000Y-9779000D02*
X4876000Y-9779000D01*
X4826000Y-11253000D02*
X4826000Y-11353000D01*
X4776000Y-11303000D02*
X4876000Y-11303000D01*
X5080000Y-9729000D02*
X5080000Y-9829000D01*
X5030000Y-9779000D02*
X5130000Y-9779000D01*
X5080000Y-11253000D02*
X5080000Y-11353000D01*
X5030000Y-11303000D02*
X5130000Y-11303000D01*
X5334000Y-9729000D02*
X5334000Y-9829000D01*
X5284000Y-9779000D02*
X5384000Y-9779000D01*
X5334000Y-11253000D02*
X5334000Y-11353000D01*
X5284000Y-11303000D02*
X5384000Y-11303000D01*
X5588000Y-9729000D02*
X5588000Y-9829000D01*
X5538000Y-9779000D02*
X5638000Y-9779000D01*
X5588000Y-11253000D02*
X5588000Y-11353000D01*
X5538000Y-11303000D02*
X5638000Y-11303000D01*
X5842000Y-9729000D02*
X5842000Y-9829000D01*
X5792000Y-9779000D02*
X5892000Y-9779000D01*
X5842000Y-11253000D02*
X5842000Y-11353000D01*
X5792000Y-11303000D02*
X5892000Y-11303000D01*
X6096000Y-9729000D02*
X6096000Y-9829000D01*
X6046000Y-9779000D02*
X6146000Y-9779000D01*
X6096000Y-11253000D02*
X6096000Y-11353000D01*
X6046000Y-11303000D02*
X6146000Y-11303000D01*
X7874000Y-9729000D02*
X7874000Y-9829000D01*
X7824000Y-9779000D02*
X7924000Y-9779000D01*
X7874000Y-11253000D02*
X7874000Y-11353000D01*
X7824000Y-11303000D02*
X7924000Y-11303000D01*
X8128000Y-9729000D02*
X8128000Y-9829000D01*
X8078000Y-9779000D02*
X8178000Y-9779000D01*
X8128000Y-11253000D02*
X8128000Y-11353000D01*
X8078000Y-11303000D02*
X8178000Y-11303000D01*
X8382000Y-9729000D02*
X8382000Y-9829000D01*
X8332000Y-9779000D02*
X8432000Y-9779000D01*
X8382000Y-11253000D02*
X8382000Y-11353000D01*
X8332000Y-11303000D02*
X8432000Y-11303000D01*
X8636000Y-9729000D02*
X8636000Y-9829000D01*
X8586000Y-9779000D02*
X8686000Y-9779000D01*
X8636000Y-11253000D02*
X8636000Y-11353000D01*
X8586000Y-11303000D02*
X8686000Y-11303000D01*
X8890000Y-9729000D02*
X8890000Y-9829000D01*
X8840000Y-9779000D02*
X8940000Y-9779000D01*
X8890000Y-11253000D02*
X8890000Y-11353000D01*
X8840000Y-11303000D02*
X8940000Y-11303000D01*
X9144000Y-9729000D02*
X9144000Y-9829000D01*
X9094000Y-9779000D02*
X9194000Y-9779000D01*
X9144000Y-11253000D02*
X9144000Y-11353000D01*
X9094000Y-11303000D02*
X9194000Y-11303000D01*
X9398000Y-9729000D02*
X9398000Y-9829000D01*
X9348000Y-9779000D02*
X9448000Y-9779000D01*
X9398000Y-11253000D02*
X9398000Y-11353000D01*
X9348000Y-11303000D02*
X9448000Y-11303000D01*
X9652000Y-9729000D02*
X9652000Y-9829000D01*
X9602000Y-9779000D02*
X9702000Y-9779000D01*
X9652000Y-11253000D02*
X9652000Y-11353000D01*
X9602000Y-11303000D02*
X9702000Y-11303000D01*
X9906000Y-9729000D02*
X9906000Y-9829000D01*
X9856000Y-9779000D02*
X9956000Y-9779000D01*
X9906000Y-11253000D02*
X9906000Y-11353000D01*
X9856000Y-11303000D02*
X9956000Y-11303000D01*
D14*
X11017427Y-10154927D02*
X11017427Y-10070073D01*
X10932573Y-10070073D01*
X10932573Y-10154927D01*
X11017427Y-10154927D01*
X11017427Y-10662927D02*
X11017427Y-10578073D01*
X10932573Y-10578073D01*
X10932573Y-10662927D01*
X11017427Y-10662927D01*
D11*
X3557777Y-12254484D02*
X3557777Y-12054484D01*
X3557777Y-12054484D02*
X3605396Y-12054484D01*
X3605396Y-12054484D02*
X3633967Y-12064008D01*
X3633967Y-12064008D02*
X3653015Y-12083055D01*
X3653015Y-12083055D02*
X3662539Y-12102103D01*
X3662539Y-12102103D02*
X3672062Y-12140198D01*
X3672062Y-12140198D02*
X3672062Y-12168769D01*
X3672062Y-12168769D02*
X3662539Y-12206865D01*
X3662539Y-12206865D02*
X3653015Y-12225912D01*
X3653015Y-12225912D02*
X3633967Y-12244960D01*
X3633967Y-12244960D02*
X3605396Y-12254484D01*
X3605396Y-12254484D02*
X3557777Y-12254484D01*
X3757777Y-12254484D02*
X3757777Y-12121150D01*
X3757777Y-12159246D02*
X3767301Y-12140198D01*
X3767301Y-12140198D02*
X3776824Y-12130674D01*
X3776824Y-12130674D02*
X3795872Y-12121150D01*
X3795872Y-12121150D02*
X3814920Y-12121150D01*
X3881586Y-12254484D02*
X3881586Y-12121150D01*
X3881586Y-12054484D02*
X3872062Y-12064008D01*
X3872062Y-12064008D02*
X3881586Y-12073531D01*
X3881586Y-12073531D02*
X3891110Y-12064008D01*
X3891110Y-12064008D02*
X3881586Y-12054484D01*
X3881586Y-12054484D02*
X3881586Y-12073531D01*
X4005396Y-12254484D02*
X3986348Y-12244960D01*
X3986348Y-12244960D02*
X3976824Y-12225912D01*
X3976824Y-12225912D02*
X3976824Y-12054484D01*
X4110158Y-12254484D02*
X4091110Y-12244960D01*
X4091110Y-12244960D02*
X4081586Y-12225912D01*
X4081586Y-12225912D02*
X4081586Y-12054484D01*
X4338729Y-12254484D02*
X4338729Y-12054484D01*
X4338729Y-12054484D02*
X4405396Y-12197341D01*
X4405396Y-12197341D02*
X4472063Y-12054484D01*
X4472063Y-12054484D02*
X4472063Y-12254484D01*
X4653015Y-12254484D02*
X4653015Y-12149722D01*
X4653015Y-12149722D02*
X4643491Y-12130674D01*
X4643491Y-12130674D02*
X4624444Y-12121150D01*
X4624444Y-12121150D02*
X4586348Y-12121150D01*
X4586348Y-12121150D02*
X4567301Y-12130674D01*
X4653015Y-12244960D02*
X4633967Y-12254484D01*
X4633967Y-12254484D02*
X4586348Y-12254484D01*
X4586348Y-12254484D02*
X4567301Y-12244960D01*
X4567301Y-12244960D02*
X4557777Y-12225912D01*
X4557777Y-12225912D02*
X4557777Y-12206865D01*
X4557777Y-12206865D02*
X4567301Y-12187817D01*
X4567301Y-12187817D02*
X4586348Y-12178293D01*
X4586348Y-12178293D02*
X4633967Y-12178293D01*
X4633967Y-12178293D02*
X4653015Y-12168769D01*
X4748253Y-12121150D02*
X4748253Y-12321150D01*
X4748253Y-12130674D02*
X4767301Y-12121150D01*
X4767301Y-12121150D02*
X4805396Y-12121150D01*
X4805396Y-12121150D02*
X4824444Y-12130674D01*
X4824444Y-12130674D02*
X4833967Y-12140198D01*
X4833967Y-12140198D02*
X4843491Y-12159246D01*
X4843491Y-12159246D02*
X4843491Y-12216388D01*
X4843491Y-12216388D02*
X4833967Y-12235436D01*
X4833967Y-12235436D02*
X4824444Y-12244960D01*
X4824444Y-12244960D02*
X4805396Y-12254484D01*
X4805396Y-12254484D02*
X4767301Y-12254484D01*
X4767301Y-12254484D02*
X4748253Y-12244960D01*
X4929205Y-12235436D02*
X4938729Y-12244960D01*
X4938729Y-12244960D02*
X4929205Y-12254484D01*
X4929205Y-12254484D02*
X4919682Y-12244960D01*
X4919682Y-12244960D02*
X4929205Y-12235436D01*
X4929205Y-12235436D02*
X4929205Y-12254484D01*
X4929205Y-12130674D02*
X4938729Y-12140198D01*
X4938729Y-12140198D02*
X4929205Y-12149722D01*
X4929205Y-12149722D02*
X4919682Y-12140198D01*
X4919682Y-12140198D02*
X4929205Y-12130674D01*
X4929205Y-12130674D02*
X4929205Y-12149722D01*
D12*
X3257000Y-12563000D02*
X3297000Y-12603000D01*
X3297000Y-12563000D02*
X3257000Y-12603000D01*
D11*
X3595872Y-12474484D02*
X3614920Y-12474484D01*
X3614920Y-12474484D02*
X3633967Y-12484008D01*
X3633967Y-12484008D02*
X3643491Y-12493531D01*
X3643491Y-12493531D02*
X3653015Y-12512579D01*
X3653015Y-12512579D02*
X3662539Y-12550674D01*
X3662539Y-12550674D02*
X3662539Y-12598293D01*
X3662539Y-12598293D02*
X3653015Y-12636388D01*
X3653015Y-12636388D02*
X3643491Y-12655436D01*
X3643491Y-12655436D02*
X3633967Y-12664960D01*
X3633967Y-12664960D02*
X3614920Y-12674484D01*
X3614920Y-12674484D02*
X3595872Y-12674484D01*
X3595872Y-12674484D02*
X3576824Y-12664960D01*
X3576824Y-12664960D02*
X3567301Y-12655436D01*
X3567301Y-12655436D02*
X3557777Y-12636388D01*
X3557777Y-12636388D02*
X3548253Y-12598293D01*
X3548253Y-12598293D02*
X3548253Y-12550674D01*
X3548253Y-12550674D02*
X3557777Y-12512579D01*
X3557777Y-12512579D02*
X3567301Y-12493531D01*
X3567301Y-12493531D02*
X3576824Y-12484008D01*
X3576824Y-12484008D02*
X3595872Y-12474484D01*
X3748253Y-12655436D02*
X3757777Y-12664960D01*
X3757777Y-12664960D02*
X3748253Y-12674484D01*
X3748253Y-12674484D02*
X3738729Y-12664960D01*
X3738729Y-12664960D02*
X3748253Y-12655436D01*
X3748253Y-12655436D02*
X3748253Y-12674484D01*
X3929205Y-12541150D02*
X3929205Y-12674484D01*
X3881586Y-12464960D02*
X3833967Y-12607817D01*
X3833967Y-12607817D02*
X3957777Y-12607817D01*
X4072062Y-12474484D02*
X4091110Y-12474484D01*
X4091110Y-12474484D02*
X4110158Y-12484008D01*
X4110158Y-12484008D02*
X4119682Y-12493531D01*
X4119682Y-12493531D02*
X4129205Y-12512579D01*
X4129205Y-12512579D02*
X4138729Y-12550674D01*
X4138729Y-12550674D02*
X4138729Y-12598293D01*
X4138729Y-12598293D02*
X4129205Y-12636388D01*
X4129205Y-12636388D02*
X4119682Y-12655436D01*
X4119682Y-12655436D02*
X4110158Y-12664960D01*
X4110158Y-12664960D02*
X4091110Y-12674484D01*
X4091110Y-12674484D02*
X4072062Y-12674484D01*
X4072062Y-12674484D02*
X4053015Y-12664960D01*
X4053015Y-12664960D02*
X4043491Y-12655436D01*
X4043491Y-12655436D02*
X4033967Y-12636388D01*
X4033967Y-12636388D02*
X4024443Y-12598293D01*
X4024443Y-12598293D02*
X4024443Y-12550674D01*
X4024443Y-12550674D02*
X4033967Y-12512579D01*
X4033967Y-12512579D02*
X4043491Y-12493531D01*
X4043491Y-12493531D02*
X4053015Y-12484008D01*
X4053015Y-12484008D02*
X4072062Y-12474484D01*
X4262539Y-12474484D02*
X4281586Y-12474484D01*
X4281586Y-12474484D02*
X4300634Y-12484008D01*
X4300634Y-12484008D02*
X4310158Y-12493531D01*
X4310158Y-12493531D02*
X4319682Y-12512579D01*
X4319682Y-12512579D02*
X4329205Y-12550674D01*
X4329205Y-12550674D02*
X4329205Y-12598293D01*
X4329205Y-12598293D02*
X4319682Y-12636388D01*
X4319682Y-12636388D02*
X4310158Y-12655436D01*
X4310158Y-12655436D02*
X4300634Y-12664960D01*
X4300634Y-12664960D02*
X4281586Y-12674484D01*
X4281586Y-12674484D02*
X4262539Y-12674484D01*
X4262539Y-12674484D02*
X4243491Y-12664960D01*
X4243491Y-12664960D02*
X4233967Y-12655436D01*
X4233967Y-12655436D02*
X4224444Y-12636388D01*
X4224444Y-12636388D02*
X4214920Y-12598293D01*
X4214920Y-12598293D02*
X4214920Y-12550674D01*
X4214920Y-12550674D02*
X4224444Y-12512579D01*
X4224444Y-12512579D02*
X4233967Y-12493531D01*
X4233967Y-12493531D02*
X4243491Y-12484008D01*
X4243491Y-12484008D02*
X4262539Y-12474484D01*
X4414920Y-12674484D02*
X4414920Y-12541150D01*
X4414920Y-12560198D02*
X4424444Y-12550674D01*
X4424444Y-12550674D02*
X4443491Y-12541150D01*
X4443491Y-12541150D02*
X4472063Y-12541150D01*
X4472063Y-12541150D02*
X4491110Y-12550674D01*
X4491110Y-12550674D02*
X4500634Y-12569722D01*
X4500634Y-12569722D02*
X4500634Y-12674484D01*
X4500634Y-12569722D02*
X4510158Y-12550674D01*
X4510158Y-12550674D02*
X4529205Y-12541150D01*
X4529205Y-12541150D02*
X4557777Y-12541150D01*
X4557777Y-12541150D02*
X4576825Y-12550674D01*
X4576825Y-12550674D02*
X4586348Y-12569722D01*
X4586348Y-12569722D02*
X4586348Y-12674484D01*
X4681586Y-12674484D02*
X4681586Y-12541150D01*
X4681586Y-12560198D02*
X4691110Y-12550674D01*
X4691110Y-12550674D02*
X4710158Y-12541150D01*
X4710158Y-12541150D02*
X4738729Y-12541150D01*
X4738729Y-12541150D02*
X4757777Y-12550674D01*
X4757777Y-12550674D02*
X4767301Y-12569722D01*
X4767301Y-12569722D02*
X4767301Y-12674484D01*
X4767301Y-12569722D02*
X4776825Y-12550674D01*
X4776825Y-12550674D02*
X4795872Y-12541150D01*
X4795872Y-12541150D02*
X4824444Y-12541150D01*
X4824444Y-12541150D02*
X4843491Y-12550674D01*
X4843491Y-12550674D02*
X4853015Y-12569722D01*
X4853015Y-12569722D02*
X4853015Y-12674484D01*
X5243491Y-12464960D02*
X5072063Y-12722103D01*
X5500634Y-12474484D02*
X5519682Y-12474484D01*
X5519682Y-12474484D02*
X5538729Y-12484008D01*
X5538729Y-12484008D02*
X5548253Y-12493531D01*
X5548253Y-12493531D02*
X5557777Y-12512579D01*
X5557777Y-12512579D02*
X5567301Y-12550674D01*
X5567301Y-12550674D02*
X5567301Y-12598293D01*
X5567301Y-12598293D02*
X5557777Y-12636388D01*
X5557777Y-12636388D02*
X5548253Y-12655436D01*
X5548253Y-12655436D02*
X5538729Y-12664960D01*
X5538729Y-12664960D02*
X5519682Y-12674484D01*
X5519682Y-12674484D02*
X5500634Y-12674484D01*
X5500634Y-12674484D02*
X5481587Y-12664960D01*
X5481587Y-12664960D02*
X5472063Y-12655436D01*
X5472063Y-12655436D02*
X5462539Y-12636388D01*
X5462539Y-12636388D02*
X5453015Y-12598293D01*
X5453015Y-12598293D02*
X5453015Y-12550674D01*
X5453015Y-12550674D02*
X5462539Y-12512579D01*
X5462539Y-12512579D02*
X5472063Y-12493531D01*
X5472063Y-12493531D02*
X5481587Y-12484008D01*
X5481587Y-12484008D02*
X5500634Y-12474484D01*
X5653015Y-12655436D02*
X5662539Y-12664960D01*
X5662539Y-12664960D02*
X5653015Y-12674484D01*
X5653015Y-12674484D02*
X5643491Y-12664960D01*
X5643491Y-12664960D02*
X5653015Y-12655436D01*
X5653015Y-12655436D02*
X5653015Y-12674484D01*
X5786348Y-12474484D02*
X5805396Y-12474484D01*
X5805396Y-12474484D02*
X5824444Y-12484008D01*
X5824444Y-12484008D02*
X5833967Y-12493531D01*
X5833967Y-12493531D02*
X5843491Y-12512579D01*
X5843491Y-12512579D02*
X5853015Y-12550674D01*
X5853015Y-12550674D02*
X5853015Y-12598293D01*
X5853015Y-12598293D02*
X5843491Y-12636388D01*
X5843491Y-12636388D02*
X5833967Y-12655436D01*
X5833967Y-12655436D02*
X5824444Y-12664960D01*
X5824444Y-12664960D02*
X5805396Y-12674484D01*
X5805396Y-12674484D02*
X5786348Y-12674484D01*
X5786348Y-12674484D02*
X5767301Y-12664960D01*
X5767301Y-12664960D02*
X5757777Y-12655436D01*
X5757777Y-12655436D02*
X5748253Y-12636388D01*
X5748253Y-12636388D02*
X5738729Y-12598293D01*
X5738729Y-12598293D02*
X5738729Y-12550674D01*
X5738729Y-12550674D02*
X5748253Y-12512579D01*
X5748253Y-12512579D02*
X5757777Y-12493531D01*
X5757777Y-12493531D02*
X5767301Y-12484008D01*
X5767301Y-12484008D02*
X5786348Y-12474484D01*
X6043491Y-12674484D02*
X5929206Y-12674484D01*
X5986348Y-12674484D02*
X5986348Y-12474484D01*
X5986348Y-12474484D02*
X5967301Y-12503055D01*
X5967301Y-12503055D02*
X5948253Y-12522103D01*
X5948253Y-12522103D02*
X5929206Y-12531627D01*
X6224444Y-12474484D02*
X6129206Y-12474484D01*
X6129206Y-12474484D02*
X6119682Y-12569722D01*
X6119682Y-12569722D02*
X6129206Y-12560198D01*
X6129206Y-12560198D02*
X6148253Y-12550674D01*
X6148253Y-12550674D02*
X6195872Y-12550674D01*
X6195872Y-12550674D02*
X6214920Y-12560198D01*
X6214920Y-12560198D02*
X6224444Y-12569722D01*
X6224444Y-12569722D02*
X6233967Y-12588769D01*
X6233967Y-12588769D02*
X6233967Y-12636388D01*
X6233967Y-12636388D02*
X6224444Y-12655436D01*
X6224444Y-12655436D02*
X6214920Y-12664960D01*
X6214920Y-12664960D02*
X6195872Y-12674484D01*
X6195872Y-12674484D02*
X6148253Y-12674484D01*
X6148253Y-12674484D02*
X6129206Y-12664960D01*
X6129206Y-12664960D02*
X6119682Y-12655436D01*
X6300634Y-12474484D02*
X6433967Y-12474484D01*
X6433967Y-12474484D02*
X6348253Y-12674484D01*
X6500634Y-12474484D02*
X6500634Y-12512579D01*
X6576825Y-12474484D02*
X6576825Y-12512579D01*
X6872063Y-12750674D02*
X6862539Y-12741150D01*
X6862539Y-12741150D02*
X6843491Y-12712579D01*
X6843491Y-12712579D02*
X6833968Y-12693531D01*
X6833968Y-12693531D02*
X6824444Y-12664960D01*
X6824444Y-12664960D02*
X6814920Y-12617341D01*
X6814920Y-12617341D02*
X6814920Y-12579246D01*
X6814920Y-12579246D02*
X6824444Y-12531627D01*
X6824444Y-12531627D02*
X6833968Y-12503055D01*
X6833968Y-12503055D02*
X6843491Y-12484008D01*
X6843491Y-12484008D02*
X6862539Y-12455436D01*
X6862539Y-12455436D02*
X6872063Y-12445912D01*
X7043491Y-12474484D02*
X6948253Y-12474484D01*
X6948253Y-12474484D02*
X6938729Y-12569722D01*
X6938729Y-12569722D02*
X6948253Y-12560198D01*
X6948253Y-12560198D02*
X6967301Y-12550674D01*
X6967301Y-12550674D02*
X7014920Y-12550674D01*
X7014920Y-12550674D02*
X7033968Y-12560198D01*
X7033968Y-12560198D02*
X7043491Y-12569722D01*
X7043491Y-12569722D02*
X7053015Y-12588769D01*
X7053015Y-12588769D02*
X7053015Y-12636388D01*
X7053015Y-12636388D02*
X7043491Y-12655436D01*
X7043491Y-12655436D02*
X7033968Y-12664960D01*
X7033968Y-12664960D02*
X7014920Y-12674484D01*
X7014920Y-12674484D02*
X6967301Y-12674484D01*
X6967301Y-12674484D02*
X6948253Y-12664960D01*
X6948253Y-12664960D02*
X6938729Y-12655436D01*
X7243491Y-12674484D02*
X7129206Y-12674484D01*
X7186348Y-12674484D02*
X7186348Y-12474484D01*
X7186348Y-12474484D02*
X7167301Y-12503055D01*
X7167301Y-12503055D02*
X7148253Y-12522103D01*
X7148253Y-12522103D02*
X7129206Y-12531627D01*
X7310158Y-12474484D02*
X7433968Y-12474484D01*
X7433968Y-12474484D02*
X7367301Y-12550674D01*
X7367301Y-12550674D02*
X7395872Y-12550674D01*
X7395872Y-12550674D02*
X7414920Y-12560198D01*
X7414920Y-12560198D02*
X7424444Y-12569722D01*
X7424444Y-12569722D02*
X7433968Y-12588769D01*
X7433968Y-12588769D02*
X7433968Y-12636388D01*
X7433968Y-12636388D02*
X7424444Y-12655436D01*
X7424444Y-12655436D02*
X7414920Y-12664960D01*
X7414920Y-12664960D02*
X7395872Y-12674484D01*
X7395872Y-12674484D02*
X7338729Y-12674484D01*
X7338729Y-12674484D02*
X7319682Y-12664960D01*
X7319682Y-12664960D02*
X7310158Y-12655436D01*
X7672063Y-12674484D02*
X7672063Y-12474484D01*
X7757777Y-12674484D02*
X7757777Y-12569722D01*
X7757777Y-12569722D02*
X7748253Y-12550674D01*
X7748253Y-12550674D02*
X7729206Y-12541150D01*
X7729206Y-12541150D02*
X7700634Y-12541150D01*
X7700634Y-12541150D02*
X7681587Y-12550674D01*
X7681587Y-12550674D02*
X7672063Y-12560198D01*
X7881587Y-12674484D02*
X7862539Y-12664960D01*
X7862539Y-12664960D02*
X7853015Y-12655436D01*
X7853015Y-12655436D02*
X7843491Y-12636388D01*
X7843491Y-12636388D02*
X7843491Y-12579246D01*
X7843491Y-12579246D02*
X7853015Y-12560198D01*
X7853015Y-12560198D02*
X7862539Y-12550674D01*
X7862539Y-12550674D02*
X7881587Y-12541150D01*
X7881587Y-12541150D02*
X7910158Y-12541150D01*
X7910158Y-12541150D02*
X7929206Y-12550674D01*
X7929206Y-12550674D02*
X7938730Y-12560198D01*
X7938730Y-12560198D02*
X7948253Y-12579246D01*
X7948253Y-12579246D02*
X7948253Y-12636388D01*
X7948253Y-12636388D02*
X7938730Y-12655436D01*
X7938730Y-12655436D02*
X7929206Y-12664960D01*
X7929206Y-12664960D02*
X7910158Y-12674484D01*
X7910158Y-12674484D02*
X7881587Y-12674484D01*
X8062539Y-12674484D02*
X8043491Y-12664960D01*
X8043491Y-12664960D02*
X8033968Y-12645912D01*
X8033968Y-12645912D02*
X8033968Y-12474484D01*
X8214920Y-12664960D02*
X8195872Y-12674484D01*
X8195872Y-12674484D02*
X8157777Y-12674484D01*
X8157777Y-12674484D02*
X8138730Y-12664960D01*
X8138730Y-12664960D02*
X8129206Y-12645912D01*
X8129206Y-12645912D02*
X8129206Y-12569722D01*
X8129206Y-12569722D02*
X8138730Y-12550674D01*
X8138730Y-12550674D02*
X8157777Y-12541150D01*
X8157777Y-12541150D02*
X8195872Y-12541150D01*
X8195872Y-12541150D02*
X8214920Y-12550674D01*
X8214920Y-12550674D02*
X8224444Y-12569722D01*
X8224444Y-12569722D02*
X8224444Y-12588769D01*
X8224444Y-12588769D02*
X8129206Y-12607817D01*
X8300634Y-12664960D02*
X8319682Y-12674484D01*
X8319682Y-12674484D02*
X8357777Y-12674484D01*
X8357777Y-12674484D02*
X8376825Y-12664960D01*
X8376825Y-12664960D02*
X8386349Y-12645912D01*
X8386349Y-12645912D02*
X8386349Y-12636388D01*
X8386349Y-12636388D02*
X8376825Y-12617341D01*
X8376825Y-12617341D02*
X8357777Y-12607817D01*
X8357777Y-12607817D02*
X8329206Y-12607817D01*
X8329206Y-12607817D02*
X8310158Y-12598293D01*
X8310158Y-12598293D02*
X8300634Y-12579246D01*
X8300634Y-12579246D02*
X8300634Y-12569722D01*
X8300634Y-12569722D02*
X8310158Y-12550674D01*
X8310158Y-12550674D02*
X8329206Y-12541150D01*
X8329206Y-12541150D02*
X8357777Y-12541150D01*
X8357777Y-12541150D02*
X8376825Y-12550674D01*
X8453015Y-12750674D02*
X8462539Y-12741150D01*
X8462539Y-12741150D02*
X8481587Y-12712579D01*
X8481587Y-12712579D02*
X8491111Y-12693531D01*
X8491111Y-12693531D02*
X8500634Y-12664960D01*
X8500634Y-12664960D02*
X8510158Y-12617341D01*
X8510158Y-12617341D02*
X8510158Y-12579246D01*
X8510158Y-12579246D02*
X8500634Y-12531627D01*
X8500634Y-12531627D02*
X8491111Y-12503055D01*
X8491111Y-12503055D02*
X8481587Y-12484008D01*
X8481587Y-12484008D02*
X8462539Y-12455436D01*
X8462539Y-12455436D02*
X8453015Y-12445912D01*
D13*
X3297000Y-12847000D02*
G75*
G03*
X3297000Y-12847000I-46000J0D01*
G01*
D11*
X3595872Y-12738484D02*
X3614920Y-12738484D01*
X3614920Y-12738484D02*
X3633967Y-12748008D01*
X3633967Y-12748008D02*
X3643491Y-12757531D01*
X3643491Y-12757531D02*
X3653015Y-12776579D01*
X3653015Y-12776579D02*
X3662539Y-12814674D01*
X3662539Y-12814674D02*
X3662539Y-12862293D01*
X3662539Y-12862293D02*
X3653015Y-12900388D01*
X3653015Y-12900388D02*
X3643491Y-12919436D01*
X3643491Y-12919436D02*
X3633967Y-12928960D01*
X3633967Y-12928960D02*
X3614920Y-12938484D01*
X3614920Y-12938484D02*
X3595872Y-12938484D01*
X3595872Y-12938484D02*
X3576824Y-12928960D01*
X3576824Y-12928960D02*
X3567301Y-12919436D01*
X3567301Y-12919436D02*
X3557777Y-12900388D01*
X3557777Y-12900388D02*
X3548253Y-12862293D01*
X3548253Y-12862293D02*
X3548253Y-12814674D01*
X3548253Y-12814674D02*
X3557777Y-12776579D01*
X3557777Y-12776579D02*
X3567301Y-12757531D01*
X3567301Y-12757531D02*
X3576824Y-12748008D01*
X3576824Y-12748008D02*
X3595872Y-12738484D01*
X3748253Y-12919436D02*
X3757777Y-12928960D01*
X3757777Y-12928960D02*
X3748253Y-12938484D01*
X3748253Y-12938484D02*
X3738729Y-12928960D01*
X3738729Y-12928960D02*
X3748253Y-12919436D01*
X3748253Y-12919436D02*
X3748253Y-12938484D01*
X3853015Y-12938484D02*
X3891110Y-12938484D01*
X3891110Y-12938484D02*
X3910158Y-12928960D01*
X3910158Y-12928960D02*
X3919682Y-12919436D01*
X3919682Y-12919436D02*
X3938729Y-12890865D01*
X3938729Y-12890865D02*
X3948253Y-12852769D01*
X3948253Y-12852769D02*
X3948253Y-12776579D01*
X3948253Y-12776579D02*
X3938729Y-12757531D01*
X3938729Y-12757531D02*
X3929205Y-12748008D01*
X3929205Y-12748008D02*
X3910158Y-12738484D01*
X3910158Y-12738484D02*
X3872062Y-12738484D01*
X3872062Y-12738484D02*
X3853015Y-12748008D01*
X3853015Y-12748008D02*
X3843491Y-12757531D01*
X3843491Y-12757531D02*
X3833967Y-12776579D01*
X3833967Y-12776579D02*
X3833967Y-12824198D01*
X3833967Y-12824198D02*
X3843491Y-12843246D01*
X3843491Y-12843246D02*
X3853015Y-12852769D01*
X3853015Y-12852769D02*
X3872062Y-12862293D01*
X3872062Y-12862293D02*
X3910158Y-12862293D01*
X3910158Y-12862293D02*
X3929205Y-12852769D01*
X3929205Y-12852769D02*
X3938729Y-12843246D01*
X3938729Y-12843246D02*
X3948253Y-12824198D01*
X4024443Y-12757531D02*
X4033967Y-12748008D01*
X4033967Y-12748008D02*
X4053015Y-12738484D01*
X4053015Y-12738484D02*
X4100634Y-12738484D01*
X4100634Y-12738484D02*
X4119682Y-12748008D01*
X4119682Y-12748008D02*
X4129205Y-12757531D01*
X4129205Y-12757531D02*
X4138729Y-12776579D01*
X4138729Y-12776579D02*
X4138729Y-12795627D01*
X4138729Y-12795627D02*
X4129205Y-12824198D01*
X4129205Y-12824198D02*
X4014920Y-12938484D01*
X4014920Y-12938484D02*
X4138729Y-12938484D01*
X4262539Y-12738484D02*
X4281586Y-12738484D01*
X4281586Y-12738484D02*
X4300634Y-12748008D01*
X4300634Y-12748008D02*
X4310158Y-12757531D01*
X4310158Y-12757531D02*
X4319682Y-12776579D01*
X4319682Y-12776579D02*
X4329205Y-12814674D01*
X4329205Y-12814674D02*
X4329205Y-12862293D01*
X4329205Y-12862293D02*
X4319682Y-12900388D01*
X4319682Y-12900388D02*
X4310158Y-12919436D01*
X4310158Y-12919436D02*
X4300634Y-12928960D01*
X4300634Y-12928960D02*
X4281586Y-12938484D01*
X4281586Y-12938484D02*
X4262539Y-12938484D01*
X4262539Y-12938484D02*
X4243491Y-12928960D01*
X4243491Y-12928960D02*
X4233967Y-12919436D01*
X4233967Y-12919436D02*
X4224444Y-12900388D01*
X4224444Y-12900388D02*
X4214920Y-12862293D01*
X4214920Y-12862293D02*
X4214920Y-12814674D01*
X4214920Y-12814674D02*
X4224444Y-12776579D01*
X4224444Y-12776579D02*
X4233967Y-12757531D01*
X4233967Y-12757531D02*
X4243491Y-12748008D01*
X4243491Y-12748008D02*
X4262539Y-12738484D01*
X4414920Y-12938484D02*
X4414920Y-12805150D01*
X4414920Y-12824198D02*
X4424444Y-12814674D01*
X4424444Y-12814674D02*
X4443491Y-12805150D01*
X4443491Y-12805150D02*
X4472063Y-12805150D01*
X4472063Y-12805150D02*
X4491110Y-12814674D01*
X4491110Y-12814674D02*
X4500634Y-12833722D01*
X4500634Y-12833722D02*
X4500634Y-12938484D01*
X4500634Y-12833722D02*
X4510158Y-12814674D01*
X4510158Y-12814674D02*
X4529205Y-12805150D01*
X4529205Y-12805150D02*
X4557777Y-12805150D01*
X4557777Y-12805150D02*
X4576825Y-12814674D01*
X4576825Y-12814674D02*
X4586348Y-12833722D01*
X4586348Y-12833722D02*
X4586348Y-12938484D01*
X4681586Y-12938484D02*
X4681586Y-12805150D01*
X4681586Y-12824198D02*
X4691110Y-12814674D01*
X4691110Y-12814674D02*
X4710158Y-12805150D01*
X4710158Y-12805150D02*
X4738729Y-12805150D01*
X4738729Y-12805150D02*
X4757777Y-12814674D01*
X4757777Y-12814674D02*
X4767301Y-12833722D01*
X4767301Y-12833722D02*
X4767301Y-12938484D01*
X4767301Y-12833722D02*
X4776825Y-12814674D01*
X4776825Y-12814674D02*
X4795872Y-12805150D01*
X4795872Y-12805150D02*
X4824444Y-12805150D01*
X4824444Y-12805150D02*
X4843491Y-12814674D01*
X4843491Y-12814674D02*
X4853015Y-12833722D01*
X4853015Y-12833722D02*
X4853015Y-12938484D01*
X5243491Y-12728960D02*
X5072063Y-12986103D01*
X5500634Y-12738484D02*
X5519682Y-12738484D01*
X5519682Y-12738484D02*
X5538729Y-12748008D01*
X5538729Y-12748008D02*
X5548253Y-12757531D01*
X5548253Y-12757531D02*
X5557777Y-12776579D01*
X5557777Y-12776579D02*
X5567301Y-12814674D01*
X5567301Y-12814674D02*
X5567301Y-12862293D01*
X5567301Y-12862293D02*
X5557777Y-12900388D01*
X5557777Y-12900388D02*
X5548253Y-12919436D01*
X5548253Y-12919436D02*
X5538729Y-12928960D01*
X5538729Y-12928960D02*
X5519682Y-12938484D01*
X5519682Y-12938484D02*
X5500634Y-12938484D01*
X5500634Y-12938484D02*
X5481587Y-12928960D01*
X5481587Y-12928960D02*
X5472063Y-12919436D01*
X5472063Y-12919436D02*
X5462539Y-12900388D01*
X5462539Y-12900388D02*
X5453015Y-12862293D01*
X5453015Y-12862293D02*
X5453015Y-12814674D01*
X5453015Y-12814674D02*
X5462539Y-12776579D01*
X5462539Y-12776579D02*
X5472063Y-12757531D01*
X5472063Y-12757531D02*
X5481587Y-12748008D01*
X5481587Y-12748008D02*
X5500634Y-12738484D01*
X5653015Y-12919436D02*
X5662539Y-12928960D01*
X5662539Y-12928960D02*
X5653015Y-12938484D01*
X5653015Y-12938484D02*
X5643491Y-12928960D01*
X5643491Y-12928960D02*
X5653015Y-12919436D01*
X5653015Y-12919436D02*
X5653015Y-12938484D01*
X5786348Y-12738484D02*
X5805396Y-12738484D01*
X5805396Y-12738484D02*
X5824444Y-12748008D01*
X5824444Y-12748008D02*
X5833967Y-12757531D01*
X5833967Y-12757531D02*
X5843491Y-12776579D01*
X5843491Y-12776579D02*
X5853015Y-12814674D01*
X5853015Y-12814674D02*
X5853015Y-12862293D01*
X5853015Y-12862293D02*
X5843491Y-12900388D01*
X5843491Y-12900388D02*
X5833967Y-12919436D01*
X5833967Y-12919436D02*
X5824444Y-12928960D01*
X5824444Y-12928960D02*
X5805396Y-12938484D01*
X5805396Y-12938484D02*
X5786348Y-12938484D01*
X5786348Y-12938484D02*
X5767301Y-12928960D01*
X5767301Y-12928960D02*
X5757777Y-12919436D01*
X5757777Y-12919436D02*
X5748253Y-12900388D01*
X5748253Y-12900388D02*
X5738729Y-12862293D01*
X5738729Y-12862293D02*
X5738729Y-12814674D01*
X5738729Y-12814674D02*
X5748253Y-12776579D01*
X5748253Y-12776579D02*
X5757777Y-12757531D01*
X5757777Y-12757531D02*
X5767301Y-12748008D01*
X5767301Y-12748008D02*
X5786348Y-12738484D01*
X5919682Y-12738484D02*
X6043491Y-12738484D01*
X6043491Y-12738484D02*
X5976825Y-12814674D01*
X5976825Y-12814674D02*
X6005396Y-12814674D01*
X6005396Y-12814674D02*
X6024444Y-12824198D01*
X6024444Y-12824198D02*
X6033967Y-12833722D01*
X6033967Y-12833722D02*
X6043491Y-12852769D01*
X6043491Y-12852769D02*
X6043491Y-12900388D01*
X6043491Y-12900388D02*
X6033967Y-12919436D01*
X6033967Y-12919436D02*
X6024444Y-12928960D01*
X6024444Y-12928960D02*
X6005396Y-12938484D01*
X6005396Y-12938484D02*
X5948253Y-12938484D01*
X5948253Y-12938484D02*
X5929206Y-12928960D01*
X5929206Y-12928960D02*
X5919682Y-12919436D01*
X6214920Y-12738484D02*
X6176825Y-12738484D01*
X6176825Y-12738484D02*
X6157777Y-12748008D01*
X6157777Y-12748008D02*
X6148253Y-12757531D01*
X6148253Y-12757531D02*
X6129206Y-12786103D01*
X6129206Y-12786103D02*
X6119682Y-12824198D01*
X6119682Y-12824198D02*
X6119682Y-12900388D01*
X6119682Y-12900388D02*
X6129206Y-12919436D01*
X6129206Y-12919436D02*
X6138729Y-12928960D01*
X6138729Y-12928960D02*
X6157777Y-12938484D01*
X6157777Y-12938484D02*
X6195872Y-12938484D01*
X6195872Y-12938484D02*
X6214920Y-12928960D01*
X6214920Y-12928960D02*
X6224444Y-12919436D01*
X6224444Y-12919436D02*
X6233967Y-12900388D01*
X6233967Y-12900388D02*
X6233967Y-12852769D01*
X6233967Y-12852769D02*
X6224444Y-12833722D01*
X6224444Y-12833722D02*
X6214920Y-12824198D01*
X6214920Y-12824198D02*
X6195872Y-12814674D01*
X6195872Y-12814674D02*
X6157777Y-12814674D01*
X6157777Y-12814674D02*
X6138729Y-12824198D01*
X6138729Y-12824198D02*
X6129206Y-12833722D01*
X6129206Y-12833722D02*
X6119682Y-12852769D01*
X6310158Y-12757531D02*
X6319682Y-12748008D01*
X6319682Y-12748008D02*
X6338729Y-12738484D01*
X6338729Y-12738484D02*
X6386348Y-12738484D01*
X6386348Y-12738484D02*
X6405396Y-12748008D01*
X6405396Y-12748008D02*
X6414920Y-12757531D01*
X6414920Y-12757531D02*
X6424444Y-12776579D01*
X6424444Y-12776579D02*
X6424444Y-12795627D01*
X6424444Y-12795627D02*
X6414920Y-12824198D01*
X6414920Y-12824198D02*
X6300634Y-12938484D01*
X6300634Y-12938484D02*
X6424444Y-12938484D01*
X6500634Y-12738484D02*
X6500634Y-12776579D01*
X6576825Y-12738484D02*
X6576825Y-12776579D01*
X6872063Y-13014674D02*
X6862539Y-13005150D01*
X6862539Y-13005150D02*
X6843491Y-12976579D01*
X6843491Y-12976579D02*
X6833968Y-12957531D01*
X6833968Y-12957531D02*
X6824444Y-12928960D01*
X6824444Y-12928960D02*
X6814920Y-12881341D01*
X6814920Y-12881341D02*
X6814920Y-12843246D01*
X6814920Y-12843246D02*
X6824444Y-12795627D01*
X6824444Y-12795627D02*
X6833968Y-12767055D01*
X6833968Y-12767055D02*
X6843491Y-12748008D01*
X6843491Y-12748008D02*
X6862539Y-12719436D01*
X6862539Y-12719436D02*
X6872063Y-12709912D01*
X6929206Y-12738484D02*
X7062539Y-12738484D01*
X7062539Y-12738484D02*
X6976825Y-12938484D01*
X7129206Y-12757531D02*
X7138729Y-12748008D01*
X7138729Y-12748008D02*
X7157777Y-12738484D01*
X7157777Y-12738484D02*
X7205396Y-12738484D01*
X7205396Y-12738484D02*
X7224444Y-12748008D01*
X7224444Y-12748008D02*
X7233968Y-12757531D01*
X7233968Y-12757531D02*
X7243491Y-12776579D01*
X7243491Y-12776579D02*
X7243491Y-12795627D01*
X7243491Y-12795627D02*
X7233968Y-12824198D01*
X7233968Y-12824198D02*
X7119682Y-12938484D01*
X7119682Y-12938484D02*
X7243491Y-12938484D01*
X7481587Y-12938484D02*
X7481587Y-12738484D01*
X7567301Y-12938484D02*
X7567301Y-12833722D01*
X7567301Y-12833722D02*
X7557777Y-12814674D01*
X7557777Y-12814674D02*
X7538730Y-12805150D01*
X7538730Y-12805150D02*
X7510158Y-12805150D01*
X7510158Y-12805150D02*
X7491110Y-12814674D01*
X7491110Y-12814674D02*
X7481587Y-12824198D01*
X7691110Y-12938484D02*
X7672063Y-12928960D01*
X7672063Y-12928960D02*
X7662539Y-12919436D01*
X7662539Y-12919436D02*
X7653015Y-12900388D01*
X7653015Y-12900388D02*
X7653015Y-12843246D01*
X7653015Y-12843246D02*
X7662539Y-12824198D01*
X7662539Y-12824198D02*
X7672063Y-12814674D01*
X7672063Y-12814674D02*
X7691110Y-12805150D01*
X7691110Y-12805150D02*
X7719682Y-12805150D01*
X7719682Y-12805150D02*
X7738730Y-12814674D01*
X7738730Y-12814674D02*
X7748253Y-12824198D01*
X7748253Y-12824198D02*
X7757777Y-12843246D01*
X7757777Y-12843246D02*
X7757777Y-12900388D01*
X7757777Y-12900388D02*
X7748253Y-12919436D01*
X7748253Y-12919436D02*
X7738730Y-12928960D01*
X7738730Y-12928960D02*
X7719682Y-12938484D01*
X7719682Y-12938484D02*
X7691110Y-12938484D01*
X7872063Y-12938484D02*
X7853015Y-12928960D01*
X7853015Y-12928960D02*
X7843491Y-12909912D01*
X7843491Y-12909912D02*
X7843491Y-12738484D01*
X8024444Y-12928960D02*
X8005396Y-12938484D01*
X8005396Y-12938484D02*
X7967301Y-12938484D01*
X7967301Y-12938484D02*
X7948253Y-12928960D01*
X7948253Y-12928960D02*
X7938730Y-12909912D01*
X7938730Y-12909912D02*
X7938730Y-12833722D01*
X7938730Y-12833722D02*
X7948253Y-12814674D01*
X7948253Y-12814674D02*
X7967301Y-12805150D01*
X7967301Y-12805150D02*
X8005396Y-12805150D01*
X8005396Y-12805150D02*
X8024444Y-12814674D01*
X8024444Y-12814674D02*
X8033968Y-12833722D01*
X8033968Y-12833722D02*
X8033968Y-12852769D01*
X8033968Y-12852769D02*
X7938730Y-12871817D01*
X8110158Y-12928960D02*
X8129206Y-12938484D01*
X8129206Y-12938484D02*
X8167301Y-12938484D01*
X8167301Y-12938484D02*
X8186349Y-12928960D01*
X8186349Y-12928960D02*
X8195872Y-12909912D01*
X8195872Y-12909912D02*
X8195872Y-12900388D01*
X8195872Y-12900388D02*
X8186349Y-12881341D01*
X8186349Y-12881341D02*
X8167301Y-12871817D01*
X8167301Y-12871817D02*
X8138730Y-12871817D01*
X8138730Y-12871817D02*
X8119682Y-12862293D01*
X8119682Y-12862293D02*
X8110158Y-12843246D01*
X8110158Y-12843246D02*
X8110158Y-12833722D01*
X8110158Y-12833722D02*
X8119682Y-12814674D01*
X8119682Y-12814674D02*
X8138730Y-12805150D01*
X8138730Y-12805150D02*
X8167301Y-12805150D01*
X8167301Y-12805150D02*
X8186349Y-12814674D01*
X8262539Y-13014674D02*
X8272063Y-13005150D01*
X8272063Y-13005150D02*
X8291111Y-12976579D01*
X8291111Y-12976579D02*
X8300634Y-12957531D01*
X8300634Y-12957531D02*
X8310158Y-12928960D01*
X8310158Y-12928960D02*
X8319682Y-12881341D01*
X8319682Y-12881341D02*
X8319682Y-12843246D01*
X8319682Y-12843246D02*
X8310158Y-12795627D01*
X8310158Y-12795627D02*
X8300634Y-12767055D01*
X8300634Y-12767055D02*
X8291111Y-12748008D01*
X8291111Y-12748008D02*
X8272063Y-12719436D01*
X8272063Y-12719436D02*
X8262539Y-12709912D01*
D10*
X3247000Y-13061000D02*
X3247000Y-13161000D01*
X3197000Y-13111000D02*
X3297000Y-13111000D01*
D11*
X3662539Y-13202484D02*
X3548253Y-13202484D01*
X3605396Y-13202484D02*
X3605396Y-13002484D01*
X3605396Y-13002484D02*
X3586348Y-13031055D01*
X3586348Y-13031055D02*
X3567301Y-13050103D01*
X3567301Y-13050103D02*
X3548253Y-13059627D01*
X3748253Y-13183436D02*
X3757777Y-13192960D01*
X3757777Y-13192960D02*
X3748253Y-13202484D01*
X3748253Y-13202484D02*
X3738729Y-13192960D01*
X3738729Y-13192960D02*
X3748253Y-13183436D01*
X3748253Y-13183436D02*
X3748253Y-13202484D01*
X3881586Y-13002484D02*
X3900634Y-13002484D01*
X3900634Y-13002484D02*
X3919682Y-13012008D01*
X3919682Y-13012008D02*
X3929205Y-13021531D01*
X3929205Y-13021531D02*
X3938729Y-13040579D01*
X3938729Y-13040579D02*
X3948253Y-13078674D01*
X3948253Y-13078674D02*
X3948253Y-13126293D01*
X3948253Y-13126293D02*
X3938729Y-13164388D01*
X3938729Y-13164388D02*
X3929205Y-13183436D01*
X3929205Y-13183436D02*
X3919682Y-13192960D01*
X3919682Y-13192960D02*
X3900634Y-13202484D01*
X3900634Y-13202484D02*
X3881586Y-13202484D01*
X3881586Y-13202484D02*
X3862539Y-13192960D01*
X3862539Y-13192960D02*
X3853015Y-13183436D01*
X3853015Y-13183436D02*
X3843491Y-13164388D01*
X3843491Y-13164388D02*
X3833967Y-13126293D01*
X3833967Y-13126293D02*
X3833967Y-13078674D01*
X3833967Y-13078674D02*
X3843491Y-13040579D01*
X3843491Y-13040579D02*
X3853015Y-13021531D01*
X3853015Y-13021531D02*
X3862539Y-13012008D01*
X3862539Y-13012008D02*
X3881586Y-13002484D01*
X4072062Y-13002484D02*
X4091110Y-13002484D01*
X4091110Y-13002484D02*
X4110158Y-13012008D01*
X4110158Y-13012008D02*
X4119682Y-13021531D01*
X4119682Y-13021531D02*
X4129205Y-13040579D01*
X4129205Y-13040579D02*
X4138729Y-13078674D01*
X4138729Y-13078674D02*
X4138729Y-13126293D01*
X4138729Y-13126293D02*
X4129205Y-13164388D01*
X4129205Y-13164388D02*
X4119682Y-13183436D01*
X4119682Y-13183436D02*
X4110158Y-13192960D01*
X4110158Y-13192960D02*
X4091110Y-13202484D01*
X4091110Y-13202484D02*
X4072062Y-13202484D01*
X4072062Y-13202484D02*
X4053015Y-13192960D01*
X4053015Y-13192960D02*
X4043491Y-13183436D01*
X4043491Y-13183436D02*
X4033967Y-13164388D01*
X4033967Y-13164388D02*
X4024443Y-13126293D01*
X4024443Y-13126293D02*
X4024443Y-13078674D01*
X4024443Y-13078674D02*
X4033967Y-13040579D01*
X4033967Y-13040579D02*
X4043491Y-13021531D01*
X4043491Y-13021531D02*
X4053015Y-13012008D01*
X4053015Y-13012008D02*
X4072062Y-13002484D01*
X4262539Y-13002484D02*
X4281586Y-13002484D01*
X4281586Y-13002484D02*
X4300634Y-13012008D01*
X4300634Y-13012008D02*
X4310158Y-13021531D01*
X4310158Y-13021531D02*
X4319682Y-13040579D01*
X4319682Y-13040579D02*
X4329205Y-13078674D01*
X4329205Y-13078674D02*
X4329205Y-13126293D01*
X4329205Y-13126293D02*
X4319682Y-13164388D01*
X4319682Y-13164388D02*
X4310158Y-13183436D01*
X4310158Y-13183436D02*
X4300634Y-13192960D01*
X4300634Y-13192960D02*
X4281586Y-13202484D01*
X4281586Y-13202484D02*
X4262539Y-13202484D01*
X4262539Y-13202484D02*
X4243491Y-13192960D01*
X4243491Y-13192960D02*
X4233967Y-13183436D01*
X4233967Y-13183436D02*
X4224444Y-13164388D01*
X4224444Y-13164388D02*
X4214920Y-13126293D01*
X4214920Y-13126293D02*
X4214920Y-13078674D01*
X4214920Y-13078674D02*
X4224444Y-13040579D01*
X4224444Y-13040579D02*
X4233967Y-13021531D01*
X4233967Y-13021531D02*
X4243491Y-13012008D01*
X4243491Y-13012008D02*
X4262539Y-13002484D01*
X4414920Y-13202484D02*
X4414920Y-13069150D01*
X4414920Y-13088198D02*
X4424444Y-13078674D01*
X4424444Y-13078674D02*
X4443491Y-13069150D01*
X4443491Y-13069150D02*
X4472063Y-13069150D01*
X4472063Y-13069150D02*
X4491110Y-13078674D01*
X4491110Y-13078674D02*
X4500634Y-13097722D01*
X4500634Y-13097722D02*
X4500634Y-13202484D01*
X4500634Y-13097722D02*
X4510158Y-13078674D01*
X4510158Y-13078674D02*
X4529205Y-13069150D01*
X4529205Y-13069150D02*
X4557777Y-13069150D01*
X4557777Y-13069150D02*
X4576825Y-13078674D01*
X4576825Y-13078674D02*
X4586348Y-13097722D01*
X4586348Y-13097722D02*
X4586348Y-13202484D01*
X4681586Y-13202484D02*
X4681586Y-13069150D01*
X4681586Y-13088198D02*
X4691110Y-13078674D01*
X4691110Y-13078674D02*
X4710158Y-13069150D01*
X4710158Y-13069150D02*
X4738729Y-13069150D01*
X4738729Y-13069150D02*
X4757777Y-13078674D01*
X4757777Y-13078674D02*
X4767301Y-13097722D01*
X4767301Y-13097722D02*
X4767301Y-13202484D01*
X4767301Y-13097722D02*
X4776825Y-13078674D01*
X4776825Y-13078674D02*
X4795872Y-13069150D01*
X4795872Y-13069150D02*
X4824444Y-13069150D01*
X4824444Y-13069150D02*
X4843491Y-13078674D01*
X4843491Y-13078674D02*
X4853015Y-13097722D01*
X4853015Y-13097722D02*
X4853015Y-13202484D01*
X5243491Y-12992960D02*
X5072063Y-13250103D01*
X5500634Y-13002484D02*
X5519682Y-13002484D01*
X5519682Y-13002484D02*
X5538729Y-13012008D01*
X5538729Y-13012008D02*
X5548253Y-13021531D01*
X5548253Y-13021531D02*
X5557777Y-13040579D01*
X5557777Y-13040579D02*
X5567301Y-13078674D01*
X5567301Y-13078674D02*
X5567301Y-13126293D01*
X5567301Y-13126293D02*
X5557777Y-13164388D01*
X5557777Y-13164388D02*
X5548253Y-13183436D01*
X5548253Y-13183436D02*
X5538729Y-13192960D01*
X5538729Y-13192960D02*
X5519682Y-13202484D01*
X5519682Y-13202484D02*
X5500634Y-13202484D01*
X5500634Y-13202484D02*
X5481587Y-13192960D01*
X5481587Y-13192960D02*
X5472063Y-13183436D01*
X5472063Y-13183436D02*
X5462539Y-13164388D01*
X5462539Y-13164388D02*
X5453015Y-13126293D01*
X5453015Y-13126293D02*
X5453015Y-13078674D01*
X5453015Y-13078674D02*
X5462539Y-13040579D01*
X5462539Y-13040579D02*
X5472063Y-13021531D01*
X5472063Y-13021531D02*
X5481587Y-13012008D01*
X5481587Y-13012008D02*
X5500634Y-13002484D01*
X5653015Y-13183436D02*
X5662539Y-13192960D01*
X5662539Y-13192960D02*
X5653015Y-13202484D01*
X5653015Y-13202484D02*
X5643491Y-13192960D01*
X5643491Y-13192960D02*
X5653015Y-13183436D01*
X5653015Y-13183436D02*
X5653015Y-13202484D01*
X5786348Y-13002484D02*
X5805396Y-13002484D01*
X5805396Y-13002484D02*
X5824444Y-13012008D01*
X5824444Y-13012008D02*
X5833967Y-13021531D01*
X5833967Y-13021531D02*
X5843491Y-13040579D01*
X5843491Y-13040579D02*
X5853015Y-13078674D01*
X5853015Y-13078674D02*
X5853015Y-13126293D01*
X5853015Y-13126293D02*
X5843491Y-13164388D01*
X5843491Y-13164388D02*
X5833967Y-13183436D01*
X5833967Y-13183436D02*
X5824444Y-13192960D01*
X5824444Y-13192960D02*
X5805396Y-13202484D01*
X5805396Y-13202484D02*
X5786348Y-13202484D01*
X5786348Y-13202484D02*
X5767301Y-13192960D01*
X5767301Y-13192960D02*
X5757777Y-13183436D01*
X5757777Y-13183436D02*
X5748253Y-13164388D01*
X5748253Y-13164388D02*
X5738729Y-13126293D01*
X5738729Y-13126293D02*
X5738729Y-13078674D01*
X5738729Y-13078674D02*
X5748253Y-13040579D01*
X5748253Y-13040579D02*
X5757777Y-13021531D01*
X5757777Y-13021531D02*
X5767301Y-13012008D01*
X5767301Y-13012008D02*
X5786348Y-13002484D01*
X5919682Y-13002484D02*
X6043491Y-13002484D01*
X6043491Y-13002484D02*
X5976825Y-13078674D01*
X5976825Y-13078674D02*
X6005396Y-13078674D01*
X6005396Y-13078674D02*
X6024444Y-13088198D01*
X6024444Y-13088198D02*
X6033967Y-13097722D01*
X6033967Y-13097722D02*
X6043491Y-13116769D01*
X6043491Y-13116769D02*
X6043491Y-13164388D01*
X6043491Y-13164388D02*
X6033967Y-13183436D01*
X6033967Y-13183436D02*
X6024444Y-13192960D01*
X6024444Y-13192960D02*
X6005396Y-13202484D01*
X6005396Y-13202484D02*
X5948253Y-13202484D01*
X5948253Y-13202484D02*
X5929206Y-13192960D01*
X5929206Y-13192960D02*
X5919682Y-13183436D01*
X6138729Y-13202484D02*
X6176825Y-13202484D01*
X6176825Y-13202484D02*
X6195872Y-13192960D01*
X6195872Y-13192960D02*
X6205396Y-13183436D01*
X6205396Y-13183436D02*
X6224444Y-13154865D01*
X6224444Y-13154865D02*
X6233967Y-13116769D01*
X6233967Y-13116769D02*
X6233967Y-13040579D01*
X6233967Y-13040579D02*
X6224444Y-13021531D01*
X6224444Y-13021531D02*
X6214920Y-13012008D01*
X6214920Y-13012008D02*
X6195872Y-13002484D01*
X6195872Y-13002484D02*
X6157777Y-13002484D01*
X6157777Y-13002484D02*
X6138729Y-13012008D01*
X6138729Y-13012008D02*
X6129206Y-13021531D01*
X6129206Y-13021531D02*
X6119682Y-13040579D01*
X6119682Y-13040579D02*
X6119682Y-13088198D01*
X6119682Y-13088198D02*
X6129206Y-13107246D01*
X6129206Y-13107246D02*
X6138729Y-13116769D01*
X6138729Y-13116769D02*
X6157777Y-13126293D01*
X6157777Y-13126293D02*
X6195872Y-13126293D01*
X6195872Y-13126293D02*
X6214920Y-13116769D01*
X6214920Y-13116769D02*
X6224444Y-13107246D01*
X6224444Y-13107246D02*
X6233967Y-13088198D01*
X6405396Y-13069150D02*
X6405396Y-13202484D01*
X6357777Y-12992960D02*
X6310158Y-13135817D01*
X6310158Y-13135817D02*
X6433967Y-13135817D01*
X6500634Y-13002484D02*
X6500634Y-13040579D01*
X6576825Y-13002484D02*
X6576825Y-13040579D01*
X6872063Y-13278674D02*
X6862539Y-13269150D01*
X6862539Y-13269150D02*
X6843491Y-13240579D01*
X6843491Y-13240579D02*
X6833968Y-13221531D01*
X6833968Y-13221531D02*
X6824444Y-13192960D01*
X6824444Y-13192960D02*
X6814920Y-13145341D01*
X6814920Y-13145341D02*
X6814920Y-13107246D01*
X6814920Y-13107246D02*
X6824444Y-13059627D01*
X6824444Y-13059627D02*
X6833968Y-13031055D01*
X6833968Y-13031055D02*
X6843491Y-13012008D01*
X6843491Y-13012008D02*
X6862539Y-12983436D01*
X6862539Y-12983436D02*
X6872063Y-12973912D01*
X6929206Y-13002484D02*
X7053015Y-13002484D01*
X7053015Y-13002484D02*
X6986348Y-13078674D01*
X6986348Y-13078674D02*
X7014920Y-13078674D01*
X7014920Y-13078674D02*
X7033968Y-13088198D01*
X7033968Y-13088198D02*
X7043491Y-13097722D01*
X7043491Y-13097722D02*
X7053015Y-13116769D01*
X7053015Y-13116769D02*
X7053015Y-13164388D01*
X7053015Y-13164388D02*
X7043491Y-13183436D01*
X7043491Y-13183436D02*
X7033968Y-13192960D01*
X7033968Y-13192960D02*
X7014920Y-13202484D01*
X7014920Y-13202484D02*
X6957777Y-13202484D01*
X6957777Y-13202484D02*
X6938729Y-13192960D01*
X6938729Y-13192960D02*
X6929206Y-13183436D01*
X7224444Y-13002484D02*
X7186348Y-13002484D01*
X7186348Y-13002484D02*
X7167301Y-13012008D01*
X7167301Y-13012008D02*
X7157777Y-13021531D01*
X7157777Y-13021531D02*
X7138729Y-13050103D01*
X7138729Y-13050103D02*
X7129206Y-13088198D01*
X7129206Y-13088198D02*
X7129206Y-13164388D01*
X7129206Y-13164388D02*
X7138729Y-13183436D01*
X7138729Y-13183436D02*
X7148253Y-13192960D01*
X7148253Y-13192960D02*
X7167301Y-13202484D01*
X7167301Y-13202484D02*
X7205396Y-13202484D01*
X7205396Y-13202484D02*
X7224444Y-13192960D01*
X7224444Y-13192960D02*
X7233968Y-13183436D01*
X7233968Y-13183436D02*
X7243491Y-13164388D01*
X7243491Y-13164388D02*
X7243491Y-13116769D01*
X7243491Y-13116769D02*
X7233968Y-13097722D01*
X7233968Y-13097722D02*
X7224444Y-13088198D01*
X7224444Y-13088198D02*
X7205396Y-13078674D01*
X7205396Y-13078674D02*
X7167301Y-13078674D01*
X7167301Y-13078674D02*
X7148253Y-13088198D01*
X7148253Y-13088198D02*
X7138729Y-13097722D01*
X7138729Y-13097722D02*
X7129206Y-13116769D01*
X7481587Y-13202484D02*
X7481587Y-13002484D01*
X7567301Y-13202484D02*
X7567301Y-13097722D01*
X7567301Y-13097722D02*
X7557777Y-13078674D01*
X7557777Y-13078674D02*
X7538730Y-13069150D01*
X7538730Y-13069150D02*
X7510158Y-13069150D01*
X7510158Y-13069150D02*
X7491110Y-13078674D01*
X7491110Y-13078674D02*
X7481587Y-13088198D01*
X7691110Y-13202484D02*
X7672063Y-13192960D01*
X7672063Y-13192960D02*
X7662539Y-13183436D01*
X7662539Y-13183436D02*
X7653015Y-13164388D01*
X7653015Y-13164388D02*
X7653015Y-13107246D01*
X7653015Y-13107246D02*
X7662539Y-13088198D01*
X7662539Y-13088198D02*
X7672063Y-13078674D01*
X7672063Y-13078674D02*
X7691110Y-13069150D01*
X7691110Y-13069150D02*
X7719682Y-13069150D01*
X7719682Y-13069150D02*
X7738730Y-13078674D01*
X7738730Y-13078674D02*
X7748253Y-13088198D01*
X7748253Y-13088198D02*
X7757777Y-13107246D01*
X7757777Y-13107246D02*
X7757777Y-13164388D01*
X7757777Y-13164388D02*
X7748253Y-13183436D01*
X7748253Y-13183436D02*
X7738730Y-13192960D01*
X7738730Y-13192960D02*
X7719682Y-13202484D01*
X7719682Y-13202484D02*
X7691110Y-13202484D01*
X7872063Y-13202484D02*
X7853015Y-13192960D01*
X7853015Y-13192960D02*
X7843491Y-13173912D01*
X7843491Y-13173912D02*
X7843491Y-13002484D01*
X8024444Y-13192960D02*
X8005396Y-13202484D01*
X8005396Y-13202484D02*
X7967301Y-13202484D01*
X7967301Y-13202484D02*
X7948253Y-13192960D01*
X7948253Y-13192960D02*
X7938730Y-13173912D01*
X7938730Y-13173912D02*
X7938730Y-13097722D01*
X7938730Y-13097722D02*
X7948253Y-13078674D01*
X7948253Y-13078674D02*
X7967301Y-13069150D01*
X7967301Y-13069150D02*
X8005396Y-13069150D01*
X8005396Y-13069150D02*
X8024444Y-13078674D01*
X8024444Y-13078674D02*
X8033968Y-13097722D01*
X8033968Y-13097722D02*
X8033968Y-13116769D01*
X8033968Y-13116769D02*
X7938730Y-13135817D01*
X8110158Y-13192960D02*
X8129206Y-13202484D01*
X8129206Y-13202484D02*
X8167301Y-13202484D01*
X8167301Y-13202484D02*
X8186349Y-13192960D01*
X8186349Y-13192960D02*
X8195872Y-13173912D01*
X8195872Y-13173912D02*
X8195872Y-13164388D01*
X8195872Y-13164388D02*
X8186349Y-13145341D01*
X8186349Y-13145341D02*
X8167301Y-13135817D01*
X8167301Y-13135817D02*
X8138730Y-13135817D01*
X8138730Y-13135817D02*
X8119682Y-13126293D01*
X8119682Y-13126293D02*
X8110158Y-13107246D01*
X8110158Y-13107246D02*
X8110158Y-13097722D01*
X8110158Y-13097722D02*
X8119682Y-13078674D01*
X8119682Y-13078674D02*
X8138730Y-13069150D01*
X8138730Y-13069150D02*
X8167301Y-13069150D01*
X8167301Y-13069150D02*
X8186349Y-13078674D01*
X8262539Y-13278674D02*
X8272063Y-13269150D01*
X8272063Y-13269150D02*
X8291111Y-13240579D01*
X8291111Y-13240579D02*
X8300634Y-13221531D01*
X8300634Y-13221531D02*
X8310158Y-13192960D01*
X8310158Y-13192960D02*
X8319682Y-13145341D01*
X8319682Y-13145341D02*
X8319682Y-13107246D01*
X8319682Y-13107246D02*
X8310158Y-13059627D01*
X8310158Y-13059627D02*
X8300634Y-13031055D01*
X8300634Y-13031055D02*
X8291111Y-13012008D01*
X8291111Y-13012008D02*
X8272063Y-12983436D01*
X8272063Y-12983436D02*
X8262539Y-12973912D01*
D14*
X3279427Y-13417427D02*
X3279427Y-13332573D01*
X3194573Y-13332573D01*
X3194573Y-13417427D01*
X3279427Y-13417427D01*
D11*
X3662539Y-13466484D02*
X3548253Y-13466484D01*
X3605396Y-13466484D02*
X3605396Y-13266484D01*
X3605396Y-13266484D02*
X3586348Y-13295055D01*
X3586348Y-13295055D02*
X3567301Y-13314103D01*
X3567301Y-13314103D02*
X3548253Y-13323627D01*
X3748253Y-13447436D02*
X3757777Y-13456960D01*
X3757777Y-13456960D02*
X3748253Y-13466484D01*
X3748253Y-13466484D02*
X3738729Y-13456960D01*
X3738729Y-13456960D02*
X3748253Y-13447436D01*
X3748253Y-13447436D02*
X3748253Y-13466484D01*
X3833967Y-13285531D02*
X3843491Y-13276008D01*
X3843491Y-13276008D02*
X3862539Y-13266484D01*
X3862539Y-13266484D02*
X3910158Y-13266484D01*
X3910158Y-13266484D02*
X3929205Y-13276008D01*
X3929205Y-13276008D02*
X3938729Y-13285531D01*
X3938729Y-13285531D02*
X3948253Y-13304579D01*
X3948253Y-13304579D02*
X3948253Y-13323627D01*
X3948253Y-13323627D02*
X3938729Y-13352198D01*
X3938729Y-13352198D02*
X3824443Y-13466484D01*
X3824443Y-13466484D02*
X3948253Y-13466484D01*
X4072062Y-13266484D02*
X4091110Y-13266484D01*
X4091110Y-13266484D02*
X4110158Y-13276008D01*
X4110158Y-13276008D02*
X4119682Y-13285531D01*
X4119682Y-13285531D02*
X4129205Y-13304579D01*
X4129205Y-13304579D02*
X4138729Y-13342674D01*
X4138729Y-13342674D02*
X4138729Y-13390293D01*
X4138729Y-13390293D02*
X4129205Y-13428388D01*
X4129205Y-13428388D02*
X4119682Y-13447436D01*
X4119682Y-13447436D02*
X4110158Y-13456960D01*
X4110158Y-13456960D02*
X4091110Y-13466484D01*
X4091110Y-13466484D02*
X4072062Y-13466484D01*
X4072062Y-13466484D02*
X4053015Y-13456960D01*
X4053015Y-13456960D02*
X4043491Y-13447436D01*
X4043491Y-13447436D02*
X4033967Y-13428388D01*
X4033967Y-13428388D02*
X4024443Y-13390293D01*
X4024443Y-13390293D02*
X4024443Y-13342674D01*
X4024443Y-13342674D02*
X4033967Y-13304579D01*
X4033967Y-13304579D02*
X4043491Y-13285531D01*
X4043491Y-13285531D02*
X4053015Y-13276008D01*
X4053015Y-13276008D02*
X4072062Y-13266484D01*
X4262539Y-13266484D02*
X4281586Y-13266484D01*
X4281586Y-13266484D02*
X4300634Y-13276008D01*
X4300634Y-13276008D02*
X4310158Y-13285531D01*
X4310158Y-13285531D02*
X4319682Y-13304579D01*
X4319682Y-13304579D02*
X4329205Y-13342674D01*
X4329205Y-13342674D02*
X4329205Y-13390293D01*
X4329205Y-13390293D02*
X4319682Y-13428388D01*
X4319682Y-13428388D02*
X4310158Y-13447436D01*
X4310158Y-13447436D02*
X4300634Y-13456960D01*
X4300634Y-13456960D02*
X4281586Y-13466484D01*
X4281586Y-13466484D02*
X4262539Y-13466484D01*
X4262539Y-13466484D02*
X4243491Y-13456960D01*
X4243491Y-13456960D02*
X4233967Y-13447436D01*
X4233967Y-13447436D02*
X4224444Y-13428388D01*
X4224444Y-13428388D02*
X4214920Y-13390293D01*
X4214920Y-13390293D02*
X4214920Y-13342674D01*
X4214920Y-13342674D02*
X4224444Y-13304579D01*
X4224444Y-13304579D02*
X4233967Y-13285531D01*
X4233967Y-13285531D02*
X4243491Y-13276008D01*
X4243491Y-13276008D02*
X4262539Y-13266484D01*
X4414920Y-13466484D02*
X4414920Y-13333150D01*
X4414920Y-13352198D02*
X4424444Y-13342674D01*
X4424444Y-13342674D02*
X4443491Y-13333150D01*
X4443491Y-13333150D02*
X4472063Y-13333150D01*
X4472063Y-13333150D02*
X4491110Y-13342674D01*
X4491110Y-13342674D02*
X4500634Y-13361722D01*
X4500634Y-13361722D02*
X4500634Y-13466484D01*
X4500634Y-13361722D02*
X4510158Y-13342674D01*
X4510158Y-13342674D02*
X4529205Y-13333150D01*
X4529205Y-13333150D02*
X4557777Y-13333150D01*
X4557777Y-13333150D02*
X4576825Y-13342674D01*
X4576825Y-13342674D02*
X4586348Y-13361722D01*
X4586348Y-13361722D02*
X4586348Y-13466484D01*
X4681586Y-13466484D02*
X4681586Y-13333150D01*
X4681586Y-13352198D02*
X4691110Y-13342674D01*
X4691110Y-13342674D02*
X4710158Y-13333150D01*
X4710158Y-13333150D02*
X4738729Y-13333150D01*
X4738729Y-13333150D02*
X4757777Y-13342674D01*
X4757777Y-13342674D02*
X4767301Y-13361722D01*
X4767301Y-13361722D02*
X4767301Y-13466484D01*
X4767301Y-13361722D02*
X4776825Y-13342674D01*
X4776825Y-13342674D02*
X4795872Y-13333150D01*
X4795872Y-13333150D02*
X4824444Y-13333150D01*
X4824444Y-13333150D02*
X4843491Y-13342674D01*
X4843491Y-13342674D02*
X4853015Y-13361722D01*
X4853015Y-13361722D02*
X4853015Y-13466484D01*
X5243491Y-13256960D02*
X5072063Y-13514103D01*
X5500634Y-13266484D02*
X5519682Y-13266484D01*
X5519682Y-13266484D02*
X5538729Y-13276008D01*
X5538729Y-13276008D02*
X5548253Y-13285531D01*
X5548253Y-13285531D02*
X5557777Y-13304579D01*
X5557777Y-13304579D02*
X5567301Y-13342674D01*
X5567301Y-13342674D02*
X5567301Y-13390293D01*
X5567301Y-13390293D02*
X5557777Y-13428388D01*
X5557777Y-13428388D02*
X5548253Y-13447436D01*
X5548253Y-13447436D02*
X5538729Y-13456960D01*
X5538729Y-13456960D02*
X5519682Y-13466484D01*
X5519682Y-13466484D02*
X5500634Y-13466484D01*
X5500634Y-13466484D02*
X5481587Y-13456960D01*
X5481587Y-13456960D02*
X5472063Y-13447436D01*
X5472063Y-13447436D02*
X5462539Y-13428388D01*
X5462539Y-13428388D02*
X5453015Y-13390293D01*
X5453015Y-13390293D02*
X5453015Y-13342674D01*
X5453015Y-13342674D02*
X5462539Y-13304579D01*
X5462539Y-13304579D02*
X5472063Y-13285531D01*
X5472063Y-13285531D02*
X5481587Y-13276008D01*
X5481587Y-13276008D02*
X5500634Y-13266484D01*
X5653015Y-13447436D02*
X5662539Y-13456960D01*
X5662539Y-13456960D02*
X5653015Y-13466484D01*
X5653015Y-13466484D02*
X5643491Y-13456960D01*
X5643491Y-13456960D02*
X5653015Y-13447436D01*
X5653015Y-13447436D02*
X5653015Y-13466484D01*
X5786348Y-13266484D02*
X5805396Y-13266484D01*
X5805396Y-13266484D02*
X5824444Y-13276008D01*
X5824444Y-13276008D02*
X5833967Y-13285531D01*
X5833967Y-13285531D02*
X5843491Y-13304579D01*
X5843491Y-13304579D02*
X5853015Y-13342674D01*
X5853015Y-13342674D02*
X5853015Y-13390293D01*
X5853015Y-13390293D02*
X5843491Y-13428388D01*
X5843491Y-13428388D02*
X5833967Y-13447436D01*
X5833967Y-13447436D02*
X5824444Y-13456960D01*
X5824444Y-13456960D02*
X5805396Y-13466484D01*
X5805396Y-13466484D02*
X5786348Y-13466484D01*
X5786348Y-13466484D02*
X5767301Y-13456960D01*
X5767301Y-13456960D02*
X5757777Y-13447436D01*
X5757777Y-13447436D02*
X5748253Y-13428388D01*
X5748253Y-13428388D02*
X5738729Y-13390293D01*
X5738729Y-13390293D02*
X5738729Y-13342674D01*
X5738729Y-13342674D02*
X5748253Y-13304579D01*
X5748253Y-13304579D02*
X5757777Y-13285531D01*
X5757777Y-13285531D02*
X5767301Y-13276008D01*
X5767301Y-13276008D02*
X5786348Y-13266484D01*
X6024444Y-13333150D02*
X6024444Y-13466484D01*
X5976825Y-13256960D02*
X5929206Y-13399817D01*
X5929206Y-13399817D02*
X6053015Y-13399817D01*
X6110158Y-13266484D02*
X6243491Y-13266484D01*
X6243491Y-13266484D02*
X6157777Y-13466484D01*
X6310158Y-13285531D02*
X6319682Y-13276008D01*
X6319682Y-13276008D02*
X6338729Y-13266484D01*
X6338729Y-13266484D02*
X6386348Y-13266484D01*
X6386348Y-13266484D02*
X6405396Y-13276008D01*
X6405396Y-13276008D02*
X6414920Y-13285531D01*
X6414920Y-13285531D02*
X6424444Y-13304579D01*
X6424444Y-13304579D02*
X6424444Y-13323627D01*
X6424444Y-13323627D02*
X6414920Y-13352198D01*
X6414920Y-13352198D02*
X6300634Y-13466484D01*
X6300634Y-13466484D02*
X6424444Y-13466484D01*
X6500634Y-13266484D02*
X6500634Y-13304579D01*
X6576825Y-13266484D02*
X6576825Y-13304579D01*
X6872063Y-13542674D02*
X6862539Y-13533150D01*
X6862539Y-13533150D02*
X6843491Y-13504579D01*
X6843491Y-13504579D02*
X6833968Y-13485531D01*
X6833968Y-13485531D02*
X6824444Y-13456960D01*
X6824444Y-13456960D02*
X6814920Y-13409341D01*
X6814920Y-13409341D02*
X6814920Y-13371246D01*
X6814920Y-13371246D02*
X6824444Y-13323627D01*
X6824444Y-13323627D02*
X6833968Y-13295055D01*
X6833968Y-13295055D02*
X6843491Y-13276008D01*
X6843491Y-13276008D02*
X6862539Y-13247436D01*
X6862539Y-13247436D02*
X6872063Y-13237912D01*
X6938729Y-13285531D02*
X6948253Y-13276008D01*
X6948253Y-13276008D02*
X6967301Y-13266484D01*
X6967301Y-13266484D02*
X7014920Y-13266484D01*
X7014920Y-13266484D02*
X7033968Y-13276008D01*
X7033968Y-13276008D02*
X7043491Y-13285531D01*
X7043491Y-13285531D02*
X7053015Y-13304579D01*
X7053015Y-13304579D02*
X7053015Y-13323627D01*
X7053015Y-13323627D02*
X7043491Y-13352198D01*
X7043491Y-13352198D02*
X6929206Y-13466484D01*
X6929206Y-13466484D02*
X7053015Y-13466484D01*
X7291110Y-13466484D02*
X7291110Y-13266484D01*
X7376825Y-13466484D02*
X7376825Y-13361722D01*
X7376825Y-13361722D02*
X7367301Y-13342674D01*
X7367301Y-13342674D02*
X7348253Y-13333150D01*
X7348253Y-13333150D02*
X7319682Y-13333150D01*
X7319682Y-13333150D02*
X7300634Y-13342674D01*
X7300634Y-13342674D02*
X7291110Y-13352198D01*
X7500634Y-13466484D02*
X7481587Y-13456960D01*
X7481587Y-13456960D02*
X7472063Y-13447436D01*
X7472063Y-13447436D02*
X7462539Y-13428388D01*
X7462539Y-13428388D02*
X7462539Y-13371246D01*
X7462539Y-13371246D02*
X7472063Y-13352198D01*
X7472063Y-13352198D02*
X7481587Y-13342674D01*
X7481587Y-13342674D02*
X7500634Y-13333150D01*
X7500634Y-13333150D02*
X7529206Y-13333150D01*
X7529206Y-13333150D02*
X7548253Y-13342674D01*
X7548253Y-13342674D02*
X7557777Y-13352198D01*
X7557777Y-13352198D02*
X7567301Y-13371246D01*
X7567301Y-13371246D02*
X7567301Y-13428388D01*
X7567301Y-13428388D02*
X7557777Y-13447436D01*
X7557777Y-13447436D02*
X7548253Y-13456960D01*
X7548253Y-13456960D02*
X7529206Y-13466484D01*
X7529206Y-13466484D02*
X7500634Y-13466484D01*
X7681587Y-13466484D02*
X7662539Y-13456960D01*
X7662539Y-13456960D02*
X7653015Y-13437912D01*
X7653015Y-13437912D02*
X7653015Y-13266484D01*
X7833968Y-13456960D02*
X7814920Y-13466484D01*
X7814920Y-13466484D02*
X7776825Y-13466484D01*
X7776825Y-13466484D02*
X7757777Y-13456960D01*
X7757777Y-13456960D02*
X7748253Y-13437912D01*
X7748253Y-13437912D02*
X7748253Y-13361722D01*
X7748253Y-13361722D02*
X7757777Y-13342674D01*
X7757777Y-13342674D02*
X7776825Y-13333150D01*
X7776825Y-13333150D02*
X7814920Y-13333150D01*
X7814920Y-13333150D02*
X7833968Y-13342674D01*
X7833968Y-13342674D02*
X7843491Y-13361722D01*
X7843491Y-13361722D02*
X7843491Y-13380769D01*
X7843491Y-13380769D02*
X7748253Y-13399817D01*
X7919682Y-13456960D02*
X7938730Y-13466484D01*
X7938730Y-13466484D02*
X7976825Y-13466484D01*
X7976825Y-13466484D02*
X7995872Y-13456960D01*
X7995872Y-13456960D02*
X8005396Y-13437912D01*
X8005396Y-13437912D02*
X8005396Y-13428388D01*
X8005396Y-13428388D02*
X7995872Y-13409341D01*
X7995872Y-13409341D02*
X7976825Y-13399817D01*
X7976825Y-13399817D02*
X7948253Y-13399817D01*
X7948253Y-13399817D02*
X7929206Y-13390293D01*
X7929206Y-13390293D02*
X7919682Y-13371246D01*
X7919682Y-13371246D02*
X7919682Y-13361722D01*
X7919682Y-13361722D02*
X7929206Y-13342674D01*
X7929206Y-13342674D02*
X7948253Y-13333150D01*
X7948253Y-13333150D02*
X7976825Y-13333150D01*
X7976825Y-13333150D02*
X7995872Y-13342674D01*
X8072063Y-13542674D02*
X8081587Y-13533150D01*
X8081587Y-13533150D02*
X8100634Y-13504579D01*
X8100634Y-13504579D02*
X8110158Y-13485531D01*
X8110158Y-13485531D02*
X8119682Y-13456960D01*
X8119682Y-13456960D02*
X8129206Y-13409341D01*
X8129206Y-13409341D02*
X8129206Y-13371246D01*
X8129206Y-13371246D02*
X8119682Y-13323627D01*
X8119682Y-13323627D02*
X8110158Y-13295055D01*
X8110158Y-13295055D02*
X8100634Y-13276008D01*
X8100634Y-13276008D02*
X8081587Y-13247436D01*
X8081587Y-13247436D02*
X8072063Y-13237912D01*
M02*
