%TF.GenerationSoftware,KiCad,Pcbnew,7.0.8*%
%TF.CreationDate,2026-03-06T14:37:57-05:00*%
%TF.ProjectId,1130MRAM,31313330-4d52-4414-9d2e-6b696361645f,rev?*%
%TF.SameCoordinates,Original*%
%TF.FileFunction,Drillmap*%
%TF.FilePolarity,Positive*%
%FSLAX45Y45*%
G04 Gerber Fmt 4.5, Leading zero omitted, Abs format (unit mm)*
G04 Created by KiCad (PCBNEW 7.0.8) date 2026-03-06 14:37:57*
%MOMM*%
%LPD*%
G01*
G04 APERTURE LIST*
%ADD10C,0.100000*%
%ADD11C,0.200000*%
%ADD12C,0.430000*%
G04 APERTURE END LIST*
D10*
X3302000Y-5588000D02*
X26162000Y-5588000D01*
X26162000Y-11938000D01*
X3302000Y-11938000D01*
X3302000Y-5588000D01*
D11*
D12*
X3660000Y-8557500D02*
X4090000Y-8987500D01*
X4090000Y-8557500D02*
X3660000Y-8987500D01*
X25375000Y-8557500D02*
X25805000Y-8987500D01*
X25805000Y-8557500D02*
X25375000Y-8987500D01*
D11*
X3557777Y-12254484D02*
X3557777Y-12054484D01*
X3557777Y-12054484D02*
X3605396Y-12054484D01*
X3605396Y-12054484D02*
X3633967Y-12064008D01*
X3633967Y-12064008D02*
X3653015Y-12083055D01*
X3653015Y-12083055D02*
X3662539Y-12102103D01*
X3662539Y-12102103D02*
X3672062Y-12140198D01*
X3672062Y-12140198D02*
X3672062Y-12168769D01*
X3672062Y-12168769D02*
X3662539Y-12206865D01*
X3662539Y-12206865D02*
X3653015Y-12225912D01*
X3653015Y-12225912D02*
X3633967Y-12244960D01*
X3633967Y-12244960D02*
X3605396Y-12254484D01*
X3605396Y-12254484D02*
X3557777Y-12254484D01*
X3757777Y-12254484D02*
X3757777Y-12121150D01*
X3757777Y-12159246D02*
X3767301Y-12140198D01*
X3767301Y-12140198D02*
X3776824Y-12130674D01*
X3776824Y-12130674D02*
X3795872Y-12121150D01*
X3795872Y-12121150D02*
X3814920Y-12121150D01*
X3881586Y-12254484D02*
X3881586Y-12121150D01*
X3881586Y-12054484D02*
X3872062Y-12064008D01*
X3872062Y-12064008D02*
X3881586Y-12073531D01*
X3881586Y-12073531D02*
X3891110Y-12064008D01*
X3891110Y-12064008D02*
X3881586Y-12054484D01*
X3881586Y-12054484D02*
X3881586Y-12073531D01*
X4005396Y-12254484D02*
X3986348Y-12244960D01*
X3986348Y-12244960D02*
X3976824Y-12225912D01*
X3976824Y-12225912D02*
X3976824Y-12054484D01*
X4110158Y-12254484D02*
X4091110Y-12244960D01*
X4091110Y-12244960D02*
X4081586Y-12225912D01*
X4081586Y-12225912D02*
X4081586Y-12054484D01*
X4338729Y-12254484D02*
X4338729Y-12054484D01*
X4338729Y-12054484D02*
X4405396Y-12197341D01*
X4405396Y-12197341D02*
X4472063Y-12054484D01*
X4472063Y-12054484D02*
X4472063Y-12254484D01*
X4653015Y-12254484D02*
X4653015Y-12149722D01*
X4653015Y-12149722D02*
X4643491Y-12130674D01*
X4643491Y-12130674D02*
X4624444Y-12121150D01*
X4624444Y-12121150D02*
X4586348Y-12121150D01*
X4586348Y-12121150D02*
X4567301Y-12130674D01*
X4653015Y-12244960D02*
X4633967Y-12254484D01*
X4633967Y-12254484D02*
X4586348Y-12254484D01*
X4586348Y-12254484D02*
X4567301Y-12244960D01*
X4567301Y-12244960D02*
X4557777Y-12225912D01*
X4557777Y-12225912D02*
X4557777Y-12206865D01*
X4557777Y-12206865D02*
X4567301Y-12187817D01*
X4567301Y-12187817D02*
X4586348Y-12178293D01*
X4586348Y-12178293D02*
X4633967Y-12178293D01*
X4633967Y-12178293D02*
X4653015Y-12168769D01*
X4748253Y-12121150D02*
X4748253Y-12321150D01*
X4748253Y-12130674D02*
X4767301Y-12121150D01*
X4767301Y-12121150D02*
X4805396Y-12121150D01*
X4805396Y-12121150D02*
X4824444Y-12130674D01*
X4824444Y-12130674D02*
X4833967Y-12140198D01*
X4833967Y-12140198D02*
X4843491Y-12159246D01*
X4843491Y-12159246D02*
X4843491Y-12216388D01*
X4843491Y-12216388D02*
X4833967Y-12235436D01*
X4833967Y-12235436D02*
X4824444Y-12244960D01*
X4824444Y-12244960D02*
X4805396Y-12254484D01*
X4805396Y-12254484D02*
X4767301Y-12254484D01*
X4767301Y-12254484D02*
X4748253Y-12244960D01*
X4929205Y-12235436D02*
X4938729Y-12244960D01*
X4938729Y-12244960D02*
X4929205Y-12254484D01*
X4929205Y-12254484D02*
X4919682Y-12244960D01*
X4919682Y-12244960D02*
X4929205Y-12235436D01*
X4929205Y-12235436D02*
X4929205Y-12254484D01*
X4929205Y-12130674D02*
X4938729Y-12140198D01*
X4938729Y-12140198D02*
X4929205Y-12149722D01*
X4929205Y-12149722D02*
X4919682Y-12140198D01*
X4919682Y-12140198D02*
X4929205Y-12130674D01*
X4929205Y-12130674D02*
X4929205Y-12149722D01*
X3097000Y-12483000D02*
X3297000Y-12683000D01*
X3297000Y-12483000D02*
X3097000Y-12683000D01*
X3643491Y-12541150D02*
X3643491Y-12674484D01*
X3595872Y-12464960D02*
X3548253Y-12607817D01*
X3548253Y-12607817D02*
X3672062Y-12607817D01*
X3748253Y-12655436D02*
X3757777Y-12664960D01*
X3757777Y-12664960D02*
X3748253Y-12674484D01*
X3748253Y-12674484D02*
X3738729Y-12664960D01*
X3738729Y-12664960D02*
X3748253Y-12655436D01*
X3748253Y-12655436D02*
X3748253Y-12674484D01*
X3824443Y-12474484D02*
X3948253Y-12474484D01*
X3948253Y-12474484D02*
X3881586Y-12550674D01*
X3881586Y-12550674D02*
X3910158Y-12550674D01*
X3910158Y-12550674D02*
X3929205Y-12560198D01*
X3929205Y-12560198D02*
X3938729Y-12569722D01*
X3938729Y-12569722D02*
X3948253Y-12588769D01*
X3948253Y-12588769D02*
X3948253Y-12636388D01*
X3948253Y-12636388D02*
X3938729Y-12655436D01*
X3938729Y-12655436D02*
X3929205Y-12664960D01*
X3929205Y-12664960D02*
X3910158Y-12674484D01*
X3910158Y-12674484D02*
X3853015Y-12674484D01*
X3853015Y-12674484D02*
X3833967Y-12664960D01*
X3833967Y-12664960D02*
X3824443Y-12655436D01*
X4072062Y-12474484D02*
X4091110Y-12474484D01*
X4091110Y-12474484D02*
X4110158Y-12484008D01*
X4110158Y-12484008D02*
X4119682Y-12493531D01*
X4119682Y-12493531D02*
X4129205Y-12512579D01*
X4129205Y-12512579D02*
X4138729Y-12550674D01*
X4138729Y-12550674D02*
X4138729Y-12598293D01*
X4138729Y-12598293D02*
X4129205Y-12636388D01*
X4129205Y-12636388D02*
X4119682Y-12655436D01*
X4119682Y-12655436D02*
X4110158Y-12664960D01*
X4110158Y-12664960D02*
X4091110Y-12674484D01*
X4091110Y-12674484D02*
X4072062Y-12674484D01*
X4072062Y-12674484D02*
X4053015Y-12664960D01*
X4053015Y-12664960D02*
X4043491Y-12655436D01*
X4043491Y-12655436D02*
X4033967Y-12636388D01*
X4033967Y-12636388D02*
X4024443Y-12598293D01*
X4024443Y-12598293D02*
X4024443Y-12550674D01*
X4024443Y-12550674D02*
X4033967Y-12512579D01*
X4033967Y-12512579D02*
X4043491Y-12493531D01*
X4043491Y-12493531D02*
X4053015Y-12484008D01*
X4053015Y-12484008D02*
X4072062Y-12474484D01*
X4262539Y-12474484D02*
X4281586Y-12474484D01*
X4281586Y-12474484D02*
X4300634Y-12484008D01*
X4300634Y-12484008D02*
X4310158Y-12493531D01*
X4310158Y-12493531D02*
X4319682Y-12512579D01*
X4319682Y-12512579D02*
X4329205Y-12550674D01*
X4329205Y-12550674D02*
X4329205Y-12598293D01*
X4329205Y-12598293D02*
X4319682Y-12636388D01*
X4319682Y-12636388D02*
X4310158Y-12655436D01*
X4310158Y-12655436D02*
X4300634Y-12664960D01*
X4300634Y-12664960D02*
X4281586Y-12674484D01*
X4281586Y-12674484D02*
X4262539Y-12674484D01*
X4262539Y-12674484D02*
X4243491Y-12664960D01*
X4243491Y-12664960D02*
X4233967Y-12655436D01*
X4233967Y-12655436D02*
X4224444Y-12636388D01*
X4224444Y-12636388D02*
X4214920Y-12598293D01*
X4214920Y-12598293D02*
X4214920Y-12550674D01*
X4214920Y-12550674D02*
X4224444Y-12512579D01*
X4224444Y-12512579D02*
X4233967Y-12493531D01*
X4233967Y-12493531D02*
X4243491Y-12484008D01*
X4243491Y-12484008D02*
X4262539Y-12474484D01*
X4414920Y-12674484D02*
X4414920Y-12541150D01*
X4414920Y-12560198D02*
X4424444Y-12550674D01*
X4424444Y-12550674D02*
X4443491Y-12541150D01*
X4443491Y-12541150D02*
X4472063Y-12541150D01*
X4472063Y-12541150D02*
X4491110Y-12550674D01*
X4491110Y-12550674D02*
X4500634Y-12569722D01*
X4500634Y-12569722D02*
X4500634Y-12674484D01*
X4500634Y-12569722D02*
X4510158Y-12550674D01*
X4510158Y-12550674D02*
X4529205Y-12541150D01*
X4529205Y-12541150D02*
X4557777Y-12541150D01*
X4557777Y-12541150D02*
X4576825Y-12550674D01*
X4576825Y-12550674D02*
X4586348Y-12569722D01*
X4586348Y-12569722D02*
X4586348Y-12674484D01*
X4681586Y-12674484D02*
X4681586Y-12541150D01*
X4681586Y-12560198D02*
X4691110Y-12550674D01*
X4691110Y-12550674D02*
X4710158Y-12541150D01*
X4710158Y-12541150D02*
X4738729Y-12541150D01*
X4738729Y-12541150D02*
X4757777Y-12550674D01*
X4757777Y-12550674D02*
X4767301Y-12569722D01*
X4767301Y-12569722D02*
X4767301Y-12674484D01*
X4767301Y-12569722D02*
X4776825Y-12550674D01*
X4776825Y-12550674D02*
X4795872Y-12541150D01*
X4795872Y-12541150D02*
X4824444Y-12541150D01*
X4824444Y-12541150D02*
X4843491Y-12550674D01*
X4843491Y-12550674D02*
X4853015Y-12569722D01*
X4853015Y-12569722D02*
X4853015Y-12674484D01*
X5243491Y-12464960D02*
X5072063Y-12722103D01*
X5500634Y-12474484D02*
X5519682Y-12474484D01*
X5519682Y-12474484D02*
X5538729Y-12484008D01*
X5538729Y-12484008D02*
X5548253Y-12493531D01*
X5548253Y-12493531D02*
X5557777Y-12512579D01*
X5557777Y-12512579D02*
X5567301Y-12550674D01*
X5567301Y-12550674D02*
X5567301Y-12598293D01*
X5567301Y-12598293D02*
X5557777Y-12636388D01*
X5557777Y-12636388D02*
X5548253Y-12655436D01*
X5548253Y-12655436D02*
X5538729Y-12664960D01*
X5538729Y-12664960D02*
X5519682Y-12674484D01*
X5519682Y-12674484D02*
X5500634Y-12674484D01*
X5500634Y-12674484D02*
X5481587Y-12664960D01*
X5481587Y-12664960D02*
X5472063Y-12655436D01*
X5472063Y-12655436D02*
X5462539Y-12636388D01*
X5462539Y-12636388D02*
X5453015Y-12598293D01*
X5453015Y-12598293D02*
X5453015Y-12550674D01*
X5453015Y-12550674D02*
X5462539Y-12512579D01*
X5462539Y-12512579D02*
X5472063Y-12493531D01*
X5472063Y-12493531D02*
X5481587Y-12484008D01*
X5481587Y-12484008D02*
X5500634Y-12474484D01*
X5653015Y-12655436D02*
X5662539Y-12664960D01*
X5662539Y-12664960D02*
X5653015Y-12674484D01*
X5653015Y-12674484D02*
X5643491Y-12664960D01*
X5643491Y-12664960D02*
X5653015Y-12655436D01*
X5653015Y-12655436D02*
X5653015Y-12674484D01*
X5853015Y-12674484D02*
X5738729Y-12674484D01*
X5795872Y-12674484D02*
X5795872Y-12474484D01*
X5795872Y-12474484D02*
X5776825Y-12503055D01*
X5776825Y-12503055D02*
X5757777Y-12522103D01*
X5757777Y-12522103D02*
X5738729Y-12531627D01*
X6024444Y-12474484D02*
X5986348Y-12474484D01*
X5986348Y-12474484D02*
X5967301Y-12484008D01*
X5967301Y-12484008D02*
X5957777Y-12493531D01*
X5957777Y-12493531D02*
X5938729Y-12522103D01*
X5938729Y-12522103D02*
X5929206Y-12560198D01*
X5929206Y-12560198D02*
X5929206Y-12636388D01*
X5929206Y-12636388D02*
X5938729Y-12655436D01*
X5938729Y-12655436D02*
X5948253Y-12664960D01*
X5948253Y-12664960D02*
X5967301Y-12674484D01*
X5967301Y-12674484D02*
X6005396Y-12674484D01*
X6005396Y-12674484D02*
X6024444Y-12664960D01*
X6024444Y-12664960D02*
X6033967Y-12655436D01*
X6033967Y-12655436D02*
X6043491Y-12636388D01*
X6043491Y-12636388D02*
X6043491Y-12588769D01*
X6043491Y-12588769D02*
X6033967Y-12569722D01*
X6033967Y-12569722D02*
X6024444Y-12560198D01*
X6024444Y-12560198D02*
X6005396Y-12550674D01*
X6005396Y-12550674D02*
X5967301Y-12550674D01*
X5967301Y-12550674D02*
X5948253Y-12560198D01*
X5948253Y-12560198D02*
X5938729Y-12569722D01*
X5938729Y-12569722D02*
X5929206Y-12588769D01*
X6138729Y-12674484D02*
X6176825Y-12674484D01*
X6176825Y-12674484D02*
X6195872Y-12664960D01*
X6195872Y-12664960D02*
X6205396Y-12655436D01*
X6205396Y-12655436D02*
X6224444Y-12626865D01*
X6224444Y-12626865D02*
X6233967Y-12588769D01*
X6233967Y-12588769D02*
X6233967Y-12512579D01*
X6233967Y-12512579D02*
X6224444Y-12493531D01*
X6224444Y-12493531D02*
X6214920Y-12484008D01*
X6214920Y-12484008D02*
X6195872Y-12474484D01*
X6195872Y-12474484D02*
X6157777Y-12474484D01*
X6157777Y-12474484D02*
X6138729Y-12484008D01*
X6138729Y-12484008D02*
X6129206Y-12493531D01*
X6129206Y-12493531D02*
X6119682Y-12512579D01*
X6119682Y-12512579D02*
X6119682Y-12560198D01*
X6119682Y-12560198D02*
X6129206Y-12579246D01*
X6129206Y-12579246D02*
X6138729Y-12588769D01*
X6138729Y-12588769D02*
X6157777Y-12598293D01*
X6157777Y-12598293D02*
X6195872Y-12598293D01*
X6195872Y-12598293D02*
X6214920Y-12588769D01*
X6214920Y-12588769D02*
X6224444Y-12579246D01*
X6224444Y-12579246D02*
X6233967Y-12560198D01*
X6300634Y-12474484D02*
X6424444Y-12474484D01*
X6424444Y-12474484D02*
X6357777Y-12550674D01*
X6357777Y-12550674D02*
X6386348Y-12550674D01*
X6386348Y-12550674D02*
X6405396Y-12560198D01*
X6405396Y-12560198D02*
X6414920Y-12569722D01*
X6414920Y-12569722D02*
X6424444Y-12588769D01*
X6424444Y-12588769D02*
X6424444Y-12636388D01*
X6424444Y-12636388D02*
X6414920Y-12655436D01*
X6414920Y-12655436D02*
X6405396Y-12664960D01*
X6405396Y-12664960D02*
X6386348Y-12674484D01*
X6386348Y-12674484D02*
X6329206Y-12674484D01*
X6329206Y-12674484D02*
X6310158Y-12664960D01*
X6310158Y-12664960D02*
X6300634Y-12655436D01*
X6500634Y-12474484D02*
X6500634Y-12512579D01*
X6576825Y-12474484D02*
X6576825Y-12512579D01*
X6872063Y-12750674D02*
X6862539Y-12741150D01*
X6862539Y-12741150D02*
X6843491Y-12712579D01*
X6843491Y-12712579D02*
X6833968Y-12693531D01*
X6833968Y-12693531D02*
X6824444Y-12664960D01*
X6824444Y-12664960D02*
X6814920Y-12617341D01*
X6814920Y-12617341D02*
X6814920Y-12579246D01*
X6814920Y-12579246D02*
X6824444Y-12531627D01*
X6824444Y-12531627D02*
X6833968Y-12503055D01*
X6833968Y-12503055D02*
X6843491Y-12484008D01*
X6843491Y-12484008D02*
X6862539Y-12455436D01*
X6862539Y-12455436D02*
X6872063Y-12445912D01*
X6938729Y-12493531D02*
X6948253Y-12484008D01*
X6948253Y-12484008D02*
X6967301Y-12474484D01*
X6967301Y-12474484D02*
X7014920Y-12474484D01*
X7014920Y-12474484D02*
X7033968Y-12484008D01*
X7033968Y-12484008D02*
X7043491Y-12493531D01*
X7043491Y-12493531D02*
X7053015Y-12512579D01*
X7053015Y-12512579D02*
X7053015Y-12531627D01*
X7053015Y-12531627D02*
X7043491Y-12560198D01*
X7043491Y-12560198D02*
X6929206Y-12674484D01*
X6929206Y-12674484D02*
X7053015Y-12674484D01*
X7291110Y-12674484D02*
X7291110Y-12474484D01*
X7376825Y-12674484D02*
X7376825Y-12569722D01*
X7376825Y-12569722D02*
X7367301Y-12550674D01*
X7367301Y-12550674D02*
X7348253Y-12541150D01*
X7348253Y-12541150D02*
X7319682Y-12541150D01*
X7319682Y-12541150D02*
X7300634Y-12550674D01*
X7300634Y-12550674D02*
X7291110Y-12560198D01*
X7500634Y-12674484D02*
X7481587Y-12664960D01*
X7481587Y-12664960D02*
X7472063Y-12655436D01*
X7472063Y-12655436D02*
X7462539Y-12636388D01*
X7462539Y-12636388D02*
X7462539Y-12579246D01*
X7462539Y-12579246D02*
X7472063Y-12560198D01*
X7472063Y-12560198D02*
X7481587Y-12550674D01*
X7481587Y-12550674D02*
X7500634Y-12541150D01*
X7500634Y-12541150D02*
X7529206Y-12541150D01*
X7529206Y-12541150D02*
X7548253Y-12550674D01*
X7548253Y-12550674D02*
X7557777Y-12560198D01*
X7557777Y-12560198D02*
X7567301Y-12579246D01*
X7567301Y-12579246D02*
X7567301Y-12636388D01*
X7567301Y-12636388D02*
X7557777Y-12655436D01*
X7557777Y-12655436D02*
X7548253Y-12664960D01*
X7548253Y-12664960D02*
X7529206Y-12674484D01*
X7529206Y-12674484D02*
X7500634Y-12674484D01*
X7681587Y-12674484D02*
X7662539Y-12664960D01*
X7662539Y-12664960D02*
X7653015Y-12645912D01*
X7653015Y-12645912D02*
X7653015Y-12474484D01*
X7833968Y-12664960D02*
X7814920Y-12674484D01*
X7814920Y-12674484D02*
X7776825Y-12674484D01*
X7776825Y-12674484D02*
X7757777Y-12664960D01*
X7757777Y-12664960D02*
X7748253Y-12645912D01*
X7748253Y-12645912D02*
X7748253Y-12569722D01*
X7748253Y-12569722D02*
X7757777Y-12550674D01*
X7757777Y-12550674D02*
X7776825Y-12541150D01*
X7776825Y-12541150D02*
X7814920Y-12541150D01*
X7814920Y-12541150D02*
X7833968Y-12550674D01*
X7833968Y-12550674D02*
X7843491Y-12569722D01*
X7843491Y-12569722D02*
X7843491Y-12588769D01*
X7843491Y-12588769D02*
X7748253Y-12607817D01*
X7919682Y-12664960D02*
X7938730Y-12674484D01*
X7938730Y-12674484D02*
X7976825Y-12674484D01*
X7976825Y-12674484D02*
X7995872Y-12664960D01*
X7995872Y-12664960D02*
X8005396Y-12645912D01*
X8005396Y-12645912D02*
X8005396Y-12636388D01*
X8005396Y-12636388D02*
X7995872Y-12617341D01*
X7995872Y-12617341D02*
X7976825Y-12607817D01*
X7976825Y-12607817D02*
X7948253Y-12607817D01*
X7948253Y-12607817D02*
X7929206Y-12598293D01*
X7929206Y-12598293D02*
X7919682Y-12579246D01*
X7919682Y-12579246D02*
X7919682Y-12569722D01*
X7919682Y-12569722D02*
X7929206Y-12550674D01*
X7929206Y-12550674D02*
X7948253Y-12541150D01*
X7948253Y-12541150D02*
X7976825Y-12541150D01*
X7976825Y-12541150D02*
X7995872Y-12550674D01*
X8072063Y-12750674D02*
X8081587Y-12741150D01*
X8081587Y-12741150D02*
X8100634Y-12712579D01*
X8100634Y-12712579D02*
X8110158Y-12693531D01*
X8110158Y-12693531D02*
X8119682Y-12664960D01*
X8119682Y-12664960D02*
X8129206Y-12617341D01*
X8129206Y-12617341D02*
X8129206Y-12579246D01*
X8129206Y-12579246D02*
X8119682Y-12531627D01*
X8119682Y-12531627D02*
X8110158Y-12503055D01*
X8110158Y-12503055D02*
X8100634Y-12484008D01*
X8100634Y-12484008D02*
X8081587Y-12455436D01*
X8081587Y-12455436D02*
X8072063Y-12445912D01*
X8433968Y-12750674D02*
X8424444Y-12741150D01*
X8424444Y-12741150D02*
X8405396Y-12712579D01*
X8405396Y-12712579D02*
X8395873Y-12693531D01*
X8395873Y-12693531D02*
X8386349Y-12664960D01*
X8386349Y-12664960D02*
X8376825Y-12617341D01*
X8376825Y-12617341D02*
X8376825Y-12579246D01*
X8376825Y-12579246D02*
X8386349Y-12531627D01*
X8386349Y-12531627D02*
X8395873Y-12503055D01*
X8395873Y-12503055D02*
X8405396Y-12484008D01*
X8405396Y-12484008D02*
X8424444Y-12455436D01*
X8424444Y-12455436D02*
X8433968Y-12445912D01*
X8510158Y-12541150D02*
X8510158Y-12674484D01*
X8510158Y-12560198D02*
X8519682Y-12550674D01*
X8519682Y-12550674D02*
X8538730Y-12541150D01*
X8538730Y-12541150D02*
X8567301Y-12541150D01*
X8567301Y-12541150D02*
X8586349Y-12550674D01*
X8586349Y-12550674D02*
X8595873Y-12569722D01*
X8595873Y-12569722D02*
X8595873Y-12674484D01*
X8719682Y-12674484D02*
X8700634Y-12664960D01*
X8700634Y-12664960D02*
X8691111Y-12655436D01*
X8691111Y-12655436D02*
X8681587Y-12636388D01*
X8681587Y-12636388D02*
X8681587Y-12579246D01*
X8681587Y-12579246D02*
X8691111Y-12560198D01*
X8691111Y-12560198D02*
X8700634Y-12550674D01*
X8700634Y-12550674D02*
X8719682Y-12541150D01*
X8719682Y-12541150D02*
X8748254Y-12541150D01*
X8748254Y-12541150D02*
X8767301Y-12550674D01*
X8767301Y-12550674D02*
X8776825Y-12560198D01*
X8776825Y-12560198D02*
X8786349Y-12579246D01*
X8786349Y-12579246D02*
X8786349Y-12636388D01*
X8786349Y-12636388D02*
X8776825Y-12655436D01*
X8776825Y-12655436D02*
X8767301Y-12664960D01*
X8767301Y-12664960D02*
X8748254Y-12674484D01*
X8748254Y-12674484D02*
X8719682Y-12674484D01*
X8843492Y-12541150D02*
X8919682Y-12541150D01*
X8872063Y-12474484D02*
X8872063Y-12645912D01*
X8872063Y-12645912D02*
X8881587Y-12664960D01*
X8881587Y-12664960D02*
X8900634Y-12674484D01*
X8900634Y-12674484D02*
X8919682Y-12674484D01*
X9138730Y-12541150D02*
X9138730Y-12741150D01*
X9138730Y-12550674D02*
X9157777Y-12541150D01*
X9157777Y-12541150D02*
X9195873Y-12541150D01*
X9195873Y-12541150D02*
X9214920Y-12550674D01*
X9214920Y-12550674D02*
X9224444Y-12560198D01*
X9224444Y-12560198D02*
X9233968Y-12579246D01*
X9233968Y-12579246D02*
X9233968Y-12636388D01*
X9233968Y-12636388D02*
X9224444Y-12655436D01*
X9224444Y-12655436D02*
X9214920Y-12664960D01*
X9214920Y-12664960D02*
X9195873Y-12674484D01*
X9195873Y-12674484D02*
X9157777Y-12674484D01*
X9157777Y-12674484D02*
X9138730Y-12664960D01*
X9348254Y-12674484D02*
X9329206Y-12664960D01*
X9329206Y-12664960D02*
X9319682Y-12645912D01*
X9319682Y-12645912D02*
X9319682Y-12474484D01*
X9510158Y-12674484D02*
X9510158Y-12569722D01*
X9510158Y-12569722D02*
X9500635Y-12550674D01*
X9500635Y-12550674D02*
X9481587Y-12541150D01*
X9481587Y-12541150D02*
X9443492Y-12541150D01*
X9443492Y-12541150D02*
X9424444Y-12550674D01*
X9510158Y-12664960D02*
X9491111Y-12674484D01*
X9491111Y-12674484D02*
X9443492Y-12674484D01*
X9443492Y-12674484D02*
X9424444Y-12664960D01*
X9424444Y-12664960D02*
X9414920Y-12645912D01*
X9414920Y-12645912D02*
X9414920Y-12626865D01*
X9414920Y-12626865D02*
X9424444Y-12607817D01*
X9424444Y-12607817D02*
X9443492Y-12598293D01*
X9443492Y-12598293D02*
X9491111Y-12598293D01*
X9491111Y-12598293D02*
X9510158Y-12588769D01*
X9576825Y-12541150D02*
X9653015Y-12541150D01*
X9605396Y-12474484D02*
X9605396Y-12645912D01*
X9605396Y-12645912D02*
X9614920Y-12664960D01*
X9614920Y-12664960D02*
X9633968Y-12674484D01*
X9633968Y-12674484D02*
X9653015Y-12674484D01*
X9795873Y-12664960D02*
X9776825Y-12674484D01*
X9776825Y-12674484D02*
X9738730Y-12674484D01*
X9738730Y-12674484D02*
X9719682Y-12664960D01*
X9719682Y-12664960D02*
X9710158Y-12645912D01*
X9710158Y-12645912D02*
X9710158Y-12569722D01*
X9710158Y-12569722D02*
X9719682Y-12550674D01*
X9719682Y-12550674D02*
X9738730Y-12541150D01*
X9738730Y-12541150D02*
X9776825Y-12541150D01*
X9776825Y-12541150D02*
X9795873Y-12550674D01*
X9795873Y-12550674D02*
X9805396Y-12569722D01*
X9805396Y-12569722D02*
X9805396Y-12588769D01*
X9805396Y-12588769D02*
X9710158Y-12607817D01*
X9976825Y-12674484D02*
X9976825Y-12474484D01*
X9976825Y-12664960D02*
X9957777Y-12674484D01*
X9957777Y-12674484D02*
X9919682Y-12674484D01*
X9919682Y-12674484D02*
X9900635Y-12664960D01*
X9900635Y-12664960D02*
X9891111Y-12655436D01*
X9891111Y-12655436D02*
X9881587Y-12636388D01*
X9881587Y-12636388D02*
X9881587Y-12579246D01*
X9881587Y-12579246D02*
X9891111Y-12560198D01*
X9891111Y-12560198D02*
X9900635Y-12550674D01*
X9900635Y-12550674D02*
X9919682Y-12541150D01*
X9919682Y-12541150D02*
X9957777Y-12541150D01*
X9957777Y-12541150D02*
X9976825Y-12550674D01*
X10053016Y-12750674D02*
X10062539Y-12741150D01*
X10062539Y-12741150D02*
X10081587Y-12712579D01*
X10081587Y-12712579D02*
X10091111Y-12693531D01*
X10091111Y-12693531D02*
X10100635Y-12664960D01*
X10100635Y-12664960D02*
X10110158Y-12617341D01*
X10110158Y-12617341D02*
X10110158Y-12579246D01*
X10110158Y-12579246D02*
X10100635Y-12531627D01*
X10100635Y-12531627D02*
X10091111Y-12503055D01*
X10091111Y-12503055D02*
X10081587Y-12484008D01*
X10081587Y-12484008D02*
X10062539Y-12455436D01*
X10062539Y-12455436D02*
X10053016Y-12445912D01*
M02*
