%TF.GenerationSoftware,KiCad,Pcbnew,7.0.8*%
%TF.CreationDate,2026-03-06T14:37:51-05:00*%
%TF.ProjectId,1130MRAM,31313330-4d52-4414-9d2e-6b696361645f,rev?*%
%TF.SameCoordinates,Original*%
%TF.FileFunction,Copper,L4,Bot*%
%TF.FilePolarity,Positive*%
%FSLAX46Y46*%
G04 Gerber Fmt 4.6, Leading zero omitted, Abs format (unit mm)*
G04 Created by KiCad (PCBNEW 7.0.8) date 2026-03-06 14:37:51*
%MOMM*%
%LPD*%
G01*
G04 APERTURE LIST*
G04 Aperture macros list*
%AMRoundRect*
0 Rectangle with rounded corners*
0 $1 Rounding radius*
0 $2 $3 $4 $5 $6 $7 $8 $9 X,Y pos of 4 corners*
0 Add a 4 corners polygon primitive as box body*
4,1,4,$2,$3,$4,$5,$6,$7,$8,$9,$2,$3,0*
0 Add four circle primitives for the rounded corners*
1,1,$1+$1,$2,$3*
1,1,$1+$1,$4,$5*
1,1,$1+$1,$6,$7*
1,1,$1+$1,$8,$9*
0 Add four rect primitives between the rounded corners*
20,1,$1+$1,$2,$3,$4,$5,0*
20,1,$1+$1,$4,$5,$6,$7,0*
20,1,$1+$1,$6,$7,$8,$9,0*
20,1,$1+$1,$8,$9,$2,$3,0*%
G04 Aperture macros list end*
%TA.AperFunction,ComponentPad*%
%ADD10R,1.700000X1.700000*%
%TD*%
%TA.AperFunction,ComponentPad*%
%ADD11O,1.700000X1.700000*%
%TD*%
%TA.AperFunction,ComponentPad*%
%ADD12RoundRect,0.250000X-1.550000X0.650000X-1.550000X-0.650000X1.550000X-0.650000X1.550000X0.650000X0*%
%TD*%
%TA.AperFunction,ComponentPad*%
%ADD13O,3.600000X1.800000*%
%TD*%
%TA.AperFunction,ComponentPad*%
%ADD14RoundRect,0.250001X0.799999X0.799999X-0.799999X0.799999X-0.799999X-0.799999X0.799999X-0.799999X0*%
%TD*%
%TA.AperFunction,SMDPad,CuDef*%
%ADD15RoundRect,0.225000X-0.250000X0.225000X-0.250000X-0.225000X0.250000X-0.225000X0.250000X0.225000X0*%
%TD*%
%TA.AperFunction,SMDPad,CuDef*%
%ADD16RoundRect,0.250000X-0.450000X0.262500X-0.450000X-0.262500X0.450000X-0.262500X0.450000X0.262500X0*%
%TD*%
%TA.AperFunction,SMDPad,CuDef*%
%ADD17RoundRect,0.225000X0.250000X-0.225000X0.250000X0.225000X-0.250000X0.225000X-0.250000X-0.225000X0*%
%TD*%
%TA.AperFunction,SMDPad,CuDef*%
%ADD18RoundRect,0.225000X-0.225000X-0.250000X0.225000X-0.250000X0.225000X0.250000X-0.225000X0.250000X0*%
%TD*%
%TA.AperFunction,SMDPad,CuDef*%
%ADD19RoundRect,0.225000X0.225000X0.250000X-0.225000X0.250000X-0.225000X-0.250000X0.225000X-0.250000X0*%
%TD*%
%TA.AperFunction,ViaPad*%
%ADD20C,0.800000*%
%TD*%
%TA.AperFunction,Conductor*%
%ADD21C,0.250000*%
%TD*%
%TA.AperFunction,Conductor*%
%ADD22C,0.381000*%
%TD*%
%TA.AperFunction,Conductor*%
%ADD23C,0.508000*%
%TD*%
%TA.AperFunction,Conductor*%
%ADD24C,0.762000*%
%TD*%
%TA.AperFunction,Conductor*%
%ADD25C,0.254000*%
%TD*%
G04 APERTURE END LIST*
D10*
%TO.P,J1,1,Pin_1*%
%TO.N,Net-(J1-Pin_1)*%
X99060000Y-97790000D03*
D11*
%TO.P,J1,2,Pin_2*%
%TO.N,Net-(J1-Pin_2)*%
X96520000Y-97790000D03*
%TO.P,J1,3,Pin_3*%
%TO.N,Net-(J1-Pin_3)*%
X93980000Y-97790000D03*
%TO.P,J1,4,Pin_4*%
%TO.N,Net-(J1-Pin_4)*%
X91440000Y-97790000D03*
%TO.P,J1,5,Pin_5*%
%TO.N,Net-(J1-Pin_5)*%
X88900000Y-97790000D03*
%TO.P,J1,6,Pin_6*%
%TO.N,Net-(J1-Pin_6)*%
X86360000Y-97790000D03*
%TO.P,J1,7,Pin_7*%
%TO.N,Net-(J1-Pin_7)*%
X83820000Y-97790000D03*
%TO.P,J1,8,Pin_8*%
%TO.N,Net-(J1-Pin_8)*%
X81280000Y-97790000D03*
%TO.P,J1,9,Pin_9*%
%TO.N,Net-(J1-Pin_9)*%
X78740000Y-97790000D03*
%TD*%
D12*
%TO.P,J5,1,Pin_1*%
%TO.N,/+12V*%
X109750000Y-101125000D03*
D13*
%TO.P,J5,2,Pin_2*%
%TO.N,GND*%
X109750000Y-106205000D03*
%TD*%
D10*
%TO.P,J3,1,Pin_1*%
%TO.N,Net-(J3-Pin_1)*%
X60960000Y-97790000D03*
D11*
%TO.P,J3,2,Pin_2*%
%TO.N,Net-(J3-Pin_2)*%
X58420000Y-97790000D03*
%TO.P,J3,3,Pin_3*%
%TO.N,+SW*%
X55880000Y-97790000D03*
%TO.P,J3,4,Pin_4*%
%TO.N,Net-(J3-Pin_4)*%
X53340000Y-97790000D03*
%TO.P,J3,5,Pin_5*%
%TO.N,Net-(J3-Pin_5)*%
X50800000Y-97790000D03*
%TO.P,J3,6,Pin_6*%
%TO.N,Net-(J3-Pin_6)*%
X48260000Y-97790000D03*
%TO.P,J3,7,Pin_7*%
%TO.N,unconnected-(J3-Pin_7-Pad7)*%
X45720000Y-97790000D03*
%TO.P,J3,8,Pin_8*%
%TO.N,Net-(J3-Pin_8)*%
X43180000Y-97790000D03*
%TO.P,J3,9,Pin_9*%
%TO.N,Net-(J3-Pin_9)*%
X40640000Y-97790000D03*
%TD*%
D10*
%TO.P,J2,1,Pin_1*%
%TO.N,Net-(J2-Pin_1)*%
X99060000Y-113030000D03*
D11*
%TO.P,J2,2,Pin_2*%
%TO.N,Net-(J2-Pin_2)*%
X96520000Y-113030000D03*
%TO.P,J2,3,Pin_3*%
%TO.N,Net-(J2-Pin_3)*%
X93980000Y-113030000D03*
%TO.P,J2,4,Pin_4*%
%TO.N,Net-(J2-Pin_4)*%
X91440000Y-113030000D03*
%TO.P,J2,5,Pin_5*%
%TO.N,Net-(J2-Pin_5)*%
X88900000Y-113030000D03*
%TO.P,J2,6,Pin_6*%
%TO.N,Net-(J2-Pin_6)*%
X86360000Y-113030000D03*
%TO.P,J2,7,Pin_7*%
%TO.N,Net-(J2-Pin_7)*%
X83820000Y-113030000D03*
%TO.P,J2,8,Pin_8*%
%TO.N,Net-(J2-Pin_8)*%
X81280000Y-113030000D03*
%TO.P,J2,9,Pin_9*%
%TO.N,Net-(J2-Pin_9)*%
X78740000Y-113030000D03*
%TD*%
D10*
%TO.P,J4,1,Pin_1*%
%TO.N,unconnected-(J4-Pin_1-Pad1)*%
X60960000Y-113030000D03*
D11*
%TO.P,J4,2,Pin_2*%
%TO.N,unconnected-(J4-Pin_2-Pad2)*%
X58420000Y-113030000D03*
%TO.P,J4,3,Pin_3*%
%TO.N,unconnected-(J4-Pin_3-Pad3)*%
X55880000Y-113030000D03*
%TO.P,J4,4,Pin_4*%
%TO.N,unconnected-(J4-Pin_4-Pad4)*%
X53340000Y-113030000D03*
%TO.P,J4,5,Pin_5*%
%TO.N,unconnected-(J4-Pin_5-Pad5)*%
X50800000Y-113030000D03*
%TO.P,J4,6,Pin_6*%
%TO.N,unconnected-(J4-Pin_6-Pad6)*%
X48260000Y-113030000D03*
%TO.P,J4,7,Pin_7*%
%TO.N,unconnected-(J4-Pin_7-Pad7)*%
X45720000Y-113030000D03*
%TO.P,J4,8,Pin_8*%
%TO.N,Net-(J4-Pin_8)*%
X43180000Y-113030000D03*
%TO.P,J4,9,Pin_9*%
%TO.N,GND*%
X40640000Y-113030000D03*
%TD*%
D14*
%TO.P,A1E11,1,Pin_1*%
%TO.N,Net-(A1E11-Pin_1)*%
X52990000Y-66590000D03*
%TD*%
%TO.P,S10,1,Pin_1*%
%TO.N,Net-(IC17-C)*%
X209990000Y-66800000D03*
%TD*%
D15*
%TO.P,C20,1*%
%TO.N,+3.3V*%
X223900000Y-72625000D03*
%TO.P,C20,2*%
%TO.N,GND*%
X223900000Y-74175000D03*
%TD*%
%TO.P,C13,1*%
%TO.N,+3.3V*%
X57725000Y-79900000D03*
%TO.P,C13,2*%
%TO.N,GND*%
X57725000Y-81450000D03*
%TD*%
D14*
%TO.P,SAR7,1,Pin_1*%
%TO.N,Net-(SAR7-Pin_1)*%
X168350000Y-60760000D03*
%TD*%
%TO.P,SAR4,1,Pin_1*%
%TO.N,Net-(SAR4-Pin_1)*%
X165175000Y-67110000D03*
%TD*%
%TO.P,H1A11,1,Pin_1*%
%TO.N,unconnected-(H1A11-Pin_1-Pad1)*%
X162000000Y-67110000D03*
%TD*%
%TO.P,K1E11,1,Pin_1*%
%TO.N,Net-(IC5-C)*%
X206815000Y-66800000D03*
%TD*%
%TO.P,B7,1,Pin_1*%
%TO.N,Net-(B7-Pin_1)*%
X81565000Y-60240000D03*
%TD*%
%TO.P,SAR8,1,Pin_1*%
%TO.N,Net-(SAR8-Pin_1)*%
X184225000Y-67110000D03*
%TD*%
%TO.P,SR1,1,Pin_1*%
%TO.N,Net-(J3-Pin_2)*%
X174700000Y-67110000D03*
%TD*%
%TO.P,S16,1,Pin_1*%
%TO.N,Net-(IC2-C)*%
X232215000Y-66800000D03*
%TD*%
D16*
%TO.P,R10,1*%
%TO.N,Net-(R10-Pad1)*%
X105220000Y-90685000D03*
%TO.P,R10,2*%
%TO.N,GND*%
X105220000Y-92510000D03*
%TD*%
D14*
%TO.P,S8,1,Pin_1*%
%TO.N,Net-(IC15-C)*%
X84740000Y-66590000D03*
%TD*%
%TO.P,J1A09,1,Pin_1*%
%TO.N,unconnected-(J1A09-Pin_1-Pad1)*%
X177875000Y-60760000D03*
%TD*%
%TO.P,C1A09,1,Pin_1*%
%TO.N,unconnected-(C1A09-Pin_1-Pad1)*%
X72040000Y-60240000D03*
%TD*%
D17*
%TO.P,C27,1*%
%TO.N,GND*%
X218625000Y-90725000D03*
%TO.P,C27,2*%
%TO.N,+3.3V*%
X218625000Y-89175000D03*
%TD*%
D15*
%TO.P,C19,1*%
%TO.N,+3.3V*%
X209100000Y-72725000D03*
%TO.P,C19,2*%
%TO.N,GND*%
X209100000Y-74275000D03*
%TD*%
D14*
%TO.P,S9,1,Pin_1*%
%TO.N,Net-(IC16-C)*%
X87915000Y-66590000D03*
%TD*%
%TO.P,SW1,1,Pin_1*%
%TO.N,+SW*%
X171525000Y-67110000D03*
%TD*%
%TO.P,M1A09,1,Pin_1*%
%TO.N,unconnected-(M1A09-Pin_1-Pad1)*%
X225865000Y-60450000D03*
%TD*%
%TO.P,S2,1,Pin_1*%
%TO.N,Net-(IC13-C)*%
X62515000Y-66590000D03*
%TD*%
D15*
%TO.P,C24,1*%
%TO.N,+3.3V*%
X238700000Y-72825000D03*
%TO.P,C24,2*%
%TO.N,GND*%
X238700000Y-74375000D03*
%TD*%
D14*
%TO.P,SAR11,1,Pin_1*%
%TO.N,Net-(SAR11-Pin_1)*%
X187400000Y-60760000D03*
%TD*%
%TO.P,B0,1,Pin_1*%
%TO.N,Net-(A1E09-Pin_1)*%
X56165000Y-60240000D03*
%TD*%
%TO.P,B2,1,Pin_1*%
%TO.N,Net-(B2-Pin_1)*%
X62515000Y-60240000D03*
%TD*%
D16*
%TO.P,R9,1*%
%TO.N,/+12V*%
X105140000Y-86097500D03*
%TO.P,R9,2*%
%TO.N,Net-(R10-Pad1)*%
X105140000Y-87922500D03*
%TD*%
D15*
%TO.P,C25,1*%
%TO.N,+3.3V*%
X102300000Y-67925000D03*
%TO.P,C25,2*%
%TO.N,GND*%
X102300000Y-69475000D03*
%TD*%
%TO.P,C12,1*%
%TO.N,+3.3V*%
X73550000Y-79550000D03*
%TO.P,C12,2*%
%TO.N,GND*%
X73550000Y-81100000D03*
%TD*%
D14*
%TO.P,S3,1,Pin_1*%
%TO.N,Net-(A1E11-Pin_1)*%
X65690000Y-66590000D03*
%TD*%
%TO.P,S7,1,Pin_1*%
%TO.N,Net-(C1A11-Pin_1)*%
X81565000Y-66590000D03*
%TD*%
%TO.P,M1C09,1,Pin_1*%
%TO.N,unconnected-(M1C09-Pin_1-Pad1)*%
X232215000Y-60450000D03*
%TD*%
%TO.P,S6,1,Pin_1*%
%TO.N,Net-(IC9-C)*%
X78390000Y-66590000D03*
%TD*%
%TO.P,B9,1,Pin_1*%
%TO.N,Net-(B9-Pin_1)*%
X87915000Y-60240000D03*
%TD*%
%TO.P,H1D09,1,Pin_1*%
%TO.N,unconnected-(H1D09-Pin_1-Pad1)*%
X171525000Y-60760000D03*
%TD*%
D15*
%TO.P,C21,1*%
%TO.N,+3.3V*%
X205650000Y-105900000D03*
%TO.P,C21,2*%
%TO.N,GND*%
X205650000Y-107450000D03*
%TD*%
D14*
%TO.P,SAR14,1,Pin_1*%
%TO.N,Net-(SAR14-Pin_1)*%
X193750000Y-67110000D03*
%TD*%
%TO.P,SAR9,1,Pin_1*%
%TO.N,Net-(SAR9-Pin_1)*%
X184225000Y-60760000D03*
%TD*%
%TO.P,SAR15,1,Pin_1*%
%TO.N,Net-(SAR15-Pin_1)*%
X193750000Y-60760000D03*
%TD*%
%TO.P,H1E09,1,Pin_1*%
%TO.N,unconnected-(H1E09-Pin_1-Pad1)*%
X174700000Y-60760000D03*
%TD*%
%TO.P,M1D09,1,Pin_1*%
%TO.N,unconnected-(M1D09-Pin_1-Pad1)*%
X235390000Y-60450000D03*
%TD*%
%TO.P,SAR12,1,Pin_1*%
%TO.N,Net-(SAR12-Pin_1)*%
X190575000Y-67110000D03*
%TD*%
%TO.P,J1A11,1,Pin_1*%
%TO.N,Net-(J1A11-Pin_1)*%
X177875000Y-67110000D03*
%TD*%
%TO.P,S13,1,Pin_1*%
%TO.N,Net-(IC5-C)*%
X219515000Y-66800000D03*
%TD*%
%TO.P,B11,1,Pin_1*%
%TO.N,Net-(B11-Pin_1)*%
X213165000Y-60450000D03*
%TD*%
%TO.P,B15,1,Pin_1*%
%TO.N,Net-(B15-Pin_1)*%
X229040000Y-60450000D03*
%TD*%
%TO.P,B12,1,Pin_1*%
%TO.N,Net-(B12-Pin_1)*%
X216340000Y-60450000D03*
%TD*%
%TO.P,S1,1,Pin_1*%
%TO.N,Net-(IC12-C)*%
X59340000Y-66590000D03*
%TD*%
%TO.P,S5,1,Pin_1*%
%TO.N,Net-(IC8-C)*%
X75215000Y-66590000D03*
%TD*%
%TO.P,SAR13,1,Pin_1*%
%TO.N,Net-(SAR13-Pin_1)*%
X190575000Y-60760000D03*
%TD*%
%TO.P,B4,1,Pin_1*%
%TO.N,Net-(B4-Pin_1)*%
X68865000Y-60240000D03*
%TD*%
%TO.P,S11,1,Pin_1*%
%TO.N,Net-(IC18-C)*%
X213165000Y-66800000D03*
%TD*%
%TO.P,B5,1,Pin_1*%
%TO.N,Net-(B5-Pin_1)*%
X75215000Y-60240000D03*
%TD*%
%TO.P,G1E09,1,Pin_1*%
%TO.N,Net-(G1E09-Pin_1)*%
X158825000Y-60760000D03*
%TD*%
%TO.P,S0,1,Pin_1*%
%TO.N,Net-(IC11-C)*%
X56165000Y-66590000D03*
%TD*%
%TO.P,SAR10,1,Pin_1*%
%TO.N,Net-(J1A11-Pin_1)*%
X187400000Y-67110000D03*
%TD*%
D18*
%TO.P,C16,1*%
%TO.N,+3.3V*%
X132125000Y-92275000D03*
%TO.P,C16,2*%
%TO.N,GND*%
X133675000Y-92275000D03*
%TD*%
D14*
%TO.P,B10,1,Pin_1*%
%TO.N,Net-(B10-Pin_1)*%
X209990000Y-60450000D03*
%TD*%
%TO.P,SAR6,1,Pin_1*%
%TO.N,Net-(SAR6-Pin_1)*%
X168350000Y-67110000D03*
%TD*%
%TO.P,B14,1,Pin_1*%
%TO.N,Net-(B14-Pin_1)*%
X222690000Y-60450000D03*
%TD*%
%TO.P,S12,1,Pin_1*%
%TO.N,Net-(IC6-C)*%
X216340000Y-66800000D03*
%TD*%
%TO.P,SAR5,1,Pin_1*%
%TO.N,Net-(SAR5-Pin_1)*%
X165175000Y-60760000D03*
%TD*%
D17*
%TO.P,C28,1*%
%TO.N,GND*%
X187625000Y-115550000D03*
%TO.P,C28,2*%
%TO.N,+3.3V*%
X187625000Y-114000000D03*
%TD*%
D14*
%TO.P,B8,1,Pin_1*%
%TO.N,Net-(B8-Pin_1)*%
X84740000Y-60240000D03*
%TD*%
%TO.P,B13,1,Pin_1*%
%TO.N,Net-(B13-Pin_1)*%
X219515000Y-60450000D03*
%TD*%
%TO.P,M1E09,1,Pin_1*%
%TO.N,unconnected-(M1E09-Pin_1-Pad1)*%
X238565000Y-60450000D03*
%TD*%
%TO.P,S15,1,Pin_1*%
%TO.N,Net-(IC3-C)*%
X229040000Y-66800000D03*
%TD*%
%TO.P,N1A09,1,Pin_1*%
%TO.N,unconnected-(N1A09-Pin_1-Pad1)*%
X241740000Y-60450000D03*
%TD*%
%TO.P,G1E11,1,Pin_1*%
%TO.N,+SW*%
X158825000Y-67110000D03*
%TD*%
%TO.P,A1E09,1,Pin_1*%
%TO.N,Net-(A1E09-Pin_1)*%
X52990000Y-60240000D03*
%TD*%
%TO.P,S14,1,Pin_1*%
%TO.N,Net-(IC4-C)*%
X222690000Y-66800000D03*
%TD*%
%TO.P,K1E09,1,Pin_1*%
%TO.N,Net-(B10-Pin_1)*%
X206815000Y-60450000D03*
%TD*%
%TO.P,S4,1,Pin_1*%
%TO.N,Net-(IC7-C)*%
X68865000Y-66590000D03*
%TD*%
D17*
%TO.P,C17,1*%
%TO.N,+3.3V*%
X150075000Y-95050000D03*
%TO.P,C17,2*%
%TO.N,GND*%
X150075000Y-93500000D03*
%TD*%
D14*
%TO.P,SU1,1,Pin_1*%
%TO.N,Net-(SU1-Pin_1)*%
X181050000Y-67110000D03*
%TD*%
%TO.P,N1A11,1,Pin_1*%
%TO.N,unconnected-(N1A11-Pin_1-Pad1)*%
X241740000Y-66800000D03*
%TD*%
%TO.P,SS1,1,Pin_1*%
%TO.N,unconnected-(SS1-Pin_1-Pad1)*%
X181050000Y-60760000D03*
%TD*%
%TO.P,M1E11,1,Pin_1*%
%TO.N,unconnected-(M1E11-Pin_1-Pad1)*%
X238565000Y-66800000D03*
%TD*%
%TO.P,C1A11,1,Pin_1*%
%TO.N,Net-(C1A11-Pin_1)*%
X72040000Y-66590000D03*
%TD*%
%TO.P,M1A11,1,Pin_1*%
%TO.N,Net-(IC1-C)*%
X225865000Y-66800000D03*
%TD*%
%TO.P,B1,1,Pin_1*%
%TO.N,Net-(B1-Pin_1)*%
X59340000Y-60240000D03*
%TD*%
D15*
%TO.P,C26,1*%
%TO.N,+3.3V*%
X117950000Y-114500000D03*
%TO.P,C26,2*%
%TO.N,GND*%
X117950000Y-116050000D03*
%TD*%
D19*
%TO.P,C18,1*%
%TO.N,+3.3V*%
X165100000Y-96175000D03*
%TO.P,C18,2*%
%TO.N,GND*%
X163550000Y-96175000D03*
%TD*%
D14*
%TO.P,S17,1,Pin_1*%
%TO.N,Net-(IC1-C)*%
X235390000Y-66800000D03*
%TD*%
%TO.P,SAR3,1,Pin_1*%
%TO.N,Net-(G1E09-Pin_1)*%
X162000000Y-60760000D03*
%TD*%
%TO.P,B3,1,Pin_1*%
%TO.N,Net-(B3-Pin_1)*%
X65690000Y-60240000D03*
%TD*%
%TO.P,B6,1,Pin_1*%
%TO.N,Net-(B6-Pin_1)*%
X78390000Y-60240000D03*
%TD*%
D20*
%TO.N,+3.3V*%
X240100000Y-81675000D03*
X241000000Y-80825000D03*
X242900000Y-78775000D03*
X243900000Y-77825000D03*
X174200000Y-106300000D03*
X173025000Y-107250000D03*
X171575000Y-111200000D03*
X169950000Y-111200000D03*
X195800000Y-87475000D03*
X193675000Y-93150000D03*
X195250000Y-91875000D03*
X195800000Y-83600000D03*
X195700000Y-82375000D03*
X170075000Y-82500000D03*
X169000000Y-81500000D03*
X168950000Y-77300000D03*
X168900000Y-76025000D03*
X170475000Y-104600000D03*
X172525000Y-104650000D03*
X175600000Y-104600000D03*
X181075000Y-104600000D03*
X182300000Y-104925000D03*
X65125000Y-100875000D03*
X64375000Y-100225000D03*
X70575000Y-101275000D03*
X68800000Y-101250000D03*
X73650000Y-101275000D03*
X74850000Y-101250000D03*
X216750000Y-68825000D03*
X216150000Y-69525000D03*
X188675000Y-110900000D03*
X246240000Y-71380000D03*
X224850000Y-71625000D03*
X129229598Y-88970402D03*
X189350000Y-111650000D03*
X209200000Y-86725000D03*
X239975000Y-71600000D03*
X151680000Y-95670000D03*
X225250000Y-73950000D03*
X123875000Y-94975000D03*
X223850500Y-77000000D03*
X211750000Y-69975000D03*
X97450000Y-91950000D03*
X61050000Y-77250000D03*
X133050000Y-112475000D03*
X118850000Y-64825000D03*
X148950000Y-103225000D03*
X107375000Y-65625000D03*
X138350000Y-94175000D03*
X207375000Y-99250000D03*
X223700000Y-86950000D03*
X159350000Y-95350000D03*
X60525000Y-68800000D03*
X225325000Y-73100000D03*
X124625000Y-112275000D03*
X206825000Y-91125000D03*
X209950000Y-102275000D03*
X208625000Y-83625000D03*
X189725000Y-108475000D03*
X126175000Y-112275000D03*
X64125000Y-68950000D03*
X212600000Y-69925000D03*
X150475000Y-101550000D03*
X222625000Y-81250000D03*
X228325000Y-70350000D03*
X122650000Y-96225000D03*
X223125000Y-77525000D03*
X122500000Y-118450000D03*
X210075000Y-71450000D03*
X222625000Y-80350000D03*
X169400000Y-97200000D03*
X69450000Y-76875000D03*
X188975000Y-109125000D03*
X67325000Y-68775000D03*
X221470641Y-85945641D03*
X206725000Y-89475000D03*
X92900000Y-63876639D03*
X151250000Y-100700000D03*
X221275000Y-95000000D03*
X76750000Y-76650000D03*
X139700000Y-94400000D03*
X208650000Y-100280000D03*
X228275000Y-71540000D03*
X134725000Y-112450000D03*
X110925000Y-65225000D03*
X118125000Y-65450000D03*
X81750000Y-77100000D03*
X127075000Y-94225000D03*
X93675000Y-82250000D03*
X209400000Y-93500000D03*
X211500000Y-89050500D03*
X210725000Y-93525000D03*
X222190169Y-86057976D03*
X82925000Y-77100000D03*
X246275000Y-70350000D03*
X99425000Y-91900000D03*
X160638430Y-94288430D03*
X137525000Y-93175000D03*
X81225000Y-107025000D03*
X93725000Y-83800000D03*
X117400000Y-66000000D03*
X91900000Y-64950000D03*
X94250000Y-64275000D03*
%TO.N,GND*%
X98370000Y-70560000D03*
X159350000Y-93625000D03*
X55050000Y-84175000D03*
X221050000Y-81025000D03*
X259675000Y-61675000D03*
X200525000Y-109925000D03*
X137550000Y-106450000D03*
X63475000Y-94800000D03*
X180850000Y-82025000D03*
X75525000Y-94050000D03*
X143100000Y-57950000D03*
X259200000Y-60275000D03*
X55050000Y-85150000D03*
X68275000Y-84275000D03*
X83800000Y-86350000D03*
X95675000Y-82275000D03*
X69725000Y-95125000D03*
X182075000Y-117400000D03*
X50400000Y-85075000D03*
X259250000Y-101825000D03*
X259500000Y-74625000D03*
X151625000Y-91125000D03*
X150625000Y-64750000D03*
X248475000Y-91225000D03*
X46650000Y-104875000D03*
X236700000Y-77225000D03*
X154675000Y-106550000D03*
X156800000Y-85550000D03*
X138490000Y-81890000D03*
X68600000Y-94575000D03*
X74575000Y-94100000D03*
X220450000Y-77725000D03*
X48500000Y-102875000D03*
X144250000Y-57875000D03*
X213875000Y-94750000D03*
X109675000Y-113225000D03*
X109750000Y-110225000D03*
X51675000Y-85075000D03*
X259025000Y-67375000D03*
X79450000Y-104100000D03*
X50050000Y-102975000D03*
X207148437Y-77700005D03*
X137075000Y-107025000D03*
X138050000Y-95400000D03*
X62250000Y-94625000D03*
X38200000Y-113275000D03*
X186475000Y-72825000D03*
X113975000Y-117000000D03*
X109675000Y-114825000D03*
X38825000Y-71925000D03*
X201650000Y-110360000D03*
X115050000Y-116275000D03*
X253450000Y-81050000D03*
X252675000Y-80200000D03*
X259650000Y-68425000D03*
X141060000Y-81770000D03*
X38925000Y-70575000D03*
X185400000Y-73700000D03*
X259925000Y-75675000D03*
X35850000Y-110975000D03*
X214425000Y-93825000D03*
X137090000Y-95850000D03*
X99175000Y-71325000D03*
X109750000Y-111575000D03*
X160700000Y-92100000D03*
X81425500Y-94450000D03*
X38200000Y-79175000D03*
X95675000Y-83950000D03*
X39150000Y-64500000D03*
X36450000Y-112600000D03*
X38675000Y-78225000D03*
X150600000Y-63425000D03*
X158925000Y-101115000D03*
X258150000Y-100875000D03*
X249600000Y-92275000D03*
X39075000Y-63075000D03*
X83850000Y-87350000D03*
X80450000Y-93475000D03*
X180950000Y-81050000D03*
X219825000Y-76925000D03*
X235625000Y-76925000D03*
X103300000Y-92510000D03*
X68975000Y-83475000D03*
X160200000Y-92775000D03*
X207225000Y-76675000D03*
X183250000Y-117100000D03*
X220825000Y-80325000D03*
%TO.N,Net-(SAR4-Pin_1)*%
X136500000Y-85280000D03*
%TO.N,Net-(SAR5-Pin_1)*%
X150575000Y-72050000D03*
%TO.N,Net-(SAR6-Pin_1)*%
X149520000Y-74590000D03*
%TO.N,Net-(SAR7-Pin_1)*%
X151970000Y-72130000D03*
%TO.N,Net-(SAR8-Pin_1)*%
X145940000Y-82410000D03*
X149010000Y-79890000D03*
X156720000Y-79220000D03*
X161180000Y-77490000D03*
%TO.N,Net-(SAR9-Pin_1)*%
X155550000Y-70960000D03*
X151580000Y-67380000D03*
X153200000Y-72305500D03*
%TO.N,Net-(SAR11-Pin_1)*%
X187650000Y-81275000D03*
X182840000Y-86760000D03*
%TO.N,Net-(SAR12-Pin_1)*%
X183290000Y-81510000D03*
X181060000Y-86775000D03*
X187225000Y-76075000D03*
%TO.N,Net-(SAR13-Pin_1)*%
X163190000Y-79830000D03*
%TO.N,Net-(SAR14-Pin_1)*%
X181080000Y-75540000D03*
X160960000Y-80110000D03*
X188475000Y-75500000D03*
%TO.N,Net-(SAR15-Pin_1)*%
X177070000Y-71950000D03*
X179620000Y-64720000D03*
X159060000Y-79500000D03*
%TO.N,Net-(U1-DQL0)*%
X58000000Y-69700000D03*
X53325000Y-78000000D03*
X93650000Y-66300000D03*
X133575000Y-84750000D03*
%TO.N,Net-(U1-DQL1)*%
X50800000Y-80924500D03*
X55052701Y-70777701D03*
X94550000Y-67475000D03*
X133575000Y-85925000D03*
%TO.N,Net-(U1-DQL2)*%
X59725000Y-71225000D03*
X96325000Y-67575000D03*
X64075000Y-82225000D03*
X133525000Y-87125000D03*
%TO.N,Net-(U1-DQL3)*%
X62850000Y-80275000D03*
X59775000Y-72850000D03*
X137375000Y-90600000D03*
X95450000Y-69525000D03*
%TO.N,Net-(U1-DQL4)*%
X104100000Y-69500000D03*
X71875000Y-72500000D03*
X137300000Y-98250000D03*
X139787500Y-101187500D03*
X68475000Y-78850000D03*
%TO.N,Net-(U1-DQL5)*%
X67300000Y-72299500D03*
X136250000Y-99200000D03*
X67675000Y-82075000D03*
X103625000Y-68350000D03*
%TO.N,Net-(U11-Pad1)*%
X232025000Y-92175000D03*
X192125000Y-114750000D03*
%TO.N,Net-(U1-DQU8)*%
X210475000Y-82425000D03*
X163275000Y-101050000D03*
X205525000Y-69900000D03*
%TO.N,Net-(U1-DQU9)*%
X205725000Y-80800000D03*
X216800000Y-89049500D03*
X204350000Y-73850000D03*
X164700000Y-99900000D03*
%TO.N,Net-(U1-DQU10)*%
X163300000Y-99100000D03*
X217225000Y-90350500D03*
%TO.N,Net-(U1-DQU12)*%
X218350000Y-71575000D03*
X219325000Y-91800000D03*
X218900000Y-82050500D03*
X159825000Y-90775000D03*
%TO.N,Net-(U1-DQU13)*%
X219075000Y-74175000D03*
X162475000Y-88174500D03*
X229275000Y-82950000D03*
X225712653Y-90462653D03*
%TO.N,Net-(U11-Pad4)*%
X233925000Y-73625000D03*
X215750000Y-110875000D03*
%TO.N,Net-(U15-Pad3)*%
X113250000Y-85500000D03*
X119000000Y-110950000D03*
X120675000Y-108500000D03*
X101885698Y-66360698D03*
X120750000Y-93200000D03*
X120650000Y-100800000D03*
%TO.N,Net-(A1E09-Pin_1)*%
X130510000Y-95390000D03*
X123850000Y-92210000D03*
%TO.N,Net-(B1-Pin_1)*%
X125350000Y-91825000D03*
X131840000Y-95220000D03*
%TO.N,Net-(B3-Pin_1)*%
X125030000Y-89300000D03*
X134690000Y-95490000D03*
%TO.N,Net-(B4-Pin_1)*%
X136900000Y-91700000D03*
X127475000Y-59700000D03*
%TO.N,Net-(B5-Pin_1)*%
X122640000Y-59180000D03*
X134525000Y-88300000D03*
%TO.N,Net-(B6-Pin_1)*%
X119630000Y-59410000D03*
X132802700Y-89627300D03*
%TO.N,Net-(B7-Pin_1)*%
X131175000Y-87875000D03*
X112675000Y-64775000D03*
%TO.N,Net-(B8-Pin_1)*%
X167150000Y-81170000D03*
X143990000Y-74290000D03*
%TO.N,Net-(B9-Pin_1)*%
X164870000Y-83160000D03*
X165830000Y-88510000D03*
%TO.N,Net-(B10-Pin_1)*%
X201200000Y-87840000D03*
X164092701Y-88957299D03*
%TO.N,Net-(B11-Pin_1)*%
X200420000Y-89570000D03*
X160075000Y-88825000D03*
%TO.N,Net-(B12-Pin_1)*%
X162402299Y-93732299D03*
X176730000Y-91890000D03*
%TO.N,Net-(B13-Pin_1)*%
X175170000Y-93110000D03*
X163170000Y-94640000D03*
%TO.N,Net-(B14-Pin_1)*%
X164675000Y-94425000D03*
X173220000Y-93870000D03*
%TO.N,Net-(B15-Pin_1)*%
X166350000Y-94900000D03*
X172590000Y-95410000D03*
%TO.N,Net-(U15-Pad6)*%
X119225000Y-108450000D03*
X119150000Y-93025000D03*
X97989800Y-69514800D03*
X119225000Y-100750000D03*
X108500000Y-82475000D03*
X115325000Y-112750000D03*
%TO.N,Net-(U15-Pad8)*%
X117675000Y-92875000D03*
X106225000Y-78659500D03*
X117625000Y-100725000D03*
X114750000Y-114100000D03*
X104375000Y-70705500D03*
X117600000Y-108350000D03*
%TO.N,Net-(U15-Pad11)*%
X116225000Y-108525000D03*
X113825000Y-114975000D03*
X112200000Y-88650000D03*
X109350000Y-67800000D03*
%TO.N,Net-(U16-Pad3)*%
X184200000Y-103175000D03*
X209025000Y-89300000D03*
X203475000Y-86400000D03*
X163175000Y-112250500D03*
X173575000Y-111370500D03*
X175750000Y-105875000D03*
%TO.N,Net-(U16-Pad6)*%
X206175000Y-93675000D03*
X177791784Y-100925500D03*
X129450000Y-104775000D03*
X128400000Y-107900000D03*
X203325000Y-93550000D03*
X198599799Y-94974799D03*
X119525000Y-113325000D03*
X179825000Y-99075000D03*
%TO.N,Net-(U16-Pad8)*%
X206388516Y-96811484D03*
X197368984Y-98693984D03*
X130600000Y-106125000D03*
X212550000Y-98000000D03*
X203975000Y-98275000D03*
X203112701Y-97087701D03*
X120725000Y-112700000D03*
X181675000Y-99100000D03*
X179075000Y-101650000D03*
X129400000Y-108700000D03*
%TO.N,Net-(A1E11-Pin_1)*%
X44500000Y-60600000D03*
X46025000Y-60675000D03*
%TO.N,Net-(C1A11-Pin_1)*%
X78175000Y-88725000D03*
X78200000Y-87906000D03*
%TO.N,+SW*%
X157475000Y-77100000D03*
X109725000Y-117725000D03*
X162300000Y-75700000D03*
%TO.N,Net-(U16-Pad11)*%
X177825000Y-113699500D03*
X180400000Y-112000000D03*
X223300000Y-93325000D03*
X216150000Y-108225000D03*
X130325000Y-113550000D03*
X217025000Y-102225000D03*
X145625000Y-113599500D03*
X223250000Y-90400000D03*
%TO.N,Net-(U17-Pad8)*%
X180775000Y-115100000D03*
X129975000Y-116175500D03*
%TO.N,Net-(U17-Pad11)*%
X177275000Y-117500000D03*
X132325000Y-114325000D03*
X175448798Y-114325000D03*
X174425000Y-117050000D03*
%TO.N,Net-(U1-DQL6)*%
X104025000Y-67009951D03*
X81000000Y-82400000D03*
X95975000Y-71125000D03*
X136500000Y-100550000D03*
%TO.N,Net-(U1-DQL7)*%
X137925000Y-101575000D03*
X78725000Y-78500000D03*
X108600000Y-72275000D03*
X79950000Y-73024000D03*
X108175000Y-66425000D03*
%TO.N,Net-(U1-DQU14)*%
X223850000Y-88900000D03*
X226325000Y-82150500D03*
X226150000Y-88925000D03*
X226125000Y-83925000D03*
X164775000Y-88175000D03*
%TO.N,Net-(U1-DQU15)*%
X166600000Y-87350000D03*
X221954159Y-84750000D03*
%TO.N,Net-(B2-Pin_1)*%
X133400000Y-95410000D03*
X125620000Y-90560000D03*
%TO.N,Net-(G1E09-Pin_1)*%
X138150000Y-76100000D03*
X138200000Y-72360000D03*
%TO.N,Net-(J1A11-Pin_1)*%
X169780000Y-101060000D03*
X169560000Y-103520000D03*
%TO.N,Net-(SU1-Pin_1)*%
X189027299Y-76797299D03*
X201532701Y-97612701D03*
X199720000Y-95650000D03*
X188500000Y-82740000D03*
X202970000Y-99840000D03*
%TO.N,Net-(J3-Pin_2)*%
X168500000Y-100975000D03*
X127575000Y-111200000D03*
X167500000Y-104625000D03*
%TO.N,Net-(J3-Pin_6)*%
X127200000Y-75675000D03*
X140750000Y-79150000D03*
X87350000Y-74450000D03*
%TO.N,Net-(R10-Pad1)*%
X192837299Y-106587701D03*
X122400000Y-102425000D03*
X123575000Y-109000000D03*
X205600000Y-104625000D03*
%TO.N,Net-(J3-Pin_4)*%
X69300000Y-98175000D03*
X116125000Y-94625000D03*
%TO.N,/+12V*%
X86662500Y-89912500D03*
%TO.N,Net-(IC4-C)*%
X250475000Y-74100000D03*
X250475000Y-75075000D03*
%TO.N,Net-(IC5-C)*%
X192650000Y-71150000D03*
X193525000Y-70175000D03*
%TO.N,Net-(IC6-C)*%
X256350000Y-95525000D03*
X256300000Y-94075000D03*
%TO.N,Net-(IC7-C)*%
X60200000Y-88525000D03*
X60200000Y-86675000D03*
%TO.N,Net-(IC8-C)*%
X66600000Y-88425000D03*
X66600000Y-89600000D03*
%TO.N,Net-(IC9-C)*%
X73675000Y-87475000D03*
X72625000Y-88550000D03*
%TO.N,Net-(IC11-C)*%
X44350000Y-68325000D03*
X45925000Y-68325000D03*
%TO.N,Net-(IC12-C)*%
X45450000Y-75750000D03*
X44175000Y-75750000D03*
%TO.N,Net-(IC13-C)*%
X47850000Y-78550000D03*
X47850000Y-79825000D03*
%TO.N,Net-(IC15-C)*%
X139975000Y-60275000D03*
X138900000Y-59675000D03*
%TO.N,Net-(IC16-C)*%
X145650000Y-67225000D03*
X144775000Y-67925000D03*
%TO.N,Net-(IC17-C)*%
X185825000Y-75925000D03*
X185075000Y-76725000D03*
%TO.N,Net-(IC18-C)*%
X245975000Y-85750000D03*
X244750000Y-84200000D03*
%TO.N,Net-(R3-Pad1)*%
X232699500Y-73575000D03*
X254625000Y-78150000D03*
%TO.N,Net-(R4-Pad1)*%
X253575000Y-71625000D03*
X233050000Y-71900000D03*
%TO.N,Net-(R5-Pad2)*%
X254900000Y-66150000D03*
X228550000Y-74075000D03*
%TO.N,Net-(R6-Pad2)*%
X242300000Y-82525000D03*
X226300000Y-77050000D03*
%TO.N,Net-(R11-Pad1)*%
X181475000Y-72375000D03*
X201700000Y-69075000D03*
%TO.N,Net-(R12-Pad1)*%
X219200000Y-72825000D03*
X250725000Y-102675000D03*
X237250000Y-82775000D03*
%TO.N,Net-(R13-Pad1)*%
X65625000Y-84925000D03*
X61175000Y-93475000D03*
%TO.N,Net-(R17-Pad2)*%
X65300000Y-82600000D03*
X36125000Y-64250000D03*
%TO.N,Net-(R18-Pad2)*%
X64600000Y-85200000D03*
X50200000Y-87425000D03*
%TO.N,Net-(R19-Pad2)*%
X36125000Y-78875000D03*
X52500000Y-82200000D03*
%TO.N,Net-(R21-Pad2)*%
X149600000Y-59250000D03*
X203850000Y-69625000D03*
%TO.N,Net-(R22-Pad2)*%
X142650000Y-72025000D03*
X203500000Y-75875000D03*
%TO.N,Net-(R23-Pad2)*%
X212700000Y-79200000D03*
X178800000Y-81400000D03*
%TO.N,Net-(R24-Pad2)*%
X243625000Y-94300000D03*
X215025000Y-83375000D03*
%TO.N,Net-(U1-DQU11)*%
X161300000Y-98100000D03*
X212825000Y-90499500D03*
%TO.N,Net-(J3-Pin_5)*%
X115600000Y-93025000D03*
X136725000Y-94175000D03*
X155600000Y-88794500D03*
%TO.N,Net-(J3-Pin_8)*%
X135000000Y-83450000D03*
X186075000Y-108725000D03*
X170375000Y-95625000D03*
X124675000Y-97875000D03*
X168600000Y-83900000D03*
X126675000Y-83600000D03*
X167000000Y-100400000D03*
X119675000Y-89375000D03*
%TO.N,Net-(J1-Pin_2)*%
X52825000Y-88625000D03*
%TO.N,Net-(J1-Pin_4)*%
X65662147Y-80637147D03*
%TO.N,Net-(J1-Pin_5)*%
X71900000Y-86325000D03*
%TO.N,Net-(J1-Pin_7)*%
X83525000Y-94300000D03*
X75225000Y-87425000D03*
%TO.N,Net-(J1-Pin_8)*%
X85525000Y-95425000D03*
X73925000Y-84850000D03*
%TO.N,Net-(J1-Pin_9)*%
X121925000Y-90900000D03*
X129450000Y-79225000D03*
X201850000Y-79829500D03*
%TO.N,Net-(J2-Pin_1)*%
X189600000Y-81450000D03*
X201325000Y-76750000D03*
X110750000Y-88150000D03*
X120200000Y-87625000D03*
X125375000Y-82725000D03*
X131949602Y-82100000D03*
X191500000Y-77930500D03*
%TO.N,Net-(J2-Pin_2)*%
X105025000Y-77650000D03*
X209462500Y-80912500D03*
X104475000Y-72450000D03*
X120250000Y-70100000D03*
%TO.N,Net-(J2-Pin_4)*%
X191100000Y-105350000D03*
X216525000Y-71650000D03*
X112600000Y-110975000D03*
X198475000Y-98075000D03*
%TO.N,Net-(J2-Pin_5)*%
X111075000Y-113225000D03*
X224775000Y-80425000D03*
X195575000Y-114825000D03*
X235450000Y-86175000D03*
%TO.N,Net-(J2-Pin_6)*%
X112175000Y-113550000D03*
X200150000Y-115775000D03*
X223775000Y-82150500D03*
X236275000Y-86877616D03*
%TO.N,Net-(J2-Pin_7)*%
X230675000Y-70055500D03*
X124975000Y-106225000D03*
X182400000Y-101300000D03*
%TO.N,Net-(J2-Pin_9)*%
X166425000Y-107349500D03*
X122500000Y-104325000D03*
X127550000Y-103475000D03*
%TO.N,Net-(J2-Pin_8)*%
X238975000Y-97950000D03*
X124250000Y-104600000D03*
%TO.N,Net-(J3-Pin_1)*%
X176950000Y-108200000D03*
%TO.N,Net-(J2-Pin_3)*%
X190950000Y-111100000D03*
X217300000Y-98000500D03*
X215725000Y-100150000D03*
X196925000Y-102375000D03*
X111700000Y-111925000D03*
X216750000Y-74125000D03*
%TO.N,Net-(J4-Pin_8)*%
X59400000Y-104375000D03*
%TD*%
D21*
%TO.N,Net-(SU1-Pin_1)*%
X193960841Y-86450000D02*
X193295841Y-87115000D01*
X201494159Y-87115000D02*
X200829159Y-86450000D01*
X199730000Y-95372358D02*
X201961368Y-93140990D01*
X199720000Y-95650000D02*
X199730000Y-95660000D01*
X199730000Y-95660000D02*
X199730000Y-95372358D01*
X202258947Y-92422570D02*
X202258947Y-87458947D01*
X192577400Y-86817440D02*
G75*
G03*
X193295841Y-87115000I718400J718440D01*
G01*
X192577420Y-86817420D02*
X188500000Y-82740000D01*
X201961393Y-93141015D02*
G75*
G03*
X202258947Y-92422570I-718493J718415D01*
G01*
X202212600Y-87412560D02*
G75*
G03*
X201494159Y-87115000I-718400J-718440D01*
G01*
X200829159Y-86450000D02*
X193960841Y-86450000D01*
X202258947Y-87458947D02*
X202212580Y-87412580D01*
%TO.N,Net-(J3-Pin_1)*%
X130325000Y-108200000D02*
X176950000Y-108200000D01*
X125275000Y-103150000D02*
X130325000Y-108200000D01*
X122099695Y-103150000D02*
X125275000Y-103150000D01*
X120924695Y-101975000D02*
X122099695Y-103150000D01*
X116525000Y-101975000D02*
X120924695Y-101975000D01*
X116525000Y-97675000D02*
X116525000Y-101975000D01*
X114600000Y-95750000D02*
X116525000Y-97675000D01*
X102000000Y-101850000D02*
X108100000Y-95750000D01*
X108100000Y-95750000D02*
X114600000Y-95750000D01*
X63800000Y-102000000D02*
X77813604Y-102000000D01*
X77813604Y-102000000D02*
X77963604Y-101850000D01*
X77963604Y-101850000D02*
X102000000Y-101850000D01*
X60960000Y-97790000D02*
X60960000Y-99160000D01*
X60960000Y-99160000D02*
X63800000Y-102000000D01*
%TO.N,+3.3V*%
X223725000Y-86950000D02*
X221225000Y-89450000D01*
D22*
X223900000Y-72575000D02*
X224850000Y-71625000D01*
D23*
X215650000Y-69925000D02*
X212600000Y-69925000D01*
X216150000Y-69525000D02*
X216050000Y-69525000D01*
D22*
X205650000Y-105900000D02*
X206114580Y-105900000D01*
X129229598Y-89379598D02*
X129229598Y-88970402D01*
X123650000Y-118300000D02*
X122500000Y-118450000D01*
D21*
X73550000Y-79550000D02*
X73850000Y-79550000D01*
D22*
X187625000Y-114000000D02*
X187625000Y-113585420D01*
D23*
X225325000Y-73100000D02*
X225325000Y-73875000D01*
D22*
X206473790Y-105751210D02*
X209950000Y-102275000D01*
X151208790Y-95198790D02*
X151680000Y-95670000D01*
X168523790Y-96323790D02*
X169400000Y-97200000D01*
X58400000Y-79900000D02*
X61050000Y-77250000D01*
X150075000Y-95050000D02*
X150849580Y-95050000D01*
D21*
X60525000Y-68800000D02*
X63975000Y-68800000D01*
D23*
X216050000Y-69525000D02*
X215650000Y-69925000D01*
D22*
X209100000Y-72425000D02*
X210075000Y-71450000D01*
D21*
X211500000Y-89025000D02*
X211500000Y-89050500D01*
D22*
X122500000Y-118450000D02*
X122525000Y-118300000D01*
D24*
X208625000Y-83625000D02*
X208625000Y-86150000D01*
D22*
X187773790Y-113226210D02*
X189350000Y-111650000D01*
D21*
X223700000Y-86975000D02*
X223700000Y-86950000D01*
D23*
X216150000Y-69425000D02*
X216150000Y-69525000D01*
D21*
X223700000Y-86950000D02*
X223725000Y-86950000D01*
D22*
X132125000Y-92275000D02*
X129229598Y-89379598D01*
D21*
X208950000Y-93500000D02*
X209400000Y-93500000D01*
D23*
X225250000Y-73950000D02*
X225325000Y-74025000D01*
D22*
X122548790Y-114351210D02*
X124625000Y-112275000D01*
X102300000Y-67925000D02*
X102300000Y-67285115D01*
D21*
X218781263Y-89175000D02*
X218625000Y-89175000D01*
X206725000Y-91175000D02*
X206675000Y-91225000D01*
X221225000Y-89450000D02*
X221275000Y-95000000D01*
X63975000Y-68800000D02*
X64125000Y-68950000D01*
D23*
X225325000Y-73875000D02*
X225250000Y-73950000D01*
X246130000Y-71490000D02*
X246240000Y-71380000D01*
D21*
X223900000Y-72625000D02*
X223900000Y-72575000D01*
D22*
X102448790Y-66925905D02*
X103600905Y-65773790D01*
D21*
X238700000Y-72825000D02*
X238750000Y-72825000D01*
D23*
X225325000Y-74025000D02*
X225325000Y-75525500D01*
D22*
X103960115Y-65625000D02*
X107375000Y-65625000D01*
X238750000Y-72825000D02*
X239975000Y-71600000D01*
D21*
X209100000Y-72725000D02*
X209100000Y-72425000D01*
D23*
X216750000Y-68825000D02*
X216150000Y-69425000D01*
D22*
X165100000Y-96175000D02*
X168164580Y-96175000D01*
D21*
X64125000Y-68950000D02*
X67150000Y-68950000D01*
D22*
X73850000Y-79550000D02*
X76750000Y-76650000D01*
D21*
X223600000Y-87075000D02*
X223700000Y-86975000D01*
D24*
X206675000Y-91225000D02*
X208950000Y-93500000D01*
X208625000Y-86150000D02*
X209200000Y-86725000D01*
D22*
X129500000Y-112450000D02*
X123650000Y-118300000D01*
X57725000Y-79900000D02*
X58400000Y-79900000D01*
D21*
X67150000Y-68950000D02*
X67325000Y-68775000D01*
X221275000Y-95000000D02*
X221225000Y-94900000D01*
X222108707Y-86057976D02*
X219140473Y-89026210D01*
D24*
X209200000Y-86725000D02*
X211500000Y-89025000D01*
D21*
X222190169Y-86057976D02*
X221817425Y-86057976D01*
D23*
X225325000Y-75525500D02*
X223850500Y-77000000D01*
D22*
X117950000Y-114500000D02*
X122189580Y-114500000D01*
X134725000Y-112450000D02*
X129500000Y-112450000D01*
D21*
X222190169Y-86057976D02*
X222108707Y-86057976D01*
D24*
X206725000Y-89475000D02*
X206825000Y-91125000D01*
D22*
X132125000Y-92275000D02*
X132125000Y-91916171D01*
D24*
X206825000Y-91125000D02*
X206725000Y-91175000D01*
D22*
X187773780Y-113226200D02*
G75*
G03*
X187625000Y-113585420I359220J-359200D01*
G01*
D21*
X218781263Y-89175032D02*
G75*
G03*
X219140473Y-89026210I37J507832D01*
G01*
D22*
X151208800Y-95198780D02*
G75*
G03*
X150849580Y-95050000I-359200J-359220D01*
G01*
X168523800Y-96323780D02*
G75*
G03*
X168164580Y-96175000I-359200J-359220D01*
G01*
X103960115Y-65625011D02*
G75*
G03*
X103600905Y-65773790I-15J-507989D01*
G01*
X102448782Y-66925897D02*
G75*
G03*
X102300000Y-67285115I359218J-359203D01*
G01*
X122189580Y-114499985D02*
G75*
G03*
X122548790Y-114351210I20J507985D01*
G01*
X206114580Y-105899985D02*
G75*
G03*
X206473790Y-105751210I20J507985D01*
G01*
D21*
%TO.N,GND*%
X215314580Y-93825000D02*
X214425000Y-93825000D01*
D22*
X238175000Y-74375000D02*
X235625000Y-76925000D01*
X71350000Y-81100000D02*
X68975000Y-83475000D01*
X184651210Y-115698790D02*
X183250000Y-117100000D01*
X133675000Y-92435000D02*
X137090000Y-95850000D01*
X163550000Y-96175000D02*
X161723790Y-94348790D01*
X57725000Y-82475000D02*
X55050000Y-85150000D01*
X117950000Y-116050000D02*
X115485420Y-116050000D01*
X57725000Y-81450000D02*
X57725000Y-82475000D01*
D21*
X223900000Y-74175000D02*
X223900000Y-74275000D01*
D22*
X161426210Y-92826210D02*
X160700000Y-92100000D01*
X73550000Y-81100000D02*
X71350000Y-81100000D01*
X209100000Y-75139580D02*
X209100000Y-74275000D01*
X207225000Y-76675000D02*
X207773476Y-76675000D01*
X161575000Y-93989580D02*
X161575000Y-93185420D01*
X204411210Y-107598790D02*
X201650000Y-110360000D01*
X207773476Y-76675000D02*
X208997638Y-75450838D01*
X115126210Y-116198790D02*
X115050000Y-116275000D01*
D21*
X218625000Y-90725000D02*
X215673790Y-93676210D01*
X133675000Y-92275000D02*
X133675000Y-92435000D01*
D22*
X150223790Y-92526210D02*
X151625000Y-91125000D01*
X150075000Y-93500000D02*
X150075000Y-92885420D01*
X100876210Y-69623790D02*
X99175000Y-71325000D01*
D21*
X238700000Y-74375000D02*
X238175000Y-74375000D01*
D22*
X187625000Y-115550000D02*
X185010420Y-115550000D01*
X102300000Y-69475000D02*
X101235420Y-69475000D01*
D21*
X105220000Y-92510000D02*
X103300000Y-92510000D01*
D22*
X205650000Y-107450000D02*
X204770420Y-107450000D01*
X223900000Y-74275000D02*
X220450000Y-77725000D01*
D21*
X215314580Y-93824985D02*
G75*
G03*
X215673790Y-93676210I20J507985D01*
G01*
D22*
X208997642Y-75450841D02*
G75*
G03*
X209099999Y-75139580I-438442J316641D01*
G01*
X161575015Y-93989580D02*
G75*
G03*
X161723790Y-94348790I507985J-20D01*
G01*
X115485420Y-116050015D02*
G75*
G03*
X115126210Y-116198790I-20J-507985D01*
G01*
X204770420Y-107450015D02*
G75*
G03*
X204411210Y-107598790I-20J-507985D01*
G01*
X185010420Y-115550015D02*
G75*
G03*
X184651210Y-115698790I-20J-507985D01*
G01*
X161574985Y-93185420D02*
G75*
G03*
X161426210Y-92826210I-507985J20D01*
G01*
X101235420Y-69475015D02*
G75*
G03*
X100876210Y-69623790I-20J-507985D01*
G01*
X150223780Y-92526200D02*
G75*
G03*
X150075000Y-92885420I359220J-359200D01*
G01*
D21*
%TO.N,Net-(SAR4-Pin_1)*%
X136867580Y-80062420D02*
X143602421Y-73327579D01*
X162192580Y-72732420D02*
X164877421Y-70047579D01*
X136500000Y-85280000D02*
X136570000Y-85210000D01*
X165175000Y-69329159D02*
X165175000Y-67110000D01*
X136570000Y-85210000D02*
X136570000Y-80780841D01*
X144320841Y-73030000D02*
X161474159Y-73030000D01*
X136867560Y-80062400D02*
G75*
G03*
X136570000Y-80780841I718440J-718400D01*
G01*
X164877441Y-70047599D02*
G75*
G03*
X165175000Y-69329159I-718441J718399D01*
G01*
X144320841Y-73030029D02*
G75*
G03*
X143602421Y-73327579I-41J-1015971D01*
G01*
X161474159Y-73029971D02*
G75*
G03*
X162192580Y-72732420I41J1015971D01*
G01*
%TO.N,Net-(SAR5-Pin_1)*%
X150575000Y-72050000D02*
X150575000Y-71378604D01*
X158903604Y-63050000D02*
X163800000Y-63050000D01*
X165175000Y-61675000D02*
X165175000Y-60760000D01*
X163800000Y-63050000D02*
X165175000Y-61675000D01*
X150575000Y-71378604D02*
X158903604Y-63050000D01*
%TO.N,Net-(SAR6-Pin_1)*%
X162875555Y-74590000D02*
X149520000Y-74590000D01*
X168350000Y-67110000D02*
X168350000Y-69115555D01*
X168052420Y-69833976D02*
X163593975Y-74292421D01*
X162875555Y-74589968D02*
G75*
G03*
X163593975Y-74292421I45J1015968D01*
G01*
X168052442Y-69833998D02*
G75*
G03*
X168350000Y-69115555I-718442J718398D01*
G01*
%TO.N,Net-(SAR7-Pin_1)*%
X151970000Y-71040841D02*
X151970000Y-72130000D01*
X168350000Y-60760000D02*
X164427579Y-64682421D01*
X163709159Y-64980000D02*
X158030841Y-64980000D01*
X157312420Y-65277580D02*
X152267579Y-70322421D01*
X158030841Y-64980029D02*
G75*
G03*
X157312420Y-65277580I-41J-1015971D01*
G01*
X163709159Y-64979971D02*
G75*
G03*
X164427579Y-64682421I41J1015971D01*
G01*
X152267559Y-70322401D02*
G75*
G03*
X151970000Y-71040841I718441J-718399D01*
G01*
%TO.N,Net-(SAR8-Pin_1)*%
X146490000Y-82410000D02*
X149010000Y-79890000D01*
X161180000Y-77490000D02*
X158870841Y-77490000D01*
X158152420Y-77787580D02*
X156720000Y-79220000D01*
X145940000Y-82410000D02*
X146490000Y-82410000D01*
X158870841Y-77490029D02*
G75*
G03*
X158152420Y-77787580I-41J-1015971D01*
G01*
%TO.N,Net-(SAR9-Pin_1)*%
X154396710Y-71108790D02*
X153200000Y-72305500D01*
X158349248Y-58822580D02*
X153377420Y-58822580D01*
X151580000Y-66012669D02*
X151580000Y-67380000D01*
X158396828Y-58775000D02*
X158349248Y-58822580D01*
X155550000Y-70960000D02*
X154755920Y-70960000D01*
X184225000Y-60760000D02*
X184225000Y-60555000D01*
X151877579Y-60322421D02*
X151877579Y-65294249D01*
X182445000Y-58775000D02*
X158396828Y-58775000D01*
X184225000Y-60555000D02*
X182445000Y-58775000D01*
X153377420Y-58822580D02*
X151877579Y-60322421D01*
X154755920Y-70960015D02*
G75*
G03*
X154396710Y-71108790I-20J-507985D01*
G01*
X151877595Y-65294265D02*
G75*
G03*
X151580000Y-66012669I718405J-718435D01*
G01*
%TO.N,Net-(SAR11-Pin_1)*%
X182840000Y-86230841D02*
X182840000Y-86760000D01*
X187650000Y-81275000D02*
X187375000Y-81275000D01*
X187375000Y-81275000D02*
X183137579Y-85512421D01*
X183137559Y-85512401D02*
G75*
G03*
X182840000Y-86230841I718441J-718399D01*
G01*
%TO.N,Net-(SAR12-Pin_1)*%
X190575000Y-66348172D02*
X190575000Y-67110000D01*
X181060000Y-86775000D02*
X181060000Y-84160841D01*
X187225000Y-70460000D02*
X187225000Y-76075000D01*
X190575000Y-67110000D02*
X187225000Y-70460000D01*
X181357580Y-83442420D02*
X183290000Y-81510000D01*
X181357560Y-83442400D02*
G75*
G03*
X181060000Y-84160841I718440J-718400D01*
G01*
%TO.N,Net-(SAR13-Pin_1)*%
X195704159Y-58875000D02*
X192525000Y-58875000D01*
X190640000Y-60760000D02*
X190575000Y-60760000D01*
X192309159Y-79830000D02*
X197732420Y-74406739D01*
X163190000Y-79830000D02*
X192309159Y-79830000D01*
X192525000Y-58875000D02*
X190640000Y-60760000D01*
X197732420Y-60903261D02*
X195704159Y-58875000D01*
X197732420Y-74406739D02*
X197732420Y-60903261D01*
%TO.N,Net-(SAR14-Pin_1)*%
X190189497Y-73785503D02*
X190189497Y-70612642D01*
X180807580Y-75267580D02*
X181080000Y-75540000D01*
X190427580Y-70432420D02*
X193750000Y-67110000D01*
X188475000Y-75500000D02*
X190189497Y-73785503D01*
X160960000Y-80110000D02*
X165802421Y-75267579D01*
X166520841Y-74970000D02*
X180089159Y-74970000D01*
X166520841Y-74970029D02*
G75*
G03*
X165802421Y-75267579I-41J-1015971D01*
G01*
X190189498Y-70612644D02*
G75*
G03*
X190427580Y-70432420I-583998J1018844D01*
G01*
X180807600Y-75267560D02*
G75*
G03*
X180089159Y-74970000I-718400J-718440D01*
G01*
%TO.N,Net-(SAR15-Pin_1)*%
X179620000Y-64720000D02*
X181242421Y-63097579D01*
X181960841Y-62800000D02*
X191289159Y-62800000D01*
X164310000Y-75700000D02*
X167762421Y-72247579D01*
X168480841Y-71950000D02*
X177070000Y-71950000D01*
X160807580Y-79202420D02*
X164310000Y-75700000D01*
X192007580Y-62502420D02*
X193750000Y-60760000D01*
X159060000Y-79500000D02*
X160089159Y-79500000D01*
X191289159Y-62799971D02*
G75*
G03*
X192007580Y-62502420I41J1015971D01*
G01*
X168480841Y-71950029D02*
G75*
G03*
X167762421Y-72247579I-41J-1015971D01*
G01*
X181960841Y-62800029D02*
G75*
G03*
X181242421Y-63097579I-41J-1015971D01*
G01*
X160089159Y-79499971D02*
G75*
G03*
X160807580Y-79202420I41J1015971D01*
G01*
%TO.N,Net-(U1-DQL0)*%
X58000000Y-69700000D02*
X57575841Y-69700000D01*
X53325000Y-73950841D02*
X53325000Y-78000000D01*
X56857420Y-69997580D02*
X53622579Y-73232421D01*
X53622559Y-73232401D02*
G75*
G03*
X53325000Y-73950841I718441J-718399D01*
G01*
X57575841Y-69700029D02*
G75*
G03*
X56857420Y-69997580I-41J-1015971D01*
G01*
D25*
%TO.N,Net-(U1-DQL1)*%
X51825000Y-79899500D02*
X51825000Y-74426243D01*
X52122579Y-73707823D02*
X55052701Y-70777701D01*
X50800000Y-80924500D02*
X51825000Y-79899500D01*
X52122566Y-73707810D02*
G75*
G03*
X51825000Y-74426243I718634J-718490D01*
G01*
D21*
%TO.N,Net-(U1-DQL2)*%
X59725000Y-71225000D02*
X63777421Y-75277421D01*
X64075000Y-75995841D02*
X64075000Y-82225000D01*
X64074971Y-75995841D02*
G75*
G03*
X63777421Y-75277421I-1015971J41D01*
G01*
%TO.N,Net-(U1-DQL3)*%
X62850000Y-76345841D02*
X62850000Y-80275000D01*
X59775000Y-72850000D02*
X62552421Y-75627421D01*
X62849971Y-76345841D02*
G75*
G03*
X62552421Y-75627421I-1015971J41D01*
G01*
%TO.N,Net-(U1-DQL4)*%
X139489920Y-100114920D02*
X137625000Y-98250000D01*
X137625000Y-98250000D02*
X137300000Y-98250000D01*
X71875000Y-72500000D02*
X68772579Y-75602421D01*
X139787500Y-101187500D02*
X139787500Y-100833341D01*
X68475000Y-76320841D02*
X68475000Y-78850000D01*
X139787471Y-100833341D02*
G75*
G03*
X139489920Y-100114920I-1015971J41D01*
G01*
X68772559Y-75602401D02*
G75*
G03*
X68475000Y-76320841I718441J-718399D01*
G01*
%TO.N,Net-(U1-DQL5)*%
X66625000Y-81025000D02*
X66625000Y-78070841D01*
X67500000Y-76354159D02*
X67500000Y-72499500D01*
X66922580Y-77352420D02*
X67202421Y-77072579D01*
X67500000Y-72499500D02*
X67300000Y-72299500D01*
X67675000Y-82075000D02*
X66625000Y-81025000D01*
X67202441Y-77072599D02*
G75*
G03*
X67500000Y-76354159I-718441J718399D01*
G01*
X66922560Y-77352400D02*
G75*
G03*
X66625000Y-78070841I718440J-718400D01*
G01*
%TO.N,Net-(U11-Pad1)*%
X192353331Y-109124110D02*
X192242360Y-109290200D01*
X222875000Y-101500000D02*
X200395536Y-101500000D01*
X192242360Y-109290200D02*
X192165924Y-109474747D01*
X192165924Y-109474747D02*
X192126961Y-109670661D01*
X199677116Y-101797579D02*
X192422580Y-109052115D01*
X192125000Y-109770536D02*
X192125000Y-114750000D01*
X192422580Y-109052115D02*
X192353331Y-109124110D01*
X232025000Y-92175000D02*
X232025000Y-92350000D01*
X192126961Y-109670661D02*
X192125000Y-109770536D01*
X232025000Y-92350000D02*
X222875000Y-101500000D01*
X200395536Y-101500026D02*
G75*
G03*
X199677116Y-101797579I-36J-1015974D01*
G01*
%TO.N,Net-(U1-DQU8)*%
X208727420Y-82127420D02*
X205673790Y-79073790D01*
X210475000Y-82425000D02*
X209445841Y-82425000D01*
X205525000Y-78714580D02*
X205525000Y-69900000D01*
X205525015Y-78714580D02*
G75*
G03*
X205673790Y-79073790I507985J-20D01*
G01*
X208727400Y-82127440D02*
G75*
G03*
X209445841Y-82425000I718400J718440D01*
G01*
%TO.N,Net-(U1-DQU9)*%
X204350000Y-73850000D02*
X204350000Y-79004159D01*
X204647580Y-79722580D02*
X205725000Y-80800000D01*
X204350029Y-79004159D02*
G75*
G03*
X204647580Y-79722580I1015971J-41D01*
G01*
%TO.N,Net-(U1-DQU12)*%
X218350000Y-81500500D02*
X218350000Y-71575000D01*
X218900000Y-82050500D02*
X218350000Y-81500500D01*
%TO.N,Net-(U1-DQU13)*%
X219075000Y-74175000D02*
X219075000Y-79829159D01*
X222120841Y-82875000D02*
X229200000Y-82875000D01*
X229200000Y-82875000D02*
X229275000Y-82950000D01*
X219372580Y-80547580D02*
X221402421Y-82577421D01*
X221402401Y-82577441D02*
G75*
G03*
X222120841Y-82875000I718399J718441D01*
G01*
X219075029Y-79829159D02*
G75*
G03*
X219372580Y-80547580I1015971J-41D01*
G01*
%TO.N,Net-(U11-Pad4)*%
X233700000Y-94425000D02*
X233700000Y-83525000D01*
X217410841Y-109635000D02*
X218069159Y-109635000D01*
X215750000Y-110875000D02*
X216692421Y-109932579D01*
X233750000Y-83475000D02*
X233700000Y-83525000D01*
X233750000Y-80400000D02*
X233750000Y-83475000D01*
X218787580Y-109337420D02*
X233700000Y-94425000D01*
X233750000Y-80400000D02*
X233750000Y-73800000D01*
X233750000Y-73800000D02*
X233925000Y-73625000D01*
X217410841Y-109635029D02*
G75*
G03*
X216692421Y-109932579I-41J-1015971D01*
G01*
X218069159Y-109634971D02*
G75*
G03*
X218787580Y-109337420I41J1015971D01*
G01*
%TO.N,Net-(U15-Pad3)*%
X120650000Y-93300000D02*
X120750000Y-93200000D01*
X104542237Y-64125000D02*
X107379464Y-64125000D01*
X120650000Y-100800000D02*
X120650000Y-93300000D01*
X113325000Y-85425000D02*
X113250000Y-85500000D01*
X119297580Y-109877420D02*
X120675000Y-108500000D01*
X119000000Y-110950000D02*
X119000000Y-110595841D01*
X108097884Y-64422579D02*
X113027420Y-69352115D01*
X101885698Y-66360698D02*
X103823816Y-64422580D01*
X113325000Y-70070536D02*
X113325000Y-85425000D01*
X104542237Y-64125027D02*
G75*
G03*
X103823817Y-64422581I-37J-1015973D01*
G01*
X113324974Y-70070536D02*
G75*
G03*
X113027420Y-69352115I-1015974J36D01*
G01*
X119297560Y-109877400D02*
G75*
G03*
X119000000Y-110595841I718440J-718400D01*
G01*
X108097902Y-64422561D02*
G75*
G03*
X107379464Y-64125000I-718402J-718439D01*
G01*
%TO.N,Net-(A1E09-Pin_1)*%
X125010841Y-92950000D02*
X126629159Y-92950000D01*
X129910841Y-95390000D02*
X130510000Y-95390000D01*
X127347580Y-93247580D02*
X129192421Y-95092421D01*
X123850000Y-92210000D02*
X124292421Y-92652421D01*
X129192401Y-95092441D02*
G75*
G03*
X129910841Y-95390000I718399J718441D01*
G01*
X124292401Y-92652441D02*
G75*
G03*
X125010841Y-92950000I718399J718441D01*
G01*
X127347600Y-93247560D02*
G75*
G03*
X126629159Y-92950000I-718400J-718440D01*
G01*
%TO.N,Net-(B1-Pin_1)*%
X125350000Y-91825000D02*
X126514159Y-91825000D01*
X130120841Y-94590000D02*
X130789159Y-94590000D01*
X127232580Y-92122580D02*
X129402421Y-94292421D01*
X131507580Y-94887580D02*
X131840000Y-95220000D01*
X127232600Y-92122560D02*
G75*
G03*
X126514159Y-91825000I-718400J-718440D01*
G01*
X129402401Y-94292441D02*
G75*
G03*
X130120841Y-94590000I718399J718441D01*
G01*
X131507600Y-94887560D02*
G75*
G03*
X130789159Y-94590000I-718400J-718440D01*
G01*
%TO.N,Net-(B3-Pin_1)*%
X126197580Y-89597580D02*
X129752421Y-93152421D01*
X125030000Y-89300000D02*
X125479159Y-89300000D01*
X133357580Y-93747580D02*
X134690000Y-95080000D01*
X65690000Y-59320344D02*
X65690000Y-60240000D01*
X130470841Y-93450000D02*
X132639159Y-93450000D01*
X129752401Y-93152441D02*
G75*
G03*
X130470841Y-93450000I718399J718441D01*
G01*
X126197600Y-89597560D02*
G75*
G03*
X125479159Y-89300000I-718400J-718440D01*
G01*
X133357600Y-93747560D02*
G75*
G03*
X132639159Y-93450000I-718400J-718440D01*
G01*
%TO.N,Net-(B4-Pin_1)*%
X127475000Y-62645000D02*
X135427420Y-70597420D01*
X136022579Y-90822579D02*
X136900000Y-91700000D01*
X135725000Y-71315841D02*
X135725000Y-90104159D01*
X127475000Y-59700000D02*
X127475000Y-62645000D01*
X135725029Y-90104159D02*
G75*
G03*
X136022579Y-90822579I1015971J-41D01*
G01*
X135725029Y-71315841D02*
G75*
G03*
X135427420Y-70597420I-1015829J41D01*
G01*
%TO.N,Net-(B5-Pin_1)*%
X133952420Y-70492420D02*
X122640000Y-59180000D01*
X134359046Y-88300000D02*
X134219321Y-88160275D01*
X134300000Y-87754659D02*
X134300000Y-84449695D01*
X134300000Y-84449695D02*
X134250000Y-84399695D01*
X134525000Y-88300000D02*
X134359046Y-88300000D01*
X134250000Y-84399695D02*
X134250000Y-71210841D01*
X75215000Y-60240000D02*
X75215000Y-59420000D01*
X134249971Y-71210841D02*
G75*
G03*
X133952420Y-70492420I-1015971J41D01*
G01*
X134219315Y-88160273D02*
G75*
G03*
X134299999Y-87754659I-1037315J417173D01*
G01*
%TO.N,Net-(B6-Pin_1)*%
X132674102Y-89498702D02*
X132674102Y-70804943D01*
X121279159Y-59410000D02*
X119630000Y-59410000D01*
X132802700Y-89627300D02*
X132674102Y-89498702D01*
X132376522Y-70086522D02*
X121997579Y-59707579D01*
X132674071Y-70804943D02*
G75*
G03*
X132376522Y-70086522I-1015971J43D01*
G01*
X121997599Y-59707559D02*
G75*
G03*
X121279159Y-59410000I-718399J-718441D01*
G01*
%TO.N,Net-(B7-Pin_1)*%
X114120556Y-65003362D02*
X114192580Y-65072580D01*
X112675000Y-64775000D02*
X113474159Y-64775000D01*
X117477115Y-65072580D02*
X118449695Y-64100000D01*
X122925000Y-64100000D02*
X131175000Y-72350000D01*
X118449695Y-64100000D02*
X122925000Y-64100000D01*
X113769941Y-64815930D02*
X113954480Y-64892376D01*
X113954480Y-64892376D02*
X114120556Y-65003362D01*
X113574032Y-64776962D02*
X113769941Y-64815930D01*
X113474159Y-64775000D02*
X113574032Y-64776962D01*
X114192580Y-65072580D02*
X117477115Y-65072580D01*
X131175000Y-72350000D02*
X131175000Y-87875000D01*
%TO.N,Net-(B8-Pin_1)*%
X153280841Y-81170000D02*
X167150000Y-81170000D01*
X146277580Y-74587580D02*
X152562421Y-80872421D01*
X143990000Y-74290000D02*
X145559159Y-74290000D01*
X152562401Y-80872441D02*
G75*
G03*
X153280841Y-81170000I718399J718441D01*
G01*
X146277600Y-74587560D02*
G75*
G03*
X145559159Y-74290000I-718400J-718440D01*
G01*
%TO.N,Net-(B9-Pin_1)*%
X165532420Y-83822420D02*
X164870000Y-83160000D01*
X165830000Y-88510000D02*
X165830000Y-84540841D01*
X165829971Y-84540841D02*
G75*
G03*
X165532420Y-83822420I-1015971J41D01*
G01*
%TO.N,Net-(B10-Pin_1)*%
X201200000Y-87840000D02*
X200820000Y-88220000D01*
X168119159Y-90970000D02*
X166526243Y-90970000D01*
X199650000Y-88570000D02*
X171360841Y-88570000D01*
X200820000Y-88220000D02*
X200420841Y-88220000D01*
X199702420Y-88517580D02*
X199650000Y-88570000D01*
X170642420Y-88867580D02*
X168837579Y-90672421D01*
X165807822Y-90672420D02*
X164092701Y-88957299D01*
X200420841Y-88220029D02*
G75*
G03*
X199702420Y-88517580I-41J-1015971D01*
G01*
X168119159Y-90969971D02*
G75*
G03*
X168837579Y-90672421I41J1015971D01*
G01*
X171360841Y-88570029D02*
G75*
G03*
X170642420Y-88867580I-41J-1015971D01*
G01*
X165807801Y-90672441D02*
G75*
G03*
X166526243Y-90970000I718399J718441D01*
G01*
%TO.N,Net-(B11-Pin_1)*%
X160075000Y-88825000D02*
X160075000Y-88895000D01*
X163460841Y-91860000D02*
X169569159Y-91860000D01*
X170287580Y-91562420D02*
X171982421Y-89867579D01*
X160075000Y-88895000D02*
X162742420Y-91562420D01*
X172700841Y-89570000D02*
X200420000Y-89570000D01*
X162742400Y-91562440D02*
G75*
G03*
X163460841Y-91860000I718400J718440D01*
G01*
X172700841Y-89570029D02*
G75*
G03*
X171982421Y-89867579I-41J-1015971D01*
G01*
X169569159Y-91859971D02*
G75*
G03*
X170287580Y-91562420I41J1015971D01*
G01*
%TO.N,Net-(B12-Pin_1)*%
X163427018Y-92707580D02*
X162402299Y-93732299D01*
X172044695Y-91890000D02*
X171822274Y-92112421D01*
X176730000Y-91890000D02*
X172044695Y-91890000D01*
X171103854Y-92410000D02*
X164145439Y-92410000D01*
X164145439Y-92410028D02*
G75*
G03*
X163427018Y-92707580I-39J-1015972D01*
G01*
X171103854Y-92409967D02*
G75*
G03*
X171822274Y-92112421I46J1015967D01*
G01*
%TO.N,Net-(B13-Pin_1)*%
X175145000Y-93135000D02*
X165095841Y-93135000D01*
X175170000Y-93110000D02*
X175145000Y-93135000D01*
X164377420Y-93432580D02*
X163170000Y-94640000D01*
X219515000Y-59530344D02*
X219515000Y-60450000D01*
X165095841Y-93135029D02*
G75*
G03*
X164377420Y-93432580I-41J-1015971D01*
G01*
%TO.N,Net-(B14-Pin_1)*%
X164967783Y-94425000D02*
X165294433Y-94098350D01*
X164675000Y-94425000D02*
X164967783Y-94425000D01*
X165940841Y-93870000D02*
X173220000Y-93870000D01*
X165940841Y-93870015D02*
G75*
G03*
X165294433Y-94098350I4359J-1041485D01*
G01*
%TO.N,Net-(B15-Pin_1)*%
X171659159Y-94900000D02*
X166350000Y-94900000D01*
X172590000Y-95410000D02*
X172377579Y-95197579D01*
X172377599Y-95197559D02*
G75*
G03*
X171659159Y-94900000I-718399J-718441D01*
G01*
%TO.N,Net-(U15-Pad6)*%
X97722580Y-69782020D02*
X97989800Y-69514800D01*
X119225000Y-100750000D02*
X119225000Y-93100000D01*
X115325000Y-112350000D02*
X119225000Y-108450000D01*
X115325000Y-112750000D02*
X115325000Y-112350000D01*
X119225000Y-93100000D02*
X119150000Y-93025000D01*
X108500000Y-82475000D02*
X97722579Y-71697579D01*
X97425000Y-70979159D02*
X97425000Y-70500441D01*
X97425029Y-70979159D02*
G75*
G03*
X97722579Y-71697579I1015971J-41D01*
G01*
X97722560Y-69782000D02*
G75*
G03*
X97425000Y-70500441I718440J-718400D01*
G01*
%TO.N,Net-(U15-Pad8)*%
X117625000Y-92925000D02*
X117675000Y-92875000D01*
X106225000Y-78659500D02*
X106225000Y-72976341D01*
X114897580Y-111052420D02*
X117600000Y-108350000D01*
X105927420Y-72257920D02*
X104375000Y-70705500D01*
X114750000Y-114100000D02*
X114600000Y-113950000D01*
X114600000Y-113950000D02*
X114600000Y-111770841D01*
X117625000Y-100725000D02*
X117625000Y-92925000D01*
X114897560Y-111052400D02*
G75*
G03*
X114600000Y-111770841I718440J-718400D01*
G01*
X106224971Y-72976341D02*
G75*
G03*
X105927420Y-72257920I-1015971J41D01*
G01*
%TO.N,Net-(U15-Pad11)*%
X112200000Y-88650000D02*
X112155000Y-88605000D01*
X112155000Y-88695000D02*
X112200000Y-88650000D01*
X111857420Y-70307420D02*
X109350000Y-67800000D01*
X113825000Y-114975000D02*
X113825000Y-111345841D01*
X114122580Y-110627420D02*
X116225000Y-108525000D01*
X112155000Y-88605000D02*
X112155000Y-71025841D01*
X112154971Y-71025841D02*
G75*
G03*
X111857420Y-70307420I-1015971J41D01*
G01*
X114122560Y-110627400D02*
G75*
G03*
X113825000Y-111345841I718440J-718400D01*
G01*
%TO.N,Net-(U16-Pad3)*%
X173575000Y-111370500D02*
X172769290Y-112176210D01*
X203475000Y-86400000D02*
X205704159Y-86400000D01*
X173575000Y-111500000D02*
X173575000Y-111370500D01*
X172410080Y-112325000D02*
X163249500Y-112325000D01*
X206422580Y-86697580D02*
X209025000Y-89300000D01*
X178870841Y-103175000D02*
X184200000Y-103175000D01*
X175750000Y-105875000D02*
X178152421Y-103472579D01*
X163249500Y-112325000D02*
X163175000Y-112250500D01*
X206422600Y-86697560D02*
G75*
G03*
X205704159Y-86400000I-718400J-718440D01*
G01*
X172410080Y-112324985D02*
G75*
G03*
X172769290Y-112176210I20J507985D01*
G01*
X178870841Y-103175029D02*
G75*
G03*
X178152421Y-103472579I-41J-1015971D01*
G01*
%TO.N,Net-(U16-Pad6)*%
X183627621Y-95272379D02*
X179825000Y-99075000D01*
X172489290Y-106010710D02*
X177574500Y-100925500D01*
X161522275Y-102747580D02*
X164475905Y-105701210D01*
X132295841Y-102450000D02*
X160803854Y-102450000D01*
X198599799Y-94974799D02*
X184346042Y-94974799D01*
X129550000Y-104775000D02*
X131577421Y-102747579D01*
X177574500Y-100925500D02*
X177791784Y-100925500D01*
X206175000Y-93675000D02*
X203450000Y-93675000D01*
X167994920Y-106159500D02*
X172130080Y-106159500D01*
X121697579Y-108352421D02*
X122202420Y-107847580D01*
X119526989Y-113323011D02*
X119526989Y-112595969D01*
X167475000Y-105850000D02*
X167635710Y-106010710D01*
X164835115Y-105850000D02*
X167475000Y-105850000D01*
X129450000Y-104775000D02*
X129550000Y-104775000D01*
X119822579Y-111977421D02*
X121102420Y-110697580D01*
X203450000Y-93675000D02*
X203325000Y-93550000D01*
X119525000Y-113325000D02*
X119526989Y-113323011D01*
X122920841Y-107550000D02*
X128050000Y-107550000D01*
X128050000Y-107550000D02*
X128400000Y-107900000D01*
X121400000Y-109979159D02*
X121400000Y-109070841D01*
X119822593Y-111977435D02*
G75*
G03*
X119526989Y-112595969I739807J-733465D01*
G01*
X167635700Y-106010720D02*
G75*
G03*
X167994920Y-106159500I359200J359220D01*
G01*
X172130080Y-106159485D02*
G75*
G03*
X172489290Y-106010710I20J507985D01*
G01*
X132295841Y-102450029D02*
G75*
G03*
X131577421Y-102747579I-41J-1015971D01*
G01*
X122920841Y-107550029D02*
G75*
G03*
X122202420Y-107847580I-41J-1015971D01*
G01*
X121697559Y-108352401D02*
G75*
G03*
X121400000Y-109070841I718441J-718399D01*
G01*
X121102440Y-110697600D02*
G75*
G03*
X121400000Y-109979159I-718440J718400D01*
G01*
X164475897Y-105701218D02*
G75*
G03*
X164835115Y-105850000I359203J359218D01*
G01*
X161522298Y-102747557D02*
G75*
G03*
X160803854Y-102450000I-718398J-718443D01*
G01*
X184346042Y-94974829D02*
G75*
G03*
X183627621Y-95272379I-42J-1015971D01*
G01*
%TO.N,Net-(U16-Pad8)*%
X126699696Y-108700000D02*
X126522275Y-108522579D01*
X163676210Y-106476210D02*
X162473790Y-105273790D01*
X172314580Y-106625000D02*
X164035420Y-106625000D01*
X120725000Y-112325000D02*
X120725000Y-112700000D01*
X203975000Y-98275000D02*
X203975000Y-97950000D01*
X125803855Y-108225000D02*
X123370841Y-108225000D01*
X129400000Y-108700000D02*
X126699696Y-108700000D01*
X207997873Y-98000000D02*
X212550000Y-98000000D01*
X206388516Y-96811484D02*
X207279453Y-97702421D01*
X179075000Y-101650000D02*
X177920841Y-101650000D01*
X177202420Y-101947580D02*
X172673790Y-106476210D01*
X162114580Y-105125000D02*
X132020841Y-105125000D01*
X122652420Y-108522580D02*
X122575000Y-108600000D01*
X203975000Y-97950000D02*
X203112701Y-97087701D01*
X131302420Y-105422580D02*
X130600000Y-106125000D01*
X196970000Y-98295000D02*
X182900841Y-98295000D01*
X182182420Y-98592580D02*
X181675000Y-99100000D01*
X122277420Y-110772580D02*
X120725000Y-112325000D01*
X122575000Y-108600000D02*
X122575000Y-110054159D01*
X197368984Y-98693984D02*
X196970000Y-98295000D01*
X132020841Y-105125029D02*
G75*
G03*
X131302420Y-105422580I-41J-1015971D01*
G01*
X126522297Y-108522557D02*
G75*
G03*
X125803855Y-108225000I-718397J-718443D01*
G01*
X207279467Y-97702407D02*
G75*
G03*
X207997873Y-98000000I718433J718407D01*
G01*
X177920841Y-101650029D02*
G75*
G03*
X177202420Y-101947580I-41J-1015971D01*
G01*
X182900841Y-98295029D02*
G75*
G03*
X182182420Y-98592580I-41J-1015971D01*
G01*
X123370841Y-108225029D02*
G75*
G03*
X122652420Y-108522580I-41J-1015971D01*
G01*
X162473800Y-105273780D02*
G75*
G03*
X162114580Y-105125000I-359200J-359220D01*
G01*
X122277440Y-110772600D02*
G75*
G03*
X122575000Y-110054159I-718440J718400D01*
G01*
X172314580Y-106624985D02*
G75*
G03*
X172673790Y-106476210I20J507985D01*
G01*
X163676200Y-106476220D02*
G75*
G03*
X164035420Y-106625000I359200J359220D01*
G01*
D24*
%TO.N,Net-(A1E11-Pin_1)*%
X48750000Y-63400000D02*
X63000000Y-63400000D01*
X45950000Y-60600000D02*
X46025000Y-60675000D01*
X63000000Y-63400000D02*
X65690000Y-66090000D01*
X46025000Y-60675000D02*
X48750000Y-63400000D01*
X44500000Y-60600000D02*
X45950000Y-60600000D01*
X65690000Y-66090000D02*
X65690000Y-66590000D01*
%TO.N,Net-(C1A11-Pin_1)*%
X78200000Y-87906000D02*
X78200000Y-88125000D01*
D21*
%TO.N,+SW*%
X109725000Y-117725000D02*
X65025000Y-117725000D01*
X63175000Y-105085000D02*
X55880000Y-97790000D01*
X65025000Y-117725000D02*
X64925000Y-117625000D01*
X63175000Y-116125000D02*
X63175000Y-105085000D01*
X157475000Y-77100000D02*
X158875000Y-75700000D01*
X64925000Y-117625000D02*
X64675000Y-117625000D01*
X64675000Y-117625000D02*
X63175000Y-116125000D01*
X158875000Y-75700000D02*
X162300000Y-75700000D01*
%TO.N,Net-(U16-Pad11)*%
X145500500Y-113475000D02*
X145625000Y-113599500D01*
X223250000Y-90400000D02*
X223250000Y-93275000D01*
X216150000Y-103520841D02*
X216150000Y-108225000D01*
X223250000Y-93275000D02*
X223300000Y-93325000D01*
X179734920Y-112000000D02*
X180400000Y-112000000D01*
X130325000Y-113550000D02*
X130400000Y-113475000D01*
X177825000Y-113699500D02*
X179375710Y-112148790D01*
X217025000Y-102225000D02*
X216447579Y-102802421D01*
X130400000Y-113475000D02*
X145500500Y-113475000D01*
X216447559Y-102802401D02*
G75*
G03*
X216150000Y-103520841I718441J-718399D01*
G01*
X179734920Y-112000015D02*
G75*
G03*
X179375710Y-112148790I-20J-507985D01*
G01*
%TO.N,Net-(U17-Pad8)*%
X179848290Y-116026710D02*
X180775000Y-115100000D01*
X129975000Y-116175500D02*
X179489080Y-116175500D01*
X179489080Y-116175485D02*
G75*
G03*
X179848290Y-116026710I20J507985D01*
G01*
%TO.N,Net-(U17-Pad11)*%
X176973790Y-117198790D02*
X177275000Y-117500000D01*
X175448798Y-114325000D02*
X132325000Y-114325000D01*
X174425000Y-117050000D02*
X176614580Y-117050000D01*
X176973800Y-117198780D02*
G75*
G03*
X176614580Y-117050000I-359200J-359220D01*
G01*
%TO.N,Net-(U1-DQL6)*%
X81000000Y-82400000D02*
X84279159Y-82400000D01*
X84997580Y-82102420D02*
X95975000Y-71125000D01*
X84279159Y-82399971D02*
G75*
G03*
X84997580Y-82102420I41J1015971D01*
G01*
%TO.N,Net-(U1-DQL7)*%
X79950000Y-77275000D02*
X79950000Y-73024000D01*
X108125000Y-66475000D02*
X108175000Y-66425000D01*
X108125000Y-71379159D02*
X108125000Y-66475000D01*
X108600000Y-72275000D02*
X108422579Y-72097579D01*
X78725000Y-78500000D02*
X79950000Y-77275000D01*
X108125029Y-71379159D02*
G75*
G03*
X108422579Y-72097579I1015971J-41D01*
G01*
%TO.N,Net-(U1-DQU14)*%
X226125000Y-88900000D02*
X226150000Y-88925000D01*
X223850000Y-88900000D02*
X226125000Y-88900000D01*
%TO.N,Net-(B2-Pin_1)*%
X125899159Y-90560000D02*
X125620000Y-90560000D01*
X129582420Y-93822420D02*
X126617579Y-90857579D01*
X131492719Y-94117719D02*
X130200997Y-94117719D01*
X131719159Y-94150000D02*
X131525000Y-94150000D01*
X131525000Y-94150000D02*
X131492719Y-94117719D01*
X133400000Y-95410000D02*
X132437579Y-94447579D01*
X129582411Y-93822429D02*
G75*
G03*
X130200997Y-94117718I731889J737629D01*
G01*
X126617599Y-90857559D02*
G75*
G03*
X125899159Y-90560000I-718399J-718441D01*
G01*
X132437599Y-94447559D02*
G75*
G03*
X131719159Y-94150000I-718399J-718441D01*
G01*
D24*
%TO.N,Net-(IC1-C)*%
X225865000Y-66800000D02*
X225865000Y-65985000D01*
X225865000Y-66740000D02*
X225600000Y-66475000D01*
X235390000Y-65760841D02*
X235390000Y-66800000D01*
X225865000Y-65985000D02*
X228277421Y-63572579D01*
X233622580Y-63572580D02*
X235092421Y-65042421D01*
X225865000Y-66800000D02*
X225865000Y-66740000D01*
X228995841Y-63275000D02*
X232904159Y-63275000D01*
X233622600Y-63572560D02*
G75*
G03*
X232904159Y-63275000I-718400J-718440D01*
G01*
X235389971Y-65760841D02*
G75*
G03*
X235092421Y-65042421I-1015971J41D01*
G01*
X228995841Y-63275029D02*
G75*
G03*
X228277421Y-63572579I-41J-1015971D01*
G01*
D21*
%TO.N,Net-(G1E09-Pin_1)*%
X138200000Y-76050000D02*
X138150000Y-76100000D01*
X138200000Y-72360000D02*
X138200000Y-76050000D01*
%TO.N,Net-(J1A11-Pin_1)*%
X177875000Y-67110000D02*
X179972421Y-69207421D01*
X185302580Y-69207420D02*
X187400000Y-67110000D01*
X169780000Y-103300000D02*
X169560000Y-103520000D01*
X169780000Y-101060000D02*
X169780000Y-103300000D01*
X180690841Y-69505000D02*
X184584159Y-69505000D01*
X184584159Y-69504971D02*
G75*
G03*
X185302580Y-69207420I41J1015971D01*
G01*
X179972401Y-69207441D02*
G75*
G03*
X180690841Y-69505000I718399J718441D01*
G01*
%TO.N,unconnected-(SS1-Pin_1-Pad1)*%
X181050000Y-60760000D02*
X181050000Y-59940000D01*
%TO.N,Net-(SU1-Pin_1)*%
X201532701Y-97612701D02*
X202672421Y-98752421D01*
X189027299Y-76797299D02*
X195352420Y-70472178D01*
X195352420Y-65577420D02*
X194782579Y-65007579D01*
X181612421Y-65007579D02*
X181347580Y-65272420D01*
X181050000Y-65990841D02*
X181050000Y-67110000D01*
X195650000Y-69753757D02*
X195650000Y-66295841D01*
X194064159Y-64710000D02*
X182330841Y-64710000D01*
X202970000Y-99470841D02*
X202970000Y-99840000D01*
X181347560Y-65272400D02*
G75*
G03*
X181050000Y-65990841I718440J-718400D01*
G01*
X182330841Y-64710017D02*
G75*
G03*
X181612421Y-65007579I59J-1016183D01*
G01*
X194782599Y-65007559D02*
G75*
G03*
X194064159Y-64710000I-718399J-718441D01*
G01*
X195649971Y-66295841D02*
G75*
G03*
X195352420Y-65577420I-1015971J41D01*
G01*
X195352441Y-70472199D02*
G75*
G03*
X195650000Y-69753757I-718441J718399D01*
G01*
X202969971Y-99470841D02*
G75*
G03*
X202672421Y-98752421I-1015971J41D01*
G01*
%TO.N,Net-(J3-Pin_2)*%
X174700000Y-67800000D02*
X174700000Y-67110000D01*
X110300305Y-118175000D02*
X110450000Y-118025305D01*
X65400000Y-116200000D02*
X65400000Y-104770000D01*
X65400000Y-104770000D02*
X58420000Y-97790000D01*
X168500000Y-100975000D02*
X168500000Y-103625000D01*
X121300305Y-118175000D02*
X110300305Y-118175000D01*
X127575000Y-111200000D02*
X127575000Y-111900305D01*
X168500000Y-103625000D02*
X167500000Y-104625000D01*
X109775000Y-116200000D02*
X65400000Y-116200000D01*
X110450000Y-116875000D02*
X109775000Y-116200000D01*
X110450000Y-118025305D02*
X110450000Y-116875000D01*
X127575000Y-111900305D02*
X121300305Y-118175000D01*
%TO.N,Net-(R10-Pad1)*%
X121425000Y-97850000D02*
X121425000Y-94883824D01*
X122400000Y-98825000D02*
X121425000Y-97850000D01*
X118075946Y-89502618D02*
X117960426Y-89435925D01*
X117764885Y-89400000D02*
X106487500Y-89400000D01*
X192837299Y-106587701D02*
X189473223Y-109951777D01*
X105140000Y-87922500D02*
X106487500Y-89270000D01*
X117831580Y-89401405D02*
X117764885Y-89400000D01*
X122359076Y-93949748D02*
X122282641Y-93765200D01*
X122102421Y-93527116D02*
X118124095Y-89548790D01*
X117960426Y-89435925D02*
X117831580Y-89401405D01*
X121425000Y-94883824D02*
X122359076Y-93949748D01*
X118124095Y-89548790D02*
X118075946Y-89502618D01*
X106575000Y-89400000D02*
X105290000Y-90685000D01*
X122171670Y-93599111D02*
X122102421Y-93527116D01*
X122400000Y-102425000D02*
X122400000Y-98825000D01*
X124526777Y-109951777D02*
X123575000Y-109000000D01*
X122282641Y-93765200D02*
X122171670Y-93599111D01*
X189473223Y-109951777D02*
X124526777Y-109951777D01*
%TO.N,Net-(J3-Pin_4)*%
X73074695Y-84125000D02*
X70450000Y-86749695D01*
X76575000Y-84125000D02*
X73074695Y-84125000D01*
X116125000Y-94625000D02*
X87075000Y-94625000D01*
X70450000Y-86749695D02*
X70450000Y-97025000D01*
X70450000Y-97025000D02*
X69300000Y-98175000D01*
X87075000Y-94625000D02*
X86912500Y-94462500D01*
X86912500Y-94462500D02*
X76575000Y-84125000D01*
%TO.N,/+12V*%
X86662500Y-89912500D02*
X88327420Y-88247580D01*
X98052949Y-87801210D02*
X99607869Y-86246290D01*
X91475000Y-87950000D02*
X97693739Y-87950000D01*
X88327420Y-88247580D02*
X91177420Y-88247580D01*
X99967079Y-86097500D02*
X105140000Y-86097500D01*
X91177420Y-88247580D02*
X91475000Y-87950000D01*
X97693739Y-87950027D02*
G75*
G03*
X98052949Y-87801210I-39J508027D01*
G01*
X99967079Y-86097486D02*
G75*
G03*
X99607869Y-86246290I21J-508014D01*
G01*
D24*
%TO.N,Net-(IC3-C)*%
X228700000Y-66800000D02*
X229040000Y-66800000D01*
%TO.N,Net-(IC4-C)*%
X250475000Y-74100000D02*
X250475000Y-72550000D01*
X250475000Y-72550000D02*
X247000000Y-69075000D01*
X247000000Y-69075000D02*
X223600000Y-69075000D01*
X222690000Y-68165000D02*
X222690000Y-66800000D01*
X222600000Y-67175000D02*
X222600000Y-66410305D01*
X250475000Y-75075000D02*
X250475000Y-74100000D01*
X223600000Y-69075000D02*
X222690000Y-68165000D01*
%TO.N,Net-(IC6-C)*%
X215600000Y-67540000D02*
X216340000Y-66800000D01*
%TO.N,Net-(IC9-C)*%
X79151828Y-66590000D02*
X78390000Y-66590000D01*
%TO.N,Net-(IC11-C)*%
X53325000Y-70400000D02*
X53425000Y-70500000D01*
X56165000Y-67760000D02*
X56165000Y-66590000D01*
X44350000Y-68325000D02*
X45925000Y-68325000D01*
X51025000Y-70400000D02*
X53325000Y-70400000D01*
X53425000Y-70500000D02*
X56165000Y-67760000D01*
X45925000Y-68325000D02*
X48950000Y-68325000D01*
X48950000Y-68325000D02*
X51025000Y-70400000D01*
%TO.N,Net-(IC15-C)*%
X94992358Y-56667642D02*
X87735000Y-63925000D01*
X139500000Y-60275000D02*
X138900000Y-59675000D01*
X138900000Y-59675000D02*
X135892642Y-56667642D01*
X86315000Y-63925000D02*
X84740000Y-65500000D01*
X139975000Y-60275000D02*
X139500000Y-60275000D01*
X84740000Y-65500000D02*
X84740000Y-66590000D01*
X135892642Y-56667642D02*
X94992358Y-56667642D01*
X87735000Y-63925000D02*
X86315000Y-63925000D01*
%TO.N,Net-(IC16-C)*%
X145475000Y-67225000D02*
X144775000Y-67925000D01*
X88485000Y-66590000D02*
X87915000Y-66590000D01*
X109475000Y-58075000D02*
X109525000Y-58125000D01*
X144775000Y-67925000D02*
X143100000Y-67925000D01*
X143100000Y-67925000D02*
X133300000Y-58125000D01*
X133300000Y-58125000D02*
X109525000Y-58125000D01*
X97000000Y-58075000D02*
X109475000Y-58075000D01*
X145650000Y-67225000D02*
X145475000Y-67225000D01*
X95712500Y-59362500D02*
X97000000Y-58075000D01*
X95712500Y-59362500D02*
X88485000Y-66590000D01*
D21*
%TO.N,Net-(R5-Pad2)*%
X250800000Y-75800000D02*
X254900000Y-71700000D01*
X249621170Y-75800000D02*
X250800000Y-75800000D01*
X228550000Y-74075000D02*
X231750000Y-70875000D01*
X244696170Y-70875000D02*
X249621170Y-75800000D01*
X254900000Y-71700000D02*
X254900000Y-66150000D01*
X231750000Y-70875000D02*
X244696170Y-70875000D01*
%TO.N,Net-(R12-Pad1)*%
X237250000Y-89200000D02*
X250725000Y-102675000D01*
X237250000Y-82775000D02*
X237250000Y-89200000D01*
%TO.N,Net-(R13-Pad1)*%
X63175000Y-91650000D02*
X63000000Y-91650000D01*
X65325000Y-85225000D02*
X65325000Y-89500000D01*
X65625000Y-84925000D02*
X65325000Y-85225000D01*
X63000000Y-91650000D02*
X61175000Y-93475000D01*
X65325000Y-89500000D02*
X63175000Y-91650000D01*
%TO.N,Net-(R17-Pad2)*%
X34300000Y-65450000D02*
X35500000Y-64250000D01*
X34400000Y-79775000D02*
X34300000Y-79775000D01*
X40875000Y-81675000D02*
X36300000Y-81675000D01*
X34300000Y-79775000D02*
X34300000Y-65450000D01*
X35500000Y-64250000D02*
X36125000Y-64250000D01*
X65300000Y-82600000D02*
X62025000Y-85875000D01*
X45075000Y-85875000D02*
X40875000Y-81675000D01*
X36300000Y-81675000D02*
X34400000Y-79775000D01*
X62025000Y-85875000D02*
X45075000Y-85875000D01*
%TO.N,Net-(R18-Pad2)*%
X64600000Y-85200000D02*
X62375000Y-87425000D01*
X62375000Y-87425000D02*
X50200000Y-87425000D01*
%TO.N,Net-(R19-Pad2)*%
X43300000Y-82200000D02*
X52500000Y-82200000D01*
X36125000Y-78875000D02*
X37600000Y-80350000D01*
X41450000Y-80350000D02*
X43300000Y-82200000D01*
X37600000Y-80350000D02*
X41450000Y-80350000D01*
%TO.N,Net-(R21-Pad2)*%
X150855000Y-65690041D02*
X151427579Y-65117462D01*
X149600000Y-66425305D02*
X150855000Y-67680305D01*
X203850000Y-66384445D02*
X203850000Y-69625000D01*
X151427579Y-65117462D02*
X151427579Y-60136025D01*
X153588604Y-57975000D02*
X195440555Y-57975000D01*
X151427579Y-60136025D02*
X153588604Y-57975000D01*
X150855000Y-67680305D02*
X150855000Y-65690041D01*
X195440555Y-57975000D02*
X203850000Y-66384445D01*
X149600000Y-59250000D02*
X149600000Y-66425305D01*
%TO.N,Net-(J3-Pin_5)*%
X136725000Y-92900305D02*
X136725000Y-94175000D01*
X152930195Y-88794500D02*
X148835695Y-84700000D01*
X148835695Y-84700000D02*
X140025000Y-84700000D01*
X155600000Y-88794500D02*
X152930195Y-88794500D01*
X140025000Y-89600305D02*
X136725000Y-92900305D01*
X140025000Y-84700000D02*
X140025000Y-89600305D01*
%TO.N,Net-(J3-Pin_8)*%
X185170000Y-102230000D02*
X181550841Y-102230000D01*
X180832420Y-101932420D02*
X175332579Y-96432579D01*
X185846672Y-102849413D02*
X185227259Y-102230000D01*
X167000000Y-100400000D02*
X167147421Y-100252579D01*
X124675000Y-97875000D02*
X124675000Y-94675305D01*
X174614159Y-96135000D02*
X171305841Y-96135000D01*
X119675000Y-89375000D02*
X120550000Y-89375000D01*
X174745841Y-97825000D02*
X176500000Y-97825000D01*
X120550000Y-89375000D02*
X120900000Y-89375000D01*
X120550000Y-90550305D02*
X120550000Y-89375000D01*
X186075000Y-108725000D02*
X186075000Y-103495841D01*
X170587420Y-95837420D02*
X170375000Y-95625000D01*
X124675000Y-94675305D02*
X120550000Y-90550305D01*
X167865841Y-99955000D02*
X171774159Y-99955000D01*
X120900000Y-89375000D02*
X126675000Y-83600000D01*
X172492580Y-99657420D02*
X174027421Y-98122579D01*
X171774159Y-99955029D02*
G75*
G03*
X172492580Y-99657420I41J1015829D01*
G01*
X175332599Y-96432559D02*
G75*
G03*
X174614159Y-96135000I-718399J-718441D01*
G01*
X167865841Y-99955029D02*
G75*
G03*
X167147421Y-100252579I-41J-1015971D01*
G01*
X186075010Y-103495841D02*
G75*
G03*
X185846671Y-102849414I-1041810J-4459D01*
G01*
X174745841Y-97825029D02*
G75*
G03*
X174027421Y-98122579I-41J-1015971D01*
G01*
X180832408Y-101932432D02*
G75*
G03*
X181550841Y-102230000I718492J718632D01*
G01*
X170587400Y-95837440D02*
G75*
G03*
X171305841Y-96135000I718400J718440D01*
G01*
%TO.N,Net-(J1-Pin_2)*%
X66825000Y-100475000D02*
X95150000Y-100475000D01*
X95150000Y-99160000D02*
X96520000Y-97790000D01*
X54975000Y-88625000D02*
X66825000Y-100475000D01*
X95150000Y-100475000D02*
X95150000Y-99160000D01*
X52825000Y-88625000D02*
X54975000Y-88625000D01*
%TO.N,Net-(J1-Pin_4)*%
X68975000Y-99525000D02*
X89705000Y-99525000D01*
X66025000Y-84250000D02*
X67875000Y-86100000D01*
X67875000Y-86100000D02*
X67875000Y-98425000D01*
X66025000Y-81000000D02*
X66025000Y-84250000D01*
X89705000Y-99525000D02*
X91440000Y-97790000D01*
X65662147Y-80637147D02*
X66025000Y-81000000D01*
X67875000Y-98425000D02*
X68975000Y-99525000D01*
%TO.N,Net-(J1-Pin_5)*%
X81950305Y-96175000D02*
X87285000Y-96175000D01*
X87285000Y-96175000D02*
X88900000Y-97790000D01*
X71900000Y-86325000D02*
X73550305Y-86325000D01*
X74400000Y-87174695D02*
X74400000Y-88624695D01*
X74400000Y-88624695D02*
X81950305Y-96175000D01*
X73550305Y-86325000D02*
X74400000Y-87174695D01*
%TO.N,Net-(J1-Pin_7)*%
X75225000Y-87425000D02*
X75425305Y-87425000D01*
X82300305Y-94300000D02*
X83525000Y-94300000D01*
X75425305Y-87425000D02*
X82300305Y-94300000D01*
%TO.N,Net-(J1-Pin_8)*%
X85525000Y-94205695D02*
X85525000Y-95425000D01*
X76169305Y-84850000D02*
X85525000Y-94205695D01*
X73925000Y-84850000D02*
X76169305Y-84850000D01*
%TO.N,Net-(J1-Pin_9)*%
X129450000Y-79225000D02*
X129450000Y-83375000D01*
X129450000Y-83375000D02*
X121925000Y-90900000D01*
%TO.N,Net-(J2-Pin_1)*%
X120475000Y-87625000D02*
X120200000Y-87625000D01*
X125375000Y-82725000D02*
X120475000Y-87625000D01*
%TO.N,Net-(J2-Pin_2)*%
X105025000Y-73000000D02*
X104475000Y-72450000D01*
X105025000Y-77650000D02*
X105025000Y-73000000D01*
%TO.N,Net-(J2-Pin_4)*%
X215919302Y-89356003D02*
X209188821Y-96086484D01*
X91440000Y-113030000D02*
X93225000Y-111245000D01*
X93225000Y-111245000D02*
X93225000Y-110975000D01*
X209188821Y-96086484D02*
X200463516Y-96086484D01*
X112525000Y-111050000D02*
X112600000Y-110975000D01*
X93225000Y-110975000D02*
X94700000Y-109500000D01*
X215919302Y-72255698D02*
X215919302Y-89356003D01*
X200463516Y-96086484D02*
X198475000Y-98075000D01*
X216525000Y-71650000D02*
X215919302Y-72255698D01*
X110950000Y-109500000D02*
X112525000Y-111075000D01*
X112525000Y-111075000D02*
X112525000Y-111050000D01*
X94700000Y-109500000D02*
X110950000Y-109500000D01*
%TO.N,Net-(J2-Pin_5)*%
X88900000Y-113030000D02*
X91045000Y-115175000D01*
X91045000Y-115175000D02*
X108149695Y-115175000D01*
X235225000Y-86400000D02*
X235225000Y-93536396D01*
X110350000Y-113950000D02*
X111075000Y-113225000D01*
X108149695Y-115175000D02*
X109374695Y-113950000D01*
X235225000Y-93536396D02*
X213936396Y-114825000D01*
X213936396Y-114825000D02*
X195575000Y-114825000D01*
X235450000Y-86175000D02*
X235225000Y-86400000D01*
X109374695Y-113950000D02*
X110350000Y-113950000D01*
%TO.N,Net-(J2-Pin_6)*%
X89080000Y-115750000D02*
X109975000Y-115750000D01*
X109975000Y-115750000D02*
X112175000Y-113550000D01*
X236275000Y-93122792D02*
X213622792Y-115775000D01*
X213622792Y-115775000D02*
X200150000Y-115775000D01*
X236275000Y-86877616D02*
X236275000Y-93122792D01*
X86360000Y-113030000D02*
X89080000Y-115750000D01*
%TO.N,Net-(J2-Pin_7)*%
X202803412Y-101046588D02*
X182653412Y-101046588D01*
X79750000Y-105100000D02*
X80875000Y-103975000D01*
X102025000Y-104150000D02*
X119463604Y-104150000D01*
X80875000Y-103975000D02*
X101850000Y-103975000D01*
X207675305Y-98525000D02*
X205325000Y-98525000D01*
X218900458Y-98749847D02*
X207900152Y-98749847D01*
X230675000Y-70924695D02*
X227825000Y-73774695D01*
X230675000Y-70055500D02*
X230675000Y-70924695D01*
X230000000Y-82649695D02*
X230000000Y-87650305D01*
X121538604Y-106225000D02*
X124975000Y-106225000D01*
X182653412Y-101046588D02*
X182400000Y-101300000D01*
X79750000Y-108960000D02*
X79750000Y-105100000D01*
X83820000Y-113030000D02*
X79750000Y-108960000D01*
X230000000Y-87650305D02*
X218900458Y-98749847D01*
X207900152Y-98749847D02*
X207675305Y-98525000D01*
X205325000Y-98525000D02*
X202803412Y-101046588D01*
X119463604Y-104150000D02*
X121538604Y-106225000D01*
X101850000Y-103975000D02*
X102025000Y-104150000D01*
X227825000Y-80474695D02*
X230000000Y-82649695D01*
X227825000Y-73774695D02*
X227825000Y-80474695D01*
%TO.N,Net-(J2-Pin_9)*%
X130900305Y-106850000D02*
X130275000Y-106850000D01*
X121375000Y-103200000D02*
X122500000Y-104325000D01*
X78740000Y-113030000D02*
X76850000Y-111140000D01*
X139474805Y-107349500D02*
X137850305Y-105725000D01*
X78150000Y-102300000D02*
X102750000Y-102300000D01*
X137850305Y-105725000D02*
X132025305Y-105725000D01*
X132025305Y-105725000D02*
X130900305Y-106850000D01*
X166425000Y-107349500D02*
X139474805Y-107349500D01*
X102750000Y-102300000D02*
X103650000Y-103200000D01*
X76850000Y-103600000D02*
X78150000Y-102300000D01*
X103650000Y-103200000D02*
X118600000Y-103200000D01*
X130275000Y-106850000D02*
X127550000Y-104125000D01*
X76850000Y-111140000D02*
X76850000Y-103600000D01*
X127550000Y-104125000D02*
X127550000Y-103475000D01*
X118600000Y-103200000D02*
X121375000Y-103200000D01*
%TO.N,Net-(J2-Pin_8)*%
X119650000Y-103700000D02*
X102975000Y-103700000D01*
X79200000Y-103200000D02*
X78300000Y-104100000D01*
X120000000Y-104050000D02*
X121000000Y-105050000D01*
X120000000Y-104050000D02*
X119650000Y-103700000D01*
X123800000Y-105050000D02*
X124250000Y-104600000D01*
X78300000Y-104100000D02*
X78300000Y-110050000D01*
X121000000Y-105050000D02*
X123800000Y-105050000D01*
X78300000Y-110050000D02*
X81280000Y-113030000D01*
X102475000Y-103200000D02*
X79200000Y-103200000D01*
X102975000Y-103700000D02*
X102475000Y-103200000D01*
%TO.N,Net-(J2-Pin_3)*%
X217525000Y-89349805D02*
X217525000Y-74900000D01*
X218125195Y-89950000D02*
X217525000Y-89349805D01*
X108449695Y-111300000D02*
X109449695Y-112300000D01*
X93980000Y-113030000D02*
X95710000Y-111300000D01*
X220050000Y-90897182D02*
X219102818Y-89950000D01*
X190950000Y-109500305D02*
X196925000Y-103525305D01*
X196925000Y-103525305D02*
X196925000Y-102375000D01*
X217300000Y-98000500D02*
X220050000Y-95250500D01*
X220050000Y-95250500D02*
X220050000Y-90897182D01*
X109449695Y-112300000D02*
X111325000Y-112300000D01*
X217525000Y-74900000D02*
X216750000Y-74125000D01*
X190950000Y-111100000D02*
X190950000Y-109500305D01*
X111325000Y-112300000D02*
X111700000Y-111925000D01*
X95710000Y-111300000D02*
X97800000Y-111300000D01*
X97800000Y-111300000D02*
X108449695Y-111300000D01*
X219102818Y-89950000D02*
X218125195Y-89950000D01*
%TO.N,Net-(J4-Pin_8)*%
X45225000Y-110500000D02*
X45225000Y-110985000D01*
X59400000Y-104375000D02*
X53275000Y-110500000D01*
X45225000Y-110985000D02*
X43180000Y-113030000D01*
X53275000Y-110500000D02*
X45225000Y-110500000D01*
%TD*%
M02*
