M48
; DRILL file {KiCad 7.0.8} date Fri Mar  6 14:37:56 2026
; FORMAT={-:-/ absolute / metric / decimal}
; #@! TF.CreationDate,2026-03-06T14:37:56-05:00
; #@! TF.GenerationSoftware,Kicad,Pcbnew,7.0.8
; #@! TF.FileFunction,Plated,1,4,PTH
FMAT,2
METRIC
; #@! TA.AperFunction,Plated,PTH,ViaDrill
T1C0.400
; #@! TA.AperFunction,Plated,PTH,ComponentDrill
T2C0.920
; #@! TA.AperFunction,Plated,PTH,ComponentDrill
T3C1.000
; #@! TA.AperFunction,Plated,PTH,ComponentDrill
T4C1.200
%
G90
G05
T1
X35.85Y-110.975
X36.125Y-64.25
X36.125Y-78.875
X36.45Y-112.6
X38.2Y-79.175
X38.2Y-113.275
X38.675Y-78.225
X38.825Y-71.925
X38.925Y-70.575
X39.075Y-63.075
X39.15Y-64.5
X44.175Y-75.75
X44.35Y-68.325
X44.5Y-60.6
X45.45Y-75.75
X45.925Y-68.325
X46.025Y-60.675
X46.65Y-104.875
X47.85Y-78.55
X47.85Y-79.825
X48.5Y-102.875
X50.05Y-102.975
X50.2Y-87.425
X50.4Y-85.075
X50.8Y-80.924
X51.675Y-85.075
X52.5Y-82.2
X52.825Y-88.625
X53.325Y-78.0
X55.05Y-84.175
X55.05Y-85.15
X55.053Y-70.778
X58.0Y-69.7
X59.4Y-104.375
X59.725Y-71.225
X59.775Y-72.85
X60.2Y-86.675
X60.2Y-88.525
X60.525Y-68.8
X61.05Y-77.25
X61.175Y-93.475
X62.25Y-94.625
X62.85Y-80.275
X63.475Y-94.8
X64.075Y-82.225
X64.125Y-68.95
X64.375Y-100.225
X64.6Y-85.2
X65.125Y-100.875
X65.3Y-82.6
X65.625Y-84.925
X65.662Y-80.637
X66.6Y-88.425
X66.6Y-89.6
X67.3Y-72.299
X67.325Y-68.775
X67.675Y-82.075
X68.275Y-84.275
X68.475Y-78.85
X68.6Y-94.575
X68.8Y-101.25
X68.975Y-83.475
X69.3Y-98.175
X69.45Y-76.875
X69.725Y-95.125
X70.575Y-101.275
X71.875Y-72.5
X71.9Y-86.325
X72.625Y-88.55
X73.65Y-101.275
X73.675Y-87.475
X73.925Y-84.85
X74.575Y-94.1
X74.85Y-101.25
X75.225Y-87.425
X75.525Y-94.05
X76.75Y-76.65
X78.175Y-88.725
X78.2Y-87.906
X78.725Y-78.5
X79.45Y-104.1
X79.95Y-73.024
X80.45Y-93.475
X81.0Y-82.4
X81.225Y-107.025
X81.425Y-94.45
X81.75Y-77.1
X82.925Y-77.1
X83.525Y-94.3
X83.8Y-86.35
X83.85Y-87.35
X85.525Y-95.425
X86.662Y-89.912
X87.35Y-74.45
X91.9Y-64.95
X92.9Y-63.877
X93.65Y-66.3
X93.675Y-82.25
X93.725Y-83.8
X94.25Y-64.275
X94.55Y-67.475
X95.45Y-69.525
X95.675Y-82.275
X95.675Y-83.95
X95.975Y-71.125
X96.325Y-67.575
X97.45Y-91.95
X97.99Y-69.515
X98.37Y-70.56
X99.175Y-71.325
X99.425Y-91.9
X101.886Y-66.361
X103.3Y-92.51
X103.625Y-68.35
X104.025Y-67.01
X104.1Y-69.5
X104.375Y-70.706
X104.475Y-72.45
X105.025Y-77.65
X106.225Y-78.659
X107.375Y-65.625
X108.175Y-66.425
X108.5Y-82.475
X108.6Y-72.275
X109.35Y-67.8
X109.675Y-113.225
X109.675Y-114.825
X109.725Y-117.725
X109.75Y-110.225
X109.75Y-111.575
X110.75Y-88.15
X110.925Y-65.225
X111.075Y-113.225
X111.7Y-111.925
X112.175Y-113.55
X112.2Y-88.65
X112.6Y-110.975
X112.675Y-64.775
X113.25Y-85.5
X113.825Y-114.975
X113.975Y-117.0
X114.75Y-114.1
X115.05Y-116.275
X115.325Y-112.75
X115.6Y-93.025
X116.125Y-94.625
X116.225Y-108.525
X117.4Y-66.0
X117.6Y-108.35
X117.625Y-100.725
X117.675Y-92.875
X118.125Y-65.45
X118.85Y-64.825
X119.0Y-110.95
X119.15Y-93.025
X119.225Y-100.75
X119.225Y-108.45
X119.525Y-113.325
X119.63Y-59.41
X119.675Y-89.375
X120.2Y-87.625
X120.25Y-70.1
X120.65Y-100.8
X120.675Y-108.5
X120.725Y-112.7
X120.75Y-93.2
X121.925Y-90.9
X122.4Y-102.425
X122.5Y-104.325
X122.5Y-118.45
X122.64Y-59.18
X122.65Y-96.225
X123.575Y-109.0
X123.85Y-92.21
X123.875Y-94.975
X124.25Y-104.6
X124.625Y-112.275
X124.675Y-97.875
X124.975Y-106.225
X125.03Y-89.3
X125.35Y-91.825
X125.375Y-82.725
X125.62Y-90.56
X126.175Y-112.275
X126.675Y-83.6
X127.075Y-94.225
X127.2Y-75.675
X127.475Y-59.7
X127.55Y-103.475
X127.575Y-111.2
X128.4Y-107.9
X129.23Y-88.97
X129.4Y-108.7
X129.45Y-79.225
X129.45Y-104.775
X129.975Y-116.175
X130.325Y-113.55
X130.51Y-95.39
X130.6Y-106.125
X131.175Y-87.875
X131.84Y-95.22
X131.95Y-82.1
X132.325Y-114.325
X132.803Y-89.627
X133.05Y-112.475
X133.4Y-95.41
X133.525Y-87.125
X133.575Y-84.75
X133.575Y-85.925
X134.525Y-88.3
X134.69Y-95.49
X134.725Y-112.45
X135.0Y-83.45
X136.25Y-99.2
X136.5Y-85.28
X136.5Y-100.55
X136.725Y-94.175
X136.9Y-91.7
X137.075Y-107.025
X137.09Y-95.85
X137.3Y-98.25
X137.375Y-90.6
X137.525Y-93.175
X137.55Y-106.45
X137.925Y-101.575
X138.05Y-95.4
X138.15Y-76.1
X138.2Y-72.36
X138.35Y-94.175
X138.49Y-81.89
X138.9Y-59.675
X139.7Y-94.4
X139.787Y-101.188
X139.975Y-60.275
X140.75Y-79.15
X141.06Y-81.77
X142.65Y-72.025
X143.1Y-57.95
X143.99Y-74.29
X144.25Y-57.875
X144.775Y-67.925
X145.625Y-113.599
X145.65Y-67.225
X145.94Y-82.41
X148.95Y-103.225
X149.01Y-79.89
X149.52Y-74.59
X149.6Y-59.25
X150.475Y-101.55
X150.575Y-72.05
X150.6Y-63.425
X150.625Y-64.75
X151.25Y-100.7
X151.58Y-67.38
X151.625Y-91.125
X151.68Y-95.67
X151.97Y-72.13
X153.2Y-72.305
X154.675Y-106.55
X155.55Y-70.96
X155.6Y-88.794
X156.72Y-79.22
X156.8Y-85.55
X157.475Y-77.1
X158.925Y-101.115
X159.06Y-79.5
X159.35Y-93.625
X159.35Y-95.35
X159.825Y-90.775
X160.075Y-88.825
X160.2Y-92.775
X160.638Y-94.288
X160.7Y-92.1
X160.96Y-80.11
X161.18Y-77.49
X161.3Y-98.1
X162.3Y-75.7
X162.402Y-93.732
X162.475Y-88.174
X163.17Y-94.64
X163.175Y-112.25
X163.19Y-79.83
X163.275Y-101.05
X163.3Y-99.1
X164.093Y-88.957
X164.675Y-94.425
X164.7Y-99.9
X164.775Y-88.175
X164.87Y-83.16
X165.83Y-88.51
X166.35Y-94.9
X166.425Y-107.349
X166.6Y-87.35
X167.0Y-100.4
X167.15Y-81.17
X167.5Y-104.625
X168.5Y-100.975
X168.6Y-83.9
X168.9Y-76.025
X168.95Y-77.3
X169.0Y-81.5
X169.4Y-97.2
X169.56Y-103.52
X169.78Y-101.06
X169.95Y-111.2
X170.075Y-82.5
X170.375Y-95.625
X170.475Y-104.6
X171.575Y-111.2
X172.525Y-104.65
X172.59Y-95.41
X173.025Y-107.25
X173.22Y-93.87
X173.575Y-111.37
X174.2Y-106.3
X174.425Y-117.05
X175.17Y-93.11
X175.449Y-114.325
X175.6Y-104.6
X175.75Y-105.875
X176.73Y-91.89
X176.95Y-108.2
X177.07Y-71.95
X177.275Y-117.5
X177.792Y-100.925
X177.825Y-113.7
X178.8Y-81.4
X179.075Y-101.65
X179.62Y-64.72
X179.825Y-99.075
X180.4Y-112.0
X180.775Y-115.1
X180.85Y-82.025
X180.95Y-81.05
X181.06Y-86.775
X181.075Y-104.6
X181.08Y-75.54
X181.475Y-72.375
X181.675Y-99.1
X182.075Y-117.4
X182.3Y-104.925
X182.4Y-101.3
X182.84Y-86.76
X183.25Y-117.1
X183.29Y-81.51
X184.2Y-103.175
X185.075Y-76.725
X185.4Y-73.7
X185.825Y-75.925
X186.075Y-108.725
X186.475Y-72.825
X187.225Y-76.075
X187.65Y-81.275
X188.475Y-75.5
X188.5Y-82.74
X188.675Y-110.9
X188.975Y-109.125
X189.027Y-76.797
X189.35Y-111.65
X189.6Y-81.45
X189.725Y-108.475
X190.95Y-111.1
X191.1Y-105.35
X191.5Y-77.93
X192.125Y-114.75
X192.65Y-71.15
X192.837Y-106.588
X193.525Y-70.175
X193.675Y-93.15
X195.25Y-91.875
X195.575Y-114.825
X195.7Y-82.375
X195.8Y-83.6
X195.8Y-87.475
X196.925Y-102.375
X197.369Y-98.694
X198.475Y-98.075
X198.6Y-94.975
X199.72Y-95.65
X200.15Y-115.775
X200.42Y-89.57
X200.525Y-109.925
X201.2Y-87.84
X201.325Y-76.75
X201.533Y-97.613
X201.65Y-110.36
X201.7Y-69.075
X201.85Y-79.829
X202.97Y-99.84
X203.113Y-97.088
X203.325Y-93.55
X203.475Y-86.4
X203.5Y-75.875
X203.85Y-69.625
X203.975Y-98.275
X204.35Y-73.85
X205.525Y-69.9
X205.6Y-104.625
X205.725Y-80.8
X206.175Y-93.675
X206.389Y-96.811
X206.725Y-89.475
X206.825Y-91.125
X207.148Y-77.7
X207.225Y-76.675
X207.375Y-99.25
X208.625Y-83.625
X208.65Y-100.28
X209.025Y-89.3
X209.2Y-86.725
X209.4Y-93.5
X209.462Y-80.912
X209.95Y-102.275
X210.075Y-71.45
X210.475Y-82.425
X210.725Y-93.525
X211.5Y-89.05
X211.75Y-69.975
X212.55Y-98.0
X212.6Y-69.925
X212.7Y-79.2
X212.825Y-90.499
X213.875Y-94.75
X214.425Y-93.825
X215.025Y-83.375
X215.725Y-100.15
X215.75Y-110.875
X216.15Y-69.525
X216.15Y-108.225
X216.525Y-71.65
X216.75Y-68.825
X216.75Y-74.125
X216.8Y-89.049
X217.025Y-102.225
X217.225Y-90.35
X217.3Y-98.001
X218.35Y-71.575
X218.9Y-82.05
X219.075Y-74.175
X219.2Y-72.825
X219.325Y-91.8
X219.825Y-76.925
X220.45Y-77.725
X220.825Y-80.325
X221.05Y-81.025
X221.275Y-95.0
X221.471Y-85.946
X221.954Y-84.75
X222.19Y-86.058
X222.625Y-80.35
X222.625Y-81.25
X223.125Y-77.525
X223.25Y-90.4
X223.3Y-93.325
X223.7Y-86.95
X223.775Y-82.15
X223.85Y-88.9
X223.85Y-77.0
X224.775Y-80.425
X224.85Y-71.625
X225.25Y-73.95
X225.325Y-73.1
X225.713Y-90.463
X226.125Y-83.925
X226.15Y-88.925
X226.3Y-77.05
X226.325Y-82.15
X228.275Y-71.54
X228.325Y-70.35
X228.55Y-74.075
X229.275Y-82.95
X230.675Y-70.055
X232.025Y-92.175
X232.7Y-73.575
X233.05Y-71.9
X233.925Y-73.625
X235.45Y-86.175
X235.625Y-76.925
X236.275Y-86.878
X236.7Y-77.225
X237.25Y-82.775
X238.975Y-97.95
X239.975Y-71.6
X240.1Y-81.675
X241.0Y-80.825
X242.3Y-82.525
X242.9Y-78.775
X243.625Y-94.3
X243.9Y-77.825
X244.75Y-84.2
X245.975Y-85.75
X246.24Y-71.38
X246.275Y-70.35
X248.475Y-91.225
X249.6Y-92.275
X250.475Y-74.1
X250.475Y-75.075
X250.725Y-102.675
X252.675Y-80.2
X253.45Y-81.05
X253.575Y-71.625
X254.625Y-78.15
X254.9Y-66.15
X256.3Y-94.075
X256.35Y-95.525
X258.15Y-100.875
X259.025Y-67.375
X259.2Y-60.275
X259.25Y-101.825
X259.5Y-74.625
X259.65Y-68.425
X259.675Y-61.675
X259.925Y-75.675
T2
X52.99Y-60.24
X52.99Y-66.59
X56.165Y-60.24
X56.165Y-66.59
X59.34Y-60.24
X59.34Y-66.59
X62.515Y-60.24
X62.515Y-66.59
X65.69Y-60.24
X65.69Y-66.59
X68.865Y-60.24
X68.865Y-66.59
X72.04Y-60.24
X72.04Y-66.59
X75.215Y-60.24
X75.215Y-66.59
X78.39Y-60.24
X78.39Y-66.59
X81.565Y-60.24
X81.565Y-66.59
X84.74Y-60.24
X84.74Y-66.59
X87.915Y-60.24
X87.915Y-66.59
X158.825Y-60.76
X158.825Y-67.11
X162.0Y-60.76
X162.0Y-67.11
X165.175Y-60.76
X165.175Y-67.11
X168.35Y-60.76
X168.35Y-67.11
X171.525Y-60.76
X171.525Y-67.11
X174.7Y-60.76
X174.7Y-67.11
X177.875Y-60.76
X177.875Y-67.11
X181.05Y-60.76
X181.05Y-67.11
X184.225Y-60.76
X184.225Y-67.11
X187.4Y-60.76
X187.4Y-67.11
X190.575Y-60.76
X190.575Y-67.11
X193.75Y-60.76
X193.75Y-67.11
X206.815Y-60.45
X206.815Y-66.8
X209.99Y-60.45
X209.99Y-66.8
X213.165Y-60.45
X213.165Y-66.8
X216.34Y-60.45
X216.34Y-66.8
X219.515Y-60.45
X219.515Y-66.8
X222.69Y-60.45
X222.69Y-66.8
X225.865Y-60.45
X225.865Y-66.8
X229.04Y-60.45
X229.04Y-66.8
X232.215Y-60.45
X232.215Y-66.8
X235.39Y-60.45
X235.39Y-66.8
X238.565Y-60.45
X238.565Y-66.8
X241.74Y-60.45
X241.74Y-66.8
T3
X40.64Y-97.79
X40.64Y-113.03
X43.18Y-97.79
X43.18Y-113.03
X45.72Y-97.79
X45.72Y-113.03
X48.26Y-97.79
X48.26Y-113.03
X50.8Y-97.79
X50.8Y-113.03
X53.34Y-97.79
X53.34Y-113.03
X55.88Y-97.79
X55.88Y-113.03
X58.42Y-97.79
X58.42Y-113.03
X60.96Y-97.79
X60.96Y-113.03
X78.74Y-97.79
X78.74Y-113.03
X81.28Y-97.79
X81.28Y-113.03
X83.82Y-97.79
X83.82Y-113.03
X86.36Y-97.79
X86.36Y-113.03
X88.9Y-97.79
X88.9Y-113.03
X91.44Y-97.79
X91.44Y-113.03
X93.98Y-97.79
X93.98Y-113.03
X96.52Y-97.79
X96.52Y-113.03
X99.06Y-97.79
X99.06Y-113.03
T4
X109.75Y-101.125
X109.75Y-106.205
T0
M30
