%TF.GenerationSoftware,KiCad,Pcbnew,7.0.8*%
%TF.CreationDate,2026-03-06T14:37:51-05:00*%
%TF.ProjectId,1130MRAM,31313330-4d52-4414-9d2e-6b696361645f,rev?*%
%TF.SameCoordinates,Original*%
%TF.FileFunction,Soldermask,Bot*%
%TF.FilePolarity,Negative*%
%FSLAX46Y46*%
G04 Gerber Fmt 4.6, Leading zero omitted, Abs format (unit mm)*
G04 Created by KiCad (PCBNEW 7.0.8) date 2026-03-06 14:37:51*
%MOMM*%
%LPD*%
G01*
G04 APERTURE LIST*
G04 Aperture macros list*
%AMRoundRect*
0 Rectangle with rounded corners*
0 $1 Rounding radius*
0 $2 $3 $4 $5 $6 $7 $8 $9 X,Y pos of 4 corners*
0 Add a 4 corners polygon primitive as box body*
4,1,4,$2,$3,$4,$5,$6,$7,$8,$9,$2,$3,0*
0 Add four circle primitives for the rounded corners*
1,1,$1+$1,$2,$3*
1,1,$1+$1,$4,$5*
1,1,$1+$1,$6,$7*
1,1,$1+$1,$8,$9*
0 Add four rect primitives between the rounded corners*
20,1,$1+$1,$2,$3,$4,$5,0*
20,1,$1+$1,$4,$5,$6,$7,0*
20,1,$1+$1,$6,$7,$8,$9,0*
20,1,$1+$1,$8,$9,$2,$3,0*%
G04 Aperture macros list end*
%ADD10R,1.700000X1.700000*%
%ADD11O,1.700000X1.700000*%
%ADD12RoundRect,0.250000X-1.550000X0.650000X-1.550000X-0.650000X1.550000X-0.650000X1.550000X0.650000X0*%
%ADD13O,3.600000X1.800000*%
%ADD14C,4.300000*%
%ADD15RoundRect,0.250001X0.799999X0.799999X-0.799999X0.799999X-0.799999X-0.799999X0.799999X-0.799999X0*%
%ADD16RoundRect,0.225000X-0.250000X0.225000X-0.250000X-0.225000X0.250000X-0.225000X0.250000X0.225000X0*%
%ADD17RoundRect,0.250000X-0.450000X0.262500X-0.450000X-0.262500X0.450000X-0.262500X0.450000X0.262500X0*%
%ADD18RoundRect,0.225000X0.250000X-0.225000X0.250000X0.225000X-0.250000X0.225000X-0.250000X-0.225000X0*%
%ADD19RoundRect,0.225000X-0.225000X-0.250000X0.225000X-0.250000X0.225000X0.250000X-0.225000X0.250000X0*%
%ADD20RoundRect,0.225000X0.225000X0.250000X-0.225000X0.250000X-0.225000X-0.250000X0.225000X-0.250000X0*%
G04 APERTURE END LIST*
D10*
%TO.C,J1*%
X99060000Y-97790000D03*
D11*
X96520000Y-97790000D03*
X93980000Y-97790000D03*
X91440000Y-97790000D03*
X88900000Y-97790000D03*
X86360000Y-97790000D03*
X83820000Y-97790000D03*
X81280000Y-97790000D03*
X78740000Y-97790000D03*
%TD*%
D12*
%TO.C,J5*%
X109750000Y-101125000D03*
D13*
X109750000Y-106205000D03*
%TD*%
D14*
%TO.C,H2*%
X255900000Y-87725000D03*
%TD*%
D10*
%TO.C,J3*%
X60960000Y-97790000D03*
D11*
X58420000Y-97790000D03*
X55880000Y-97790000D03*
X53340000Y-97790000D03*
X50800000Y-97790000D03*
X48260000Y-97790000D03*
X45720000Y-97790000D03*
X43180000Y-97790000D03*
X40640000Y-97790000D03*
%TD*%
D10*
%TO.C,J2*%
X99060000Y-113030000D03*
D11*
X96520000Y-113030000D03*
X93980000Y-113030000D03*
X91440000Y-113030000D03*
X88900000Y-113030000D03*
X86360000Y-113030000D03*
X83820000Y-113030000D03*
X81280000Y-113030000D03*
X78740000Y-113030000D03*
%TD*%
D10*
%TO.C,J4*%
X60960000Y-113030000D03*
D11*
X58420000Y-113030000D03*
X55880000Y-113030000D03*
X53340000Y-113030000D03*
X50800000Y-113030000D03*
X48260000Y-113030000D03*
X45720000Y-113030000D03*
X43180000Y-113030000D03*
X40640000Y-113030000D03*
%TD*%
D14*
%TO.C,H1*%
X38750000Y-87725000D03*
%TD*%
D15*
%TO.C,A1E11*%
X52990000Y-66590000D03*
%TD*%
%TO.C,S10*%
X209990000Y-66800000D03*
%TD*%
D16*
%TO.C,C20*%
X223900000Y-72625000D03*
X223900000Y-74175000D03*
%TD*%
%TO.C,C13*%
X57725000Y-79900000D03*
X57725000Y-81450000D03*
%TD*%
D15*
%TO.C,SAR7*%
X168350000Y-60760000D03*
%TD*%
%TO.C,SAR4*%
X165175000Y-67110000D03*
%TD*%
%TO.C,H1A11*%
X162000000Y-67110000D03*
%TD*%
%TO.C,K1E11*%
X206815000Y-66800000D03*
%TD*%
%TO.C,B7*%
X81565000Y-60240000D03*
%TD*%
%TO.C,SAR8*%
X184225000Y-67110000D03*
%TD*%
%TO.C,SR1*%
X174700000Y-67110000D03*
%TD*%
%TO.C,S16*%
X232215000Y-66800000D03*
%TD*%
D17*
%TO.C,R10*%
X105220000Y-90685000D03*
X105220000Y-92510000D03*
%TD*%
D15*
%TO.C,S8*%
X84740000Y-66590000D03*
%TD*%
%TO.C,J1A09*%
X177875000Y-60760000D03*
%TD*%
%TO.C,C1A09*%
X72040000Y-60240000D03*
%TD*%
D18*
%TO.C,C27*%
X218625000Y-90725000D03*
X218625000Y-89175000D03*
%TD*%
D16*
%TO.C,C19*%
X209100000Y-72725000D03*
X209100000Y-74275000D03*
%TD*%
D15*
%TO.C,S9*%
X87915000Y-66590000D03*
%TD*%
%TO.C,SW1*%
X171525000Y-67110000D03*
%TD*%
%TO.C,M1A09*%
X225865000Y-60450000D03*
%TD*%
%TO.C,S2*%
X62515000Y-66590000D03*
%TD*%
D16*
%TO.C,C24*%
X238700000Y-72825000D03*
X238700000Y-74375000D03*
%TD*%
D15*
%TO.C,SAR11*%
X187400000Y-60760000D03*
%TD*%
%TO.C,B0*%
X56165000Y-60240000D03*
%TD*%
%TO.C,B2*%
X62515000Y-60240000D03*
%TD*%
D17*
%TO.C,R9*%
X105140000Y-86097500D03*
X105140000Y-87922500D03*
%TD*%
D16*
%TO.C,C25*%
X102300000Y-67925000D03*
X102300000Y-69475000D03*
%TD*%
%TO.C,C12*%
X73550000Y-79550000D03*
X73550000Y-81100000D03*
%TD*%
D15*
%TO.C,S3*%
X65690000Y-66590000D03*
%TD*%
%TO.C,S7*%
X81565000Y-66590000D03*
%TD*%
%TO.C,M1C09*%
X232215000Y-60450000D03*
%TD*%
%TO.C,S6*%
X78390000Y-66590000D03*
%TD*%
%TO.C,B9*%
X87915000Y-60240000D03*
%TD*%
%TO.C,H1D09*%
X171525000Y-60760000D03*
%TD*%
D16*
%TO.C,C21*%
X205650000Y-105900000D03*
X205650000Y-107450000D03*
%TD*%
D15*
%TO.C,SAR14*%
X193750000Y-67110000D03*
%TD*%
%TO.C,SAR9*%
X184225000Y-60760000D03*
%TD*%
%TO.C,SAR15*%
X193750000Y-60760000D03*
%TD*%
%TO.C,H1E09*%
X174700000Y-60760000D03*
%TD*%
%TO.C,M1D09*%
X235390000Y-60450000D03*
%TD*%
%TO.C,SAR12*%
X190575000Y-67110000D03*
%TD*%
%TO.C,J1A11*%
X177875000Y-67110000D03*
%TD*%
%TO.C,S13*%
X219515000Y-66800000D03*
%TD*%
%TO.C,B11*%
X213165000Y-60450000D03*
%TD*%
%TO.C,B15*%
X229040000Y-60450000D03*
%TD*%
%TO.C,B12*%
X216340000Y-60450000D03*
%TD*%
%TO.C,S1*%
X59340000Y-66590000D03*
%TD*%
%TO.C,S5*%
X75215000Y-66590000D03*
%TD*%
%TO.C,SAR13*%
X190575000Y-60760000D03*
%TD*%
%TO.C,B4*%
X68865000Y-60240000D03*
%TD*%
%TO.C,S11*%
X213165000Y-66800000D03*
%TD*%
%TO.C,B5*%
X75215000Y-60240000D03*
%TD*%
%TO.C,G1E09*%
X158825000Y-60760000D03*
%TD*%
%TO.C,S0*%
X56165000Y-66590000D03*
%TD*%
%TO.C,SAR10*%
X187400000Y-67110000D03*
%TD*%
D19*
%TO.C,C16*%
X132125000Y-92275000D03*
X133675000Y-92275000D03*
%TD*%
D15*
%TO.C,B10*%
X209990000Y-60450000D03*
%TD*%
%TO.C,SAR6*%
X168350000Y-67110000D03*
%TD*%
%TO.C,B14*%
X222690000Y-60450000D03*
%TD*%
%TO.C,S12*%
X216340000Y-66800000D03*
%TD*%
%TO.C,SAR5*%
X165175000Y-60760000D03*
%TD*%
D18*
%TO.C,C28*%
X187625000Y-115550000D03*
X187625000Y-114000000D03*
%TD*%
D15*
%TO.C,B8*%
X84740000Y-60240000D03*
%TD*%
%TO.C,B13*%
X219515000Y-60450000D03*
%TD*%
%TO.C,M1E09*%
X238565000Y-60450000D03*
%TD*%
%TO.C,S15*%
X229040000Y-66800000D03*
%TD*%
%TO.C,N1A09*%
X241740000Y-60450000D03*
%TD*%
%TO.C,G1E11*%
X158825000Y-67110000D03*
%TD*%
%TO.C,A1E09*%
X52990000Y-60240000D03*
%TD*%
%TO.C,S14*%
X222690000Y-66800000D03*
%TD*%
%TO.C,K1E09*%
X206815000Y-60450000D03*
%TD*%
%TO.C,S4*%
X68865000Y-66590000D03*
%TD*%
D18*
%TO.C,C17*%
X150075000Y-95050000D03*
X150075000Y-93500000D03*
%TD*%
D15*
%TO.C,SU1*%
X181050000Y-67110000D03*
%TD*%
%TO.C,N1A11*%
X241740000Y-66800000D03*
%TD*%
%TO.C,SS1*%
X181050000Y-60760000D03*
%TD*%
%TO.C,M1E11*%
X238565000Y-66800000D03*
%TD*%
%TO.C,C1A11*%
X72040000Y-66590000D03*
%TD*%
%TO.C,M1A11*%
X225865000Y-66800000D03*
%TD*%
%TO.C,B1*%
X59340000Y-60240000D03*
%TD*%
D16*
%TO.C,C26*%
X117950000Y-114500000D03*
X117950000Y-116050000D03*
%TD*%
D20*
%TO.C,C18*%
X165100000Y-96175000D03*
X163550000Y-96175000D03*
%TD*%
D15*
%TO.C,S17*%
X235390000Y-66800000D03*
%TD*%
%TO.C,SAR3*%
X162000000Y-60760000D03*
%TD*%
%TO.C,B3*%
X65690000Y-60240000D03*
%TD*%
%TO.C,B6*%
X78390000Y-60240000D03*
%TD*%
M02*
